<svg width="102" height="80" viewBox="0 0 102 80" fill="none" xmlns="http://www.w3.org/2000/svg">
<path d="M11.7793 12.5312C27.8869 16.8511 61.9613 25.0917 78.435 25.0917C97.6466 25.0917 103.901 15.7476 87.9385 11.4919C84.3679 10.5371 41.0553 3.00189 32.1297 1.93797C14.9432 -0.112811 -11.1539 6.3799 11.7793 12.5312Z" stroke="#1A1A1A" stroke-miterlimit="10" stroke-linecap="round" stroke-linejoin="round"/>
<path d="M9.17745 15.1378C26.7364 19.4534 61.9604 29.1935 78.4352 29.1935C105.79 29.1935 106.353 16.4157 90.3909 11.3166C86.8181 10.1724 43.6993 2.82665 34.7705 1.54866C26.2666 0.334891 14.1192 1.22328 7.33324 3.3447C-0.243726 5.71765 -2.58992 12.2468 9.17745 15.1378Z" stroke="#1A1A1A" stroke-miterlimit="10" stroke-linecap="round" stroke-linejoin="round"/>
<path d="M84.2951 54.5687C84.2951 54.5687 84.461 55.7878 83.7974 56.5553C83.1306 57.3259 81.8568 57.708 80.4183 58.9272C78.9755 60.142 79.7536 62.0033 78.2027 62.4518C76.6528 62.8992 76.8166 63.4761 76.3189 63.9867C75.8212 64.5015 75.4883 64.6953 74.7102 64.631C73.9363 64.5657 72.6059 63.4772 71.5548 63.5414C70.5026 63.6056 70.28 63.4761 69.2824 61.6833C68.2838 59.8883 67.6202 58.6692 67.1781 58.2871C66.734 57.9018 65.5716 57.5817 64.9079 56.5564C64.2411 55.5299 63.1344 54.1855 65.4613 54.5698C67.7872 54.954 68.6135 54.5045 69.6399 53.2244C70.6664 51.9421 71.7196 51.7494 72.2751 51.6852C72.8285 51.621 72.821 50.0208 74.0144 49.6987C75.21 49.3797 74.7102 48.0332 76.0417 48.0332C77.3732 48.0332 77.0403 49.4418 77.5369 49.5724C78.0368 49.6987 78.4788 50.3441 78.1449 51.4315C77.8131 52.5222 79.3094 51.9432 80.2513 52.1348C81.1932 52.3253 80.749 53.5444 81.25 53.8655C81.7477 54.1866 82.5226 55.0814 83.1894 54.6351C83.853 54.1845 84.2951 54.5687 84.2951 54.5687Z" stroke="#1A1A1A" stroke-miterlimit="10" stroke-linecap="round" stroke-linejoin="round"/>
<path d="M76.4385 63.8484C76.4385 63.8484 76.0403 64.9187 76.1249 66.6474C76.2073 68.3813 76.7328 70.5263 76.8977 72.1275C77.0668 73.7288 76.7339 75.4274 76.6525 75.4927C76.6525 75.4927 77.5613 78.8878 74.1833 78.8878C70.8053 78.8878 70.8063 76.2302 70.8063 76.2302C70.8063 76.2302 69.8569 73.3787 69.6396 71.8728C69.4202 70.3657 70.5548 66.52 70.3343 65.911C70.1149 65.3041 70.7068 64.04 69.995 62.8605" stroke="#1A1A1A" stroke-miterlimit="10" stroke-linecap="round" stroke-linejoin="round"/>
<path d="M83.9566 56.337C83.9566 56.337 81.9422 57.1976 80.9425 55.3705C80.9425 55.3705 80.5037 57.3881 79.1989 56.5382C77.8985 55.6894 78.4069 55.0494 76.9469 57.2928C75.487 59.5363 74.5943 58.7977 74.0142 56.718C73.4394 54.6341 73.2435 55.7023 71.4711 56.3381C69.7007 56.976 69.6129 54.8899 69.6129 54.8899C69.6129 54.8899 68.5629 56.535 67.2603 56.3381C65.9609 56.139 66.0701 56.6849 65.4878 56.6196C64.9088 56.5564 64.8242 56.4301 64.8242 56.4301" stroke="#1A1A1A" stroke-miterlimit="10" stroke-linecap="round" stroke-linejoin="round"/>
<path d="M80.175 59.1594C80.175 59.1594 78.5085 60.0178 77.4842 59.4088C76.4577 58.7987 76.082 58.3406 76.082 58.3406" stroke="#1A1A1A" stroke-miterlimit="10" stroke-linecap="round" stroke-linejoin="round"/>
<path d="M74.531 58.0309C74.531 58.0309 72.9651 59.4384 71.6368 59.4384C70.3085 59.4384 68.9342 58.3959 67.7793 59.0606" stroke="#1A1A1A" stroke-miterlimit="10" stroke-linecap="round" stroke-linejoin="round"/>
<path d="M77.2072 59.2377C77.2072 59.2377 76.7341 59.9826 76.429 61.4554C76.1251 62.9314 76.3059 63.8958 75.9238 64.3432" stroke="#1A1A1A" stroke-miterlimit="10" stroke-linecap="round" stroke-linejoin="round"/>
<path d="M72.6016 59.2377C72.6016 59.2377 73.4257 60.4247 73.2812 61.7915C73.1335 63.1541 72.6957 63.4152 73.4696 64.1484" stroke="#1A1A1A" stroke-miterlimit="10" stroke-linecap="round" stroke-linejoin="round"/>
<path d="M78.1292 51.8606C78.1292 51.8606 78.0371 52.6805 77.6208 54.0869C77.2055 55.4998 75.9863 58.0322 75.1847 58.0322C74.5328 58.0322 74.2342 56.127 74.1839 55.2097C74.0148 52.1989 72.9273 51.1178 72.7539 51.1135" stroke="#1A1A1A" stroke-miterlimit="10" stroke-linecap="round" stroke-linejoin="round"/>
<path d="M94.9903 26.78C94.9903 26.78 92.6045 36.6261 91.5502 41.6257C90.498 46.6242 88.7073 51.109 84.3125 54.8905" stroke="#1A1A1A" stroke-miterlimit="10" stroke-linecap="round" stroke-linejoin="round"/>
<path d="M7.97728 30.22C7.97728 30.22 8.03294 30.4126 8.71582 31.9903C9.39763 33.5723 9.28845 34.4457 9.67485 34.9145C10.0634 35.3876 9.95314 35.3234 10.4894 35.6862C11.0256 36.0501 11.6154 38.2069 12.9437 38.9336C14.2741 39.6615 16.7306 40.6826 16.7306 42.1586C16.7306 43.6325 15.2139 42.8404 15.2139 45.725C15.2139 48.6063 15.5275 50.7674 14.9195 52.4564C14.3116 54.14 13.4992 53.6305 12.355 54.5714C11.2097 55.5101 11.0599 56.7474 11.0599 56.7474C11.0599 56.7474 7.97728 57.8156 7.68294 56.407C7.38645 54.9974 7.71933 54.6966 7.55236 54.1411C7.38645 53.5877 7.1285 52.3044 8.49533 51.3668C9.86216 50.4259 12.0863 49.5022 11.9665 47.0062C11.8915 45.4713 10.544 45.0218 10.544 45.0218C10.544 45.0218 9.03157 45.4049 8.69762 44.4459C8.36368 43.4837 7.90557 43.9985 7.8467 43.184C7.79425 42.3705 7.12743 42.1821 7.66367 40.7286C8.19991 39.2751 8.53065 39.6369 8.29196 39.1038C8.05007 38.5708 7.1467 37.2875 7.01611 35.2163C6.88874 33.1442 6.87162 33.187 7.01611 31.9261C7.16596 30.6663 7.44104 30.3249 7.97728 30.22Z" stroke="#1A1A1A" stroke-miterlimit="10" stroke-linecap="round" stroke-linejoin="round"/>
<path d="M11.2178 52.9109C11.2178 52.9109 8.24867 53.5477 7.58398 54.7422" stroke="#1A1A1A" stroke-miterlimit="10" stroke-linecap="round" stroke-linejoin="round"/>
<path d="M8.36769 39.322C8.36769 39.322 8.73482 39.4686 8.73482 39.0405C8.73482 38.6123 7.40331 36.2854 7.66233 33.7637C7.92028 31.2441 7.75438 35.3649 9.39629 36.3271C11.0414 37.2872 11.355 38.8061 10.9857 39.5949C10.6154 40.388 12.1503 42.5865 13.7729 42.564C13.7729 42.564 10.1156 42.1359 12.5741 45.256C15.0284 48.3728 13.9592 48.9711 12.9605 50.81C11.963 52.6478 9.30852 53.5768 11.3229 55.907" stroke="#1A1A1A" stroke-miterlimit="10" stroke-linecap="round" stroke-linejoin="round"/>
<path d="M12.8442 45.6061C12.8442 45.6061 11.7739 45.026 10.543 45.0217" stroke="#1A1A1A" stroke-miterlimit="10" stroke-linecap="round" stroke-linejoin="round"/>
<path d="M65.0669 56.7778C65.0669 56.7778 41.9999 51.6647 16.6777 42.5636" stroke="#1A1A1A" stroke-miterlimit="10" stroke-linecap="round" stroke-linejoin="round"/>
<path d="M86.3321 52.9088C86.3321 52.9088 86.2529 53.6505 85.479 54.3976C84.7009 55.1458 84.6292 57.2597 84.8711 58.4339C85.1076 59.6134 85.7552 62.1523 87.8616 62.1523C88.7296 62.1523 88.7093 63.1552 88.7093 63.1552C88.7093 63.1552 88.248 63.2001 88.431 63.8819C88.431 63.8819 89.4842 63.9472 89.4842 62.1533C89.4842 60.3584 88.8024 59.8489 88.8024 59.8489C88.8024 59.8489 89.7615 58.1824 88.3026 57.218C88.3026 57.218 85.159 57.6269 85.5518 55.2132C85.7252 54.1332 86.9914 53.9074 87.4356 53.3305C87.8777 52.7557 88.0254 51.2583 88.5423 50.661C89.0582 50.0606 90.5375 49.8733 90.4454 48.7826C90.3534 47.6919 90.1746 46.5702 90.4679 45.6604" stroke="#1A1A1A" stroke-miterlimit="10" stroke-linecap="round" stroke-linejoin="round"/>
<path d="M88.8027 59.8463C88.8027 59.8463 86.1547 59.6612 85.6238 57.3257C85.0972 54.988 85.7009 54.7708 85.7009 54.7708" stroke="#1A1A1A" stroke-miterlimit="10" stroke-linecap="round" stroke-linejoin="round"/>
<path d="M88.431 63.8814C88.431 63.8814 88.1559 64.0752 88.0082 63.4576C87.8605 62.8368 87.8659 63.1204 87.1048 62.8592C86.346 62.6024 86.8266 61.9826 86.1597 62.0244C85.4951 62.065 85.4779 62.2588 85.053 61.3618C84.6291 60.4649 84.5553 59.7381 83.7054 59.7199C82.8545 59.6974 81.7542 59.9008 81.5391 58.1016" stroke="#1A1A1A" stroke-miterlimit="10" stroke-linecap="round" stroke-linejoin="round"/>
<path d="M56.0898 12.2342C56.0898 13.5678 56.7898 14.8704 57.8441 14.8704C58.8995 14.8704 59.7526 13.9317 59.7526 12.5949C59.7526 11.2602 59.1724 10.0325 57.8441 10.0325C56.7898 10.0325 56.0898 10.8962 56.0898 12.2342Z" stroke="#1A1A1A" stroke-miterlimit="10" stroke-linecap="round" stroke-linejoin="round"/>
<path d="M57.8574 14.3573C58.6147 14.3573 59.2286 13.489 59.2286 12.4179C59.2286 11.3467 58.6147 10.4784 57.8574 10.4784C57.1002 10.4784 56.4863 11.3467 56.4863 12.4179C56.4863 13.489 57.1002 14.3573 57.8574 14.3573Z" stroke="#1A1A1A" stroke-miterlimit="10" stroke-linecap="round" stroke-linejoin="round"/>
<path d="M5.67383 14.0117L7.97614 30.2199" stroke="#1A1A1A" stroke-miterlimit="10" stroke-linecap="round" stroke-linejoin="round"/>
</svg>
