<svg width="79" height="53" viewBox="0 0 79 53" fill="none" xmlns="http://www.w3.org/2000/svg">
<path d="M66.4495 43.9202C66.4495 43.9202 59.3199 40.6406 59.3199 33.9387C59.3199 31.6572 59.8902 30.0887 65.0236 30.0887C70.1569 30.0887 76.1458 34.6517 76.1458 39.2146V41.2109L77.9995 37.005C77.9995 37.005 74.2921 27.8472 64.4532 27.8472C54.6143 27.8472 54.7569 40.7843 66.0217 45.2047L66.4495 43.9202Z" stroke="#1A1A1A" stroke-miterlimit="10" stroke-linecap="round" stroke-linejoin="round"/>
<path d="M76.1457 41.211L71.2975 45.9165C71.2975 45.9165 67.3517 37.1716 59.9141 37.1716" stroke="#1A1A1A" stroke-miterlimit="10" stroke-linecap="round" stroke-linejoin="round"/>
<path d="M66.0219 45.2036L59.5447 51.6808C59.5447 51.6808 51.1922 45.4421 51.1922 41.5442C51.1922 39.9277 52.4756 39.1212 52.4756 37.1717C52.4756 35.2222 51.1922 33.7962 51.1922 33.7962L41.6385 27.8461C41.6385 27.8461 40.07 25.3833 41.6385 23.1018C43.207 20.8203 45.4885 20.5351 48.1978 22.2462C50.907 23.9574 61.6015 27.8461 61.6015 27.8461" stroke="#1A1A1A" stroke-miterlimit="10" stroke-linecap="round" stroke-linejoin="round"/>
<path d="M57.3112 32.7982C57.3112 32.7982 56.3267 30.1665 49.9101 27.8463C43.4934 25.526 41.3477 23.605 41.3477 23.605" stroke="#1A1A1A" stroke-miterlimit="10" stroke-linecap="round" stroke-linejoin="round"/>
<path d="M45.9162 21.1454C45.9162 21.1454 46.9143 17.2555 43.2069 17.2555C39.4995 17.2555 37.4701 24.0999 37.4701 26.2388C37.4701 28.3777 36.9328 31.087 40.3551 31.087C43.7773 31.087 43.2069 28.8237 43.2069 28.8237" stroke="#1A1A1A" stroke-miterlimit="10" stroke-linecap="round" stroke-linejoin="round"/>
<path d="M49.3292 22.8668C49.3292 22.8668 49.3394 11.2666 44.7765 11.2666C40.2135 11.2666 34.2246 19.8997 34.2246 27.8461C34.2246 35.7925 36.5415 36.4131 39.091 36.4131C41.6406 36.4131 44.8791 35.3625 46.0404 30.5873" stroke="#1A1A1A" stroke-miterlimit="10" stroke-linecap="round" stroke-linejoin="round"/>
<path d="M44.7759 11.2667L9.69815 1C9.69815 1 1 2.9963 1 15.5444C1 24.2426 3.85185 24.1719 3.85185 24.1719L37.4398 36.2398" stroke="#1A1A1A" stroke-miterlimit="10" stroke-linecap="round" stroke-linejoin="round"/>
</svg>
