<svg width="83" height="62" viewBox="0 0 83 62" fill="none" xmlns="http://www.w3.org/2000/svg">
<path d="M79.9546 32.9402L10.4023 45.9253V60.9999L79.9546 45.9253V32.9402Z" stroke="#1A1A1A" stroke-miterlimit="10" stroke-linecap="round" stroke-linejoin="round"/>
<path d="M81.1486 16.821L10.4023 26.821V42.9404L81.1486 30.2539V16.821Z" stroke="#1A1A1A" stroke-miterlimit="10" stroke-linecap="round" stroke-linejoin="round"/>
<path d="M10.4023 26.821V24.7314L79.9546 14.7314V16.9905" stroke="#1A1A1A" stroke-miterlimit="10" stroke-linecap="round" stroke-linejoin="round"/>
<path d="M10.403 59.6567L1 45.7761V12.4926L10.403 22.4926V24.7314L1 14.7314" stroke="#1A1A1A" stroke-miterlimit="10" stroke-linecap="round" stroke-linejoin="round"/>
<path d="M24.5797 9.49561L1 12.4926" stroke="#1A1A1A" stroke-miterlimit="10" stroke-linecap="round" stroke-linejoin="round"/>
<path d="M10.4023 22.4926L81.8949 12.4926L63.2382 4.58215L28.7629 8.96424" stroke="#1A1A1A" stroke-miterlimit="10" stroke-linecap="round" stroke-linejoin="round"/>
<path d="M24.5801 12.0448V2.99048L28.7616 6.97018V11.5469" stroke="#1A1A1A" stroke-miterlimit="10" stroke-linecap="round" stroke-linejoin="round"/>
<path d="M79.9551 12.4924V14.7312" stroke="#1A1A1A" stroke-miterlimit="10" stroke-linecap="round" stroke-linejoin="round"/>
<path d="M79.9551 29.8811V32.9402" stroke="#1A1A1A" stroke-miterlimit="10" stroke-linecap="round" stroke-linejoin="round"/>
<path d="M11.6855 42.7113V45.7179" stroke="#1A1A1A" stroke-miterlimit="10" stroke-linecap="round" stroke-linejoin="round"/>
<path d="M28.2541 6.48776C28.2541 6.48776 30.5526 7.56836 30.6517 5.67701C30.7508 3.78567 27.964 1 26.6708 1C25.3777 1 24.5801 1.59821 24.5801 2.99045" stroke="#1A1A1A" stroke-miterlimit="10" stroke-linecap="round" stroke-linejoin="round"/>
<path d="M50.6471 13.9899C51.7934 14.6323 51.6668 15.2998 50.3641 15.4741L18.9265 19.6878C17.625 19.8622 15.7779 19.2675 14.8214 18.3684L12.4083 16.095C11.4519 15.1947 11.7361 14.3159 13.0376 14.1404L41.2298 10.3613C42.5313 10.1869 44.5349 10.569 45.6811 11.2102L50.6471 13.9899Z" stroke="#1A1A1A" stroke-miterlimit="10" stroke-linecap="round" stroke-linejoin="round"/>
<path d="M28.9589 15.4274C30.223 15.4274 31.2478 15.004 31.2478 14.4817C31.2478 13.9594 30.223 13.536 28.9589 13.536C27.6947 13.536 26.6699 13.9594 26.6699 14.4817C26.6699 15.004 27.6947 15.4274 28.9589 15.4274Z" stroke="#1A1A1A" stroke-miterlimit="10" stroke-linecap="round" stroke-linejoin="round"/>
</svg>
