<svg width="92" height="59" viewBox="0 0 92 59" fill="none" xmlns="http://www.w3.org/2000/svg">
<path d="M68.891 2.82145C66.9614 1.22543 63.4302 0.549227 61.0464 1.3165L3.06155 19.9986C0.676629 20.7658 0.306653 22.6999 2.23622 24.296L23.1074 41.5459C25.037 43.1419 28.5671 43.8181 30.952 43.0509L88.938 24.3677C91.3218 23.6004 91.6929 21.6663 89.7633 20.0703L68.891 2.82145Z" stroke="#1A1A1A" stroke-miterlimit="10"/>
<path d="M1.00028 36.554C0.987759 37.2552 1.39302 38.0191 2.23657 38.7169L23.1077 55.9668C25.0373 57.5629 28.5674 58.2391 30.9524 57.4718L88.9383 38.7886C90.3021 38.3503 91.0079 37.5296 90.9999 36.6075" stroke="#1A1A1A" stroke-miterlimit="10"/>
<path d="M90.998 36.6039V22.1829" stroke="#1A1A1A" stroke-miterlimit="10"/>
<path d="M1 36.5517V22.183C1 22.183 8.68866 29.3685 25.5743 29.3685C54.034 29.3685 62.5719 3.56018 62.5719 3.56018" stroke="#1A1A1A" stroke-miterlimit="10"/>
<path d="M46.6813 33.9268C49.393 33.9268 51.5912 32.9233 51.5912 31.6853C51.5912 30.4474 49.393 29.4438 46.6813 29.4438C43.9697 29.4438 41.7715 30.4474 41.7715 31.6853C41.7715 32.9233 43.9697 33.9268 46.6813 33.9268Z" stroke="#1A1A1A" stroke-miterlimit="10"/>
</svg>
