<svg width="67" height="54" viewBox="0 0 67 54" fill="none" xmlns="http://www.w3.org/2000/svg">
<path d="M10.6543 11.5847C15.248 11.5847 18.9086 14.1814 18.9086 14.1814C24.9668 20.0393 34.3522 23.5008 46.8008 23.5008C59.2494 23.5008 65.9722 18.7079 65.9722 14.5808C65.9722 14.5808 67.7061 6.17201 44.005 3.06412C31.8056 1.46437 27.8286 1 27.8286 1L10.6543 11.5847ZM10.6543 11.5847V16.2316" stroke="#1A1A1A" stroke-miterlimit="10" stroke-linecap="round" stroke-linejoin="round"/>
<path d="M65.9707 20.5377C65.9707 24.6649 59.2469 29.4577 46.7993 29.4577C34.3518 29.4577 25.8195 25.2613 18.9071 20.4397C15.0068 17.7185 5.59367 13.7148 1 13.7148" stroke="#1A1A1A" stroke-miterlimit="10" stroke-linecap="round" stroke-linejoin="round"/>
<path d="M1.93359 37.1816C6.27804 37.1816 16.6892 41.1863 20.3764 43.9065C26.9139 48.727 33.4737 52.9245 45.246 52.9245C57.0193 52.9245 63.8294 46.4712 63.8294 42.344L65.9713 21.5857" stroke="#1A1A1A" stroke-miterlimit="10" stroke-linecap="round" stroke-linejoin="round"/>
<path d="M1.00195 13.7148L1.93389 37.1817" stroke="#1A1A1A" stroke-miterlimit="10" stroke-linecap="round" stroke-linejoin="round"/>
<path d="M22.7423 4.13458C22.7423 4.13458 20.1733 3.06311 19.0411 3.06311C17.909 3.06311 1.00195 13.3816 1.00195 13.3816" stroke="#1A1A1A" stroke-miterlimit="10" stroke-linecap="round" stroke-linejoin="round"/>
<path d="M65.9707 20.5378L65.9984 14.2123" stroke="#1A1A1A" stroke-miterlimit="10" stroke-linecap="round" stroke-linejoin="round"/>
</svg>
