<svg width="60" height="62" viewBox="0 0 60 62" fill="none" xmlns="http://www.w3.org/2000/svg">
<path d="M27.1177 57.7445C27.1177 59.5432 21.5593 61 14.704 61C7.84751 61 2.28906 59.5432 2.28906 57.7445" stroke="#1A1A1A" stroke-miterlimit="10"/>
<path d="M27.1189 21.2666C27.1189 23.1593 21.2722 24.6918 14.0604 24.6918C6.84736 24.6918 1.00195 23.1593 1.00195 21.2666" stroke="#1A1A1A" stroke-miterlimit="10"/>
<path d="M14.0584 8.66359C6.84541 8.66359 1 7.13111 1 5.23962" stroke="#1A1A1A" stroke-miterlimit="10"/>
<path d="M1 5.23966C1 2.70466 6.84541 1 14.0584 1C23.2497 1 24.6747 3.85738 30.7802 5.23966C36.8857 6.62195 55.8128 10.2865 55.8128 12.9314C55.8128 15.5763 54.7944 15.9841 49.5033 15.9841C44.2123 15.9841 27.1181 10.8958 27.1181 10.8958C27.1181 10.8958 17.3225 8.66485 14.0597 8.66485" stroke="#1A1A1A" stroke-miterlimit="10"/>
<path d="M1 21.2666V5.23962" stroke="#1A1A1A" stroke-miterlimit="10"/>
<path d="M27.1172 21.2666V10.8958" stroke="#1A1A1A" stroke-miterlimit="10"/>
<path d="M14.7042 15.984C14.7042 15.984 13.5136 10.323 27.1179 12.4221" stroke="#1A1A1A" stroke-miterlimit="10"/>
<path d="M4.61869 7.6012C4.61869 7.6012 4.07042 9.82604 6.66526 9.82604" stroke="#1A1A1A" stroke-miterlimit="10"/>
<path d="M2.28906 57.7444V22.7428" stroke="#1A1A1A" stroke-miterlimit="10"/>
<path d="M2.28906 24.1754C2.28906 24.1754 31.0863 30.4336 38.2602 32.5705" stroke="#1A1A1A" stroke-miterlimit="10"/>
<path d="M16.2812 41.5758C16.2812 41.5758 16.7392 40.2435 22.692 40.2435C28.6449 40.2435 38.2611 44.3232 39.6348 44.3232C41.0085 44.3232 41.0085 44.3232 41.0085 44.3232C41.0085 44.3232 42.7425 44.1327 42.7144 41.4036" stroke="#1A1A1A" stroke-miterlimit="10"/>
<path d="M27.1172 57.7447V40.7689" stroke="#1A1A1A" stroke-miterlimit="10"/>
<path d="M56.3731 45.1278C58.2711 42.679 59.2008 40.222 58.4498 39.6399C57.6987 39.0578 55.5513 40.571 53.6533 43.0198C51.7554 45.4686 50.8256 47.9256 51.5767 48.5077C52.3278 49.0898 54.4752 47.5766 56.3731 45.1278Z" stroke="#1A1A1A" stroke-miterlimit="10"/>
<path d="M50.757 33.4729C50.006 32.8905 48.4174 34.3436 46.5173 36.7968C44.6185 39.2451 43.0616 41.7019 43.8114 42.2844" stroke="#1A1A1A" stroke-miterlimit="10"/>
<path d="M48.1413 31.3748C47.3904 30.7923 45.2437 32.3041 43.3436 34.7572C41.4448 37.2056 40.518 39.6612 41.2678 40.2437" stroke="#1A1A1A" stroke-miterlimit="10"/>
<path d="M41.0091 39.5148C40.0163 40.5076 39.4082 38.9067 39.4082 38.9067C38.6585 38.323 39.5865 35.8686 41.4841 33.4203C43.3841 30.9671 45.5296 29.4566 46.2818 30.0379" stroke="#1A1A1A" stroke-miterlimit="10"/>
<path d="M51.5749 48.5067L41.2676 40.2435" stroke="#1A1A1A" stroke-miterlimit="10"/>
<path d="M58.4492 39.6394L48.1406 31.375" stroke="#1A1A1A" stroke-miterlimit="10"/>
<path d="M47.1872 31.3663C47.1872 31.3663 48.3326 27.609 46.2799 27.609C44.2273 27.609 37.5723 32.5703 37.5723 32.5703C37.5723 32.5703 37.5723 36.4632 37.5723 40.2437C37.5723 44.0243 39.6335 44.3234 39.6335 44.3234" stroke="#1A1A1A" stroke-miterlimit="10"/>
<path d="M46.2799 27.609L27.1172 21.2666" stroke="#1A1A1A" stroke-miterlimit="10"/>
</svg>
