<svg width="184" height="200" viewBox="0 0 184 200" fill="none" xmlns="http://www.w3.org/2000/svg">
<g style="mix-blend-mode:multiply">
<path d="M166.419 95.7477C166.419 91.045 162.801 83.4478 157.375 71.1495C151.948 58.8503 146.703 43.8373 146.522 42.3896C146.341 40.9444 141.639 37.6877 135.851 33.7092C130.064 29.7292 125.903 22.6755 123.008 20.8657C120.116 19.0583 101.485 13.6306 95.6963 12.9088C89.9096 12.1853 63.5031 7.48263 63.5031 7.48263L43.5128 0L24.5524 40.0259L15.1828 64.6107L0.986328 105.495L1.42644 104.321C1.42644 104.321 22.9869 114.415 34.382 119.296C45.7771 124.181 66.3006 134.682 69.7379 139.747C73.1736 144.811 85.0573 159.781 90.4532 164.042C101.373 172.668 126.807 183.986 138.383 187.24C149.588 190.392 181.13 199.424 183.142 200C179.995 181.218 166.419 99.9045 166.419 95.7477Z" fill="#E54E67"/>
</g>
</svg>
