<svg width="419" height="266" viewBox="0 0 419 266" fill="none" xmlns="http://www.w3.org/2000/svg">
<g style="mix-blend-mode:multiply">
<path d="M415.083 75.7466C407.127 72.4919 392.396 65.816 348.544 43.9245C322.069 30.7073 303.234 14.4438 303.234 14.4438C303.234 14.4438 275.864 0.932223 269.758 0.0817342C263.652 -0.768755 118.357 5.29844 118.357 5.29844C118.357 5.29844 63.7642 16.6205 42.6101 37.7761L0.707031 83.2626L174.555 251.695C174.555 251.695 182.632 246.632 189.622 244.221C196.614 241.81 205.051 238.555 205.051 238.555L232.645 266L259.826 254.508L285.509 237.332L318.256 214.408L352.643 191.406C352.643 191.406 355.717 188.633 356.262 186.523C356.803 184.414 368.133 185.197 370.002 183.269C371.872 181.341 379.644 179.623 383.262 168.323C386.878 157.022 395.014 136.77 400.258 127.549C405.501 118.328 418.79 91.9369 418.79 91.9369C418.79 91.9369 407.127 90.302 415.083 75.7466Z" fill="#E54E67"/>
</g>
</svg>
