<svg width="180" height="21" viewBox="0 0 180 21" fill="none" xmlns="http://www.w3.org/2000/svg">
<path d="M2.61015 2.6415C3.33582 2.6415 6.4708 2.75792 6.64563 2.75792C6.81966 2.75792 7.08071 3.01868 7.13899 3.16381C7.25474 3.59921 7.57407 4.29457 8.18398 5.71559C8.82264 7.19403 12.2195 14.2696 13.0601 15.8342C13.1184 15.9506 13.2924 15.9211 13.4672 15.5734L18.4886 5.57046C19.0986 4.29378 19.3883 3.68533 19.5344 3.19252C19.5632 3.01868 19.8825 2.75792 20.0565 2.75792C20.5499 2.75792 22.8722 2.61279 23.8006 2.61279C24.0904 2.61279 24.7299 2.72921 24.7299 3.16301C24.7299 3.42377 24.555 3.56891 23.8294 3.74355C22.0874 4.12073 21.6819 4.64225 21.6819 5.13506C21.6819 9.83273 21.8855 14.7903 22.0012 16.7337C22.0874 18.8501 22.6399 19.0821 23.8294 19.488C24.468 19.6914 24.7299 19.9521 24.7299 20.126C24.7299 20.4162 24.4393 20.6475 23.8876 20.6475C23.5388 20.6475 20.7814 20.4736 19.9975 20.4736C19.1265 20.4736 18.5756 20.5606 17.8787 20.5606C17.4141 20.5606 16.979 20.3572 16.979 20.0677C16.979 19.7488 17.3566 19.5454 17.9657 19.4003C19.0107 19.1108 19.1848 18.7911 19.2135 17.197C19.2422 16.4426 19.2422 10.0927 19.2422 7.30966C19.2422 7.10631 18.9237 7.25145 18.8934 7.30966C18.2843 8.41091 15.1493 15.1675 14.7142 16.0654C14.3653 16.7903 13.4664 18.8206 13.175 19.6611C12.9427 20.3572 12.5077 20.6762 12.1596 20.6762C11.8985 20.6762 11.6375 20.1834 11.4339 19.6906C11.0851 18.937 10.2444 16.5583 9.95385 15.8047C8.88011 13.166 7.05117 9.45475 6.20975 7.39578C6.18101 7.36708 5.9487 7.13501 5.91996 7.36707C5.65892 9.91884 5.39707 15.6595 5.39707 17.1388C5.39707 18.8788 5.77547 19.0526 7.13979 19.4003C7.80718 19.5454 7.92294 19.807 7.92294 20.0677C7.92294 20.3859 7.42958 20.5606 6.9937 20.5606C6.58736 20.5606 5.5719 20.4736 4.72968 20.4736C3.80124 20.4736 1.94356 20.6188 1.56596 20.6188C1.01432 20.6188 0.636719 20.4736 0.636719 20.0973C0.636719 19.8365 0.840288 19.6331 1.53642 19.4593C2.872 19.1403 3.48191 18.445 3.68468 17.2265C4.03275 15.2257 4.75841 6.72992 4.75841 6.03377C4.75841 4.38149 4.46863 4.06172 2.55188 3.71483C2.1168 3.65662 1.76873 3.45328 1.76873 3.25073C1.76793 2.93096 2.26129 2.6415 2.61015 2.6415Z" fill="white"/>
<path d="M36.0525 10.0927C36.4301 10.6437 36.5458 11.3981 36.5458 12.1222C36.5458 12.4411 36.0525 12.993 35.7627 12.993C35.5591 12.993 30.0444 13.0791 29.5215 13.0791C29.4352 13.0791 29.1151 13.2537 29.0576 13.3981C28.9411 13.6006 28.9123 14.1229 28.9123 14.2968C28.9123 16.8773 30.857 18.8493 33.3534 18.8493C34.4862 18.8493 35.7339 18.1244 36.2856 17.7472C36.4021 17.6603 36.6344 17.8047 36.6344 18.1244C36.6344 18.4442 36.4892 18.7624 36.2568 19.0231C35.1823 20.1539 33.6448 20.8214 32.1056 20.8214C28.4773 20.8214 26.416 18.3565 26.416 14.8191C26.416 12.4707 27.4905 10.4699 29.2317 9.33915C30.1896 8.7012 31.4095 8.35352 32.6285 8.35352C34.0208 8.35352 35.3556 8.96195 36.0525 10.0927ZM29.2596 11.7458C29.2309 11.8622 29.3762 12.0361 29.4344 12.0361C29.753 12.0648 30.7118 12.0935 31.5532 12.0935C32.6564 12.0935 33.992 12.0361 33.992 11.0496C33.992 10.1796 33.2951 9.39655 31.7567 9.39655C31.0311 9.39655 29.6364 10.2961 29.2596 11.7458Z" fill="white"/>
<path d="M48.7664 9.22352C48.8534 9.28173 49.0274 9.68762 49.0274 9.91968C49.0274 10.7315 48.5053 11.4276 48.099 11.4276C47.9529 11.4276 47.5178 11.1956 47.1122 10.7602C46.357 9.97789 45.4286 9.68762 44.3541 9.68762C43.5709 9.68762 42.961 10.0361 42.4094 10.6445C41.7412 11.3981 41.4227 12.5871 41.4227 14.0655C41.4227 17.1683 43.7154 18.7337 45.7184 18.7337C46.8217 18.7337 47.6343 18.4147 48.6219 17.516C48.7959 17.3709 49.144 17.5447 49.144 17.7768C49.144 18.067 49.0865 18.4442 48.7664 18.8788C47.8371 20.1842 46.1247 20.8222 44.4994 20.8222C43.0768 20.8222 41.7124 20.3294 40.6092 19.3142C39.826 18.6181 38.9551 16.9363 38.9551 15.0224C38.9551 12.4132 40.2611 10.5281 41.916 9.51299C43.3378 8.61428 44.5576 8.35352 45.7767 8.35352C47.7222 8.35352 48.534 8.96196 48.7664 9.22352Z" fill="white"/>
<path d="M62.4369 9.65912C63.1338 10.4127 63.5114 12.0076 63.5114 13.5442C63.5114 14.4716 63.5977 17.7778 63.5977 18.2124C63.5977 18.8503 63.7142 19.1111 64.6434 19.43C65.1081 19.5752 65.3691 19.8359 65.3691 20.0967C65.3691 20.4739 64.8462 20.5608 64.5269 20.5608C63.7437 20.5608 63.1913 20.4739 62.3794 20.4739C61.7695 20.4739 61.0438 20.5608 60.2599 20.5608C59.7665 20.5608 59.3889 20.3862 59.3889 20.0967C59.3889 19.9228 59.5925 19.7195 60.0571 19.5457C61.0151 19.2275 61.1891 18.9954 61.1891 17.9516C61.1891 17.2554 61.2179 14.1813 61.1891 12.9063C61.1604 12.065 60.9568 11.4278 60.5792 10.9342C60.1729 10.4414 59.2149 9.94858 58.3727 9.94858C57.0371 9.94858 56.3697 10.2381 55.7893 10.7899C55.7031 10.8473 55.4708 11.3401 55.4708 11.4852C55.4708 12.0945 55.4708 18.0098 55.5283 18.6765C55.5283 18.8798 55.8189 19.1693 56.515 19.5178C56.8639 19.6629 57.0962 19.808 57.0962 19.9532C57.0962 20.2713 56.7768 20.5624 56.3418 20.5624C55.8197 20.5624 54.9192 20.4755 54.1352 20.4755C53.3808 20.4755 52.3063 20.5624 51.8129 20.5624C51.2325 20.5624 50.9707 20.3591 50.9707 20.0983C50.9707 19.7793 51.2613 19.6342 51.7251 19.489C52.5673 19.2283 52.9441 18.9085 53.0032 18.2714C53.0607 17.7212 53.1773 16.6478 53.1773 10.2979C53.1773 6.32586 53.1198 5.10739 53.0607 4.2956C53.0032 3.60024 52.8579 3.39689 52.3646 3.13613C51.8999 2.84666 51.7251 2.5556 51.7251 2.41127C51.7251 2.1218 52.0157 1.91846 52.335 1.83074C52.7422 1.71432 53.6993 1.33793 54.3675 1.04846C54.7739 0.903327 54.9774 0.816406 55.2385 0.816406C55.355 0.816406 55.557 1.01975 55.557 2.15051C55.557 3.19435 55.4708 8.12327 55.4708 9.42866C55.4708 9.63121 55.6161 9.71813 55.6736 9.68942C55.9929 9.48607 56.7769 8.96456 57.6191 8.64479C58.229 8.41273 58.7223 8.35531 59.4767 8.35531C61.1013 8.35372 61.9148 9.04988 62.4369 9.65912Z" fill="white"/>
<path d="M75.7021 9.45587C76.2833 9.97739 76.6888 11.3402 76.6888 11.9494C76.6888 13.0515 76.5723 14.2692 76.5723 17.5163C76.5723 18.4732 77.0656 18.9373 77.6173 18.9373C77.8496 18.9373 78.3725 18.7914 78.604 18.6758C78.7206 18.6184 78.8651 18.9078 78.8651 19.1399C78.8651 19.2563 78.6623 19.8073 78.604 19.8935C78.1689 20.474 77.472 20.9381 76.4853 20.9381C75.7309 20.9381 74.8024 20.6478 74.4248 19.1399C74.4248 19.1112 74.1925 18.966 74.1342 18.9948C73.5243 19.4589 72.5671 20.0091 71.8989 20.3863C71.3768 20.6765 70.8835 20.8217 70.3606 20.8217C69.4896 20.8217 67.6032 19.7483 67.6032 17.3999C67.6032 16.7045 67.8347 16.2691 68.0383 16.0084C68.4742 15.4573 69.0833 15.1958 69.199 15.1671C72.1313 14.4709 73.4956 14.1232 74.1342 13.7756C74.2795 13.7174 74.4536 13.5148 74.4536 13.3402V12.2381C74.4536 11.9199 74.4536 11.7453 74.3665 11.4845C73.9602 10.3538 72.7124 9.86096 71.8127 9.86096C71.2028 9.86096 70.6224 10.1217 70.5059 10.2382C70.3893 10.3833 70.2736 10.7892 70.2161 11.6592C70.1866 11.9774 70.07 12.2094 69.955 12.2971C69.809 12.4135 69.2869 12.5292 69.1128 12.5292C68.8805 12.5292 68.1548 12.5005 67.8938 12.384C67.7485 12.3258 67.5449 12.0356 67.5449 11.9199C67.5449 11.4271 68.3872 10.5284 69.6349 9.65842C70.7382 8.93355 72.0738 8.35303 73.0605 8.35303C74.135 8.35382 74.8607 8.67279 75.7021 9.45587ZM74.1055 17.8935C74.1925 17.6909 74.3091 17.372 74.3378 17.0235L74.3665 15.1679C74.3665 15.0514 74.2213 14.994 74.1342 14.994C73.292 15.1392 71.6092 15.5443 71.028 15.7476C70.2153 16.0371 69.9542 16.3569 69.9542 17.0817C69.9542 18.0091 70.8252 18.8791 71.8989 18.8791C72.5384 18.8791 73.4676 18.5019 74.1055 17.8935Z" fill="white"/>
<path d="M81.5099 9.22363C82.0607 8.96287 82.8159 8.70212 83.3963 8.41105C83.7452 8.23721 84.0932 8.12158 84.1507 8.12158C84.2377 8.12158 84.6441 8.23802 84.6441 8.47007C84.6441 8.6152 84.6153 9.45569 84.5866 9.74595C84.5571 9.89108 84.7031 9.89109 84.7894 9.83288C85.6899 9.22364 87.0829 8.35444 88.9119 8.35444C90.3919 8.35444 91.1472 9.0793 91.5822 9.71725C92.0469 10.3839 92.4245 11.5729 92.4532 13.5736C92.4819 14.9946 92.4819 16.6182 92.5402 17.9228C92.5689 18.7641 92.7725 19.0248 93.2946 19.2856C93.962 19.5464 94.1656 19.8366 94.1656 20.0982C94.1656 20.3877 93.701 20.5623 93.3234 20.5623C92.9458 20.5623 92.0173 20.4754 91.1463 20.4754C90.3041 20.4754 89.6663 20.5623 89.3174 20.5623C88.9398 20.5623 88.5335 20.4754 88.5335 20.0982C88.5335 19.9244 88.6796 19.6923 89.1729 19.489C89.8978 19.2282 90.1014 18.9674 90.1301 18.2426C90.1596 16.8215 90.1596 15.5744 90.1596 14.2993C90.1596 12.1239 89.8978 11.2547 89.608 10.8775C89.3182 10.5003 88.737 10.0952 87.5475 10.0952C86.4443 10.0952 85.602 10.356 85.0504 10.7332C84.9929 10.7914 84.7024 11.1104 84.7024 11.458V18.1852C84.7024 18.6206 84.6728 18.9682 85.8344 19.4028C86.3565 19.6062 86.5888 19.8669 86.5888 20.099C86.5888 20.331 86.2982 20.5631 85.7753 20.5631C84.8173 20.5631 83.9464 20.4762 83.2502 20.4762C82.3505 20.4762 81.4213 20.5631 80.9567 20.5631C80.4346 20.5631 80.1152 20.418 80.1152 20.1277C80.1152 19.8382 80.4633 19.6062 80.7539 19.5185C82.0312 19.1126 82.2044 18.7649 82.234 18.127C82.3202 16.7354 82.408 14.56 82.408 11.6024C82.408 11.1391 82.1182 10.8201 81.3925 10.3847C81.0437 10.1239 80.9862 10.0075 80.9862 9.95009C80.9878 9.74515 81.2488 9.33926 81.5099 9.22363Z" fill="white"/>
<path d="M96.9241 9.28203C98.3746 8.75971 99.5657 8.32512 100.059 8.32512C100.176 8.32512 100.349 8.7023 100.349 8.78922V14.0945C100.378 17.8935 100.436 18.4445 100.465 18.7053C100.494 18.9373 100.611 19.2268 101.656 19.5171C102.062 19.6335 102.352 19.8942 102.352 20.1845C102.352 20.4453 101.888 20.5617 101.51 20.5617C100.9 20.5617 99.7102 20.4748 99.0715 20.4748C97.5915 20.4748 97.0398 20.5617 96.6327 20.5617C96.0523 20.5617 95.7617 20.3871 95.7617 20.1263C95.7617 19.8655 96.0523 19.6622 96.4586 19.5458C97.736 19.2276 97.7942 18.9956 97.91 17.8058C97.9675 17.1973 98.0265 15.2261 98.0265 13.5722C98.0265 12.9925 98.0265 11.4845 97.997 11.3107C97.9683 11.0786 97.7072 10.7597 96.865 10.2086C96.6614 10.0922 96.5465 9.74455 96.5465 9.62812C96.5465 9.48458 96.7492 9.33945 96.9241 9.28203ZM99.9712 2.69925C100.32 3.10594 100.465 3.65616 100.465 3.88821C100.465 5.04768 99.4491 5.54048 98.9262 5.54048C98.4904 5.54048 97.997 5.25102 97.6785 4.87383C97.5036 4.58437 97.3879 4.38102 97.3879 4.00383C97.3879 3.04692 98.0561 2.35156 99.0715 2.35156C99.4779 2.35156 99.7389 2.4967 99.9712 2.69925Z" fill="white"/>
<path d="M113.964 9.22352C114.051 9.28173 114.225 9.68762 114.225 9.91968C114.225 10.7315 113.703 11.4276 113.296 11.4276C113.15 11.4276 112.715 11.1956 112.31 10.7602C111.555 9.97789 110.626 9.68762 109.551 9.68762C108.768 9.68762 108.158 10.0361 107.607 10.6445C106.938 11.3981 106.62 12.5871 106.62 14.0655C106.62 17.1683 108.913 18.7337 110.916 18.7337C112.019 18.7337 112.832 18.4147 113.819 17.516C113.993 17.3709 114.341 17.5447 114.341 17.7768C114.341 18.067 114.284 18.4442 113.964 18.8788C113.034 20.1842 111.322 20.8222 109.696 20.8222C108.274 20.8222 106.91 20.3294 105.806 19.3142C105.023 18.6181 104.152 16.9363 104.152 15.0224C104.152 12.4132 105.458 10.5281 107.113 9.51299C108.535 8.61428 109.755 8.35352 110.974 8.35352C112.919 8.35352 113.731 8.96196 113.964 9.22352Z" fill="white"/>
<path d="M137.97 2.95969C138.696 3.16303 139.684 3.482 139.915 3.482C140.09 3.482 140.408 3.82968 140.408 4.00352C140.408 4.87351 140.641 6.43968 140.641 7.16374C140.641 7.97633 140.176 8.41012 139.799 8.41012C139.538 8.41012 139.392 8.09195 139.189 7.54013C138.811 6.35196 138.521 5.59759 137.418 4.87273C136.518 4.26349 135.415 3.82809 134.167 3.82809C132.86 3.82809 131.178 4.52424 130.191 5.65499C128.827 7.13343 128.158 9.42525 128.158 11.2809C128.158 13.3685 128.914 15.5431 129.755 16.7034C130.945 18.2975 133.007 19.3708 134.806 19.3708C135.56 19.3708 136.896 18.9362 137.563 18.5885C137.824 18.4434 138.434 17.8055 139.102 16.7329C139.625 15.8334 139.915 15.4865 140.206 15.4865C140.699 15.4865 140.786 15.9793 140.786 16.5886C140.786 16.8493 140.235 18.7632 140.206 19.3142C140.176 19.4306 139.886 19.8357 139.799 19.8939C138.812 20.358 136.199 20.996 134.284 20.996C131.062 20.996 127.811 20.0391 125.837 17.8358C124.559 16.4434 123.602 14.4427 123.602 11.8622C123.602 8.70199 125.023 6.06408 127.578 4.29458C128.884 3.39588 131.41 2.43897 134.487 2.43897C135.821 2.43817 137.128 2.72843 137.97 2.95969Z" fill="white"/>
<path d="M155.27 9.51311C155.967 10.2675 156.344 11.5721 156.403 13.3121C156.403 14.2403 156.519 17.6038 156.519 18.0384C156.519 18.6764 156.605 18.9667 157.535 19.2848C157.97 19.4308 158.318 19.7489 158.318 20.0097C158.318 20.3869 157.737 20.5607 157.418 20.5607C156.634 20.5607 155.56 20.4738 154.747 20.4738C154.137 20.4738 153.093 20.5607 152.309 20.5607C151.728 20.5607 151.408 20.154 151.408 19.9515C151.408 19.7768 151.641 19.5448 152.134 19.3709C152.744 19.1676 153.034 18.9363 153.034 17.7761C153.034 17.0807 153.063 14.1518 153.034 12.8759C153.005 12.0346 152.744 11.4836 152.366 10.9908C152.018 10.5562 151.119 10.2667 150.596 10.2667C149.667 10.2667 149.057 10.5274 148.709 10.8464C148.622 10.9333 148.477 11.4844 148.477 11.6C148.477 12.2092 148.506 17.5153 148.563 18.182C148.593 18.6748 148.767 18.9068 149.377 19.2553C149.783 19.4587 150.044 19.7194 150.044 19.8358C150.044 20.1253 149.726 20.5607 149.144 20.5607C148.477 20.5607 147.577 20.4738 146.793 20.4738C146.039 20.4738 144.268 20.5607 143.775 20.5607C143.165 20.5607 142.846 20.2417 142.846 19.9802C142.846 19.7481 143.165 19.43 143.63 19.284C144.675 18.9658 144.877 18.6461 144.907 18.2402C144.964 17.69 145.11 15.6015 145.11 10.1798C145.11 6.84491 145.052 5.85928 144.964 5.01799C144.936 4.66952 144.762 4.26442 144.587 4.14799C144.006 3.71339 143.542 3.33542 143.542 3.07466C143.542 2.75648 144.006 2.43671 144.18 2.35059C144.79 2.11854 146.358 1.59622 147.113 1.36497C147.548 1.21904 147.954 1.16162 148.128 1.16162C148.245 1.16162 148.506 1.39367 148.506 2.35059C148.506 3.39442 148.477 7.94695 148.477 9.25075C148.477 9.39589 148.622 9.51151 148.68 9.48281C149.173 9.19334 149.726 8.87357 150.422 8.5841C150.741 8.43897 151.612 8.26513 152.164 8.26513C153.819 8.26593 154.748 8.90388 155.27 9.51311Z" fill="white"/>
<path d="M160.786 9.36816C162.238 8.84664 164.328 8.17998 164.821 8.17998C164.967 8.17998 165.17 8.67281 165.17 9.0787V14.0945C165.199 17.8935 165.257 18.0091 165.286 18.2699C165.345 18.734 165.547 19.0235 166.361 19.3145C166.767 19.4309 167.174 19.7204 167.174 20.0681C167.174 20.3288 166.796 20.5609 166.187 20.5609C165.578 20.5609 164.098 20.474 163.458 20.474C161.978 20.474 160.876 20.5904 160.469 20.5904C159.975 20.5904 159.453 20.4166 159.453 20.0689C159.453 19.7212 159.918 19.4596 160.179 19.3727C161.456 18.9668 161.485 18.7922 161.601 17.6917C161.659 17.0825 161.747 14.9079 161.747 13.2556C161.747 12.6751 161.717 11.7182 161.688 11.5443C161.688 11.4279 161.572 11.1089 160.789 10.5587C160.614 10.4136 160.353 10.0659 160.353 9.89128C160.35 9.68793 160.67 9.39687 160.786 9.36816ZM164.589 2.72875C165.082 3.25027 165.227 3.97514 165.227 4.2367C165.227 5.80205 163.892 6.32437 163.195 6.32437C162.614 6.32437 161.947 6.0054 161.569 5.42487C161.367 5.13541 161.251 4.84514 161.251 4.38103C161.251 3.16336 162.092 2.26465 163.428 2.26465C163.949 2.26465 164.327 2.4672 164.589 2.72875Z" fill="white"/>
<path d="M179.278 9.13599C179.481 9.33933 179.655 9.86085 179.655 10.0642C179.655 11.0785 179.045 11.8911 178.437 11.8911C178.233 11.8911 177.769 11.5721 177.334 11.1375C176.55 10.3832 175.65 9.80344 174.691 9.80344C173.966 9.80344 173.414 10.238 173.124 10.5283C172.688 10.9916 172.282 11.9198 172.282 13.5147C172.282 16.4724 174.256 18.1828 176.346 18.1828C177.362 18.1828 178.407 17.777 179.249 17.0816C179.365 16.9947 179.771 17.1103 179.771 17.4875C179.771 17.8934 179.481 18.4149 179.191 18.8503C178.261 20.0967 176.548 20.8223 174.778 20.8223C173.24 20.8223 171.904 20.3582 170.743 19.3439C169.988 18.706 168.943 17.0529 168.943 14.9947C168.943 12.1535 170.453 10.4135 172.02 9.45656C173.5 8.55786 174.981 8.26758 175.968 8.26758C177.972 8.26599 179.045 8.87523 179.278 9.13599Z" fill="white"/>
</svg>
