<svg width="169" height="28" viewBox="0 0 169 28" fill="none" xmlns="http://www.w3.org/2000/svg">
<path d="M12.5575 5.09654C14.033 9.29229 16.4922 15.5724 17.1583 17.3376C17.7664 18.8425 17.9685 18.9866 19.5602 19.5373C20.1969 19.7395 20.4285 20.0578 20.4285 20.377C20.4285 20.5505 20.1396 20.6945 19.7345 20.6945C18.2001 20.6945 17.1002 20.5497 15.6828 20.5497C14.38 20.5497 14.38 20.607 13.4544 20.607C12.9045 20.607 12.6434 20.4335 12.6434 20.2305C12.6434 19.9997 12.7883 19.6814 13.3096 19.5365C14.6697 19.1314 14.7851 18.9285 14.4954 17.8867C14.2933 17.0765 13.5404 15.1378 13.1934 14.2696C13.1353 14.0961 12.7875 13.8645 12.4413 13.8645C11.8619 13.8358 8.3896 13.8358 7.49267 13.9218C7.34703 13.9218 7.08678 14.182 7.02948 14.3277C6.62359 15.5135 5.84286 17.7132 5.84286 18.3213C5.84286 18.6977 5.90096 19.102 7.28972 19.5365C7.66616 19.6527 7.92641 19.7681 7.92641 19.9997C7.95506 20.2886 7.60807 20.6364 6.94273 20.6364C6.62439 20.6364 5.37967 20.5497 4.54084 20.5497C3.55716 20.5497 3.03508 20.6945 1.93601 20.6945C1.41552 20.6945 0.981776 20.5783 0.953125 20.2608C0.953125 19.9711 1.21337 19.6814 1.8214 19.5373C3.26747 19.1609 3.76011 18.5537 4.0498 17.917C4.94673 16.0069 7.98451 8.36671 9.40352 4.6047C9.49026 4.37311 9.57701 4.02532 9.60646 3.79373C9.60646 3.70777 9.7513 3.50483 9.80861 3.47618C10.1269 3.24458 10.5607 2.92624 10.8512 2.6652C11.0247 2.49171 11.343 2.34766 11.4592 2.34766C11.7473 2.34766 11.8914 3.15784 12.5575 5.09654ZM12.4994 12.0706C12.1516 10.6246 10.5901 6.775 10.3872 6.31261C10.3004 6.10967 10.0689 6.16776 10.0108 6.31261C9.37407 7.87487 8.53524 10.1614 7.89855 12.0706C7.8699 12.1868 7.89855 12.3309 8.1007 12.3603C8.62199 12.4176 11.8635 12.4463 12.384 12.3603C12.4707 12.3603 12.5575 12.186 12.4994 12.0706Z" fill="white"/>
<path d="M27.5479 8.68493C27.7509 8.68493 27.8957 9.00248 27.9244 9.17677C27.9244 9.49431 27.9244 9.9575 27.8957 10.1023C27.809 10.4207 27.5479 10.4788 27.2304 10.4788C26.1592 10.4788 24.6256 10.5082 23.9602 10.5082C23.9029 10.5082 23.7573 10.6244 23.7573 10.942L23.6713 16.2089C23.6419 17.511 23.7573 17.9742 24.1051 18.3792C24.4815 18.7851 25.3203 19.0167 25.6681 19.0167C26.1886 19.0167 26.5651 18.8711 26.9996 18.7557C27.2598 18.6984 27.462 18.5822 27.6363 18.5822C27.7525 18.5822 27.8965 18.7851 27.8965 19.0167C27.8965 19.3343 27.6649 19.6821 27.2017 20.0291C26.2762 20.723 24.9734 20.926 24.2499 20.926C23.4692 20.926 22.3407 20.5209 21.704 19.5945C21.4724 19.2467 21.2989 18.5822 21.2989 17.5404C21.2989 15.5142 21.4437 13.749 21.4437 11.0001C21.4437 10.6817 21.357 10.6523 20.546 10.5369C20.0836 10.4788 19.6777 9.8421 19.6777 9.69726C19.6777 9.58106 20.0255 9.32082 20.2858 9.08922C20.7776 8.68413 21.8488 8.0188 22.3693 7.35267C22.8325 6.77329 23.3816 6.60059 23.5273 6.60059C23.6427 6.60059 23.7875 6.88948 23.7875 7.03512C23.7875 7.35267 23.7581 8.27905 23.7581 8.45254C23.7581 8.56874 23.7875 8.80033 23.9897 8.80033C24.3072 8.80033 26.8826 8.68493 27.5479 8.68493Z" fill="white"/>
<path d="M38.2825 10.1894C38.659 10.7393 38.7744 11.4922 38.7744 12.2156C38.7744 12.5332 38.2825 13.0839 37.9937 13.0839C37.7907 13.0839 32.2929 13.1698 31.7717 13.1698C31.6857 13.1698 31.3666 13.3441 31.3093 13.4882C31.1931 13.6903 31.1644 14.2116 31.1644 14.3851C31.1644 16.9605 33.1031 18.9287 35.5918 18.9287C36.7211 18.9287 37.965 18.2052 38.5149 17.8288C38.6311 17.742 38.8627 17.8861 38.8627 18.2052C38.8627 18.5244 38.7179 18.8419 38.4863 19.1021C37.4151 20.2307 35.8823 20.8968 34.3478 20.8968C30.7307 20.8968 28.6758 18.4368 28.6758 14.9064C28.6758 12.5626 29.747 10.5658 31.4828 9.43729C32.4378 8.80061 33.6539 8.45361 34.8691 8.45361C36.2571 8.45361 37.5886 9.06085 38.2825 10.1894ZM31.5106 11.8392C31.482 11.9554 31.6268 12.1289 31.6849 12.1289C32.0025 12.1575 32.9583 12.1862 33.7971 12.1862C34.897 12.1862 36.2284 12.1289 36.2284 11.1444C36.2284 10.2761 35.5337 9.49459 33.9993 9.49459C33.2766 9.49459 31.8871 10.3923 31.5106 11.8392Z" fill="white"/>
<path d="M40.6852 1.97128C41.6107 1.59404 42.682 1.2184 43.2892 1.0449C43.5781 0.958154 43.8097 0.928711 43.8972 0.928711C44.1288 0.928711 44.245 1.36324 44.245 2.17263C44.245 4.45912 44.1583 8.13359 44.1583 10.8252C44.1583 12.5617 44.1583 17.192 44.2156 17.886C44.3023 19.0726 44.3899 19.1013 45.7786 19.6234C46.2418 19.7968 46.3867 20.0571 46.3867 20.2306C46.3867 20.4622 46.1837 20.6365 45.547 20.6365C44.7369 20.6365 43.5502 20.5497 42.7982 20.5497C41.6696 20.5497 41.0616 20.6659 40.3955 20.6659C39.9331 20.6659 39.5566 20.5792 39.5566 20.3181C39.5566 20.0292 39.7588 19.7976 40.2801 19.6241C41.6107 19.1323 41.6402 18.7551 41.7261 18.1773C41.7842 17.7141 41.8423 15.9202 41.8423 10.9422C41.8423 7.0361 41.8423 4.37317 41.7564 3.90999C41.6983 3.5622 41.3218 3.3314 40.83 3.12925C40.2506 2.89766 40.1352 2.72416 40.1352 2.49256C40.1352 2.26097 40.4822 2.05803 40.6852 1.97128Z" fill="white"/>
<path d="M48.3834 9.37966C49.8294 8.85838 51.0169 8.42464 51.5087 8.42464C51.6249 8.42464 51.7976 8.80108 51.7976 8.88783V14.1827C51.8262 17.9741 51.8843 18.524 51.9138 18.7843C51.9424 19.0159 52.0586 19.3048 53.1004 19.5945C53.5055 19.7107 53.7944 19.9709 53.7944 20.2606C53.7944 20.5208 53.332 20.637 52.9556 20.637C52.3475 20.637 51.1609 20.5503 50.5242 20.5503C49.0487 20.5503 48.4988 20.637 48.0929 20.637C47.5143 20.637 47.2246 20.4627 47.2246 20.2025C47.2246 19.9423 47.5143 19.7393 47.9194 19.6239C49.1928 19.3056 49.2509 19.074 49.3663 17.8866C49.4236 17.2793 49.4817 15.312 49.4817 13.6614C49.4817 13.0828 49.4817 11.5778 49.453 11.4043C49.4244 11.1727 49.1641 10.8544 48.3245 10.3044C48.1215 10.1883 48.0069 9.84126 48.0069 9.72507C48.0069 9.58182 48.2091 9.43696 48.3834 9.37966ZM51.4212 2.80988C51.7689 3.21577 51.913 3.76491 51.913 3.9965C51.913 5.15367 50.9007 5.64552 50.3794 5.64552C49.9448 5.64552 49.453 5.35662 49.1355 4.98018C48.9612 4.69128 48.8458 4.48834 48.8458 4.1119C48.8458 3.15688 49.5119 2.46289 50.5242 2.46289C50.9293 2.46289 51.1896 2.60773 51.4212 2.80988Z" fill="white"/>
<path d="M64.2396 10.1894C64.616 10.7393 64.7314 11.4922 64.7314 12.2156C64.7314 12.5332 64.2396 13.0839 63.9507 13.0839C63.7477 13.0839 58.25 13.1698 57.7287 13.1698C57.6427 13.1698 57.3236 13.3441 57.2663 13.4882C57.1501 13.6903 57.1215 14.2116 57.1215 14.3851C57.1215 16.9605 59.0602 18.9287 61.5488 18.9287C62.6781 18.9287 63.922 18.2052 64.472 17.8288C64.5882 17.742 64.8198 17.8861 64.8198 18.2052C64.8198 18.5244 64.6749 18.8419 64.4433 19.1021C63.3721 20.2307 61.8393 20.8968 60.3049 20.8968C56.6877 20.8968 54.6328 18.4368 54.6328 14.9064C54.6328 12.5626 55.704 10.5658 57.4398 9.43729C58.3948 8.80061 59.6109 8.45361 60.8262 8.45361C62.2149 8.45361 63.5456 9.06085 64.2396 10.1894ZM57.4684 11.8392C57.4398 11.9554 57.5846 12.1289 57.6427 12.1289C57.9603 12.1575 58.9161 12.1862 59.7549 12.1862C60.8548 12.1862 62.1863 12.1289 62.1863 11.1444C62.1863 10.2761 61.4915 9.49459 59.9571 9.49459C59.2337 9.49459 57.8441 10.3923 57.4684 11.8392Z" fill="white"/>
<path d="M66.9035 9.52484C67.3667 9.26459 68.2636 8.85871 68.8716 8.54116C69.2481 8.36687 69.4796 8.25146 69.7112 8.25146C69.8274 8.25146 70.059 8.56981 70.059 8.65735L70.1163 10.0748C70.1163 10.1615 70.3193 10.2777 70.406 10.1615C71.2457 9.23514 72.4028 8.45362 73.5313 8.45362C74.371 8.45362 75.1231 9.033 75.1231 9.35054C75.1231 9.98723 74.371 10.7974 73.9659 11.1165C73.8202 11.2614 73.6181 11.3473 73.5027 11.3473C73.2998 11.3473 73.1263 11.2614 72.8366 11.0584C72.6058 10.8849 72.1712 10.7107 71.7948 10.7107C71.2743 10.7107 70.8398 10.885 70.4633 11.3768C70.3471 11.5216 70.2031 11.8686 70.2031 12.0421C70.2031 12.331 70.1744 16.4989 70.2612 17.5112C70.3471 18.8714 70.5787 19.161 71.8815 19.5088C72.5469 19.6823 72.9233 19.9139 72.9233 20.1742C72.9233 20.4058 72.5469 20.666 72.1999 20.666C71.303 20.666 69.8274 20.5498 68.9878 20.5498C67.9755 20.5498 67.4542 20.6366 66.644 20.6366C66.1235 20.6366 65.8633 20.3182 65.8633 20.1734C65.8633 19.855 66.1808 19.6815 66.5286 19.5653C67.6571 19.1602 67.7439 18.7257 67.7725 18.0604C67.8306 16.7576 67.8593 13.1985 67.8593 11.6649C67.8593 11.4914 67.8306 11.2885 67.1359 10.7966C66.8183 10.565 66.4992 10.3048 66.4992 10.1313C66.4984 9.87183 66.6719 9.64024 66.9035 9.52484Z" fill="white"/>
<path d="M80.8235 2.95508C81.7778 2.95508 83.4276 3.12937 84.4988 3.12937C85.5406 3.12937 86.6977 3.10072 87.4793 3.10072C88.116 3.10072 88.5791 3.38962 88.5791 3.82415C88.5791 4.11305 88.0873 4.37329 87.6241 4.54679C87.0161 4.77838 86.8426 5.06807 87.0447 5.82095C87.2763 6.83328 90.2855 14.1838 90.72 14.7337C90.8362 14.8786 90.9802 14.9653 91.0964 14.7624C92.2831 12.1289 93.9034 8.1934 94.5401 6.31279C94.9165 5.18427 94.829 4.92323 93.6137 4.51814C93.0932 4.31599 92.6881 4.0263 92.6881 3.67851C92.6881 3.33152 93.18 3.09992 93.8167 3.09992C94.4534 3.09992 95.2341 3.12858 95.9878 3.12858C97.0868 3.12858 97.8397 2.98373 98.7939 2.98373C99.4306 2.98373 99.8652 3.27263 99.8652 3.59176C99.8652 3.99686 99.4887 4.22845 98.8528 4.40194C97.4346 4.80783 97.0009 5.55991 96.3642 6.74574C95.4959 8.39554 93.297 13.2288 91.9655 16.643C91.3575 18.2347 90.837 19.7397 90.6627 20.1153C90.5178 20.4631 89.7658 21.1579 89.4188 21.1579C88.985 21.1579 88.6953 20.869 88.5218 20.3469C88.377 19.9132 87.8271 18.3501 87.2779 16.9032C86.6985 15.3696 83.6608 8.13451 82.5895 5.84881C82.2131 5.09673 81.9529 4.83648 80.6803 4.37329C80.159 4.17035 79.7539 3.91011 79.7539 3.59256C79.7531 3.30207 80.245 2.95508 80.8235 2.95508Z" fill="white"/>
<path d="M100.356 9.46594C101.803 8.94545 103.887 8.28012 104.379 8.28012C104.524 8.28012 104.726 8.77196 104.726 9.17705V14.183C104.755 17.9744 104.813 18.0898 104.843 18.3501C104.901 18.8133 105.103 19.1022 105.914 19.3926C106.319 19.5088 106.724 19.7977 106.724 20.1447C106.724 20.405 106.348 20.6366 105.74 20.6366C105.133 20.6366 103.658 20.5498 103.02 20.5498C101.545 20.5498 100.446 20.666 100.04 20.666C99.5478 20.666 99.0273 20.4925 99.0273 20.1455C99.0273 19.7985 99.4905 19.5375 99.7508 19.4507C101.024 19.0456 101.053 18.8714 101.168 17.7723C101.226 17.165 101.314 14.9947 101.314 13.3449C101.314 12.7656 101.284 11.8105 101.256 11.637C101.256 11.5208 101.14 11.2025 100.359 10.6534C100.185 10.5085 99.9243 10.1615 99.9243 9.98723C99.9219 9.78508 100.241 9.49459 100.356 9.46594ZM104.148 2.83965C104.64 3.36014 104.785 4.08357 104.785 4.34461C104.785 5.90688 103.453 6.42816 102.758 6.42816C102.18 6.42816 101.514 6.10982 101.138 5.53044C100.936 5.24154 100.82 4.95185 100.82 4.48866C100.82 3.27339 101.659 2.37646 102.991 2.37646C103.51 2.37646 103.887 2.57861 104.148 2.83965Z" fill="white"/>
<path d="M108.314 9.23416C108.864 9.03202 110.369 8.65558 110.949 8.36589C111.296 8.19239 111.817 8.04834 111.874 8.04834C111.961 8.04834 112.366 8.27993 112.366 8.51153C112.366 8.65637 112.28 9.40846 112.28 9.69735C112.251 9.90029 112.396 9.87165 112.482 9.81355C113.409 9.17686 114.769 8.36668 116.592 8.36668C118.183 8.36668 119.081 9.4952 119.312 9.7849C119.775 10.4502 120.238 11.7817 120.238 13.7785C120.267 15.1386 120.267 16.3825 120.325 17.6853C120.353 18.7558 120.498 18.9006 121.135 19.2476C121.685 19.4792 121.946 19.7976 121.946 20.0586C121.946 20.5218 121.366 20.638 120.991 20.638C120.615 20.638 119.254 20.5512 118.387 20.5512C117.547 20.5512 116.563 20.638 116.216 20.638C115.637 20.638 115.29 20.435 115.29 20.088C115.29 19.9145 115.406 19.6256 115.898 19.4514C116.563 19.1911 116.738 18.872 116.766 18.1493C116.795 16.7311 116.795 15.5739 116.795 14.2998C116.795 12.1295 116.563 11.5509 116.275 11.1745C115.986 10.798 115.406 10.5664 114.654 10.5664C113.902 10.5664 113.236 10.7407 112.774 10.9715C112.687 11.001 112.455 11.3193 112.455 11.6663V18.0618C112.455 18.5823 112.513 18.9587 113.324 19.2771C113.96 19.5373 114.076 19.8556 114.076 20.0291C114.076 20.4056 113.642 20.6372 113.121 20.6372C112.166 20.6372 111.269 20.5504 110.575 20.5504C109.677 20.5504 108.172 20.6372 107.71 20.6372C107.102 20.6372 106.783 20.4629 106.783 20.174C106.783 19.8262 107.131 19.5373 107.42 19.4506C108.751 18.9301 108.809 18.7558 108.895 17.8875C109.012 16.673 109.04 14.5019 109.04 11.9552C109.04 11.4928 108.867 11.2612 108.115 10.6245C107.796 10.3635 107.68 10.19 107.68 10.0746C107.679 9.87164 107.91 9.40845 108.314 9.23416Z" fill="white"/>
<path d="M130.57 8.56907C130.686 8.56907 130.946 8.77201 130.976 8.94551C131.062 9.23441 131.033 9.84244 131.033 9.98728C131.005 10.1902 130.773 10.6248 130.338 10.6248C129.268 10.6248 128.053 10.6534 127.387 10.6534C127.329 10.6534 127.156 10.8556 127.156 11.0585L127.098 15.9498C127.069 17.1357 127.214 17.5415 127.561 17.9466C127.966 18.3804 128.458 18.4958 128.892 18.4958C129.297 18.4958 129.731 18.4385 130.136 18.3223C130.397 18.2355 130.599 18.1193 130.773 18.1193C130.889 18.1193 131.091 18.3509 131.091 18.5825C131.091 18.9876 130.946 19.3346 130.078 20.0007C129.297 20.608 127.821 20.8977 127.098 20.8977C126.085 20.8977 124.754 20.608 124.001 19.4508C123.769 19.103 123.596 18.4385 123.596 17.3959C123.596 15.3704 123.712 13.8655 123.712 11.0872C123.712 10.8556 123.654 10.7107 122.873 10.5667C122.409 10.4505 122.092 9.87269 122.092 9.66974C122.092 9.4668 122.409 9.23521 122.699 9.06171C123.394 8.56987 124.639 7.67294 125.274 6.94951C125.651 6.51497 126.518 6.22607 126.721 6.22607C126.895 6.22607 127.126 6.57386 127.126 6.77522V8.33827C127.126 8.45447 127.213 8.71471 127.416 8.71471C127.734 8.71392 129.905 8.56907 130.57 8.56907Z" fill="white"/>
<path d="M140.9 9.7851C141.45 10.3637 141.827 11.7532 141.827 12.2164C141.827 13.3155 141.711 14.097 141.711 17.3386C141.711 18.2068 142.202 18.5825 142.694 18.5825C142.897 18.5825 143.36 18.4957 143.621 18.3795C143.707 18.3509 143.851 18.6111 143.851 18.7854C143.851 19.1905 143.563 19.8272 143.475 19.9139C142.781 20.666 142.058 20.9557 141.044 20.9557C140.147 20.9557 139.076 20.6079 138.556 19.1905C138.556 19.1619 138.295 19.0457 138.237 19.1038C137.717 19.4802 137.051 19.9434 136.386 20.3779C135.865 20.6668 135.17 20.8403 134.765 20.8403C133.781 20.8403 131.727 19.8861 131.727 17.3099C131.727 16.6438 132.045 16.0946 132.247 15.8344C132.537 15.3999 133.29 15.111 133.405 15.0823C135.662 14.5324 137.341 14.1273 138.209 13.6927C138.382 13.6068 138.557 13.259 138.557 13.2009V11.9864C138.557 11.7835 138.557 11.5805 138.47 11.3784C138.152 10.4807 137.226 9.96019 136.415 9.96019C135.923 9.96019 135.489 10.2499 135.403 10.4234C135.316 10.6263 135.2 11.349 135.114 12.0724C135.084 12.304 134.882 12.5937 134.766 12.6804C134.621 12.8253 134.187 12.9988 134.014 12.9988C133.434 12.9988 132.509 12.912 132.162 12.7385C132.046 12.6518 131.814 12.2753 131.814 12.1305C131.814 11.4643 133.001 10.452 134.216 9.64184C135.287 8.94706 136.705 8.36768 137.688 8.36768C138.875 8.36609 139.946 8.80062 140.9 9.7851ZM138.18 17.8296C138.267 17.6848 138.383 17.4245 138.383 16.99L138.47 15.2534C138.47 15.1372 138.325 15.0505 138.238 15.0505C137.543 15.1961 136.444 15.485 135.866 15.688C135.171 15.9195 134.968 16.3819 134.968 16.9613C134.968 17.8583 135.779 18.4949 136.56 18.4949C137.023 18.4949 137.688 18.2928 138.18 17.8296Z" fill="white"/>
<path d="M152.505 8.80075C152.882 8.91694 153.345 8.97424 153.634 8.97424C153.981 8.97424 156.325 8.91694 156.5 8.91694C156.876 8.91694 156.991 9.87197 156.991 10.2771C156.991 10.5087 156.731 10.8556 156.644 10.8556C156.007 10.8556 154.965 10.7108 154.328 10.6821C154.647 11.2321 154.82 11.9261 154.82 12.5922C154.82 13.778 154.387 14.7331 153.287 15.63C152.389 16.3821 150.855 16.788 149.64 16.788C149.467 16.788 148.8 16.7585 148.656 16.7298C148.54 16.7298 148.396 16.8166 148.309 16.8747C148.135 16.9909 147.962 17.2511 147.962 17.4827C147.962 18.1489 149.032 18.3797 149.176 18.3797C150.391 18.4091 152.939 18.4959 153.806 18.5539C154.298 18.5539 154.935 18.7275 155.658 19.306C156.266 19.7979 156.902 20.8691 156.902 21.8814C156.902 23.8201 155.311 25.4118 154.211 26.1066C152.851 26.9176 151.519 27.4667 149.262 27.4667C146.918 27.4667 143.879 26.3669 143.879 23.8782C143.879 23.3291 144.429 22.4895 144.747 22.2579C145.037 22.0263 145.877 21.6212 146.253 21.3896C146.369 21.3315 146.339 21.0999 146.253 21.0712C145.935 20.9853 145.732 20.8691 145.471 20.6948C144.893 20.3184 144.459 19.5949 144.459 18.5245C144.459 18.4083 144.575 18.2062 144.633 18.2062C145.356 17.8878 146.543 17.049 146.832 16.7012C146.949 16.6145 146.919 16.4115 146.832 16.3534C145.646 15.6586 144.604 14.6455 144.604 12.7362C144.604 11.2018 145.299 10.2476 146.282 9.46608C146.919 8.97424 148.568 8.36621 149.726 8.36621C150.913 8.36621 152.043 8.6567 152.505 8.80075ZM153.084 25.267C153.72 24.8038 154.212 24.2547 154.184 23.3864C154.184 22.3152 153.171 21.8814 152.332 21.7374C151.868 21.6212 150.74 21.5344 149.583 21.5344C148.685 21.5344 147.817 21.766 147.673 21.8233C147.152 22.1711 146.863 22.6343 146.863 23.1548C146.863 24.8333 148.628 25.7883 150.856 25.7883C151.289 25.7875 152.592 25.5853 153.084 25.267ZM147.846 12.3025C147.846 14.5023 148.975 15.5432 150.103 15.5432C150.595 15.5432 151.087 15.1668 151.232 14.9646C151.377 14.7331 151.724 13.5759 151.724 12.5922C151.724 10.7402 150.797 9.61092 149.64 9.61092C148.396 9.61092 147.846 10.9137 147.846 12.3025Z" fill="white"/>
<path d="M167.524 10.3342C167.901 10.9422 168.103 11.6943 168.103 12.5053C168.103 12.8228 167.641 13.4603 167.263 13.4603C167.061 13.4603 161.91 13.5462 161.389 13.5462C161.186 13.5462 160.926 13.6624 160.869 13.8646C160.753 14.0667 160.753 14.241 160.753 14.4137C160.753 16.6716 162.373 18.3779 164.862 18.3779C165.874 18.3779 167.033 17.8287 167.697 17.3942C167.871 17.2788 168.131 17.5104 168.131 17.742C168.131 18.3214 167.813 18.7846 167.61 18.9859C166.395 20.2887 164.717 20.896 163.125 20.896C159.478 20.896 157.25 18.3779 157.25 14.7607C157.25 12.2434 158.668 10.3039 160.231 9.32026C161.1 8.77112 162.343 8.36523 163.588 8.36523C165.238 8.36603 166.742 9.09026 167.524 10.3342ZM161.013 11.8686C160.984 11.9848 161.013 12.245 161.158 12.2737C161.447 12.3023 162.055 12.331 162.952 12.331C163.907 12.331 164.92 12.2737 164.92 11.2892C164.92 10.6525 164.486 9.61074 163.126 9.61074C162.229 9.61074 161.129 10.7401 161.013 11.8686Z" fill="white"/>
</svg>
