<svg width="222" height="27" viewBox="0 0 222 27" fill="none" xmlns="http://www.w3.org/2000/svg">
<path d="M15.0815 2.34632C15.8039 2.5492 16.73 2.86664 16.9615 2.86664C17.1063 2.86664 17.3951 3.15623 17.3951 3.32967C17.3951 3.84999 17.5399 5.58598 17.5399 6.30918C17.5399 7.11989 17.2224 7.43733 16.8748 7.43733C16.586 7.43733 16.4117 7.00372 16.2956 6.59797C16.0354 5.38389 15.457 4.45783 14.2994 3.82136C13.4028 3.30104 12.1004 3.04088 10.8863 3.04088C9.49722 3.04088 7.64588 3.70599 6.54637 4.74742C4.98462 6.19381 4.11663 8.68163 4.11663 10.7359C4.11663 12.6158 4.92654 15.1617 5.82397 16.2612C7.29899 18.1126 9.61338 19.154 11.5228 19.154C12.3622 19.154 13.7505 18.7777 14.6185 18.3736C14.8786 18.2288 15.6885 17.4769 16.2096 16.5222C16.6719 15.5961 16.9034 15.2198 17.193 15.2198C17.5104 15.2198 17.7133 15.6542 17.7133 16.2032C17.7133 16.4633 17.2216 18.3147 17.0474 18.9225C16.9901 19.0967 16.6138 19.4723 16.5271 19.5303C15.6304 19.9647 12.9111 20.5137 11.1465 20.5137C8.02139 20.5137 5.09998 19.5303 3.27728 17.5056C2.00433 16.1172 0.962891 13.9182 0.962891 11.3437C0.962891 8.04515 2.40929 5.41333 4.95598 3.64871C6.25757 2.75128 8.36907 1.79736 11.5228 1.79736C12.8833 1.79736 14.1268 2.08617 15.0815 2.34632Z" fill="white"/>
<path d="M20.9543 1.42113C21.8796 1.04402 22.9505 0.668511 23.5575 0.495072C23.8463 0.408352 24.0778 0.378906 24.1653 0.378906C24.3969 0.378906 24.513 0.813303 24.513 1.62242C24.513 3.90816 24.4263 7.58141 24.4263 10.2721C24.4263 12.0081 24.4263 16.6369 24.4836 17.3306C24.5703 18.5168 24.6578 18.5455 26.0461 19.0674C26.5091 19.2408 26.6539 19.501 26.6539 19.6744C26.6539 19.9059 26.4511 20.0802 25.8146 20.0802C25.0047 20.0802 23.8185 19.9935 23.0666 19.9935C21.9385 19.9935 21.3306 20.1096 20.6647 20.1096C20.2025 20.1096 19.8262 20.0229 19.8262 19.7619C19.8262 19.4731 20.0282 19.2416 20.5494 19.0682C21.8796 18.5765 21.909 18.1994 21.995 17.6218C22.053 17.1588 22.1111 15.3655 22.1111 10.3891C22.1111 6.48429 22.1111 3.82224 22.0252 3.3592C21.9671 3.01153 21.5908 2.7808 21.0991 2.57872C20.5199 2.3472 20.4046 2.17377 20.4046 1.94226C20.4046 1.71074 20.7514 1.50706 20.9543 1.42113Z" fill="white"/>
<path d="M36.7212 9.0002C37.3004 9.52052 37.7045 10.8802 37.7045 11.488C37.7045 12.5875 37.5884 13.8024 37.5884 17.0421C37.5884 17.9968 38.08 18.4598 38.6298 18.4598C38.8613 18.4598 39.3824 18.3142 39.6131 18.1989C39.7293 18.1416 39.8733 18.4304 39.8733 18.6619C39.8733 18.7781 39.6712 19.3278 39.6131 19.4137C39.1795 19.9929 38.485 20.456 37.5016 20.456C36.7498 20.456 35.8245 20.1664 35.4482 18.6619C35.4482 18.6333 35.2167 18.4885 35.1586 18.5171C34.5508 18.9801 33.5969 19.5291 32.931 19.9054C32.4107 20.195 31.919 20.3398 31.3979 20.3398C30.5299 20.3398 28.6499 19.2689 28.6499 16.9259C28.6499 16.2322 28.8806 15.7978 29.0835 15.5376C29.5179 14.9878 30.1249 14.7269 30.2403 14.6982C33.1625 14.0037 34.5221 13.6568 35.1586 13.3099C35.3034 13.2519 35.4769 13.0498 35.4769 12.8755V11.776C35.4769 11.4586 35.4769 11.2844 35.3901 11.0242C34.9852 9.89605 33.7417 9.40437 32.845 9.40437C32.2372 9.40437 31.6588 9.66453 31.5427 9.78068C31.4265 9.92548 31.3111 10.3304 31.2539 11.1984C31.2244 11.5159 31.1083 11.7474 30.9937 11.8349C30.8481 11.9511 30.3278 12.0664 30.1543 12.0664C29.9228 12.0664 29.1996 12.0378 28.9395 11.9216C28.7947 11.8636 28.5918 11.574 28.5918 11.4586C28.5918 10.9669 29.4311 10.0703 30.6747 9.2023C31.7742 8.4791 33.1052 7.8999 34.0885 7.8999C35.1586 7.90149 35.8818 8.21973 36.7212 9.0002ZM35.13 17.4184C35.2167 17.2155 35.3329 16.8981 35.3615 16.5504L35.3901 14.699C35.3901 14.5829 35.2453 14.5256 35.1586 14.5256C34.3193 14.6704 32.6422 15.0746 32.063 15.2774C31.2531 15.5662 30.9929 15.8853 30.9929 16.6085C30.9929 17.5337 31.8609 18.4017 32.931 18.4017C33.5674 18.4025 34.4935 18.0262 35.13 17.4184Z" fill="white"/>
<path d="M48.1767 8.13258L49.1028 8.39273C49.2476 8.45002 49.5651 8.85578 49.5937 8.97193C49.6518 9.14537 49.6518 10.2449 49.6518 10.5631C49.6518 10.7652 49.4203 11.4017 49.0153 11.4017C48.8991 11.4017 48.639 11.1415 48.3788 10.6212C47.7415 9.43497 46.7876 8.94328 46.1798 8.94328C45.5139 8.94328 44.5019 9.58056 44.5019 10.6506C44.5019 12.0684 45.7454 12.4447 47.2499 13.2252C48.7551 14.0056 50.0273 14.9031 50.0273 16.6104C50.0273 18.2589 48.9564 19.3003 47.8569 19.792C47.0184 20.1977 46.0923 20.3418 45.3691 20.3418C43.6045 20.3418 42.7365 19.9368 42.4182 19.6186C42.1294 19.3298 41.8398 18.056 41.8398 17.5357C41.8398 16.7839 42.0419 16.581 42.3602 16.581C42.5336 16.581 42.7365 16.7839 43.112 17.3623C43.9513 18.6638 44.9633 19.2136 45.7446 19.2136C47.047 19.2136 47.7702 18.3456 47.7702 17.4195C47.7702 16.8706 47.452 16.2628 46.728 15.7997C45.9475 15.3367 45.311 15.0192 44.443 14.5268C43.4883 13.977 42.3602 13.0804 42.3602 11.373C42.3602 9.98472 43.1406 9.17401 43.8352 8.65369C44.5003 8.22009 45.7152 7.90186 46.3517 7.90186C47.1059 7.90107 47.7718 7.98778 48.1767 8.13258Z" fill="white"/>
<path d="M58.6768 8.13258L59.602 8.39273C59.7476 8.45002 60.0651 8.85578 60.0937 8.97193C60.1518 9.14537 60.1518 10.2449 60.1518 10.5631C60.1518 10.7652 59.9203 11.4017 59.5153 11.4017C59.3991 11.4017 59.139 11.1415 58.8788 10.6212C58.2416 9.43497 57.2876 8.94328 56.6798 8.94328C56.0139 8.94328 55.0019 9.58056 55.0019 10.6506C55.0019 12.0684 56.2454 12.4447 57.7507 13.2252C59.2551 14.0056 60.5273 14.9031 60.5273 16.6104C60.5273 18.2589 59.4564 19.3003 58.3569 19.792C57.5184 20.1977 56.5923 20.3418 55.8691 20.3418C54.1045 20.3418 53.2365 19.9368 52.9182 19.6186C52.6294 19.3298 52.3398 18.056 52.3398 17.5357C52.3398 16.7839 52.5419 16.581 52.8602 16.581C53.0336 16.581 53.2365 16.7839 53.612 17.3623C54.4513 18.6638 55.4633 19.2136 56.2446 19.2136C57.547 19.2136 58.2702 18.3456 58.2702 17.4195C58.2702 16.8706 57.952 16.2628 57.228 15.7997C56.4475 15.3367 55.811 15.0192 54.943 14.5268C53.9883 13.977 52.8602 13.0804 52.8602 11.373C52.8602 9.98472 53.6406 9.17401 54.3352 8.65369C55.0003 8.22009 56.2152 7.90186 56.8517 7.90186C57.6067 7.90107 58.2726 7.98778 58.6768 8.13258Z" fill="white"/>
<path d="M64.0295 8.82709C65.4751 8.30598 66.6621 7.87238 67.1538 7.87238C67.2699 7.87238 67.4426 8.2487 67.4426 8.33542V13.6285C67.4712 17.4187 67.5293 17.9685 67.5587 18.2286C67.5874 18.4601 67.7035 18.7489 68.745 19.0385C69.1499 19.1547 69.4387 19.4148 69.4387 19.7044C69.4387 19.9646 68.9765 20.0808 68.6002 20.0808C67.9923 20.0808 66.8061 19.994 66.1696 19.994C64.6946 19.994 64.1448 20.0808 63.7391 20.0808C63.1607 20.0808 62.8711 19.9065 62.8711 19.6464C62.8711 19.3862 63.1607 19.1833 63.5656 19.068C64.8386 18.7497 64.8967 18.5182 65.012 17.3312C65.0693 16.7241 65.1282 14.7574 65.1282 13.1074C65.1282 12.529 65.1282 11.0245 65.0988 10.8511C65.0701 10.6196 64.81 10.3013 63.9706 9.75157C63.7677 9.63542 63.6532 9.28854 63.6532 9.17239C63.6532 9.02918 63.8552 8.88438 64.0295 8.82709ZM67.0663 2.25947C67.4139 2.66522 67.5579 3.21419 67.5579 3.44571C67.5579 4.6025 66.5459 5.09417 66.0248 5.09417C65.5904 5.09417 65.0988 4.80537 64.7813 4.42905C64.6071 4.14025 64.4917 3.93738 64.4917 3.56106C64.4917 2.60635 65.1576 1.9126 66.1696 1.9126C66.5746 1.9126 66.8347 2.05739 67.0663 2.25947Z" fill="white"/>
<path d="M81.0122 8.76837C81.0989 8.82645 81.2724 9.23141 81.2724 9.46293C81.2724 10.2728 80.7521 10.9674 80.3471 10.9674C80.2015 10.9674 79.7679 10.7359 79.3637 10.3015C78.6119 9.52101 77.6858 9.23141 76.615 9.23141C75.8345 9.23141 75.2267 9.57909 74.6769 10.1861C74.011 10.938 73.6935 12.1242 73.6935 13.5992C73.6935 16.6949 75.9785 18.2566 77.9746 18.2566C79.0742 18.2566 79.8841 17.9384 80.8682 17.0417C81.0416 16.897 81.3885 17.0704 81.3885 17.3019C81.3885 17.5915 81.3312 17.9678 81.0122 18.4014C80.0861 19.7038 78.3796 20.3403 76.759 20.3403C75.342 20.3403 73.9823 19.8486 72.8828 18.8358C72.1024 18.1413 71.2344 16.4634 71.2344 14.5539C71.2344 11.9507 72.536 10.07 74.1852 9.05718C75.6022 8.16055 76.8178 7.90039 78.0327 7.90039C79.9708 7.90119 80.7807 8.50821 81.0122 8.76837Z" fill="white"/>
<path d="M91.7437 2.46237C92.4669 2.46237 96.5746 2.57853 96.748 2.57853C96.8928 2.57853 97.2691 2.98349 97.2978 3.07021C97.4139 3.47517 97.76 4.19836 98.3678 5.61611C99.0051 7.09114 101.608 12.7033 102.331 13.7741C102.36 13.8314 102.592 13.8903 102.708 13.658C103.402 12.1527 105.629 7.61145 106.497 5.67338C107.047 4.42987 107.278 3.67725 107.481 3.09885C107.539 2.92541 107.857 2.57853 108.03 2.57853C108.522 2.57853 112.081 2.4043 113.006 2.4043C113.295 2.4043 113.961 2.63581 113.961 3.04156C113.961 3.359 113.729 3.53324 113.093 3.70668C111.27 4.19835 111.125 4.48716 111.125 5.15307C111.125 9.43416 111.327 13.3111 111.414 15.9723C111.501 18.2581 112.109 18.461 113.15 18.7498C113.961 18.9526 114.249 19.2414 114.249 19.5302C114.249 19.8198 113.786 20.1667 113.179 20.1667C112.832 20.1667 109.766 19.9933 108.579 19.9933C107.422 19.9933 106.757 20.1094 106.063 20.1094C105.426 20.1094 105.137 19.6178 105.137 19.3862C105.137 19.1261 105.571 18.9232 105.86 18.8373C107.162 18.4029 107.394 18.056 107.422 16.4648C107.451 15.713 107.422 10.1009 107.48 7.32345C107.48 7.17865 107.22 7.23752 107.132 7.41016C106.67 8.24951 103.951 14.5554 103.401 15.8283C103.083 16.5802 102.475 18.1714 102.099 19.0974C101.839 19.7912 101.347 20.1969 100.797 20.1969C100.537 20.1969 100.16 19.7053 99.9869 19.2136C99.5811 18.0274 98.916 16.2914 98.6558 15.5395C97.4696 12.2704 96.0813 9.58054 95.3287 7.7292C95.2125 7.52632 94.981 7.49769 94.981 7.69977C94.7495 10.766 94.576 14.8752 94.576 16.3495C94.576 18.0862 94.8076 18.2008 96.312 18.7219C96.9485 18.9534 97.18 19.1555 97.18 19.5024C97.18 19.8206 96.7456 20.1102 96.168 20.1102C95.7623 20.1102 94.7216 19.9941 93.8823 19.9941C92.957 19.9941 90.9314 20.1675 90.5551 20.1675C90.0061 20.1675 89.5137 19.9073 89.5137 19.531C89.5137 19.2709 89.7738 19.0107 90.4676 18.8078C91.8853 18.4029 92.377 17.7664 92.5799 16.5515C92.9268 14.5554 93.6213 7.26537 93.65 6.02186C93.708 4.43067 93.3023 4.19915 91.7111 3.79419C91.0746 3.6494 90.7572 3.41788 90.7572 3.18637C90.7596 2.86654 91.2234 2.46237 91.7437 2.46237Z" fill="white"/>
<path d="M128.774 13.8896C128.774 16.2326 127.819 17.679 126.835 18.5764C125.794 19.5304 124.203 20.3411 122.091 20.3411C120.152 20.3411 118.417 19.6752 117.201 18.4611C115.958 17.2462 115.494 15.3949 115.494 14.0925C115.494 11.9229 116.565 10.3317 117.837 9.31971C118.937 8.42229 120.961 7.81445 122.206 7.81445C126.402 7.81366 128.774 11.0247 128.774 13.8896ZM120.297 9.92516C119.864 10.5044 119.342 11.9221 119.342 13.5706C119.342 16.0584 120.21 17.7363 120.847 18.2574C121.078 18.4603 121.773 18.952 122.496 18.952C122.93 18.952 123.624 18.6337 124.029 18.0545C124.377 17.6209 124.781 16.4633 124.781 14.3518C124.781 11.5752 123.624 9.2314 121.773 9.2314C121.224 9.2314 120.587 9.54964 120.297 9.92516Z" fill="white"/>
<path d="M140.288 7.9014C140.345 7.9014 140.519 7.69853 140.519 7.58317C140.519 7.40973 140.461 4.89326 140.461 4.28543C140.375 3.33072 140.288 3.12784 139.159 2.8104C138.87 2.72368 138.465 2.46273 138.465 2.26065C138.465 2.11585 138.754 1.65282 139.217 1.53746C140.172 1.24866 143.036 0.727539 143.731 0.727539C143.991 0.727539 144.135 1.33537 144.135 2.43488C144.135 4.25758 144.019 7.81548 144.019 10.1585C144.019 15.9735 144.106 15.9735 144.135 16.812C144.164 17.9402 144.569 18.2298 144.801 18.2298C145.09 18.2298 145.843 18.1431 146.16 18.085C146.276 18.0556 146.478 18.3738 146.478 18.634C146.478 19.0389 146.073 19.5306 145.755 19.5887C143.933 19.9061 141.648 20.5139 141.242 20.5139C141.068 20.5139 140.75 20.3691 140.722 20.2251C140.664 19.9363 140.693 19.3858 140.635 19.0683C140.635 19.0103 140.461 18.9522 140.375 18.9816C139.275 19.7048 137.83 20.3413 136.875 20.3413C133.837 20.3413 131.465 17.9108 131.465 14.5844C131.465 11.4601 133.229 9.95642 134.647 9.03035C135.862 8.24988 137.743 7.81548 138.755 7.81548C139.565 7.81388 139.941 7.84332 140.288 7.9014ZM136.44 9.9254C135.689 10.678 135.342 11.8348 135.342 13.6281C135.342 15.5956 136.47 18.2282 138.9 18.2282C139.334 18.2282 140.086 17.8805 140.231 17.7365C140.347 17.6204 140.52 17.2154 140.52 17.0133C140.549 15.1333 140.52 13.5708 140.52 11.6908C140.52 11.2851 140.346 10.6486 140.259 10.5332C139.768 9.81003 138.842 9.26028 137.916 9.26028C137.539 9.26108 136.817 9.57931 136.44 9.9254Z" fill="white"/>
<path d="M157.964 9.78128C158.341 10.3891 158.543 11.141 158.543 11.9517C158.543 12.2691 158.081 12.9064 157.704 12.9064C157.501 12.9064 152.352 12.9923 151.831 12.9923C151.628 12.9923 151.368 13.1084 151.311 13.3105C151.195 13.5126 151.195 13.6868 151.195 13.8595C151.195 16.1166 152.815 17.8223 155.302 17.8223C156.314 17.8223 157.473 17.2734 158.137 16.839C158.311 16.7236 158.571 16.9551 158.571 17.1867C158.571 17.7659 158.253 18.2289 158.05 18.4302C156.836 19.7326 155.158 20.3396 153.566 20.3396C149.921 20.3396 147.693 17.8223 147.693 14.2064C147.693 11.6899 149.111 9.75105 150.674 8.7677C151.542 8.21874 152.785 7.81299 154.029 7.81299C155.679 7.81378 157.183 8.53698 157.964 9.78128ZM151.456 11.3152C151.427 11.4313 151.456 11.6915 151.601 11.7201C151.889 11.7488 152.497 11.7774 153.395 11.7774C154.348 11.7774 155.361 11.7201 155.361 10.736C155.361 10.0995 154.928 9.05809 153.568 9.05809C152.671 9.05809 151.571 10.187 151.456 11.3152Z" fill="white"/>
<path d="M161.726 8.85579C162.478 8.59563 163.866 8.16125 164.474 7.84381C164.85 7.66957 165.11 7.5542 165.37 7.5542C165.457 7.5542 165.747 7.95996 165.747 8.07452L165.805 9.49227C165.805 9.57899 165.978 9.75243 166.065 9.57899C166.904 8.65292 167.974 7.81357 169.102 7.81357C170.028 7.81357 171.041 8.47948 171.041 8.99979C171.041 9.60763 170.317 10.6196 169.71 11.0827C169.449 11.3428 169.161 11.4876 168.986 11.4876C168.87 11.4876 168.61 11.4009 168.321 11.1988C168.148 11.0246 167.453 10.5623 167.078 10.5623C166.818 10.5623 166.413 10.6483 166.238 10.8511C166.094 10.9959 165.95 11.1988 165.95 11.4001C165.95 11.6897 165.95 15.9135 165.978 16.9255C166.036 18.1404 166.296 18.43 167.425 18.7768C167.916 18.9216 168.466 19.2112 168.466 19.5287C168.466 19.905 167.858 20.1365 167.511 20.1365C166.615 20.1365 164.879 19.9917 164.04 19.9917C163.028 19.9917 162.392 20.0784 161.581 20.0784C161.061 20.0784 160.598 19.8469 160.598 19.5287C160.598 19.2112 160.858 18.9797 161.379 18.7768C162.362 18.4005 162.449 18.1976 162.478 16.7521C162.536 15.2182 162.536 12.9905 162.536 11.4582C162.536 11.2553 162.42 11.0238 161.841 10.5321C161.465 10.2147 161.147 9.89564 161.147 9.69356C161.147 9.31883 161.523 8.94171 161.726 8.85579Z" fill="white"/>
<path d="M173.296 8.68153C173.846 8.47945 175.351 8.10313 175.93 7.81354C176.277 7.6401 176.798 7.49609 176.855 7.49609C176.942 7.49609 177.347 7.72761 177.347 7.95913C177.347 8.10393 177.261 8.85577 177.261 9.14457C177.231 9.34744 177.377 9.3188 177.463 9.26072C178.389 8.62425 179.749 7.81434 181.571 7.81434C183.162 7.81434 184.059 8.94249 184.291 9.23208C184.753 9.8972 185.216 11.2282 185.216 13.2244C185.245 14.584 185.245 15.8276 185.303 17.1299C185.331 18.2 185.476 18.3448 186.113 18.6917C186.662 18.9232 186.923 19.2414 186.923 19.5024C186.923 19.9654 186.344 20.0816 185.969 20.0816C185.593 20.0816 184.233 19.9949 183.365 19.9949C182.526 19.9949 181.543 20.0816 181.195 20.0816C180.617 20.0816 180.27 19.8787 180.27 19.5318C180.27 19.3584 180.386 19.0696 180.878 18.8954C181.543 18.6352 181.717 18.3162 181.746 17.5938C181.774 16.176 181.774 15.0192 181.774 13.7455C181.774 11.5759 181.543 10.9975 181.254 10.6212C180.965 10.2449 180.386 10.0134 179.634 10.0134C178.882 10.0134 178.216 10.1876 177.754 10.4183C177.667 10.4477 177.436 10.766 177.436 11.1129V17.5062C177.436 18.0266 177.493 18.4029 178.304 18.7211C178.94 18.9813 179.056 19.2995 179.056 19.473C179.056 19.8493 178.622 20.0808 178.101 20.0808C177.147 20.0808 176.25 19.9941 175.556 19.9941C174.658 19.9941 173.154 20.0808 172.692 20.0808C172.084 20.0808 171.766 19.9066 171.766 19.6178C171.766 19.2701 172.113 18.9813 172.402 18.8946C173.733 18.3742 173.79 18.2 173.877 17.332C173.993 16.1179 174.022 13.9476 174.022 11.4017C174.022 10.9394 173.848 10.7079 173.097 10.0714C172.778 9.81047 172.662 9.63704 172.662 9.52168C172.66 9.3188 172.891 8.85577 173.296 8.68153Z" fill="white"/>
<path d="M189.497 8.91332C190.943 8.393 193.026 7.72788 193.518 7.72788C193.663 7.72788 193.865 8.21956 193.865 8.62451V13.6288C193.894 17.419 193.952 17.5344 193.981 17.7945C194.039 18.2576 194.242 18.5464 195.052 18.8368C195.457 18.9529 195.862 19.2417 195.862 19.5886C195.862 19.8487 195.486 20.0803 194.879 20.0803C194.272 20.0803 192.797 19.9935 192.159 19.9935C190.684 19.9935 189.586 20.1097 189.18 20.1097C188.688 20.1097 188.168 19.9363 188.168 19.5894C188.168 19.2425 188.631 18.9816 188.891 18.8948C190.164 18.4899 190.193 18.3156 190.308 17.2169C190.366 16.6099 190.454 14.4403 190.454 12.791C190.454 12.2118 190.424 11.2571 190.396 11.0837C190.396 10.9675 190.279 10.6493 189.499 10.1003C189.325 9.95555 189.065 9.60867 189.065 9.43443C189.062 9.23156 189.38 8.94196 189.497 8.91332ZM193.287 2.28921C193.778 2.80953 193.923 3.53272 193.923 3.79368C193.923 5.35543 192.592 5.87654 191.898 5.87654C191.319 5.87654 190.654 5.5583 190.278 4.97911C190.076 4.69031 189.96 4.40072 189.96 3.93768C189.96 2.72281 190.799 1.82617 192.13 1.82617C192.65 1.82617 193.026 2.02825 193.287 2.28921Z" fill="white"/>
<path d="M205.696 8.01654C205.812 8.01654 206.072 8.21941 206.102 8.39285C206.188 8.68165 206.159 9.28949 206.159 9.43429C206.131 9.63716 205.899 10.0716 205.465 10.0716C204.395 10.0716 203.18 10.1002 202.514 10.1002C202.457 10.1002 202.283 10.3023 202.283 10.5052L202.225 15.3949C202.196 16.5803 202.341 16.9861 202.688 17.391C203.093 17.8246 203.585 17.94 204.019 17.94C204.424 17.94 204.858 17.8827 205.263 17.7665C205.523 17.6798 205.725 17.5637 205.899 17.5637C206.015 17.5637 206.216 17.7952 206.216 18.0267C206.216 18.4317 206.072 18.7785 205.204 19.4444C204.424 20.0515 202.948 20.3411 202.225 20.3411C201.213 20.3411 199.882 20.0515 199.129 18.8947C198.898 18.547 198.724 17.8827 198.724 16.8405C198.724 14.8157 198.841 13.3112 198.841 10.5338C198.841 10.3023 198.782 10.1575 198.001 10.0135C197.538 9.89732 197.221 9.31972 197.221 9.11684C197.221 8.91397 197.538 8.68246 197.828 8.50902C198.522 8.01734 199.767 7.1207 200.402 6.39751C200.779 5.96311 201.646 5.67432 201.849 5.67432C202.022 5.67432 202.254 6.02199 202.254 6.22328V7.78581C202.254 7.90197 202.34 8.16214 202.543 8.16214C202.861 8.16134 205.031 8.01654 205.696 8.01654Z" fill="white"/>
<path d="M208.042 8.0166C208.649 8.0166 210.935 8.16139 211.745 8.16139C212.583 8.16139 213.105 8.10412 213.481 8.10412C213.857 8.10412 214.233 8.27755 214.233 8.62443C214.233 8.8273 214.001 9.11611 213.481 9.31898C213.075 9.46378 212.96 9.63643 213.22 10.331C213.799 11.8641 214.754 14.2652 215.332 15.5095C215.39 15.6829 215.592 15.5954 215.621 15.5095C216.17 14.2358 217.269 11.2563 217.53 10.5044C217.733 9.86795 217.616 9.54971 216.807 9.28956C216.402 9.1734 216.055 8.91323 216.055 8.62443C216.055 8.33563 216.489 8.10412 216.865 8.10412C217.473 8.10412 217.936 8.16139 218.37 8.16139C218.861 8.16139 219.904 8.04524 220.626 8.04524C221.06 8.04524 221.379 8.3054 221.379 8.56556C221.379 8.85516 221.06 9.14475 220.626 9.28875C219.932 9.46299 219.556 9.80908 219.036 10.7638C218.428 11.95 216.287 17.1858 215.737 18.5749C214.464 21.7859 213.481 24.3899 213.075 25.5467C213.018 25.7782 212.295 26.6462 211.339 26.6462C210.096 26.6462 209.546 25.6629 209.546 24.7949C209.546 23.9269 210.24 23.0875 211.194 23.0875H212.091C212.351 23.0875 212.554 22.7987 212.67 22.5083C212.786 22.2482 213.133 21.3802 213.307 20.8885C213.423 20.5408 213.451 20.1653 213.423 19.9632C213.366 19.6155 213.046 19.0085 212.874 18.5455C212.122 16.4921 210.096 11.8339 209.403 10.3875C209.084 9.75099 208.563 9.49084 207.985 9.23068C207.551 9.05644 207.262 8.82572 207.262 8.50749C207.26 8.33484 207.55 8.0166 208.042 8.0166Z" fill="white"/>
</svg>
