<svg width="277" height="125" viewBox="0 0 277 125" fill="none" xmlns="http://www.w3.org/2000/svg">
<path d="M235.043 33.7963C231.642 34.3732 227.798 33.8473 224.339 33.3903C222.809 33.1863 221.274 33.4712 219.736 33.1735C218.75 33.0633 217.872 32.8293 216.918 32.6304C216.099 32.4577 215.022 32.4303 214.29 31.9981C212.933 31.2121 212.412 30.0685 210.72 30.9412C209.956 31.3173 209.264 31.9981 208.449 32.2416C207.588 32.4959 207.077 32.0121 206.512 31.4001C205.494 30.2986 203.727 29.709 202.304 29.338C201.545 29.0416 201.069 28.4335 200.271 28.2021C199.443 27.935 198.704 27.8056 197.855 28.0931C196.232 28.6432 194.926 29.0798 193.874 30.5893C193.024 31.8094 190.75 32.0523 189.389 32.3149C188.008 32.4558 186.29 33.1028 184.925 32.8739C183.513 32.6272 184.627 30.757 185.175 30.2011C185.793 29.5413 186.29 28.8089 186.758 28.0363C187.223 27.2701 187.724 26.7531 188.264 26.0717C188.86 25.3138 189.279 24.4589 189.901 23.7189C190.516 22.8494 191.23 22.0252 191.809 21.1391C192.819 19.5703 194.148 18.2572 195.462 16.9459C196.811 15.4588 197.984 13.8607 199.451 12.4608C200.692 11.2726 201.818 9.95566 203.15 8.87454C203.551 8.55072 204.442 7.62004 203.856 7.06163C202.946 6.22147 201.888 7.37016 201.395 8.09622C200.271 9.74976 198.614 11.133 197.23 12.5686C195.732 14.1259 194.29 15.7711 192.895 17.4291C190.423 20.3576 187.637 22.9839 184.651 25.3743C181.798 27.5302 178.698 29.8123 175.396 31.2325C174.636 31.5487 171.738 32.953 171.385 31.4384C171.141 30.4242 172.667 27.6309 170.482 27.694C168.84 28.2027 167.431 29.6937 166.157 30.8456C164.935 31.9433 162.994 32.9281 161.319 32.8548C159.647 32.7732 158.767 31.2025 159.071 29.6299C159.216 28.872 160.099 28.4035 160.554 27.8464C161.144 27.1178 161.826 26.3758 162.516 25.7472C163.774 24.6043 165.144 23.017 165.985 21.5426C167.016 19.7386 168.611 18.3356 169.595 16.4953C170.127 15.8374 170.565 15.0999 171.112 14.4656C171.677 13.825 171.904 13.0097 172.389 12.3244C173.252 11.1267 175.596 9.24363 175.054 7.55247C174.529 5.92315 171.663 9.04411 171.14 9.41829C169.365 10.704 167.88 12.3225 166.554 14.0538C165.304 15.6876 164.043 17.1965 162.965 18.952C162.065 20.4507 160.938 21.9028 160.195 23.4938C159.504 25.0033 158.689 26.3911 158.033 27.9483C157.242 29.8365 155.175 30.6951 153.533 31.731C152.325 32.494 150.443 33.7836 148.938 33.528C147.143 33.2245 149.629 31.4276 150.108 31.0049C151.43 29.8327 152.161 28.3774 152.82 26.7997C153.106 26.1163 152.394 25.6299 151.741 25.7032C150.812 25.8135 150.295 26.1284 149.647 26.7525C149.064 27.316 148.264 27.3039 149.007 26.3923C149.562 25.7185 150.047 25.0033 150.57 24.2977C151.79 22.6352 152.692 20.8981 152.588 18.748C152.507 16.9676 152.054 15.1139 151.309 13.5024C150.573 11.9114 149.73 10.5714 148.776 9.09255C147.81 7.58116 146.069 6.72442 144.754 5.57637C143.222 4.23645 141.338 3.9904 139.532 3.23374C135.841 2.42609 132.044 1.97541 128.267 2.54019C126.631 2.78115 124.87 3.02338 123.237 3.12219C121.655 3.21844 120.199 3.74051 118.684 4.12808C117.91 4.58131 115.529 5.15183 116.061 6.49112C116.262 7.01829 116.895 7.84825 117.352 8.19502C118.317 8.94658 118.389 8.10642 117.977 7.40649C117.19 4.90514 123.962 4.03183 125.515 3.98147C127.46 3.91964 129.392 3.55502 131.349 3.53844C132.348 3.53079 133.339 3.52187 134.334 3.44283C135.379 3.49255 136.345 3.83167 137.375 3.91645C140.9 4.20267 144.422 6.2049 146.824 8.76299C147.939 9.91741 148.779 11.3581 149.637 12.7063C149.969 13.5056 150.363 14.2272 150.631 15.0591C150.959 16.1109 150.955 17.0722 151.014 18.1852C151.061 18.9616 151.166 20.2448 150.883 20.9874C150.523 21.8913 150.044 22.7091 149.672 23.6035C149.287 24.5577 147.48 25.9633 146.427 26.7219C145 27.5149 142.818 27.7425 141.185 27.5251C137.712 27.0636 134.077 27.3887 130.582 27.3804C129.125 27.3746 127.719 28.014 126.298 28.0739C125.783 28.0924 125.245 28.4194 124.746 28.0867C124.259 27.759 124.701 26.706 124.839 26.2973C125.339 24.8459 126.214 23.4881 126.944 22.1475C127.861 20.4271 128.858 18.7601 129.819 17.0626C130.838 15.9069 131.522 14.5708 132.609 13.4846C133.01 13.0824 133.454 12.6317 133.647 12.0886C133.853 11.5034 133.422 10.7805 132.744 11.0036C132.059 11.2267 131.688 11.8234 131.372 12.42C130.971 13.1576 130.392 13.788 129.908 14.4663C128.791 16.0159 127.735 17.5891 126.772 19.2293C126.318 20.0127 125.818 20.684 125.546 21.5522C125.191 22.2432 124.636 22.6103 124.423 23.3874C124.167 24.3187 123.735 25.0868 123.552 26.0481C123.318 26.822 123.318 27.7603 122.814 28.4226C121.843 29.6778 119.945 29.2749 118.742 30.0723C117.977 30.0723 117.385 30.5664 116.706 30.8366C115.724 31.221 114.753 31.6411 113.83 32.1676C112.639 32.8554 110.368 34.0711 110.512 35.7507C110.654 37.6497 113.199 38.182 114.654 38.1367C118.534 38.0379 122.315 37.8837 126.09 36.8159C127.536 36.1817 129.123 35.8304 130.667 35.5143C132.202 35.0215 133.695 34.3535 135.238 33.9334C136.77 33.2959 138.414 32.8605 139.877 32.0771C140.758 31.6596 141.611 31.2076 142.434 30.6862C143.302 30.1284 144.337 29.818 145.148 29.192C145.728 28.7401 148.783 27.7603 147.448 29.4209C146.987 30.0035 146.716 30.6161 146.465 31.3154C146.07 32.3882 145.223 32.5699 144.355 33.1423C143.624 33.4942 142.971 34.1533 142.13 33.9882C141.667 33.899 141.836 33.1895 141.262 33.2169C140.48 33.2507 138.905 34.553 138.639 35.2803C137.958 37.1098 141.764 36.146 142.356 35.8419C143.161 35.4327 143.958 35.0719 144.784 34.7098C145.921 34.2062 146.333 34.2502 147.458 34.7346C148.325 34.9648 149.148 35.272 150.045 35.0343C150.824 34.8322 151.519 34.407 152.249 34.0711C153.808 33.345 155.014 32.2123 156.516 31.4384C157.735 30.8131 158.563 33.1009 159.362 33.7326C159.961 34.2094 160.74 34.4357 161.496 34.5345C162.468 34.6569 163.336 33.9557 164.302 33.9519C165.156 33.9519 165.717 34.6078 166.642 34.284C167.214 34.0653 167.676 33.5662 168.094 33.1429C168.585 32.6489 169.259 32.457 169.814 32.9772C170.403 33.5356 171.209 33.8639 172.034 33.8601C173.885 33.8467 175.428 32.8848 176.999 32.0338C177.784 31.6016 178.466 31.1509 179.179 30.625C179.978 30.0411 180.98 29.6943 181.715 29.0365C182.781 28.0848 184.129 26.7652 185.469 26.2062C186.417 25.8161 185.814 27.0534 185.533 27.3402C184.767 28.1173 184.379 29.1927 183.674 30.0048C183.316 30.697 182.979 31.1114 182.304 31.5028C181.783 31.5091 180.971 31.2255 180.55 31.6755C179.944 32.3232 180.754 32.9543 180.844 33.5726C180.981 34.4994 180.077 35.2886 179.539 35.9292C178.373 37.3221 177.175 38.9501 176.285 40.5316C175.325 42.2317 174.019 43.7176 172.955 45.3763C172.052 46.9699 170.87 48.3678 170.014 50.008C169.184 51.6143 168.106 53.106 167.294 54.7379C166.668 55.9898 166.31 57.514 166.021 58.8807C165.692 60.4003 165.374 62.5715 166.788 63.7132C168.091 64.7733 170.128 63.2128 171.079 62.3223C172.529 60.807 173.886 59.3364 175.145 57.6631C177.077 54.6524 179.341 51.4792 180.504 48.0963C181.139 46.6078 181.778 45.0856 182.12 43.499C182.616 41.9595 183.037 40.081 183.14 38.4593C183.193 37.586 183.279 36.7484 183.158 35.8789C183.062 35.1713 183.124 34.6091 183.94 34.4911C184.812 34.3624 185.7 34.5421 186.585 34.4261C187.628 34.2846 188.595 33.9729 189.636 33.8639C191.061 33.709 192.954 32.2677 193.755 33.8926C194.675 35.1484 196.302 35.8515 197.873 35.7852C199.161 35.7278 201.527 35.2255 202.423 34.217C202.859 33.709 202.862 33.1678 202.807 32.5482C202.733 31.6513 202.913 31.5085 203.719 31.7699C204.371 31.9872 205.057 32.3818 205.486 32.9288C206.031 33.6357 205.558 34.1386 205.46 34.8787C205.352 35.7304 206.524 36.0223 207.139 35.7214C207.897 35.3549 208.592 34.4739 209.273 33.9672C209.964 33.4553 210.63 32.7732 211.572 32.9472C212.375 33.0919 212.976 33.6829 213.762 33.8486C215.79 34.284 217.723 34.553 219.798 34.6811C223.669 35.0763 227.569 34.9731 231.459 34.9507C232.737 34.9469 234.146 35.1369 235.402 34.8347C236.736 34.5071 236.175 33.3316 235.043 33.7963C234.926 33.8174 235.42 33.6427 235.043 33.7963ZM161.379 23.5977C161.913 22.2935 163.016 20.8255 163.887 19.6959C164.976 18.2929 165.885 16.7668 167.075 15.4326C168.169 14.2138 169.101 12.9466 170.289 11.8068C171.212 10.9118 171.715 11.5869 171.038 12.5214C170.52 13.2296 170.089 13.9933 169.585 14.7091C168.665 16.0006 167.705 17.25 166.762 18.5466C166.222 19.286 165.725 20.0497 165.223 20.8204C164.79 21.4833 164.189 21.971 163.773 22.6435C163.246 23.3256 162.662 23.9968 162.022 24.573C160.902 25.5675 161.011 24.4902 161.379 23.5977C161.441 23.4601 161.253 23.898 161.379 23.5977ZM151.037 26.588C153.046 26.8864 149.384 30.0685 148.95 30.7213C147.332 30.7614 150.803 27.0814 151.037 26.588C151.226 26.6154 151.037 26.588 151.037 26.588ZM139.023 31.1095C136.677 31.8464 134.462 32.988 132.132 33.7198C130.85 34.1278 129.632 34.6601 128.339 34.9954C127.183 35.4575 125.945 35.4881 124.806 35.8853C124.31 36.0574 123.953 36.0338 123.439 36.0707C122.868 36.1128 122.42 36.4284 121.882 36.4998C121.348 36.6049 120.855 36.749 120.324 36.8733C119.907 36.8733 119.098 36.7885 118.712 36.9778C117.636 36.9804 111.106 37.7402 112.51 35.0853C112.936 34.277 113.819 33.7313 114.585 33.2851C115.553 32.7158 116.549 31.9828 117.636 31.6736C118.91 31.3173 120.156 30.8118 121.427 30.4459C122.553 30.1182 123.798 29.8798 124.883 29.3986C126.021 28.8975 127.596 28.9364 128.816 28.8331C129.554 28.7738 130.161 28.4226 130.924 28.3984C131.737 28.3723 132.554 28.4558 133.364 28.3767C135.04 28.2059 136.829 28.4029 138.52 28.3952C139.356 28.3359 140.133 28.3723 140.97 28.4067C141.573 28.4328 142.384 28.2868 142.946 28.5495C142.946 29.4387 139.741 30.7697 139.023 31.1095C138.778 31.1872 139.555 30.8589 139.023 31.1095ZM166.533 33.4464C166.085 33.6707 165.173 33.577 165.549 32.8542C165.892 32.1485 166.599 31.6908 167.217 31.2446C167.481 31.0521 170.406 28.4073 170.21 29.6727C170.091 30.3987 169.072 31.1949 168.581 31.68C167.975 32.2798 167.299 33.0473 166.533 33.4464C166.273 33.5758 167.2 33.0977 166.533 33.4464ZM181.507 39.8056C180.725 42.4089 180.606 45.1079 179.334 47.564C178.937 48.7305 178.348 49.8046 177.775 50.8985C177.464 51.5015 177.047 51.9509 176.809 52.5986C176.473 53.229 176.347 53.8939 175.995 54.5218C174.521 56.5769 173.349 58.8443 171.233 60.3085C170.385 60.9014 169.25 62.6008 168.039 62.3108C166.579 61.9532 167.346 59.9095 167.514 58.9469C168.403 53.7269 171.855 49.194 174.699 44.8433C176.117 42.6773 177.714 40.6062 179.29 38.5485C179.72 37.9831 180.571 35.9554 181.489 36.4417C181.671 36.4417 181.602 39.455 181.507 39.8056C181.436 40.0548 181.602 39.4696 181.507 39.8056ZM201.167 33.1882C200.528 34.1456 198.138 34.3401 197.091 34.2731C195.89 34.2017 193.717 32.6719 195.541 31.6876C196.165 31.353 196.804 30.9801 197.449 30.6786C198.116 30.3656 198.757 29.3718 199.443 29.4476C201.012 29.6204 202.041 31.8566 201.167 33.1882C200.942 33.528 201.379 32.8676 201.167 33.1882Z" fill="black"/>
<path d="M111.313 18.2426C110.296 18.2464 108.941 20.0159 108.216 20.6598C106.967 21.7632 105.706 23.012 104.538 24.2078C103.847 24.9211 103.18 25.6784 102.377 26.2662C101.742 26.7315 100.876 27.5251 100.126 27.7374C99.4212 27.935 98.8062 28.3576 98.1119 28.5527C97.3928 28.7516 96.4891 28.8421 95.821 29.1417C95.1434 29.4387 94.55 29.3329 93.8239 29.3514C93.0562 29.3661 92.5491 29.7536 91.994 30.2356C91.4275 30.7219 90.7442 31.0649 90.1681 31.5513C89.3908 32.211 88.7087 32.9568 87.904 33.5873C86.5116 34.6862 84.966 35.295 83.469 36.1951C82.9044 36.1951 81.8352 36.4915 81.4884 35.8694C81.0203 35.0298 81.7081 34.1457 82.2446 33.5465C83.0711 32.6266 84.5496 30.4402 85.9828 30.4791C86.5551 30.4988 86.2383 31.6628 87.1024 31.6819C87.6434 31.6953 88.4596 30.6939 88.6218 30.2458C89.3442 28.2219 86.815 28.728 85.8219 29.0059C83.8522 29.5688 82.5767 31.3791 80.7821 32.2913C79.3987 32.9913 77.8678 34.3656 76.3298 34.655C75.1623 34.655 76.5036 33.4139 76.7737 33.1551C77.4756 32.4953 77.8416 31.956 77.4801 31.0037C76.2027 27.7642 70.8136 34.553 69.7968 35.6067C69.2775 36.1556 68.8567 37.1997 68.1944 37.5388C67.5314 37.8773 66.7867 37.8474 66.1391 38.2152C64.6203 38.4281 63.198 38.727 61.7233 39.1401C61.296 39.3594 59.9356 39.8904 59.9982 38.9055C60.0474 38.2056 60.7397 37.5038 61.0999 36.9339C62.1397 35.2854 63.41 33.79 64.4287 32.1326C65.3644 30.6072 66.5874 29.1697 67.6534 27.7062C68.7768 26.1622 69.6901 24.4539 70.8768 22.9438C72.0328 21.477 73.0483 19.9018 74.0625 18.3324C74.3716 17.5356 74.9912 16.9415 75.5021 16.2518C76.1555 15.3708 76.7629 14.523 77.3837 13.6108C78.5231 11.9458 79.681 10.2368 80.669 8.45896C81.4456 7.06677 82.2759 5.31824 82.5614 3.74374C82.7779 2.53959 83.6529 0.619593 81.9004 0.0924208C80.547 -0.321922 78.7811 0.743896 77.749 1.56366C76.296 2.72127 74.8264 3.83107 73.3344 4.96956C71.8131 6.12781 70.4566 7.40016 68.9901 8.6196C68.3668 9.29912 67.677 9.77721 66.9266 10.3012C66.302 10.9342 65.6754 11.5264 65.0035 12.1128C64.209 12.698 63.6144 13.4776 62.8473 14.0602C62.0675 14.6448 61.2404 15.077 60.5583 15.7896C59.516 16.8797 58.413 17.7345 57.2187 18.7181C55.6654 19.9994 54.3721 21.6822 52.7243 22.8341C49.5347 25.0607 46.738 27.819 43.7145 30.2834C42.2838 31.4429 41.1796 33.027 39.9757 34.4134C39.5043 34.9597 38.9046 35.7017 39.2744 36.4705C39.6167 37.178 40.4706 37.2845 41.1016 36.9173C42.3924 36.16 42.1593 34.5441 43.0981 33.3954C44.3723 31.8407 45.8821 30.3325 47.3454 28.9517C48.6189 27.7425 49.8266 26.2674 51.2304 25.2258C52.831 24.0459 54.374 22.8201 55.8008 21.4432C58.5011 18.8246 61.4589 16.4826 64.2199 13.9315C65.5113 12.8969 66.7082 11.6966 67.9849 10.6244C69.6263 9.2494 71.4075 8.00892 72.9346 6.51028C74.1532 5.31378 75.497 4.33274 76.8714 3.34852C77.8684 2.63521 79.324 1.46358 80.6262 1.42214C82.9018 1.35139 79.1534 8.56223 78.615 9.35139C76.5189 12.4061 74.5856 15.5379 72.439 18.5434C71.3143 20.1122 70.3793 21.7734 69.2686 23.3447C68.036 24.8593 66.8161 26.4332 65.8012 28.102C64.9614 29.4795 63.9899 30.8768 62.8818 32.0434C62.3358 32.6145 61.9787 33.4649 61.5285 34.1176C60.9032 35.0292 60.2134 35.8866 59.5926 36.8058C58.5982 38.2311 57.8842 40.2034 56.4676 41.2603C54.862 42.4593 53.0098 43.3594 51.2898 44.3723C47.9866 46.866 44.7811 49.1953 41.9447 52.2308C39.4941 54.8055 37.5953 57.5701 35.784 60.6069C35.2482 62.2413 34.4013 63.7247 34.0462 65.4241C33.9025 66.1419 33.3385 66.873 33.8763 67.5774C34.2895 68.125 35.2769 68.1875 35.8549 67.8764C37.2594 67.1115 38.3419 65.3432 39.3268 64.1371C40.6533 62.9566 41.6854 61.4764 42.9257 60.2066C45.4772 57.5873 47.6787 54.532 50.0003 51.6953C52.4101 48.7414 54.5707 45.6721 57.0986 42.7965C59.4279 40.1492 63.6783 40.2722 66.7631 39.2249C67.5378 38.9597 68.3936 39.0375 69.1798 39.2185C70.173 39.4391 70.9055 38.8915 71.6413 38.3082C72.241 37.8404 73.0521 37.0161 73.8831 37.0569C74.8813 37.0977 75.5526 37.2258 76.418 36.5897C77.1473 36.0555 79.391 34.1827 79.7634 35.7699C80.114 37.2552 81.7394 38.2974 83.2525 37.6778C84.4755 37.1079 86.2153 35.979 87.4128 36.9702C88.9297 38.2228 91.0469 36.8561 92.2054 35.7763C93.5064 34.567 94.3961 33.5356 94.6771 31.7597C94.7927 31.0687 95.9315 30.6735 96.5146 30.5352C97.311 30.3529 98.064 29.834 98.8662 29.6899C100.343 29.4254 99.0712 31.3447 98.8119 31.8305C98.0589 33.2201 97.0045 34.9999 97.6067 36.6611C98.1541 38.1788 100.433 38.5632 101.636 37.6396C103.124 36.4928 104.725 35.0037 105.189 33.1041C105.552 31.4601 105.313 29.7033 104.043 28.4864C102.682 27.1777 105.383 25.3578 106.374 24.6241C107.887 23.5034 109.252 21.9665 110.603 20.6579C111.05 20.2167 112.735 18.5198 111.313 18.2426C110.568 18.2464 112.802 18.532 111.313 18.2426ZM51.8218 46.8399C51.0305 48.6502 49.3904 50.2502 48.2299 51.8617C46.9155 53.7033 45.1822 55.1969 43.8486 57.0244C42.5336 58.8297 40.9024 60.5406 39.3606 62.1553C38.6619 62.8877 38.0168 63.6558 37.3596 64.4265C36.9886 64.8613 36.5945 65.2807 35.9897 65.1876C35.2328 65.0646 35.7527 64.1684 35.9584 63.7158C36.3448 62.9196 36.3978 61.9717 36.9336 61.2705C37.6317 60.3551 38.0954 59.2485 38.6906 58.2713C39.9871 56.1473 41.7033 54.3994 43.3964 52.5929C45.0123 50.8584 46.6645 49.0901 48.6815 47.8037C49.5111 47.2765 50.1919 46.5467 51.1027 46.1878C52.0543 45.6625 52.283 45.9551 51.8218 46.8399C51.7497 47.0094 51.9458 46.604 51.8218 46.8399ZM73.0068 35.7533C72.7143 36.0402 70.8008 37.5044 70.9867 36.1454C71.0959 35.3403 71.8495 34.583 72.3675 34.0188C72.713 33.6364 74.0855 31.9905 74.3914 33.0384C74.6271 33.862 73.5388 35.2102 73.0068 35.7533C72.6134 36.1454 73.4532 35.295 73.0068 35.7533ZM92.9942 32.6789C92.8052 33.7199 91.7916 34.416 90.9907 34.9355C90.6707 35.1401 88.2846 36.2231 89.0319 34.8233C89.4004 34.1374 90.2396 33.3317 90.8157 32.8262C91.2289 32.4615 93.3053 31.0222 92.9942 32.6789C92.9744 32.8153 93.0485 32.4016 92.9942 32.6789ZM103.88 32.4016C103.581 34.2655 102.373 35.4671 100.702 36.2837C99.1798 37.0168 98.8311 35.0751 99.2252 34.0137C99.6971 32.6929 100.439 30.7927 101.575 29.9003C103.334 28.5113 104.067 31.2019 103.88 32.4016C103.753 33.1863 104.036 31.4212 103.88 32.4016Z" fill="black"/>
<path d="M191.906 47.9683C192.47 47.9556 193.28 47.9422 193.634 48.4732C194.264 49.4147 193.29 50.1159 192.448 50.1707C191.798 50.207 191.906 50.1369 191.906 49.5352C191.906 49.0125 191.906 48.4929 191.906 47.9683ZM191.906 50.8694C193.388 50.8942 194.985 50.2045 194.426 48.4069C194.011 47.0944 192.22 47.2811 191.133 47.2811C191.133 48.5197 191.133 49.7564 191.133 50.9924C191.133 51.6674 191.137 52.3457 191.137 53.0201C191.137 53.627 191.282 53.4568 191.908 53.4568C191.908 52.5937 191.906 51.728 191.906 50.8694Z" fill="black"/>
<path d="M204.249 51.1917H202.053C202.417 50.3617 202.785 49.5299 203.15 48.6999C203.517 49.5292 203.889 50.3617 204.249 51.1917ZM204.572 51.898C204.765 52.3194 204.955 52.7388 205.149 53.1633C205.347 53.5943 205.646 53.4508 206.107 53.4508C205.12 51.3013 204.137 49.1531 203.15 47.0068C202.168 49.1595 201.183 51.3013 200.201 53.4508C200.667 53.4508 200.962 53.6006 201.159 53.1684C201.285 52.8886 201.484 52.0688 201.735 51.9012C201.95 51.7507 202.771 51.9012 203.029 51.9012C203.544 51.898 204.063 51.898 204.572 51.898Z" fill="black"/>
<path d="M213.705 47.9554C214.275 47.942 215.08 47.942 215.44 48.4807C216.071 49.4279 215.103 50.1253 214.254 50.1801C213.6 50.2203 213.708 50.1425 213.708 49.5388C213.707 49.0123 213.707 48.4845 213.705 47.9554ZM214.828 50.7519C216.11 50.6034 216.72 49.0761 216.009 48.0332C215.354 47.0604 213.963 47.2631 212.938 47.2631C212.938 49.3215 212.937 51.3817 212.939 53.4432C213.911 53.4394 213.706 53.3234 213.706 52.38C213.706 52.2805 213.67 50.321 214.042 50.8488C214.501 51.5079 214.958 52.1632 215.418 52.823C215.89 53.4981 215.93 53.44 216.789 53.44C216.135 52.5438 215.482 51.6475 214.828 50.7519Z" fill="black"/>
<path d="M224.462 53.436C223.984 53.436 223.685 53.6241 223.685 53.1275C223.685 52.4091 223.685 51.6894 223.685 50.9672C223.685 49.7318 223.682 48.4983 223.682 47.261C224.157 47.261 224.451 47.0743 224.451 47.5702C224.454 48.288 224.454 49.0077 224.454 49.7273C224.454 50.957 224.454 52.1968 224.462 53.436Z" fill="black"/>
<path d="M234.672 48.4212C233.863 47.0743 231.811 48.527 233.038 49.371C233.932 49.981 235.258 49.9919 235.459 51.3108C235.669 52.6424 234.513 53.7573 233.187 53.5316C232.569 53.4296 232.044 53.0179 231.775 52.4512C231.436 51.7194 231.752 51.801 232.376 51.6671C232.367 52.8432 234.009 53.2843 234.563 52.2325C235.166 51.1144 234.023 50.6638 233.223 50.2838C229.921 48.8719 233.85 45.4934 235.29 48.0585C235.084 48.1809 234.877 48.3045 234.672 48.4212Z" fill="black"/>
<path d="M0.125 106.166V87.0889H2.29395V104.166H7.86897V106.166H0.125Z" fill="black"/>
<path d="M17.2623 106.166L16.3835 101.918H12.1267L11.2753 106.166H9.1875L13.252 87.0886H15.285L19.4038 106.166H17.2623ZM14.4055 86.4582L9.95647 83.9364L11.3022 82.374L15.2013 85.4714L14.4055 86.4582ZM14.1864 91.0083L13.39 95.4488L12.4837 99.9173H15.999L15.0653 95.394L14.2963 91.0083H14.1864Z" fill="black"/>
<path d="M36.7609 101.04C36.7609 102.74 36.4268 104.052 35.7588 104.974C35.0901 105.896 33.95 106.358 32.3393 106.358C30.7643 106.358 29.6428 105.929 28.9747 105.07C28.306 104.21 27.9727 103.078 27.9727 101.671V92.269C27.9727 91.5927 28.0314 90.9348 28.1508 90.2948C28.2696 89.6555 28.4893 89.0849 28.8093 88.5813C29.1299 88.079 29.5738 87.6768 30.1416 87.3753C30.7094 87.0738 31.4503 86.9233 32.3661 86.9233C33.3177 86.9233 34.0829 87.0559 34.659 87.3205C35.2357 87.5857 35.6796 87.9554 35.9913 88.4303C36.3023 88.9058 36.5086 89.4629 36.6095 90.1023C36.7098 90.7423 36.7602 91.4454 36.7602 92.2135V101.04H36.7609ZM34.5913 91.8751C34.5913 91.5468 34.5683 91.2102 34.5229 90.8641C34.4776 90.5179 34.3805 90.2043 34.2349 89.9219C34.0886 89.6395 33.8638 89.403 33.5617 89.2118C33.2596 89.0206 32.8611 88.9249 32.3674 88.9249C31.8181 88.9249 31.396 89.0569 31.1035 89.3208C30.8103 89.5847 30.5906 89.899 30.4443 90.2636C30.2981 90.6282 30.2112 91.0151 30.1838 91.4237C30.1563 91.8343 30.1429 92.1753 30.1429 92.4481V101.68C30.1429 101.953 30.1703 102.244 30.2253 102.554C30.2802 102.863 30.3901 103.154 30.5555 103.428C30.7202 103.701 30.9438 103.924 31.228 104.097C31.5122 104.27 31.882 104.356 32.3406 104.356C32.7979 104.356 33.1734 104.265 33.4666 104.084C33.7591 103.901 33.9884 103.669 34.1531 103.387C34.3179 103.104 34.4322 102.781 34.4961 102.417C34.5606 102.054 34.5919 101.68 34.5919 101.297V91.8751H34.5913Z" fill="black"/>
<path d="M49.0363 87.0886V101.013C49.0363 102.713 48.7061 104.028 48.0476 104.96C47.3885 105.892 46.2523 106.357 44.6421 106.357C43.0672 106.357 41.9412 105.923 41.2642 105.056C40.5859 104.188 40.248 103.05 40.248 101.643V87.088H42.417V101.67C42.417 101.944 42.4445 102.237 42.4994 102.547C42.5543 102.858 42.6642 103.15 42.8296 103.425C42.9944 103.699 43.2179 103.922 43.5021 104.096C43.7863 104.27 44.1568 104.357 44.6147 104.357C45.072 104.357 45.4475 104.265 45.7407 104.082C46.0332 103.899 46.2625 103.667 46.4273 103.383C46.592 103.099 46.7064 102.776 46.7702 102.41C46.8341 102.045 46.866 101.67 46.866 101.286V87.088H49.0363V87.0886ZM45.2189 86.4582L40.7698 83.9364L42.1155 82.374L46.0147 85.4714L45.2189 86.4582Z" fill="black"/>
<path d="M63.0155 86.9243C64.4978 86.9243 65.5734 87.3266 66.2421 88.1304C66.9108 88.9348 67.2442 89.9854 67.2442 91.2826L65.0752 91.6663C65.0931 90.8262 64.9424 90.1587 64.6218 89.6654C64.3011 89.172 63.757 88.9253 62.9874 88.9253C62.548 88.9253 62.1916 89.026 61.9163 89.2268C61.6417 89.4282 61.4264 89.6794 61.2706 89.9809C61.1154 90.2824 61.01 90.6158 60.9551 90.9811C60.9002 91.347 60.8727 91.6937 60.8727 92.0226V101.644C60.8727 101.918 60.9002 102.215 60.9551 102.535C61.01 102.855 61.1154 103.147 61.2706 103.412C61.4264 103.677 61.6366 103.901 61.9023 104.084C62.1673 104.266 62.5205 104.358 62.9593 104.358C63.6733 104.358 64.1996 104.139 64.5387 103.7C64.8772 103.262 65.0561 102.567 65.0746 101.617L67.2991 102.001C67.2614 103.371 66.891 104.44 66.1865 105.208C65.482 105.975 64.4244 106.359 63.0148 106.359C61.5676 106.359 60.4882 105.957 59.7742 105.153C59.0601 104.348 58.7031 103.216 58.7031 101.754V92.3248C58.7031 91.6485 58.7619 90.9862 58.8813 90.3379C59.0001 89.6889 59.2147 89.1133 59.5264 88.611C59.8374 88.1081 60.2775 87.702 60.8446 87.3909C61.413 87.0792 62.1367 86.9243 63.0155 86.9243Z" fill="black"/>
<path d="M78.8605 101.04C78.8605 102.74 78.5264 104.052 77.8584 104.974C77.1897 105.896 76.0497 106.358 74.4389 106.358C72.8639 106.358 71.7424 105.929 71.0744 105.07C70.4057 104.21 70.0723 103.078 70.0723 101.671V92.269C70.0723 91.5927 70.131 90.9348 70.2505 90.2948C70.3693 89.6555 70.589 89.0849 70.9089 88.5813C71.2296 88.079 71.6734 87.6768 72.2412 87.3753C72.809 87.0738 73.5499 86.9233 74.4657 86.9233C75.4174 86.9233 76.1825 87.0559 76.7586 87.3205C77.3353 87.5857 77.7792 87.9554 78.0909 88.4303C78.4019 88.9058 78.6082 89.4629 78.7091 90.1023C78.8094 90.7423 78.8598 91.4454 78.8598 92.2135V101.04H78.8605ZM76.6909 91.8751C76.6909 91.5468 76.6679 91.2102 76.6225 90.8641C76.5772 90.5179 76.4801 90.2043 76.3345 89.9219C76.1882 89.6395 75.9634 89.403 75.6613 89.2118C75.3592 89.0206 74.9607 88.9249 74.467 88.9249C73.9177 88.9249 73.4956 89.0569 73.2031 89.3208C72.9099 89.5847 72.6902 89.899 72.544 90.2636C72.3977 90.6282 72.3108 91.0151 72.2834 91.4237C72.2559 91.8343 72.2425 92.1753 72.2425 92.4481V101.68C72.2425 101.953 72.27 102.244 72.3249 102.554C72.3798 102.863 72.4897 103.154 72.6551 103.428C72.8199 103.701 73.0434 103.924 73.3276 104.097C73.6118 104.27 73.9816 104.356 74.4402 104.356C74.8975 104.356 75.273 104.265 75.5662 104.084C75.8587 103.901 76.088 103.669 76.2528 103.387C76.4175 103.104 76.5319 102.781 76.5957 102.417C76.6602 102.054 76.6915 101.68 76.6915 101.297V91.8751H76.6909Z" fill="black"/>
<path d="M92.7009 92.9547L91.1904 96.9011L89.2131 101.534H88.1963L86.219 96.9011L84.7085 92.9547H84.5986V106.166H82.4297V87.0889H84.6261L86.9055 93.0369L88.6632 97.6967H88.7456L90.5581 92.9005L92.7827 87.0895H95.0065V106.167H92.8376V92.9553H92.7009V92.9547Z" fill="black"/>
<path d="M109.013 92.9547L107.503 96.9011L105.526 101.534H104.509L102.531 96.9011L101.021 92.9547H100.911V106.166H98.7422V87.0889H100.939L103.218 93.0369L104.976 97.6967H105.058L106.871 92.9005L109.095 87.0895H111.319V106.167H109.15V92.9553H109.013V92.9547Z" fill="black"/>
<path d="M115.057 106.166V87.0889H123.24V89.0898H117.226V95.4771H122.444V97.478H117.226V104.166H123.24V106.167H115.057V106.166Z" fill="black"/>
<path d="M128.019 93.1191V106.166H125.85V87.0889H127.909L131.864 96.7647L133.182 100.246L133.291 100.218V87.0889H135.461V106.166H133.428L129.474 96.5729L128.101 93.1191H128.019Z" fill="black"/>
<path d="M143.26 86.9243C144.742 86.9243 145.818 87.3266 146.486 88.1304C147.155 88.9348 147.488 89.9854 147.488 91.2826L145.319 91.6663C145.337 90.8262 145.187 90.1587 144.866 89.6654C144.545 89.172 144.001 88.9253 143.232 88.9253C142.792 88.9253 142.436 89.026 142.16 89.2268C141.886 89.4282 141.671 89.6794 141.515 89.9809C141.36 90.2824 141.254 90.6158 141.199 90.9811C141.144 91.347 141.117 91.6937 141.117 92.0226V101.644C141.117 101.918 141.144 102.215 141.199 102.535C141.254 102.855 141.36 103.147 141.515 103.412C141.671 103.677 141.881 103.901 142.146 104.084C142.411 104.266 142.765 104.358 143.203 104.358C143.917 104.358 144.444 104.139 144.783 103.7C145.121 103.262 145.3 102.567 145.319 101.617L147.543 102.001C147.506 103.371 147.135 104.44 146.431 105.208C145.726 105.975 144.669 106.359 143.259 106.359C141.812 106.359 140.732 105.957 140.018 105.153C139.304 104.348 138.947 103.216 138.947 101.754V92.3248C138.947 91.6485 139.006 90.9862 139.125 90.3379C139.244 89.6889 139.459 89.1133 139.771 88.611C140.082 88.1081 140.522 87.702 141.089 87.3909C141.658 87.0792 142.381 86.9243 143.26 86.9243Z" fill="black"/>
<path d="M150.482 106.166V87.0889H158.666V89.0898H152.651V95.4771H157.869V97.478H152.651V104.166H158.666V106.167H150.482V106.166Z" fill="black"/>
<path d="M167.537 106.166V87.0889H169.706V104.166H175.281V106.166H167.537Z" fill="black"/>
<path d="M176.709 92.3791V87.0889H178.384V92.3791H176.709Z" fill="black"/>
<path d="M182.148 106.166V87.0885H190.332V89.0894H184.317V95.4767H189.535V97.4777H184.317V104.166H190.332V106.167H182.148V106.166ZM184.372 85.5261L188.272 82.4287L189.617 83.9911L185.168 86.5129L184.372 85.5261Z" fill="black"/>
<path d="M193.023 106.166V87.0889H195.192V104.166H200.767V106.166H193.023Z" fill="black"/>
<path d="M203.184 106.166V87.0885H211.367V89.0894H205.353V95.4767H210.571V97.4777H205.353V104.166H211.367V106.167H203.184V106.166ZM205.407 85.5261L209.307 82.4287L210.652 83.9911L206.203 86.5129L205.407 85.5261Z" fill="black"/>
<path d="M218.288 106.358C216.841 106.358 215.762 105.957 215.048 105.152C214.334 104.348 213.977 103.215 213.977 101.753V92.324C213.977 91.6477 214.036 90.9854 214.155 90.3371C214.274 89.6882 214.488 89.1125 214.8 88.6102C215.111 88.1073 215.551 87.7012 216.118 87.3901C216.686 87.0797 217.409 86.9248 218.288 86.9248C219.77 86.9248 220.837 87.3041 221.487 88.062C222.137 88.8199 222.48 89.8488 222.517 91.1454L220.347 91.6662C220.365 90.826 220.215 90.1586 219.894 89.6652C219.574 89.1718 219.029 88.9251 218.26 88.9251C217.821 88.9251 217.464 89.0258 217.188 89.2266C216.914 89.4281 216.699 89.6792 216.543 89.9807C216.388 90.2823 216.282 90.6156 216.227 90.9809C216.172 91.3468 216.145 91.6936 216.145 92.0225V101.644C216.145 101.918 216.172 102.215 216.227 102.535C216.282 102.855 216.388 103.147 216.543 103.412C216.699 103.677 216.909 103.901 217.174 104.084C217.44 104.266 217.793 104.358 218.232 104.358H218.26C218.955 104.358 219.504 104.176 219.907 103.81C220.31 103.444 220.511 102.942 220.511 102.302V97.7519H218.287V95.8606H222.681V102.028C222.681 102.741 222.566 103.367 222.337 103.905C222.109 104.445 221.797 104.897 221.404 105.262C221.01 105.628 220.543 105.902 220.004 106.085C219.464 106.266 218.892 106.358 218.288 106.358Z" fill="black"/>
<path d="M233.229 106.166L232.35 101.918H228.093L227.242 106.166H225.154L229.219 87.0889H231.252L235.371 106.166H233.229ZM230.153 91.0086L229.356 95.449L228.45 99.9176H231.965L231.031 95.3942L230.262 91.0086H230.153Z" fill="black"/>
<path d="M240.013 93.1191V106.166H237.844V87.0889H239.903L243.858 96.7647L245.176 100.246L245.286 100.218V87.0889H247.455V106.166H245.422L241.468 96.5729L240.095 93.1191H240.013Z" fill="black"/>
<path d="M255.254 86.9243C256.736 86.9243 257.812 87.3266 258.48 88.1304C259.149 88.9348 259.482 89.9854 259.482 91.2826L257.313 91.6663C257.331 90.8262 257.181 90.1587 256.86 89.6654C256.539 89.172 255.995 88.9253 255.226 88.9253C254.786 88.9253 254.43 89.026 254.155 89.2268C253.88 89.4282 253.665 89.6794 253.509 89.9809C253.354 90.2824 253.248 90.6158 253.193 90.9811C253.138 91.347 253.111 91.6937 253.111 92.0226V101.644C253.111 101.918 253.138 102.215 253.193 102.535C253.248 102.855 253.354 103.147 253.509 103.412C253.665 103.677 253.875 103.901 254.141 104.084C254.406 104.266 254.759 104.358 255.198 104.358C255.912 104.358 256.438 104.139 256.777 103.7C257.116 103.262 257.294 102.567 257.313 101.617L259.537 102.001C259.5 103.371 259.129 104.44 258.425 105.208C257.72 105.975 256.663 106.359 255.253 106.359C253.806 106.359 252.727 105.957 252.012 105.153C251.298 104.348 250.941 103.216 250.941 101.754V92.3248C250.941 91.6485 251 90.9862 251.12 90.3379C251.238 89.6889 251.453 89.1133 251.765 88.611C252.076 88.1081 252.516 87.702 253.083 87.3909C253.651 87.0792 254.375 86.9243 255.254 86.9243Z" fill="black"/>
<path d="M262.477 106.166V87.0889H270.66V89.0898H264.646V95.4771H269.864V97.478H264.646V104.166H270.66V106.167H262.477V106.166Z" fill="black"/>
<path d="M276.331 89.9751L275.53 90.5182L274.569 88.9202L273.593 90.5342L272.808 89.9751L274.009 88.5045L272.264 88.0405L272.584 87.1296L274.233 87.8167L274.089 85.9312H275.05L274.905 87.8167L276.538 87.1296L276.875 88.0405L275.113 88.5045L276.331 89.9751Z" fill="black"/>
<path d="M124.91 124.537V122.481H151.274V124.537H124.91Z" fill="black"/>
</svg>
