<svg width="455" height="330" viewBox="0 0 455 330" fill="none" xmlns="http://www.w3.org/2000/svg">
<g style="mix-blend-mode:multiply">
<path d="M443.205 211.741C440.393 206.123 441.118 206.123 435.584 203.495C430.052 200.867 430.959 202.951 428.69 204.038C426.423 205.125 422.885 204.038 422.885 204.038L383.152 186.641L362.83 171.145L351.219 155.65L339.064 140.699C339.064 140.699 339.424 139.52 340.332 138.252C341.24 136.984 340.515 136.802 339.698 134.628C338.881 132.453 340.061 131.819 341.515 130.55C342.969 129.281 341.967 123.934 341.967 123.028C341.967 122.122 338.125 122.273 338.125 122.273L344.415 97.3854L340.545 95.4501L341.755 87.9598L340.061 76.1196C340.061 76.1196 335.949 44.948 332.562 26.584C330.695 16.4622 329.345 6.71676 328.507 0H57.6479C54.4499 3.10998 51.6023 6.49029 50.5692 9.42882C42.27 33.0447 34.4361 64.6692 31.5334 73.8517C28.6308 83.0325 24.5673 98.5864 23.0665 103.186C18.8083 116.233 23.6485 107.536 18.8083 116.233C13.9705 124.933 0 146.969 0 146.969C0 146.969 19.8373 148.131 28.5461 148.494C37.2558 148.856 37.7994 154.836 40.5209 159.367C43.2423 163.899 47.5971 165.892 49.7749 168.429C51.9503 170.966 50.0152 232.945 50.0152 232.945L53.8503 245.074L82.7397 284.232L116.093 330C128.367 322.447 156.213 313.651 156.213 313.651C156.213 313.651 190.321 303.987 195.401 303.987C200.48 303.987 203.627 302.537 203.627 302.537C203.627 302.537 215.143 290.758 222.253 289.246C229.364 287.735 228.785 290.937 235.559 287.798C242.332 284.658 247.653 280.066 247.653 280.066C247.653 280.066 259.509 275.958 270.635 276.685C281.763 277.408 280.311 280.549 296.52 279.824C312.728 279.098 310.55 282.24 331.354 277.649C352.159 273.059 361.8 271.133 372.462 268.591C383.122 266.05 454.002 232.947 454.002 232.947C454.002 232.947 446.017 217.359 443.205 211.741Z" fill="#E54E67"/>
</g>
</svg>
