<svg width="91" height="91" viewBox="0 0 91 91" fill="none" xmlns="http://www.w3.org/2000/svg">
<path d="M90.853 45.428C90.853 70.517 70.514 90.856 45.426 90.856C20.338 90.855 0 70.517 0 45.428C0 20.339 20.338 0 45.426 0C70.514 0 90.853 20.339 90.853 45.428Z" fill="#929497"/>
<path d="M39.7755 68.0299C22.7605 68.0299 7.93253 58.6739 0.150531 44.8249C0.149531 44.9529 0.144531 45.0809 0.144531 45.2079C0.144531 70.2969 20.4825 90.6359 45.5715 90.6359C70.6605 90.6359 90.9995 70.2969 90.9995 45.2079C90.9995 37.1349 88.8905 29.5569 85.1985 22.9839C84.9915 47.8979 64.7375 68.0299 39.7755 68.0299Z" fill="#231F20"/>
<path d="M49.3755 46.8818L48.2705 44.5158C52.6735 42.3048 56.2705 39.4238 58.6875 36.4048L62.4185 36.6768C59.4455 40.4788 54.9285 44.1148 49.3755 46.8818ZM31.0415 51.3418L33.2875 48.2188C37.1265 48.3218 41.6205 47.4338 46.1265 45.5088L47.2355 47.8828C41.5525 50.3648 35.8665 51.4998 31.0415 51.3418ZM53.6065 34.3988C54.7075 32.6218 55.1365 30.8308 54.7085 29.2828L59.0245 27.2668C59.7445 29.4878 59.1205 32.0998 57.4545 34.6788L53.6065 34.3988ZM46.4475 40.6168C48.9415 39.3148 51.0085 37.6778 52.4715 35.9508L56.3205 36.2308C54.2645 38.7568 51.2525 41.1638 47.5765 43.0328L46.4475 40.6168ZM36.9265 43.1608C39.1635 43.1638 41.7225 42.6538 44.3055 41.6088L45.4345 44.0238C41.6595 45.6108 37.9045 46.3548 34.6725 46.2928L36.9265 43.1608ZM26.1775 42.6168L30.4935 40.5988C31.3905 41.8978 32.9985 42.7118 35.0175 43.0208L32.7645 46.1538C29.7705 45.7618 27.4055 44.5698 26.1775 42.6168ZM24.6625 33.9198C22.7105 36.9728 22.0115 40.0648 22.9515 42.6668L18.6315 44.6858C17.3865 41.4148 18.2845 37.4968 20.8175 33.6388L24.6625 33.9198ZM36.1515 24.1628C31.7405 26.4078 28.1465 29.3198 25.7625 32.3668L21.9305 32.0858C24.9035 28.2518 29.4465 24.5778 35.0445 21.7888L36.1515 24.1628ZM51.3095 20.3688C47.4185 20.2638 42.8565 21.1768 38.2885 23.1558L37.1825 20.7888C42.9135 18.2848 48.6445 17.1558 53.4925 17.3358L51.3095 20.3688ZM47.7915 31.0588C47.4245 30.6518 46.8955 30.3618 46.2495 30.1998L48.1825 27.5118C49.6475 27.7708 50.8205 28.3778 51.4975 29.3278L47.7915 31.0588ZM47.9255 33.9838C48.2265 33.3918 48.3725 32.8068 48.3225 32.2668L52.0275 30.5358C52.2845 31.6648 51.9835 32.9448 51.2275 34.2258L47.9255 33.9838ZM44.7825 37.0508C45.5515 36.5998 46.2225 36.0818 46.7675 35.5328L50.0775 35.7758C48.9875 37.0068 47.5155 38.1748 45.7515 39.1258L44.7825 37.0508ZM40.2565 38.5278C41.0055 38.4758 41.8135 38.3118 42.6355 38.0358L43.6045 40.1088C41.7595 40.8238 39.9405 41.1878 38.3225 41.2148L40.2565 38.5278ZM36.8815 37.6148C37.2415 37.9778 37.7465 38.2378 38.3485 38.3888L36.4155 41.0768C34.9975 40.8268 33.8585 40.2468 33.1735 39.3468L36.8815 37.6148ZM33.2725 34.5488L36.5825 34.7908C36.3225 35.3588 36.2205 35.9178 36.2955 36.4308L32.5895 38.1638C32.2995 37.0628 32.5695 35.8078 33.2725 34.5488ZM37.9745 28.0628C35.4735 29.3968 33.4135 31.0678 31.9765 32.8208L28.1275 32.5388C30.1525 29.9878 33.1615 27.5478 36.8455 25.6488L37.9745 28.0628ZM44.3415 30.0588C43.5365 30.1168 42.6635 30.3048 41.7775 30.6218L40.8075 28.5468C42.7155 27.7858 44.6025 27.4008 46.2745 27.3728L44.3415 30.0588ZM39.6455 31.6368C38.8625 32.1138 38.1935 32.6598 37.6585 33.2348L34.3565 32.9928C35.4225 31.7378 36.9035 30.5428 38.6765 29.5608L39.6455 31.6368ZM43.4905 36.8458C40.9725 38.0228 38.3955 37.8348 37.7385 36.4268C37.0795 35.0158 38.5885 32.9198 41.1065 31.7418C43.6255 30.5638 46.2015 30.7528 46.8595 32.1628C47.5185 33.5718 46.0115 35.6688 43.4905 36.8458ZM47.6705 25.4278C45.3815 25.4248 42.7545 25.9588 40.1085 27.0548L38.9805 24.6408C42.8165 22.9978 46.6395 22.2308 49.9235 22.2948L47.6705 25.4278ZM25.6065 41.4278C24.8485 39.2378 25.4255 36.6528 27.0265 34.0918L30.8785 34.3728C29.8355 36.1288 29.4585 37.8918 29.9225 39.4098L25.6065 41.4278ZM54.1625 28.0808C53.2795 26.7278 51.6455 25.8818 49.5795 25.5668L51.8335 22.4338C54.8775 22.8318 57.2695 24.0528 58.4795 26.0648L54.1625 28.0808ZM61.1325 24.8238C59.7255 22.4078 56.8645 20.9548 53.2175 20.5098L55.3985 17.4788C59.9815 18.0068 63.5625 19.8348 65.2755 22.8868L61.1325 24.8238ZM29.1315 51.2038C24.5435 50.6968 20.9415 48.9008 19.1935 45.8818L23.5255 43.8578C24.9515 46.2168 27.7815 47.6388 31.3795 48.0808L29.1315 51.2038ZM59.8195 34.8518C61.8355 31.7808 62.5815 28.6608 61.6785 26.0268L65.8305 24.0868C67.0265 27.3638 66.0925 31.2798 63.5385 35.1238L59.8195 34.8518ZM67.6955 22.4258C64.0135 14.5508 49.6225 13.4998 35.5465 20.0758C21.4705 26.6548 13.0445 38.3708 16.7245 46.2478C18.6685 50.4088 23.6085 52.6628 29.9125 52.8938H29.9245H29.9255C35.2385 53.0838 41.5225 51.8368 47.7965 49.0788L47.8045 49.0938L49.9435 48.0938L49.9365 48.0798C56.0785 45.0318 61.0655 41.0158 64.3285 36.8138L64.3295 36.8158L64.3615 36.7708C68.2075 31.7988 69.6375 26.5788 67.6955 22.4258Z" fill="white"/>
<path d="M35.1693 21.4172C47.0333 15.4572 58.5423 13.3362 67.8073 23.0512C67.8233 21.5862 64.9733 16.1312 64.4413 14.8302C60.8623 6.09818 45.7353 5.15818 30.6543 12.7342C15.5733 20.3102 8.27831 30.5932 11.8563 39.3252C12.6193 41.1882 16.6223 46.9872 18.3243 48.1332C14.9353 35.9312 22.3333 27.8632 35.1693 21.4172Z" fill="white"/>
<path d="M53.1246 72.7701L53.1486 72.7571C54.0856 72.2381 53.9276 71.1621 53.2536 69.9721C53.0846 69.6771 52.4756 68.8261 51.9596 68.1621C51.7296 67.8781 50.4916 66.7541 50.4916 66.7541C50.3096 66.5721 50.2156 66.4791 50.1366 66.5061L50.1286 66.5121C50.0826 66.5501 50.0496 66.6711 50.0756 66.9401C50.0756 66.9401 50.1836 68.6101 50.2636 68.9661C50.4556 69.7831 50.7376 70.7931 50.8666 71.1081C51.3736 72.3731 52.1446 73.1721 53.1246 72.7701Z" fill="white"/>
<path d="M48.1856 80.0281C48.3766 80.8521 48.6615 81.8551 48.7875 82.1741C49.2955 83.4381 50.0635 84.2341 51.0475 83.8351L51.0695 83.8141C52.0095 83.3021 51.8505 82.2271 51.1755 81.0371C51.0115 80.7401 50.3965 79.8871 49.8775 79.2241C49.6495 78.9361 48.4115 77.8121 48.4115 77.8121C48.2315 77.6381 48.1356 77.5351 48.0606 77.5681L48.0525 77.5761C48.0065 77.6161 47.9696 77.7361 47.9986 78.0051C47.9996 78.0051 48.1046 79.6741 48.1856 80.0281Z" fill="white"/>
<path d="M55.1647 61.805L55.1877 61.791C56.1257 61.272 55.9647 60.195 55.2927 59.003C55.1257 58.709 54.5147 57.854 53.9957 57.195C53.7697 56.91 52.5317 55.782 52.5317 55.782C52.3487 55.605 52.2567 55.507 52.1777 55.535L52.1707 55.544C52.1237 55.584 52.0877 55.704 52.1147 55.971C52.1147 55.971 52.2207 57.643 52.3017 57.997C52.4907 58.817 52.7787 59.828 52.9027 60.143C53.4107 61.405 54.1817 62.206 55.1647 61.805Z" fill="white"/>
<path d="M48.5168 47.4211C48.3378 47.2381 48.2438 47.1421 48.1668 47.1741L48.1598 47.1811C48.1118 47.2171 48.0778 47.3421 48.1058 47.6081C48.1058 47.6081 48.2118 49.276 48.2938 49.635C48.4828 50.451 48.7638 51.4621 48.8938 51.7761C49.3988 53.0401 50.1718 53.8421 51.1568 53.4401L51.1778 53.4231C52.1208 52.9081 51.9578 51.8341 51.2848 50.6431C51.1178 50.3451 50.5058 49.4911 49.9878 48.8321C49.7578 48.5471 48.5168 47.4211 48.5168 47.4211Z" fill="white"/>
<path d="M50.97 40.7151C51.478 41.9791 52.248 42.7781 53.231 42.3751L53.254 42.3601C54.192 41.8451 54.033 40.7711 53.358 39.5781C53.191 39.2811 52.584 38.4311 52.063 37.7671C51.834 37.4821 50.596 36.3591 50.596 36.3591C50.416 36.1811 50.319 36.0801 50.243 36.1131L50.236 36.1171C50.188 36.1541 50.154 36.2771 50.182 36.5451C50.182 36.5451 50.289 38.2151 50.368 38.5701C50.558 39.3891 50.842 40.4001 50.97 40.7151Z" fill="white"/>
<path d="M59.1043 69.9302L59.1283 69.9162C60.0653 69.3982 59.9073 68.3222 59.2343 67.1332C59.0653 66.8372 58.4553 65.9852 57.9383 65.3222C57.7093 65.0372 56.4713 63.9142 56.4713 63.9142C56.2893 63.7322 56.1963 63.6382 56.1173 63.6652L56.1083 63.6712C56.0613 63.7112 56.0313 63.8322 56.0553 64.1012C56.0553 64.1012 56.1623 65.7712 56.2433 66.1282C56.4343 66.9432 56.7173 67.9532 56.8453 68.2692C57.3553 69.5332 58.1243 70.3332 59.1043 69.9302Z" fill="white"/>
<path d="M54.4972 44.5799C54.3172 44.3989 54.2252 44.3029 54.1482 44.3339L54.1392 44.3399C54.0912 44.3759 54.0562 44.5019 54.0842 44.7679C54.0842 44.7679 54.1902 46.4369 54.2722 46.7949C54.4612 47.6119 54.7422 48.6229 54.8712 48.9369C55.3772 50.1999 56.1502 51.0019 57.1352 50.5999L57.1542 50.5819C58.0962 50.0679 57.9362 48.9939 57.2622 47.8029C57.0962 47.5049 56.4832 46.6499 55.9652 45.9919C55.7402 45.7069 54.4972 44.5799 54.4972 44.5799Z" fill="white"/>
<path d="M54.167 77.1892C54.357 78.0112 54.643 79.0152 54.77 79.3342C55.277 80.5982 56.045 81.3952 57.03 80.9962L57.052 80.9752C57.992 80.4632 57.832 79.3872 57.157 78.1982C56.992 77.9022 56.38 77.0482 55.86 76.3852C55.631 76.0972 54.392 74.9752 54.392 74.9752C54.212 74.7982 54.118 74.6972 54.04 74.7282L54.033 74.7392C53.989 74.7762 53.953 74.8972 53.98 75.1662C53.98 75.1652 54.087 76.8322 54.167 77.1892Z" fill="white"/>
<path d="M49.1828 64.6449L49.2068 64.6309C50.1448 64.1119 49.9848 63.0359 49.3108 61.8439C49.1448 61.5479 48.5348 60.6919 48.0148 60.0339C47.7868 59.7499 46.5488 58.6209 46.5488 58.6209C46.3668 58.4439 46.2758 58.3469 46.1948 58.3749L46.1888 58.3839C46.1418 58.4239 46.1058 58.5429 46.1318 58.8109C46.1318 58.8109 46.2398 60.4839 46.3198 60.8369C46.5078 61.6579 46.7978 62.6659 46.9218 62.9829C47.4308 64.2439 48.2018 65.0449 49.1828 64.6449Z" fill="white"/>
<path d="M56.9523 37.8771C57.4603 39.1411 58.2293 39.9381 59.2123 39.5351L59.2363 39.5181C60.1743 39.0051 60.0143 37.9311 59.3403 36.7381C59.1733 36.4431 58.5663 35.5921 58.0453 34.9271C57.8143 34.6421 56.5773 33.5201 56.5773 33.5201C56.3973 33.3421 56.3013 33.2401 56.2253 33.2711L56.2183 33.2771C56.1693 33.3141 56.1353 33.4371 56.1613 33.7031C56.1613 33.7031 56.2693 35.3751 56.3483 35.7301C56.5393 36.5501 56.8243 37.5621 56.9523 37.8771Z" fill="white"/>
<path d="M39.1909 59.1188L39.2109 59.1018C40.1539 58.5888 39.9929 57.5128 39.3189 56.3218C39.1519 56.0238 38.5399 55.1698 38.0219 54.5108C37.7939 54.2258 36.5529 53.0988 36.5529 53.0988C36.3729 52.9168 36.2799 52.8218 36.2019 52.8538L36.1949 52.8588C36.1479 52.8958 36.1139 53.0208 36.1399 53.2868C36.1399 53.2868 36.2469 54.9568 36.3269 55.3118C36.5179 56.1308 36.7969 57.1418 36.9269 57.4548C37.4329 58.7188 38.2069 59.5208 39.1909 59.1188Z" fill="white"/>
<path d="M34.0705 66.6512C34.2605 67.4742 34.5485 68.4822 34.6725 68.7972C35.1805 70.0592 35.9505 70.8602 36.9345 70.4582L36.9575 70.4442C37.8965 69.9262 37.7345 68.8472 37.0625 67.6572C36.8935 67.3632 36.2845 66.5072 35.7645 65.8482C35.5375 65.5632 34.2995 64.4352 34.2995 64.4352C34.1175 64.2562 34.0265 64.1602 33.9455 64.1892L33.9385 64.1982C33.8925 64.2372 33.8585 64.3582 33.8835 64.6262C33.8835 64.6272 33.9905 66.2972 34.0705 66.6512Z" fill="white"/>
<path d="M61.1469 58.9648L61.1699 58.9498C62.1079 58.4318 61.9479 57.3558 61.2759 56.1648C61.1089 55.8688 60.4969 55.0128 59.9789 54.3538C59.7519 54.0698 58.5149 52.9418 58.5149 52.9418C58.3309 52.7628 58.2389 52.6658 58.1589 52.6958L58.1529 52.7038C58.1049 52.7438 58.0709 52.8628 58.0969 53.1308C58.0969 53.1308 58.2029 54.8038 58.2839 55.1568C58.4719 55.9788 58.7619 56.9878 58.8869 57.3028C59.3949 58.5638 60.1649 59.3648 61.1469 58.9648Z" fill="white"/>
<path d="M35.2845 50.8961L35.3085 50.8791C36.2475 50.3631 36.0855 49.2901 35.4125 48.0961C35.2455 47.8021 34.6385 46.9501 34.1185 46.2861C33.8895 46.0011 32.6505 44.8781 32.6505 44.8781C32.4705 44.7001 32.3735 44.5991 32.2975 44.6301L32.2905 44.6361C32.2425 44.6741 32.2075 44.7981 32.2335 45.0631C32.2335 45.0631 32.3405 46.7341 32.4215 47.0901C32.6105 47.9071 32.8975 48.9181 33.0245 49.2341C33.5325 50.5001 34.3015 51.2971 35.2845 50.8961Z" fill="white"/>
<path d="M78.3209 63.6142C78.1419 63.4382 78.0469 63.3372 77.9699 63.3692L77.9609 63.3782C77.9159 63.4162 77.8809 63.5372 77.9079 63.8052C77.9079 63.8052 78.0139 65.4752 78.0939 65.8282C78.2849 66.6522 78.5709 67.6572 78.6979 67.9762C79.2039 69.2382 79.9739 70.0372 80.9569 69.6362L80.9809 69.6152C81.9189 69.1032 81.7599 68.0282 81.0869 66.8352C80.9199 66.5402 80.3069 65.6872 79.7889 65.0242C79.5609 64.7372 78.3209 63.6142 78.3209 63.6142Z" fill="white"/>
<path d="M38.0134 74.7818C38.2054 75.5978 38.4904 76.6068 38.6174 76.9228C39.1264 78.1878 39.8964 78.9858 40.8764 78.5838L40.9004 78.5698C41.8374 78.0528 41.6784 76.9778 41.0044 75.7868C40.8374 75.4898 40.2274 74.6388 39.7104 73.9758C39.4804 73.6928 38.2424 72.5678 38.2424 72.5678C38.0604 72.3858 37.9674 72.2918 37.8884 72.3198L37.8794 72.3238C37.8354 72.3658 37.8014 72.4878 37.8274 72.7558C37.8274 72.7558 37.9354 74.4238 38.0134 74.7818Z" fill="white"/>
<path d="M39.0061 46.3962C39.5121 47.6592 40.2831 48.4582 41.2661 48.0562L41.2891 48.0392C42.2271 47.5252 42.0671 46.4512 41.3931 45.2562C41.2261 44.9632 40.6191 44.1102 40.0971 43.4472C39.8691 43.1612 38.6311 42.0382 38.6311 42.0382C38.4521 41.8602 38.3541 41.7602 38.2781 41.7912L38.2701 41.7972C38.2221 41.8342 38.1881 41.9582 38.2141 42.2252C38.2141 42.2252 38.3211 43.8952 38.4021 44.2502C38.5921 45.0682 38.8791 46.0792 39.0061 46.3962Z" fill="white"/>
<path d="M43.2036 67.4842L43.2266 67.4702C44.1636 66.9512 44.0026 65.8752 43.3306 64.6842C43.1646 64.3882 42.5526 63.5332 42.0346 62.8742C41.8066 62.5892 40.5686 61.4622 40.5686 61.4622C40.3866 61.2832 40.2936 61.1862 40.2146 61.2142L40.2056 61.2232C40.1596 61.2632 40.1246 61.3832 40.1526 61.6512C40.1526 61.6512 40.2576 63.3232 40.3386 63.6762C40.5276 64.4972 40.8146 65.5072 40.9396 65.8222C41.4486 67.0852 42.2186 67.8862 43.2036 67.4842Z" fill="white"/>
<path d="M45.1729 56.2798L45.1929 56.2628C46.1349 55.7468 45.9729 54.6728 45.2999 53.4818C45.1329 53.1838 44.5209 52.3288 44.0029 51.6708C43.7759 51.3878 42.5339 50.2588 42.5339 50.2588C42.3549 50.0768 42.2619 49.9818 42.1829 50.0148L42.1759 50.0178C42.1279 50.0558 42.0929 50.1808 42.1219 50.4468C42.1219 50.4468 42.2269 52.1148 42.3099 52.4738C42.4989 53.2898 42.7799 54.3008 42.9099 54.6148C43.4149 55.8788 44.1889 56.6828 45.1729 56.2798Z" fill="white"/>
<path d="M44.2816 71.8069C44.4716 72.6239 44.7556 73.6329 44.8846 73.9479C45.3926 75.2119 46.1626 76.0109 47.1416 75.6099L47.1646 75.5969C48.1026 75.0779 47.9446 74.0019 47.2706 72.8129C47.1016 72.5169 46.4916 71.6649 45.9766 71.0019C45.7476 70.7179 44.5086 69.5939 44.5086 69.5939C44.3276 69.4109 44.2346 69.3179 44.1556 69.3449L44.1456 69.3499C44.1006 69.3909 44.0666 69.5119 44.0936 69.7809C44.0946 69.7799 44.2026 71.4489 44.2816 71.8069Z" fill="white"/>
<path d="M30.2854 56.074C30.1054 55.892 30.0144 55.796 29.9354 55.83L29.9264 55.835C29.8794 55.871 29.8454 55.998 29.8734 56.262C29.8734 56.262 29.9784 57.931 30.0604 58.289C30.2494 59.107 30.5314 60.117 30.6614 60.431C31.1654 61.694 31.9394 62.496 32.9234 62.095L32.9434 62.077C33.8864 61.563 33.7254 60.489 33.0524 59.297C32.8864 59 32.2724 58.145 31.7544 57.486C31.5264 57.201 30.2854 56.074 30.2854 56.074Z" fill="white"/>
<path d="M55.1926 89.4021C55.0246 89.1051 54.4116 88.2491 53.8936 87.5881C53.6656 87.3011 52.4266 86.1791 52.4266 86.1791C52.2426 86.0001 52.1496 85.8991 52.0706 85.9291L52.0636 85.9411C52.0166 85.9761 51.9816 86.0991 52.0106 86.3651C52.0106 86.3651 52.1176 88.0381 52.1976 88.3951C52.3476 89.0491 52.5626 89.8231 52.7066 90.2661C53.6046 90.1231 54.4916 89.9461 55.3716 89.7501C55.3146 89.6351 55.2566 89.5201 55.1926 89.4021Z" fill="white"/>
<path d="M47.6254 90.5642C47.3964 90.2772 46.1584 89.1532 46.1584 89.1532C45.9754 88.9732 45.8824 88.8731 45.8034 88.9061L45.7964 88.9152C45.7494 88.9502 45.7144 89.0721 45.7424 89.3401C45.7424 89.3401 45.7994 90.2252 45.8604 90.8442C46.5104 90.8372 47.1594 90.8261 47.8034 90.7931C47.7424 90.7171 47.6834 90.6392 47.6254 90.5642Z" fill="white"/>
<path d="M44.2638 38.9508L44.2558 38.9568C44.2088 38.9938 44.1738 39.1188 44.2008 39.3848C44.2008 39.3848 44.3078 41.0548 44.3878 41.4108C44.5778 42.2278 44.8648 43.2388 44.9918 43.5558C45.4988 44.8188 46.2678 45.6178 47.2498 45.2168L47.2728 45.1988C48.2118 44.6848 48.0518 43.6108 47.3768 42.4168C47.2108 42.1208 46.6038 41.2708 46.0838 40.6058C45.8558 40.3218 44.6168 39.1988 44.6168 39.1988C44.4358 39.0228 44.3378 38.9198 44.2638 38.9508Z" fill="white"/>
<path d="M44.9091 84.0119C44.7451 83.7169 44.1321 82.8629 43.6131 82.1999C43.3841 81.9119 42.1451 80.7889 42.1451 80.7889C41.9661 80.6129 41.8721 80.5109 41.7941 80.5429L41.7851 80.5529C41.7401 80.5899 41.7051 80.7109 41.7321 80.9789C41.7321 80.9789 41.8391 82.6489 41.9181 83.0039C42.1091 83.8279 42.3951 84.8299 42.5221 85.1499C43.0291 86.4139 43.7991 87.2119 44.7821 86.8109L44.8051 86.7899C45.7441 86.2769 45.5841 85.2019 44.9091 84.0119Z" fill="white"/>
<path d="M26.1551 50.0641C26.3451 50.8821 26.6311 51.8941 26.7591 52.2101C27.2661 53.4721 28.0351 54.2711 29.0171 53.8701L29.0411 53.8521C29.9791 53.3381 29.8181 52.2641 29.1451 51.0711C28.9781 50.7761 28.3731 49.9251 27.8511 49.2601C27.6221 48.9751 26.3831 47.8521 26.3831 47.8521C26.2041 47.6761 26.1071 47.5731 26.0311 47.6041L26.0231 47.6111C25.9751 47.6471 25.9421 47.7701 25.9681 48.0381C25.9681 48.0391 26.0761 49.7071 26.1551 50.0641Z" fill="white"/>
<path d="M61.1726 86.5632C61.0056 86.2662 60.3916 85.4112 59.8736 84.7492C59.6456 84.4622 58.4066 83.3402 58.4066 83.3402C58.2236 83.1602 58.1306 83.0602 58.0526 83.0932L58.0446 83.1032C57.9966 83.1382 57.9616 83.2592 57.9916 83.5252C57.9916 83.5252 58.0966 85.1992 58.1786 85.5562C58.3666 86.3732 58.6546 87.3822 58.7806 87.6972C58.9336 88.0802 59.1126 88.4102 59.3116 88.6852C60.1116 88.4292 60.9006 88.1492 61.6816 87.8492C61.6076 87.4502 61.4266 87.0162 61.1726 86.5632Z" fill="white"/>
<path d="M81.9802 71.7321L81.9732 71.7401C81.9272 71.7771 81.8912 71.8981 81.9212 72.1661C81.9212 72.1661 81.9272 72.2791 81.9382 72.4521C82.0622 72.2851 82.1782 72.1131 82.3012 71.9431C82.1422 71.7901 82.0532 71.7031 81.9802 71.7321Z" fill="white"/>
<path d="M78.2573 76.8052C78.1113 76.6082 77.9623 76.4102 77.8193 76.2292C77.5923 75.9442 76.3533 74.8212 76.3533 74.8212C76.1713 74.6392 76.0773 74.5402 75.9983 74.5732L75.9913 74.5812C75.9443 74.6172 75.9093 74.7392 75.9383 75.0072C75.9383 75.0072 76.0443 76.6772 76.1243 77.0362C76.2373 77.5302 76.3883 78.0942 76.5173 78.5322C77.1143 77.9722 77.6933 77.3952 78.2573 76.8052Z" fill="white"/>
<path d="M73.1367 80.883C72.9707 80.586 72.3567 79.73 71.8387 79.069C71.6107 78.784 70.3727 77.659 70.3727 77.659C70.1897 77.48 70.0967 77.38 70.0167 77.413L70.0107 77.423C69.9627 77.458 69.9267 77.579 69.9557 77.847C69.9557 77.847 70.0607 79.517 70.1417 79.874C70.3307 80.693 70.6197 81.702 70.7457 82.017C70.8707 82.33 71.0127 82.611 71.1677 82.855C71.9057 82.346 72.6257 81.812 73.3317 81.261C73.2737 81.136 73.2107 81.011 73.1367 80.883Z" fill="white"/>
<path d="M67.1543 83.7232C66.9873 83.4252 66.3733 82.5712 65.8553 81.9092C65.6283 81.6242 64.3893 80.5002 64.3893 80.5002C64.2053 80.3212 64.1133 80.2202 64.0343 80.2512L64.0273 80.2622C63.9803 80.2982 63.9443 80.4192 63.9733 80.6862C63.9733 80.6862 64.0793 82.3572 64.1583 82.7162C64.3483 83.5332 64.6373 84.5442 64.7633 84.8572C64.9783 85.3962 65.2443 85.8422 65.5503 86.1572C66.2673 85.8022 66.9713 85.4282 67.6653 85.0372C67.5963 84.6312 67.4163 84.1852 67.1543 83.7232Z" fill="white"/>
<path d="M67.1288 56.1249L67.1528 56.1109C68.0908 55.5909 67.9288 54.5149 67.2568 53.3239C67.0898 53.0289 66.4798 52.1729 65.9598 51.5149C65.7328 51.2299 64.4958 50.1019 64.4958 50.1019C64.3108 49.9229 64.2198 49.8269 64.1408 49.8549L64.1338 49.8649C64.0858 49.9029 64.0518 50.0239 64.0768 50.2909C64.0768 50.2909 64.1858 51.9629 64.2658 52.3179C64.4548 53.1379 64.7428 54.1479 64.8688 54.4639C65.3768 55.7229 66.1468 56.5259 67.1288 56.1249Z" fill="white"/>
<path d="M60.4806 41.7391C60.3006 41.5581 60.2086 41.4631 60.1306 41.4941L60.1226 41.5011C60.0756 41.5381 60.0416 41.6621 60.0676 41.9281C60.0676 41.9281 60.1746 43.5961 60.2556 43.9551C60.4446 44.7721 60.7256 45.7831 60.8566 46.0971C61.3606 47.3601 62.1346 48.1621 63.1186 47.7611L63.1386 47.7421C64.0816 47.2281 63.9196 46.1541 63.2466 44.9631C63.0806 44.6651 62.4676 43.8111 61.9496 43.1511C61.7226 42.8671 60.4806 41.7391 60.4806 41.7391Z" fill="white"/>
<path d="M65.0874 67.0899L65.1104 67.0779C66.0474 66.5579 65.8904 65.4829 65.2144 64.2929C65.0474 63.9969 64.4374 63.1449 63.9204 62.4819C63.6894 62.1989 62.4524 61.0729 62.4524 61.0729C62.2694 60.8899 62.1764 60.7989 62.0984 60.8239L62.0894 60.8319C62.0444 60.8709 62.0104 60.9909 62.0364 61.2599C62.0364 61.2599 62.1444 62.9299 62.2244 63.2869C62.4154 64.1029 62.6994 65.1139 62.8284 65.4289C63.3374 66.6929 64.1064 67.4919 65.0874 67.0899Z" fill="white"/>
<path d="M66.8362 43.2562C67.3412 44.5202 68.1142 45.3212 69.1002 44.9202L69.1192 44.9022C70.0622 44.3882 69.9012 43.3142 69.2272 42.1232C69.0612 41.8242 68.4472 40.9702 67.9302 40.3112C67.7032 40.0272 66.4612 38.9002 66.4612 38.9002C66.2832 38.7182 66.1892 38.6232 66.1102 38.6542L66.1042 38.6602C66.0552 38.6972 66.0212 38.8242 66.0492 39.0872C66.0492 39.0872 66.1562 40.7562 66.2362 41.1152C66.4252 41.9322 66.7052 42.9432 66.8362 43.2562Z" fill="white"/>
<path d="M60.1465 74.3482C60.3395 75.1732 60.6245 76.1762 60.7505 76.4952C61.2575 77.7592 62.0265 78.5552 63.0115 78.1572L63.0345 78.1352C63.9725 77.6232 63.8135 76.5472 63.1405 75.3582C62.9735 75.0612 62.3625 74.2092 61.8425 73.5462C61.6135 73.2562 60.3745 72.1352 60.3745 72.1352C60.1945 71.9572 60.1005 71.8572 60.0225 71.8892L60.0135 71.8982C59.9695 71.9362 59.9335 72.0572 59.9605 72.3252C59.9605 72.3242 60.0675 73.9942 60.1465 74.3482Z" fill="white"/>
<path d="M62.9358 35.0361C63.4418 36.2991 64.2118 37.0981 65.1948 36.6961L65.2188 36.6781C66.1568 36.1661 65.9958 35.0911 65.3228 33.8971C65.1548 33.6011 64.5498 32.7511 64.0278 32.0871C63.7988 31.8021 62.5608 30.6781 62.5608 30.6781C62.3808 30.5011 62.2848 30.4011 62.2088 30.4311L62.2008 30.4391C62.1528 30.4751 62.1188 30.5981 62.1468 30.8641C62.1468 30.8641 62.2528 32.5351 62.3328 32.8901C62.5218 33.7091 62.8078 34.7201 62.9358 35.0361Z" fill="white"/>
<path d="M73.1112 53.2858L73.1342 53.2698C74.0732 52.7518 73.9122 51.6758 73.2392 50.4838C73.0722 50.1888 72.4612 49.3338 71.9422 48.6748C71.7142 48.3898 70.4772 47.2618 70.4772 47.2618C70.2952 47.0828 70.2012 46.9878 70.1232 47.0148L70.1142 47.0238C70.0682 47.0638 70.0342 47.1828 70.0592 47.4528C70.0592 47.4528 70.1652 49.1238 70.2462 49.4768C70.4352 50.2988 70.7242 51.3078 70.8502 51.6228C71.3572 52.8838 72.1292 53.6858 73.1112 53.2858Z" fill="white"/>
<path d="M77.0501 61.4102L77.0741 61.3982C78.0101 60.8782 77.8531 59.8012 77.1781 58.6112C77.0121 58.3162 76.4011 57.4652 75.8861 56.8022C75.6561 56.5182 74.4171 55.3942 74.4171 55.3942C74.2361 55.2122 74.1441 55.1182 74.0651 55.1452L74.0541 55.1522C74.0101 55.1912 73.9751 55.3122 74.0011 55.5812C74.0011 55.5812 74.1101 57.2512 74.1881 57.6072C74.3791 58.4242 74.6631 59.4332 74.7921 59.7482C75.3001 61.0132 76.0721 61.8112 77.0501 61.4102Z" fill="white"/>
<path d="M72.1119 68.6682C72.3029 69.4922 72.5899 70.4972 72.7149 70.8162C73.2229 72.0792 73.9919 72.8772 74.9759 72.4752L74.9979 72.4552C75.9369 71.9422 75.7779 70.8682 75.1039 69.6762C74.9369 69.3802 74.3259 68.5272 73.8069 67.8652C73.5789 67.5762 72.3389 66.4522 72.3389 66.4522C72.1599 66.2782 72.0639 66.1772 71.9869 66.2082L71.9789 66.2162C71.9339 66.2572 71.8989 66.3762 71.9249 66.6432C71.9249 66.6442 72.0329 68.3142 72.1119 68.6682Z" fill="white"/>
<path d="M66.1305 71.5082C66.3205 72.3322 66.6075 73.3362 66.7335 73.6562C67.2395 74.9202 68.0105 75.7172 68.9945 75.3162L69.0155 75.2962C69.9555 74.7822 69.7965 73.7062 69.1205 72.5162C68.9565 72.2192 68.3435 71.3672 67.8235 70.7052C67.5945 70.4172 66.3555 69.2942 66.3555 69.2942C66.1775 69.1172 66.0815 69.0162 66.0045 69.0492L65.9965 69.0562C65.9515 69.0952 65.9155 69.2162 65.9435 69.4852C65.9455 69.4852 66.0515 71.1542 66.1305 71.5082Z" fill="white"/>
<path d="M71.0703 64.25L71.0933 64.238C72.0303 63.718 71.8723 62.642 71.1993 61.453C71.0313 61.158 70.4213 60.305 69.9053 59.642C69.6753 59.359 68.4373 58.2341 68.4373 58.2341C68.2543 58.0501 68.1633 57.9591 68.0843 57.9841L68.0743 57.9901C68.0283 58.0311 67.9953 58.1531 68.0203 58.4211C68.0203 58.4211 68.1283 60.0901 68.2083 60.4481C68.3993 61.2631 68.6823 62.2731 68.8113 62.5881C69.3193 63.8541 70.0903 64.651 71.0703 64.25Z" fill="white"/>
<path d="M45.9769 71.0022C45.7479 70.7182 44.5089 69.5942 44.5089 69.5942C44.3279 69.4112 44.2349 69.3182 44.1559 69.3452L44.1459 69.3502C44.1009 69.3912 44.0669 69.5122 44.0939 69.7812C44.0939 69.7812 44.2009 71.4502 44.2809 71.8072C44.4709 72.6242 44.7549 73.6332 44.8839 73.9482C45.3919 75.2122 46.1619 76.0112 47.1409 75.6102L47.1639 75.5972C48.1019 75.0782 47.9439 74.0022 47.2699 72.8132C47.1019 72.5172 46.4919 71.6642 45.9769 71.0022ZM53.8929 87.5882C53.6649 87.3012 52.4259 86.1792 52.4259 86.1792C52.2419 86.0002 52.1489 85.8992 52.0699 85.9292L52.0629 85.9412C52.0159 85.9762 51.9809 86.0992 52.0099 86.3652C52.0099 86.3652 52.1169 88.0382 52.1969 88.3952C52.3279 88.9672 52.5089 89.6292 52.6489 90.0852C53.5379 89.9452 54.4179 89.7792 55.2879 89.5902C55.2549 89.5272 55.2259 89.4662 55.1919 89.4022C55.0239 89.1052 54.4109 88.2492 53.8929 87.5882ZM34.3379 67.7022C34.4699 68.1862 34.5999 68.6122 34.6729 68.7982C35.1809 70.0602 35.9509 70.8612 36.9349 70.4592L36.9579 70.4452C37.8169 69.9682 37.7489 69.0252 37.2139 67.9532C36.2479 67.8982 35.2879 67.8142 34.3379 67.7022ZM67.8239 70.7062C67.5949 70.4182 66.3559 69.2952 66.3559 69.2952C66.1779 69.1182 66.0819 69.0172 66.0049 69.0502L65.9969 69.0572C65.9519 69.0962 65.9159 69.2172 65.9439 69.4862C65.9439 69.4862 66.0499 71.1552 66.1299 71.5082C66.3199 72.3322 66.6069 73.3362 66.7329 73.6562C67.2389 74.9202 68.0099 75.7172 68.9939 75.3162L69.0149 75.2962C69.9549 74.7822 69.7959 73.7062 69.1199 72.5162C68.9569 72.2202 68.3429 71.3672 67.8239 70.7062ZM61.8419 73.5462C61.6129 73.2562 60.3739 72.1352 60.3739 72.1352C60.1939 71.9572 60.0999 71.8572 60.0219 71.8892L60.0129 71.8982C59.9689 71.9362 59.9329 72.0572 59.9599 72.3252C59.9599 72.3252 60.0659 73.9952 60.1459 74.3482C60.3389 75.1732 60.6239 76.1762 60.7499 76.4952C61.2569 77.7592 62.0259 78.5552 63.0109 78.1572L63.0339 78.1352C63.9719 77.6232 63.8129 76.5472 63.1399 75.3582C62.9739 75.0612 62.3619 74.2082 61.8419 73.5462ZM59.8749 84.7482C59.6469 84.4612 58.4079 83.3392 58.4079 83.3392C58.2249 83.1592 58.1319 83.0592 58.0539 83.0922L58.0459 83.1022C57.9979 83.1372 57.9629 83.2582 57.9929 83.5242C57.9929 83.5242 58.0979 85.1982 58.1799 85.5552C58.3679 86.3722 58.6559 87.3812 58.7819 87.6962C58.9079 88.0142 59.0529 88.3012 59.2119 88.5492C60.0339 88.2902 60.8459 88.0082 61.6479 87.7052C61.5599 87.3472 61.3989 86.9622 61.1749 86.5632C61.0059 86.2662 60.3919 85.4102 59.8749 84.7482ZM81.9799 71.7322L81.9729 71.7402C81.9269 71.7772 81.8909 71.8982 81.9209 72.1662C81.9209 72.1662 81.9269 72.2692 81.9369 72.4262C82.0579 72.2662 82.1789 72.1062 82.2989 71.9422C82.1419 71.7892 82.0529 71.7042 81.9799 71.7322ZM76.3539 74.8202C76.1719 74.6382 76.0779 74.5392 75.9989 74.5722L75.9919 74.5802C75.9449 74.6162 75.9099 74.7382 75.9389 75.0062C75.9389 75.0062 76.0449 76.6762 76.1249 77.0352C76.2339 77.5082 76.3759 78.0432 76.5009 78.4712C77.0949 77.9202 77.6729 77.3542 78.2339 76.7732C78.0959 76.5872 77.9559 76.4022 77.8199 76.2292C77.5929 75.9432 76.3539 74.8202 76.3539 74.8202ZM65.8559 81.9082C65.6289 81.6232 64.3899 80.4992 64.3899 80.4992C64.2059 80.3202 64.1139 80.2192 64.0349 80.2502L64.0279 80.2612C63.9809 80.2972 63.9449 80.4182 63.9739 80.6852C63.9739 80.6852 64.0799 82.3562 64.1589 82.7152C64.3489 83.5322 64.6379 84.5432 64.7639 84.8562C64.9549 85.3382 65.1889 85.7512 65.4529 86.0582C66.1939 85.6972 66.9249 85.3152 67.6419 84.9162C67.5589 84.5432 67.3919 84.1412 67.1549 83.7232C66.9889 83.4252 66.3749 82.5702 65.8559 81.9082ZM71.8379 79.0682C71.6099 78.7832 70.3719 77.6582 70.3719 77.6582C70.1889 77.4792 70.0959 77.3792 70.0159 77.4122L70.0099 77.4222C69.9619 77.4572 69.9259 77.5782 69.9549 77.8462C69.9549 77.8462 70.0599 79.5162 70.1409 79.8732C70.3299 80.6922 70.6189 81.7012 70.7449 82.0162C70.8559 82.2952 70.9829 82.5442 71.1189 82.7702C71.8609 82.2642 72.5869 81.7372 73.2959 81.1912C73.2459 81.0882 73.1959 80.9872 73.1359 80.8832C72.9699 80.5862 72.3559 79.7292 71.8379 79.0682ZM55.8599 76.3852C55.6309 76.0972 54.3919 74.9752 54.3919 74.9752C54.2119 74.7982 54.1179 74.6972 54.0399 74.7282L54.0329 74.7392C53.9889 74.7762 53.9529 74.8972 53.9799 75.1662C53.9799 75.1662 54.0869 76.8332 54.1669 77.1902C54.3569 78.0122 54.6429 79.0162 54.7699 79.3352C55.2769 80.5992 56.0449 81.3962 57.0299 80.9972L57.0519 80.9762C57.9919 80.4642 57.8319 79.3882 57.1569 78.1992C56.9919 77.9012 56.3789 77.0472 55.8599 76.3852ZM74.1889 57.6072C74.3799 58.4242 74.6639 59.4332 74.7929 59.7482C75.3009 61.0132 76.0729 61.8112 77.0509 61.4102L77.0749 61.3982C78.0109 60.8782 77.8539 59.8012 77.1789 58.6112C77.0129 58.3162 76.4019 57.4652 75.8869 56.8022C75.6569 56.5182 74.4179 55.3942 74.4179 55.3942C74.2369 55.2122 74.1449 55.1182 74.0659 55.1452L74.0549 55.1522C74.0109 55.1912 73.9759 55.3122 74.0019 55.5812C74.0019 55.5812 74.1119 57.2512 74.1889 57.6072ZM73.8069 67.8662C73.5789 67.5772 72.3389 66.4532 72.3389 66.4532C72.1599 66.2792 72.0639 66.1782 71.9869 66.2092L71.9789 66.2172C71.9339 66.2582 71.8989 66.3772 71.9249 66.6442C71.9249 66.6442 72.0319 68.3152 72.1119 68.6682C72.3029 69.4922 72.5899 70.4972 72.7149 70.8162C73.2229 72.0792 73.9919 72.8772 74.9759 72.4752L74.9979 72.4552C75.9369 71.9422 75.7779 70.8682 75.1039 69.6762C74.9379 69.3812 74.3259 68.5272 73.8069 67.8662ZM49.8769 79.2252C49.6489 78.9372 48.4109 77.8132 48.4109 77.8132C48.2309 77.6392 48.1349 77.5362 48.0599 77.5692L48.0519 77.5772C48.0059 77.6172 47.9689 77.7372 47.9979 78.0062C47.9979 78.0062 48.1029 79.6752 48.1849 80.0292C48.3759 80.8532 48.6609 81.8562 48.7869 82.1752C49.2949 83.4392 50.0629 84.2352 51.0469 83.8362L51.0689 83.8152C52.0089 83.3032 51.8499 82.2282 51.1749 81.0382C51.0109 80.7402 50.3959 79.8872 49.8769 79.2252ZM46.1599 89.1532C45.9769 88.9732 45.8839 88.8732 45.8049 88.9062L45.7979 88.9152C45.7509 88.9502 45.7159 89.0722 45.7439 89.3402C45.7439 89.3402 45.7889 90.0392 45.8429 90.6312C46.4449 90.6272 47.0439 90.6102 47.6409 90.5842C47.6359 90.5762 47.6299 90.5702 47.6269 90.5642C47.3979 90.2772 46.1599 89.1532 46.1599 89.1532ZM68.2079 60.4482C68.3989 61.2632 68.6819 62.2732 68.8109 62.5882C69.3179 63.8542 70.0899 64.6512 71.0689 64.2502L71.0919 64.2382C72.0289 63.7182 71.8709 62.6422 71.1979 61.4532C71.0299 61.1582 70.4199 60.3052 69.9039 59.6422C69.6739 59.3592 68.4359 58.2342 68.4359 58.2342C68.3359 58.1342 68.2669 58.0642 68.2079 58.0232C68.1449 58.0742 68.0789 58.1212 68.0159 58.1712C68.0109 58.2352 68.0109 58.3142 68.0199 58.4202C68.0199 58.4212 68.1279 60.0902 68.2079 60.4482ZM79.7889 65.0252C79.5599 64.7372 78.3199 63.6142 78.3199 63.6142C78.1409 63.4382 78.0459 63.3372 77.9689 63.3692L77.9599 63.3782C77.9149 63.4162 77.8799 63.5372 77.9069 63.8052C77.9069 63.8052 78.0129 65.4752 78.0929 65.8282C78.2839 66.6522 78.5699 67.6572 78.6969 67.9762C79.2029 69.2382 79.9729 70.0372 80.9559 69.6362L80.9799 69.6152C81.9179 69.1032 81.7589 68.0282 81.0859 66.8352C80.9199 66.5412 80.3069 65.6882 79.7889 65.0252ZM62.8299 65.4292C63.3389 66.6942 64.1069 67.4922 65.0889 67.0902L65.1119 67.0782C66.0489 66.5582 65.8919 65.4832 65.2159 64.2932C65.0489 63.9972 64.4389 63.1452 63.9219 62.4822C63.7999 62.3342 63.4009 61.9512 63.0469 61.6212C62.7369 61.8072 62.4179 61.9782 62.1039 62.1572C62.1399 62.6132 62.1869 63.1092 62.2259 63.2872C62.4169 64.1042 62.7009 65.1142 62.8299 65.4292ZM43.6119 82.2002C43.3829 81.9122 42.1439 80.7892 42.1439 80.7892C41.9649 80.6132 41.8709 80.5112 41.7929 80.5432L41.7839 80.5532C41.7389 80.5902 41.7039 80.7112 41.7309 80.9792C41.7309 80.9792 41.8379 82.6492 41.9169 83.0042C42.1079 83.8282 42.3939 84.8302 42.5209 85.1502C43.0279 86.4142 43.7979 87.2122 44.7809 86.8112L44.8039 86.7902C45.7439 86.2772 45.5839 85.2022 44.9089 84.0122C44.7449 83.7172 44.1309 82.8622 43.6119 82.2002ZM39.7099 73.9772C39.4799 73.6942 38.2419 72.5692 38.2419 72.5692C38.0599 72.3872 37.9669 72.2932 37.8879 72.3212L37.8789 72.3252C37.8349 72.3672 37.8009 72.4892 37.8269 72.7572C37.8269 72.7572 37.9349 74.4252 38.0139 74.7832C38.2059 75.5992 38.4909 76.6082 38.6179 76.9242C39.1269 78.1892 39.8969 78.9872 40.8769 78.5852L40.8999 78.5702C41.8369 78.0532 41.6779 76.9782 41.0039 75.7872C40.8369 75.4902 40.2269 74.6392 39.7099 73.9772ZM56.8469 68.2692C57.3559 69.5342 58.1249 70.3332 59.1049 69.9302L59.1289 69.9162C60.0659 69.3982 59.9079 68.3222 59.2349 67.1332C59.0659 66.8372 58.4559 65.9852 57.9389 65.3222C57.8309 65.1882 57.5029 64.8732 57.1829 64.5722C56.8329 64.7172 56.4749 64.8472 56.1209 64.9862C56.1569 65.4472 56.2039 65.9492 56.2439 66.1282C56.4359 66.9432 56.7179 67.9532 56.8469 68.2692ZM50.2619 68.9662C50.4539 69.7832 50.7359 70.7932 50.8649 71.1082C51.3729 72.3742 52.1429 73.1722 53.1229 72.7702L53.1469 72.7572C54.0839 72.2382 53.9259 71.1622 53.2519 69.9722C53.0829 69.6772 52.4739 68.8262 51.9579 68.1622C51.7279 67.8782 50.4899 66.7542 50.4899 66.7542C50.4869 66.7522 50.4859 66.7512 50.4849 66.7502C50.3469 66.7822 50.2089 66.8132 50.0689 66.8462C50.0699 66.8762 50.0699 66.9042 50.0739 66.9402C50.0749 66.9392 50.1829 68.6092 50.2619 68.9662Z" fill="#929497"/>
</svg>
