<svg width="91" height="91" viewBox="0 0 91 91" fill="none" xmlns="http://www.w3.org/2000/svg">
<path d="M45.4302 1.09814C70.0892 1.09814 90.0783 21.0891 90.0783 45.7471C90.0783 70.4072 70.0892 90.3961 45.4302 90.3961C20.7702 90.3961 0.78125 70.4072 0.78125 45.7471C0.78125 21.0891 20.7702 1.09814 45.4302 1.09814Z" fill="white"/>
<path d="M70.323 78.326C64.413 78.322 55.542 80.243 51.593 81.064C46.434 82.177 44.038 79.418 42.969 77.984C41.899 76.549 38.903 75.349 37.364 74.152C35.801 72.975 31.604 70.578 30.409 70C29.229 69.381 26.467 65.101 23.236 63.26C20.005 61.483 16.301 58.358 16.301 58.358C20.004 54.785 26.939 59.428 27.536 59.922C28.138 60.413 34.73 63.75 35.328 63.75L37.525 64.729C35.779 65.101 33.152 65.499 33 67.983C33 68.182 33.017 68.403 33.067 68.631C33.848 72.215 38.117 72.396 39.561 72.412C40.161 72.412 41.597 72.43 43.11 72.43C45.227 72.418 47.314 72.426 47.982 72.241C48.305 72.128 50.427 71.937 52.078 71.944C52.789 71.944 53.436 71.973 53.829 72.047C55.152 72.233 57.326 73.184 59.455 73.483C59.48 73.485 59.505 73.488 59.528 73.488C59.789 73.488 60.022 73.295 60.056 73.023C60.097 72.735 59.894 72.462 59.604 72.423C57.662 72.164 55.557 71.23 54 70.987C53.494 70.901 52.821 70.874 52.077 70.874C50.313 70.882 48.326 71.03 47.663 71.221C47.479 71.309 45.136 71.372 43.109 71.359C41.6 71.359 40.168 71.347 39.56 71.347C38.137 71.364 34.525 70.992 34.113 68.421C34.078 68.256 34.069 68.118 34.065 67.983C33.872 66.255 37.065 66.096 38.985 65.379L39.031 65.399C40.573 64.566 50.033 66.021 50.739 65.185C51.467 64.33 57.628 61.699 58.401 61.356C59.103 61.034 64.968 60.733 65.933 60.499C66.896 60.286 71.924 60.905 73.103 61.356C74.302 61.847 76.141 63.538 77.295 63.987C78.679 64.52 79.226 64.897 81.122 66.141C78.359 70.89 74.684 75.023 70.323 78.326ZM15.368 56.592C15.368 56.592 15.968 52.891 21.703 55.395C27.437 57.899 27.567 58.605 27.567 58.605C27.567 58.605 27.552 58.614 27.527 58.631C26.537 57.932 23.151 55.811 19.775 55.783C18.56 55.779 17.339 56.113 16.297 56.912L15.368 56.592ZM51.489 63.279C50.94 63.592 50.476 63.888 50.252 64.119L50.248 64.107C50.079 64.172 49.531 64.222 48.851 64.218C46.84 64.222 43.492 63.897 41.171 63.897C40.24 63.907 39.506 63.925 38.935 64.123L35.446 62.565L35.229 62.521C35.139 62.623 29.728 59.967 28.176 59.073L28.168 58.924C28.168 58.924 32.834 57.662 35.938 58.517C39.042 59.354 40.002 60.211 40.475 60.575C40.967 60.917 45.141 62.929 46.23 62.929C47.028 62.928 49.691 63.247 51.489 63.279ZM4.41 42.913C5.05 32.718 9.373 23.512 16.109 16.649L34.065 30.806C34.159 30.882 34.27 30.919 34.38 30.919C34.532 30.919 34.682 30.853 34.779 30.723C34.957 30.501 34.917 30.18 34.7 30.009L16.848 15.929C18.231 14.589 19.717 13.361 21.275 12.223L30.689 19.649C30.785 19.723 30.896 19.758 31.006 19.758C31.157 19.758 31.308 19.694 31.408 19.563C31.579 19.342 31.542 19.02 31.322 18.848L22.12 11.592C26.212 8.762 30.844 6.68 35.822 5.477L48.854 15.6C48.946 15.676 49.056 15.709 49.166 15.709C49.318 15.709 49.469 15.643 49.569 15.511C49.741 15.291 49.703 14.969 49.479 14.795L37.073 5.152C39.796 4.584 42.612 4.281 45.5 4.281C49.059 4.281 52.496 4.78 55.792 5.633C55.786 16.572 55.798 42.913 55.798 42.913H4.41ZM45.5 0C20.371 0 0 20.369 0 45.5C0 70.629 20.371 91 45.5 91C70.629 91 91 70.629 91 45.5C91 20.369 70.629 0 45.5 0Z" fill="#231F20"/>
<path d="M30.5839 8.66816C30.3659 8.49416 30.0419 8.52916 29.8689 8.75416C29.6929 8.97516 29.7299 9.29716 29.9519 9.46916L48.2329 23.8852C48.3279 23.9592 48.4379 23.9942 48.5479 23.9942C48.6989 23.9942 48.8499 23.9282 48.9479 23.8012C49.1229 23.5782 49.0839 23.2582 48.8659 23.0822L30.5839 8.66816Z" fill="#231F20"/>
<path d="M37.6937 51.0059V51.0099C37.4947 50.7929 37.5127 50.4529 37.7267 50.2579C37.9457 50.0569 38.2827 50.0729 38.4837 50.2909C38.4947 50.2869 39.7387 51.6369 41.7347 52.9859C43.7387 54.3409 46.5067 55.6949 49.5637 55.6819C55.7227 55.6989 60.3337 51.4529 60.3367 51.4389C60.5507 51.2379 60.8846 51.2509 61.0847 51.4689C61.2876 51.6819 61.2757 52.0209 61.0597 52.2169C61.0137 52.2529 56.2247 56.7359 49.5627 56.7469C42.8357 56.7249 37.7397 51.0369 37.6937 51.0059Z" fill="white"/>
<path d="M41.3103 49.1252H41.3143C41.1133 48.9052 41.1303 48.5662 41.3503 48.3682C41.5693 48.1722 41.9083 48.1882 42.1043 48.4082C42.1133 48.3992 42.9533 49.3041 44.2893 50.2111C45.6313 51.1181 47.4803 52.0272 49.5083 52.0162C53.6173 52.0352 56.7063 49.1882 56.7153 49.1792C56.9323 48.9792 57.2663 48.9912 57.4683 49.2032C57.6693 49.4192 57.6573 49.7582 57.4413 49.9582C57.3963 49.9902 54.1183 53.0702 49.5083 53.0832C44.8333 53.0572 41.3583 49.1542 41.3103 49.1252Z" fill="white"/>
<path d="M44.0254 47.3181H44.0294C43.8284 47.1011 43.8454 46.7631 44.0634 46.5661C44.2824 46.3651 44.6214 46.3821 44.8194 46.5991C44.8244 46.5951 45.3594 47.1631 46.1994 47.7341C47.0464 48.3131 48.2064 48.8861 49.4664 48.8731C52.0324 48.8871 53.9954 47.0981 54.0004 47.0881C54.2134 46.8891 54.5514 46.9001 54.7524 47.1181C54.9484 47.3321 54.9364 47.6701 54.7224 47.8681C54.6774 47.9011 52.5324 49.9241 49.4664 49.9411C46.3304 49.9101 44.0714 47.3441 44.0254 47.3181Z" fill="white"/>
</svg>
