<svg width="91" height="91" viewBox="0 0 91 91" fill="none" xmlns="http://www.w3.org/2000/svg">
<path d="M45.5 91C70.629 91 91 70.629 91 45.5C91 20.371 70.629 0 45.5 0C20.371 0 0 20.371 0 45.5C0 70.629 20.371 91 45.5 91Z" fill="#231F20"/>
<path d="M7.72256 63.036L28.1346 7.64502C26.5526 8.37302 25.0236 9.19202 23.5566 10.104L7.47656 62.492C7.55856 62.674 7.63856 62.855 7.72256 63.036Z" fill="#F7F8F8"/>
<path d="M9.25872 66.0179L68.6037 10.8469C67.5407 10.1359 66.4437 9.47089 65.3127 8.85889L9.13672 65.8049C9.17672 65.8749 9.21872 65.9449 9.25872 66.0179Z" fill="#F7F8F8"/>
<path d="M10.4341 67.961L86.9641 41.638C86.8331 40.209 86.6311 38.801 86.3591 37.416L10.2891 67.734C10.3361 67.811 10.3851 67.886 10.4341 67.961Z" fill="#F7F8F8"/>
<path d="M12.2793 70.615C12.3683 70.732 12.4613 70.844 12.5523 70.963L68.4043 80.283C69.5013 79.558 70.5583 78.785 71.5803 77.965L12.2793 70.615Z" fill="#F7F8F8"/>
<path d="M3.85156 45.5C3.85156 51.555 5.15456 57.301 7.47656 62.492L23.5566 10.103C11.7296 17.451 3.85156 30.553 3.85156 45.5Z" fill="#D2D2D2"/>
<path d="M9.13766 65.8051L65.3147 8.8571C59.4217 5.6641 52.6737 3.8501 45.5007 3.8501C39.3007 3.8501 33.4217 5.2151 28.1347 7.6451L7.72266 63.0361C8.16066 63.9791 8.63266 64.9021 9.13766 65.8051Z" fill="#A9A9A9"/>
<path d="M10.2898 67.7339L86.3598 37.4159C84.1858 26.3659 77.6448 16.8849 68.6038 10.8459L9.25977 66.0179C9.59077 66.5999 9.93377 67.1719 10.2898 67.7339Z" fill="#828282"/>
<path d="M5.25 69.744L5.254 69.74L5.25 69.744Z" fill="#828282"/>
<path d="M12.2796 70.6149L71.5796 77.9649C81.0706 70.3299 87.1506 58.6279 87.1506 45.4999C87.1506 44.1969 87.0826 42.9099 86.9636 41.6379L10.4336 67.9609C11.0176 68.8689 11.6296 69.7579 12.2796 70.6149Z" fill="#595959"/>
<path d="M45.5008 87.1499C53.9638 87.1499 61.8318 84.6189 68.4028 80.2829L12.5508 70.9629C20.1698 80.8069 32.0918 87.1499 45.5008 87.1499Z" fill="#231F20"/>
</svg>
