<svg width="91" height="92" viewBox="0 0 91 92" fill="none" xmlns="http://www.w3.org/2000/svg">
<path d="M22.4926 36.9788C22.5636 36.7828 22.7016 36.4568 22.7016 36.3278C22.7016 36.3278 22.5976 36.2228 22.4316 36.1558C22.4386 36.2508 22.4676 36.6938 22.4926 36.9788Z" fill="#231F20"/>
<path d="M64.9073 46.1641C60.3003 46.1641 56.5723 49.8931 56.5723 54.4941C56.5723 59.1011 60.3003 62.8351 64.9073 62.8351C69.5053 62.8351 73.2393 59.1021 73.2393 54.4941C73.2393 49.8931 69.5053 46.1641 64.9073 46.1641Z" fill="#231F20"/>
<path d="M79.981 60.56C79.358 60.945 78.592 61.322 78.254 61.431C78.129 61.585 77.89 61.672 77.734 61.681C77.734 61.723 77.68 61.756 77.635 61.789C77.079 61.931 76.231 62.516 75.629 62.349C75.533 62.32 75.408 62.238 75.349 62.124C75.296 62.032 75.247 61.897 75.215 61.769C75.113 61.656 75.024 61.501 75.02 61.167C74.962 61.041 74.898 60.916 74.786 60.815C74.73 60.61 74.691 60.409 74.648 60.209C72.679 63.548 69.059 65.798 64.909 65.798C56.151 65.798 53.604 57.852 53.604 54.494C53.604 51.193 55.031 48.229 57.292 46.164L55.518 42.444L53.479 43.456L52.687 41.863L55.94 40.245L55.95 40.265L56.354 40.07L58.739 45.055C58.988 44.888 59.238 44.71 59.506 44.568C59.498 44.378 59.488 44.187 59.488 44.011C59.485 43.816 59.506 43.56 59.46 43.447C59.4 43.277 59.18 43.268 59.092 43.113C59.078 43.032 59.132 42.994 59.109 42.914C58.488 42.165 58.908 41.262 59.343 40.735C59.063 39.987 59.353 39.291 59.219 38.576C59.162 38.25 59.008 37.955 58.936 37.74C58.865 37.504 58.926 37.4 58.928 37.222C58.933 36.937 58.872 36.644 58.872 36.352C58.872 35.613 59.116 34.855 59.326 34.189C59.549 33.455 59.835 32.779 60.358 32.356C60.367 32.136 60.556 32.028 60.608 31.839C60.629 31.776 60.777 31.787 60.844 31.755C61.361 31.274 61.478 30.556 61.628 29.866C61.485 29.886 61.499 29.732 61.429 29.649C61.331 29.519 61.114 29.51 61.093 29.26C61.093 29.189 61.137 29.147 61.091 29.041C60.754 28.824 60.633 28.375 60.587 28.01C60.566 27.838 60.558 27.563 60.591 27.387C60.616 27.299 60.683 27.217 60.693 27.123C60.722 26.861 60.63 26.719 60.705 26.521C60.738 26.443 60.816 26.408 60.848 26.318C60.918 26.14 60.951 25.931 61.039 25.748C61.154 25.512 61.445 25.334 61.621 25.146C61.752 25.011 61.773 24.81 61.871 24.726C62.092 24.531 62.5 24.36 62.794 24.226C63.042 24.122 63.32 24.08 63.545 24.085C63.655 24.085 63.769 24.026 63.864 24.026C63.957 24.026 64.044 24.091 64.144 24.095C64.364 24.119 64.535 24.074 64.695 24.124C64.819 24.162 64.914 24.283 65.059 24.344C65.123 24.365 65.197 24.346 65.263 24.386C65.325 24.419 65.37 24.526 65.456 24.576C65.72 24.742 65.995 24.721 66.074 25.035C66.566 25.282 67.413 26.556 66.889 27.138C66.816 27.156 66.755 27.138 66.663 27.174C66.683 27.464 66.63 27.706 66.618 27.924C66.609 28.026 66.635 28.129 66.626 28.234C66.601 28.443 66.426 28.588 66.379 28.771C66.29 29.125 66.723 29.379 66.739 29.825C66.699 29.987 66.551 30.09 66.292 30.128C66.208 30.237 66.342 30.47 66.298 30.607C66.254 30.664 66.158 30.684 66.116 30.748C66.217 30.844 66.137 30.978 66.102 31.061C66.048 31.118 65.89 31.116 65.844 31.172C65.643 31.455 65.48 31.81 65.066 31.871C64.649 31.929 64.394 31.506 64.068 31.387C63.867 31.705 63.633 32.004 63.641 32.45C64.124 32.784 64.638 33.315 64.891 34.084C65.022 34.471 65.032 34.935 65.173 35.369C65.29 35.733 65.433 36.085 65.54 36.441C65.669 36.87 65.692 37.256 65.752 37.653C65.79 37.9 65.874 38.249 65.951 38.434C66.095 38.776 66.463 38.928 66.525 39.289C66.451 39.609 66.622 39.881 66.73 40.219C67.422 40.516 68.119 40.78 68.831 40.93C68.904 40.873 68.904 40.817 68.996 40.807C69.264 40.763 69.507 40.922 69.731 41.174C70.51 41.457 71.399 41.438 72.203 41.574C72.332 41.595 72.483 41.787 72.622 41.865C72.866 42.004 73.183 42.045 73.389 42.353C73.498 42.38 73.603 42.417 73.695 42.529C73.745 42.595 73.601 42.635 73.657 42.703C73.925 42.984 74.24 43.511 73.912 43.812C73.82 43.838 73.749 43.712 73.666 43.677C73.652 43.855 73.601 44.131 73.316 44.173C73.36 44.357 73.096 44.618 72.904 44.509C72.887 44.251 72.532 43.876 72.348 43.886C72.584 44.118 72.984 44.452 72.592 44.712C72.398 44.726 72.344 44.577 72.19 44.44C71.745 44.044 71.096 44.018 70.651 43.744C70.186 43.455 69.89 42.972 69.338 42.916C69.067 43.008 68.563 43.012 68.398 42.668C67.982 42.535 67.555 42.426 67.131 42.314L67.083 43.409C72.278 44.427 76.204 49.003 76.204 54.494C76.204 54.591 76.192 54.682 76.19 54.77C76.611 55.352 77.572 56.372 77.462 56.869C77.801 57.225 78.313 57.63 78.47 58.026C78.652 58.018 78.956 58.026 79.287 58.086C79.414 58.103 79.534 58.124 79.657 58.152C79.818 58.115 79.985 58.044 80.146 58.031C80.305 57.839 80.487 57.851 80.708 57.772C80.88 57.709 81.035 57.58 81.181 57.53C81.29 57.487 81.424 57.491 81.549 57.538L81.582 57.521C81.582 57.521 82.113 57.647 82.144 58.001C82.216 58.114 82.202 58.285 82.164 58.39C81.908 59.063 80.818 60.042 79.981 60.56ZM46.57 72.937H44.429V18.062H46.57V72.937ZM36.905 42.575C36.783 42.731 36.491 43.227 36.372 43.278C36.372 43.278 36.337 43.503 36.236 43.604C36.131 43.708 35.798 44.206 35.684 44.277C35.598 44.327 35.513 44.411 35.513 44.411C35.513 44.411 35.408 46.296 35.358 47.505C35.31 48.655 35.187 50.319 35.256 50.457C35.324 50.595 35.238 50.699 35.238 50.699C35.238 50.699 35.279 50.928 35.256 51.042C35.22 51.214 35.084 53.103 35.049 53.96C35.015 54.821 34.93 56.827 34.946 56.966C34.964 57.103 34.91 57.258 34.91 57.258C34.91 57.258 34.964 57.413 34.91 57.551C34.86 57.689 34.738 59.558 34.672 60.402C34.602 61.242 34.464 63.048 34.501 63.186C34.534 63.32 34.465 63.474 34.465 63.474C34.465 63.474 34.503 63.616 34.488 63.779C34.472 63.951 34.294 65.828 34.276 66.342C34.258 66.857 34.141 68.859 34.141 68.859C34.141 68.859 34.208 68.884 34.208 69.005C34.208 69.126 34.171 69.484 34.156 69.608C34.146 69.7 33.995 69.758 33.78 69.754C33.567 69.75 33.435 69.691 33.435 69.591C33.435 69.486 33.448 69.073 33.46 68.952C33.469 68.85 33.531 68.835 33.531 68.835C33.531 68.835 33.59 66.669 33.59 66.276C33.59 65.745 33.669 63.877 33.669 63.759C33.669 63.638 33.761 63.453 33.761 63.453C33.761 63.453 33.711 63.304 33.727 63.165C33.745 63.031 33.916 60.9 33.949 60.365C33.985 59.834 34.148 57.581 34.132 57.41C34.113 57.234 34.209 57.187 34.209 57.187C34.209 57.187 34.173 57.07 34.193 56.933C34.209 56.794 34.296 55.077 34.329 53.977C34.364 52.878 34.483 51.164 34.467 51.009C34.449 50.855 34.52 50.749 34.52 50.749C34.52 50.749 34.484 50.645 34.52 50.512C34.554 50.374 34.675 48.035 34.69 47.488C34.708 46.936 34.812 44.859 34.812 44.859C34.812 44.859 34.708 44.808 34.708 44.67C34.708 44.412 34.855 44.198 34.855 44.198L34.879 43.588C34.879 43.588 34.605 43.668 34.416 43.676C33.971 43.693 34.107 43.45 34.228 43.35C34.349 43.246 34.349 43.125 34.331 43.024C34.314 42.92 34.298 42.439 34.279 42.251C34.261 42.063 34.416 41.235 34.451 41.031C34.485 40.826 34.606 40.655 34.606 40.655C34.606 40.655 34.451 40.55 34.504 40.428C34.554 40.312 34.681 40.119 34.721 39.902C34.75 39.739 34.777 39.451 34.777 39.35C34.777 39.229 34.914 39.09 34.914 39.09C34.914 39.09 34.88 37.306 34.897 37.168L34.847 36.996C34.847 36.996 34.538 37.029 34.383 37.097C34.229 37.168 33.936 37.219 33.885 37.118C33.836 37.014 33.609 36.55 33.491 36.516C33.371 36.483 33.165 36.62 33.129 36.499C33.095 36.377 32.941 36.139 32.924 35.947C32.907 35.759 32.685 35.432 32.598 35.311C32.511 35.195 32.374 35.073 32.374 35.073C32.374 35.073 32.201 35.416 32.1 35.52C32.1 35.52 32.135 36.222 32.012 36.515C32.012 36.515 32.151 36.945 32.116 37.201C32.116 37.201 32.321 37.271 32.389 37.476C32.458 37.681 32.699 37.974 32.699 38.179C32.699 38.388 32.646 39.023 32.58 39.195C32.509 39.365 32.58 39.793 32.58 40.017C32.58 40.24 32.531 40.398 32.509 40.581C32.458 41.013 32.63 41.907 32.663 42.111C32.699 42.316 32.613 42.592 32.613 42.592C32.613 42.592 32.657 44.084 32.63 44.431C32.58 45.082 32.354 45.907 32.354 46.182C32.354 46.454 32.288 48.705 32.254 49.032C32.218 49.358 32.011 50.733 31.978 51.042C31.945 51.352 31.79 52.259 31.685 52.589C31.581 52.915 31.138 54.303 31.103 54.562C31.067 54.822 30.999 55.197 30.913 55.403C30.829 55.612 30.243 57.326 30.105 57.601C29.969 57.876 29.468 59.127 29.332 59.232C29.332 59.232 29.329 59.482 29.283 59.679C29.206 59.992 28.873 61.48 28.776 61.99C28.762 62.066 28.668 62.107 28.668 62.136C28.668 62.136 28.748 62.65 28.768 62.771C28.818 63.097 28.834 65.037 28.818 65.242C28.818 65.242 29.09 65.539 29.144 65.707C29.197 65.861 29.265 66.326 29.197 66.514C29.127 66.705 29.007 66.978 28.851 67.049C28.697 67.115 27.873 67.149 27.718 67.115C27.563 67.081 26.895 66.773 26.757 66.651C26.619 66.534 26.638 66.103 26.638 65.932C26.638 65.76 26.638 65.109 26.585 64.933C26.535 64.761 26.464 64.453 26.431 64.247C26.398 64.042 26.328 63.7 26.345 63.406C26.364 63.114 26.607 62.286 26.653 62.102C26.653 62.102 26.549 62.051 26.607 61.86C26.708 61.517 26.845 60.522 26.845 60.522C26.845 60.522 26.602 60.572 26.449 60.676C26.294 60.778 25.708 60.881 25.553 60.864C25.553 60.864 25.608 61.705 25.608 61.947C25.608 62.185 25.694 63.08 25.694 63.218C25.694 63.356 25.608 63.406 25.608 63.406C25.608 63.406 25.641 63.992 25.608 64.452C25.57 64.966 25.487 65.743 25.487 65.743C25.487 65.743 25.504 66.048 25.539 66.169C25.573 66.291 25.712 66.667 25.657 66.893C25.607 67.115 25.452 67.303 25.435 67.441C25.418 67.58 25.343 67.994 25.36 68.127C25.377 68.265 25.092 68.482 24.903 68.516C24.713 68.553 24.233 68.575 23.889 68.575C23.547 68.575 22.585 68.575 22.447 68.524C22.309 68.474 22.104 68.044 22.137 67.889C22.171 67.735 22.499 67.442 22.482 67.321C22.464 67.204 22.49 66.945 22.515 66.741C22.584 66.171 23.304 63.596 23.304 63.27C23.304 63.27 23.17 63.22 23.17 63.098C23.17 62.977 23.187 62.496 23.187 62.276C23.187 62.049 22.895 59.614 22.895 59.303C22.895 59.303 22.772 59.387 22.755 59.266C22.739 59.149 22.705 58.254 22.67 57.995C22.637 57.741 22.413 56.607 22.413 56.332C22.413 56.057 22.515 52.675 22.464 52.332C22.413 51.989 22.325 51.353 22.309 51.011C22.291 50.663 21.811 45.892 21.778 45.29C21.745 44.688 20.386 40.019 20.386 40.019C19.479 37.505 20.789 29.507 20.789 29.507C20.831 29.201 21.067 28.63 21.202 28.403C21.409 28.057 22.02 27.094 22.3 26.931C22.578 26.768 23.307 26.493 23.947 26.401C24.586 26.308 25.668 26.401 25.668 26.401C25.668 26.401 26.036 25.941 26.056 25.798C26.075 25.652 26.02 25.317 25.966 25.213C25.911 25.105 25.691 24.861 25.691 24.348C25.691 24.348 25.452 24.419 25.343 24.293C25.234 24.168 25.192 23.624 25.183 23.474C25.183 23.474 24.956 23.303 24.903 23.177C24.85 23.048 24.587 22.86 24.533 22.735C24.477 22.609 24.263 22.329 24.282 22.167C24.299 22.003 24.242 21.556 24.263 21.331C24.317 20.745 24.533 20.519 24.552 20.374C24.571 20.231 24.596 19.896 24.688 19.755C24.776 19.609 25.364 19.312 25.508 19.202C25.651 19.095 25.904 18.764 26.092 18.672C26.28 18.584 26.778 18.467 26.957 18.413C27.137 18.358 27.812 18.196 28.039 18.25C28.263 18.304 28.994 18.617 29.135 18.765C29.282 18.907 29.866 19.116 30.047 19.349C30.243 19.605 30.273 20.232 30.343 20.412C30.414 20.592 30.515 21.365 30.596 21.494C30.678 21.62 30.874 21.879 30.858 22.043C30.839 22.205 30.858 22.548 30.913 22.72C30.968 22.891 31.021 23.259 30.913 23.375C30.804 23.492 30.796 23.827 30.67 23.906C30.543 23.99 30.399 24.312 30.273 24.366C30.146 24.421 29.939 24.492 29.939 24.492C29.939 24.492 29.977 24.683 29.795 24.809C29.616 24.934 29.535 25.16 29.425 25.16C29.318 25.16 29.136 25.285 29.136 25.285C29.136 25.285 29.136 25.854 29.158 25.959C29.174 26.068 29.241 26.33 29.332 26.439C29.332 26.439 29.775 26.548 29.977 26.752C29.977 26.752 32.688 27.517 33.463 28.228C33.748 28.496 33.839 28.888 33.839 29.222C33.839 29.553 33.83 30.121 33.912 30.318C33.994 30.519 34.941 32.659 35.074 32.977C35.273 33.453 35.948 34.753 36.171 35.05C36.171 35.05 36.543 35.238 36.66 35.501C36.777 35.76 36.902 35.965 36.919 36.095C36.938 36.22 36.883 36.238 36.883 36.238C36.883 36.238 36.828 36.626 36.864 36.822C36.901 37.023 37.019 37.885 36.828 37.905C36.828 37.905 36.584 39.146 36.388 39.46C36.388 39.46 36.428 39.615 36.388 39.715C36.351 39.803 36.308 40.063 36.308 40.188C36.308 40.318 36.425 40.543 36.404 40.669C36.387 40.798 36.334 40.84 36.334 40.978C36.334 41.112 36.32 41.651 36.458 41.772C36.597 41.893 36.87 41.961 36.751 42.198C36.75 42.194 37.024 42.421 36.905 42.575ZM45.5 0C20.371 0 0 20.372 0 45.499C0 70.63 20.371 91.003 45.5 91.003C70.626 91.003 91 70.63 91 45.499C91 20.372 70.626 0 45.5 0Z" fill="#231F20"/>
</svg>
