<svg width="91" height="92" viewBox="0 0 91 92" fill="none" xmlns="http://www.w3.org/2000/svg">
<path d="M45.8805 0.770996C70.5375 0.770996 90.5275 20.762 90.5275 45.42C90.5275 70.081 70.5375 90.07 45.8805 90.07C21.2195 90.07 1.23047 70.081 1.23047 45.42C1.23047 20.762 21.2195 0.770996 45.8805 0.770996Z" fill="white"/>
<path d="M55.299 85.516C52.88 83.276 51.365 80.075 51.365 76.512C51.365 69.715 56.875 64.206 63.671 64.206C64.315 64.206 64.946 64.27 65.565 64.365C66.339 59.113 70.824 55.07 76.289 55.07C79.569 55.07 82.485 56.539 84.47 58.839C84.199 59.626 83.906 60.402 83.588 61.167C82.029 58.793 79.348 57.217 76.289 57.211C71.827 57.211 68.169 60.561 67.636 64.87C71.576 66.213 74.585 69.506 75.589 73.588C70.207 79.351 63.206 83.578 55.299 85.516ZM45.501 86.743C40.172 86.743 35.093 85.693 30.414 83.844C33.164 82.416 36.28 81.596 39.594 81.596C44.407 81.596 48.8 83.313 52.252 86.141C50.05 86.507 47.805 86.743 45.501 86.743ZM25.505 62.07C25.505 59.116 27.898 56.718 30.857 56.718C33.388 56.718 35.497 58.485 36.051 60.849C37.06 60.429 38.166 60.193 39.327 60.193C44.055 60.193 47.888 64.026 47.888 68.754C47.888 73.482 44.055 77.315 39.327 77.315C34.599 77.315 30.766 73.482 30.766 68.754C30.766 68.296 30.832 67.856 30.901 67.418C30.887 67.418 30.872 67.422 30.858 67.422C27.898 67.422 25.505 65.025 25.505 62.07ZM16.632 37.102C12.376 37.102 8.733 34.636 6.945 31.077C7.312 30.102 7.709 29.148 8.145 28.21C9.053 32.075 12.495 34.954 16.633 34.963C21.406 34.954 25.265 31.13 25.357 26.372C24.722 25.405 24.347 24.251 24.347 23.008C24.347 19.61 27.102 16.855 30.5 16.855C33.899 16.855 36.653 19.61 36.653 23.008C36.653 26.404 33.898 29.161 30.5 29.161C29.327 29.161 28.242 28.813 27.31 28.245C26.356 33.286 21.947 37.102 16.632 37.102ZM20.867 14.713C22.639 14.713 24.077 16.151 24.077 17.924C24.077 19.697 22.639 21.135 20.867 21.135C19.095 21.135 17.657 19.697 17.657 17.924C17.657 16.151 19.095 14.713 20.867 14.713ZM36.627 5.291C36.631 5.4 36.651 5.507 36.651 5.617C36.651 10.346 32.818 14.178 28.09 14.178C25.726 14.178 23.611 13.204 22.072 11.649C26.398 8.648 31.32 6.459 36.627 5.291ZM49.76 34.777C51.976 34.777 53.772 36.575 53.772 38.791C53.772 41.006 51.975 42.804 49.76 42.804C47.544 42.804 45.747 41.006 45.747 38.791C45.747 36.575 47.544 34.777 49.76 34.777ZM56.181 59.926C56.181 62.141 54.383 63.939 52.168 63.939C49.952 63.939 48.155 62.141 48.155 59.926C48.155 57.71 49.953 55.913 52.168 55.913C54.383 55.913 56.181 57.71 56.181 59.926ZM60.194 43.605C63.446 43.605 66.08 46.24 66.08 49.492C66.08 52.742 63.446 55.377 60.194 55.377C56.942 55.377 54.309 52.742 54.309 49.492C54.308 46.24 56.941 43.605 60.194 43.605ZM45.501 0C43.969 0 42.461 0.096 40.971 0.25C40.905 0.258 40.839 0.263 40.773 0.27C39.487 0.41 38.219 0.608 36.965 0.85C36.57 0.926 36.177 1.002 35.786 1.086C35.649 1.115 35.51 1.139 35.373 1.17C35.377 1.176 35.381 1.182 35.383 1.191C29.752 2.47 24.508 4.769 19.885 7.925C19.884 7.918 19.881 7.912 19.879 7.908C18.808 8.639 17.782 9.429 16.778 10.249C16.64 10.361 16.504 10.473 16.368 10.586C15.327 11.457 14.318 12.363 13.359 13.321C13.322 13.357 13.289 13.396 13.252 13.431C12.314 14.374 11.422 15.361 10.568 16.384C10.481 16.488 10.391 16.587 10.306 16.693C9.458 17.727 8.657 18.8 7.901 19.909C7.802 20.055 7.707 20.202 7.609 20.347C6.108 22.605 4.804 24.995 3.72 27.51C3.639 27.697 3.558 27.884 3.48 28.072C2.963 29.318 2.492 30.587 2.085 31.885C2.047 32.006 2.017 32.127 1.981 32.249C1.604 33.486 1.281 34.746 1.009 36.027C0.975 36.188 0.934 36.347 0.901 36.507C0.636 37.829 0.435 39.171 0.287 40.531C0.259 40.792 0.237 41.052 0.213 41.314C0.085 42.695 0 44.087 0 45.5V45.523C0 45.544 0.003 45.562 0.003 45.584C0.006 46.955 0.087 48.303 0.208 49.643C0.247 50.08 0.301 50.512 0.352 50.947C0.468 51.909 0.615 52.862 0.789 53.804C0.868 54.239 0.939 54.676 1.03 55.108C1.293 56.329 1.599 57.533 1.958 58.713C2.111 59.219 2.298 59.708 2.468 60.208C2.71 60.916 2.961 61.621 3.238 62.312C3.484 62.928 3.741 63.537 4.011 64.14C4.245 64.657 4.497 65.164 4.75 65.673C5.947 68.088 7.348 70.374 8.938 72.524C9.063 72.695 9.188 72.863 9.316 73.03C17.627 83.946 30.721 91.023 45.499 91.023C58.579 91.023 70.333 85.48 78.622 76.641C78.672 76.589 78.718 76.537 78.764 76.484C79.651 75.532 80.494 74.543 81.297 73.514C81.393 73.393 81.493 73.271 81.589 73.149C83.216 71.023 84.657 68.753 85.895 66.359C85.967 66.218 86.058 66.087 86.129 65.947H86.095C86.396 65.351 86.71 64.759 86.986 64.147C86.986 64.151 86.986 64.156 86.986 64.162C87.011 64.105 87.036 64.047 87.061 63.99C87.295 63.466 87.517 62.935 87.73 62.4C88.098 61.48 88.445 60.548 88.754 59.597C88.892 59.17 89.021 58.738 89.147 58.305C89.465 57.227 89.753 56.134 89.991 55.024C90.054 54.72 90.104 54.416 90.163 54.111C90.405 52.863 90.606 51.6 90.744 50.317C90.761 50.16 90.765 50.002 90.782 49.843C90.916 48.43 90.996 47 91 45.55C91 45.542 91 45.531 91 45.524V45.5C91 20.371 70.631 0 45.501 0Z" fill="#231F20"/>
<path d="M30.8565 58.8589C29.0825 58.8629 27.6485 60.2969 27.6445 62.0699C27.6485 63.8429 29.0825 65.2779 30.8565 65.2829C31.0985 65.2799 31.3325 65.2479 31.5595 65.1959C32.1315 63.9529 32.9975 62.8859 34.0615 62.0489C34.0455 60.2869 32.6185 58.8629 30.8565 58.8589Z" fill="#231F20"/>
</svg>
