<svg width="91" height="91" viewBox="0 0 91 91" fill="none" xmlns="http://www.w3.org/2000/svg">
<path d="M90.986 45.494C90.986 70.619 70.618 90.988 45.492 90.988C20.368 90.988 0 70.619 0 45.494C0 20.368 20.368 0 45.493 0C70.619 0 90.986 20.368 90.986 45.494Z" fill="#929497"/>
<path d="M39.688 68.35C22.648 68.35 7.798 58.979 0.005 45.111C0.004 45.238 0 45.366 0 45.494C0 70.619 20.368 90.988 45.493 90.988C70.619 90.988 90.987 70.619 90.987 45.494C90.987 37.409 88.875 29.818 85.177 23.239C84.97 48.188 64.687 68.35 39.688 68.35Z" fill="#231F20"/>
<path d="M29.6406 18.699L34.8966 22.72L42.6846 24.526L45.9016 31.066L50.5556 34.728L57.3966 23.326C53.9606 20.055 48.1806 16.769 39.3676 16.291L32.8466 16.406C32.8466 16.406 31.2236 16.795 29.6406 18.699Z" fill="white"/>
<path d="M54.0234 71.7461L55.7264 89.8161C59.3544 88.9811 62.8164 87.7151 66.0534 86.0721L66.5914 65.2481C66.8204 54.0191 65.8244 50.2381 65.5474 48.9041L54.0234 71.7461Z" fill="white"/>
<path d="M54.0097 51.979C55.5247 51.979 56.7527 50.752 56.7527 49.235C56.7527 47.718 55.5237 46.489 54.0097 46.489C52.4927 46.489 51.2637 47.718 51.2637 49.235C51.2637 50.752 52.4927 51.979 54.0097 51.979Z" fill="white"/>
<path d="M43.3121 62.9609C43.4891 62.9609 43.6641 62.9779 43.8341 63.0019C43.3991 62.3929 43.1401 61.6499 43.1401 60.8449C43.1401 58.7909 44.8041 57.1269 46.8581 57.1269C47.0351 57.1269 47.2091 57.1439 47.3791 57.1679C46.9451 56.5589 46.6861 55.8139 46.6861 55.0109C46.6861 52.9569 48.3511 51.2929 50.4041 51.2929C50.5821 51.2929 50.7561 51.3109 50.9261 51.3339C50.4911 50.7269 50.2331 49.9819 50.2331 49.1759C50.2331 47.1229 51.8971 45.4589 53.9511 45.4589C56.0031 45.4589 57.6691 47.1229 57.6691 49.1759C57.6691 51.2309 56.0031 52.8949 53.9511 52.8949C53.7721 52.8949 53.5981 52.8779 53.4291 52.8539C53.8641 53.4629 54.1221 54.2069 54.1221 55.0109C54.1221 57.0629 52.4571 58.7289 50.4041 58.7289C50.2271 58.7289 50.0541 58.7119 49.8831 58.6879C50.3181 59.2969 50.5761 60.0399 50.5761 60.8449C50.5761 62.8979 48.9121 64.5619 46.8581 64.5619C46.6811 64.5619 46.5071 64.5449 46.3371 64.5219C46.7721 65.1289 47.0301 65.8729 47.0301 66.6779C47.0301 68.7309 45.3661 70.3959 43.3121 70.3959C43.3121 70.3959 41.5541 70.2489 40.2881 68.8359C39.8541 68.2269 39.5951 67.4829 39.5951 66.6779C39.5951 64.6239 41.2601 62.9609 43.3121 62.9609ZM43.1311 90.9259C44.5771 87.1619 46.6441 82.5299 49.5471 77.3719L53.4411 70.2679L53.4461 70.2579L56.3141 64.4999L64.8091 47.4509C66.1801 41.5099 66.8421 31.4089 58.3551 24.5259L32.0451 68.3369C32.0451 68.3369 28.8431 71.3109 29.3011 85.3789L29.2051 87.9729C33.5651 89.6459 38.2441 90.6759 43.1311 90.9259Z" fill="white"/>
<path d="M39.7112 49.1199L39.7782 49.0679C40.3072 49.5429 40.8742 49.9759 41.2372 50.2569L50.1952 35.3269L45.2932 31.3209L37.3072 29.5569L35.1302 23.6189L29.2902 19.1499C28.8932 19.6909 28.5062 20.3329 28.1582 21.0949C28.1572 21.0959 30.2162 41.9139 39.7112 49.1199Z" fill="white"/>
<path d="M43.131 90.9261C44.577 87.1621 46.644 82.5301 49.547 77.3721L53.441 70.2681L53.446 70.2581L55.881 65.3711C53.004 66.4681 49.989 67.2851 46.866 67.7791C46.396 69.2951 44.984 70.3951 43.314 70.3951C43.314 70.3951 41.556 70.2481 40.29 68.8351C40.179 68.6781 40.08 68.5121 39.992 68.3391C39.891 68.3411 39.791 68.3491 39.689 68.3491C37.205 68.3491 34.769 68.1441 32.394 67.7611L32.047 68.3361C32.047 68.3361 28.845 71.3101 29.303 85.3781L29.207 87.9721C33.565 89.6461 38.244 90.6761 43.131 90.9261Z" fill="#929497"/>
<path d="M66.5914 65.248C66.6354 63.074 66.6334 61.185 66.6004 59.531C63.8194 61.576 60.7974 63.31 57.5854 64.686L54.0234 71.746L55.7264 89.816C59.3544 88.981 62.8164 87.715 66.0534 86.072L66.5914 65.248Z" fill="#929497"/>
</svg>
