<svg width="91" height="92" viewBox="0 0 91 92" fill="none" xmlns="http://www.w3.org/2000/svg">
<path d="M45.5865 0.52002C70.2455 0.52002 90.2335 20.51 90.2335 45.168C90.2335 69.829 70.2445 89.818 45.5865 89.818C20.9285 89.818 0.939453 69.829 0.939453 45.168C0.938453 20.51 20.9285 0.52002 45.5865 0.52002Z" fill="white"/>
<path d="M91 45.5C91 70.637 70.63 91.006 45.5 91.006C20.369 91.006 0 70.637 0 45.5C0 20.375 20.369 0 45.5 0C70.63 0 91 20.375 91 45.5Z" fill="#231F20"/>
<path d="M47.0623 16.98C47.0493 16.986 47.0393 16.991 47.0233 16.996C55.9563 16.361 45.3183 30.14 45.3183 30.14C45.3183 30.14 53.3483 22.762 52.8493 18.037L52.8593 17.654C52.6803 16.261 51.7433 15.398 50.2763 14.999C50.2443 14.986 50.2193 14.97 50.1883 14.957C50.1883 14.957 50.1793 14.97 50.1793 14.975C47.2723 14.237 42.2923 15.33 36.6343 18.034C37.4053 16.937 38.6653 14.793 38.8873 12.153L38.9203 11.747C38.9353 11.384 38.9143 11.017 38.8833 10.638C38.8603 10.31 38.8193 10.003 38.7703 9.704C38.7493 9.591 38.7553 9.486 38.7303 9.374C38.7303 9.374 38.7053 9.351 38.7013 9.345C38.3233 7.409 37.4383 6.13 36.2163 5.375C17.9503 9.6 4.2793 25.97 4.2793 45.5C4.2793 47.457 4.4633 49.367 4.7263 51.253C4.5093 26.852 22.9033 9.718 33.0513 9.036C33.4083 9.011 33.7403 9.009 34.0503 9.023C34.1663 9.03 34.2803 9.034 34.3933 9.044C39.5723 9.589 37.2063 16.11 36.3153 18.188C24.6313 23.875 10.2233 36.391 5.1363 53.874C5.2023 54.189 5.3033 54.493 5.3783 54.808C14.5753 32.852 36.1943 19.092 47.0623 16.98Z" fill="white"/>
<path d="M58.0483 29.217C62.3633 28.34 59.2613 33.282 53.8213 37.084C57.5943 34.708 63.1823 31.135 62.1253 28.302C62.1293 28.302 62.1343 28.3 62.1363 28.3C59.5653 24.335 22.0213 35.42 5.82227 56.412C5.90127 56.697 5.97427 56.981 6.06027 57.264C18.8423 44.271 45.5243 32.659 58.0483 29.217Z" fill="white"/>
<path d="M53.8212 37.084C53.0402 37.578 52.3303 38.022 51.7812 38.395C52.4923 37.985 53.1692 37.54 53.8212 37.084Z" fill="white"/>
<path d="M48.1744 77.8459C31.5754 78.2939 21.0294 75.5929 14.4004 72.3979C21.9414 81.1539 33.0574 86.7259 45.5004 86.7259C51.5234 86.7259 57.2334 85.3959 62.3964 83.0609L63.8394 75.2109C60.3684 76.6629 55.2514 77.6559 48.1744 77.8459Z" fill="white"/>
<path d="M7.689 61.536C7.288 60.582 6.872 59.64 6.537 58.653C6.378 58.189 6.2 57.735 6.061 57.263C5.975 56.981 5.901 56.697 5.823 56.411C5.676 55.877 5.505 55.35 5.38 54.807C5.305 54.493 5.204 54.189 5.138 53.873C4.96 53.014 4.854 52.13 4.728 51.252C4.464 49.367 4.28 47.457 4.28 45.5C4.28 25.97 17.951 9.6 36.218 5.374C39.206 4.683 42.303 4.281 45.499 4.281C68.227 4.281 86.719 22.773 86.719 45.5C86.719 62.207 76.712 76.592 62.396 83.061C57.233 85.396 51.523 86.726 45.5 86.726C33.058 86.726 21.941 81.154 14.4 72.398C21.029 75.593 31.576 78.294 48.174 77.846C55.251 77.657 60.368 76.663 63.839 75.211L7.689 61.536ZM45.5 0C20.369 0 0 20.375 0 45.5C0 70.637 20.369 91.006 45.5 91.006C70.63 91.006 91 70.637 91 45.5C91 20.375 70.63 0 45.5 0Z" fill="#231F20"/>
<path d="M48.1741 74.4979C82.4301 73.5779 71.4081 54.0699 44.7271 52.6949C27.6431 51.8089 23.8011 51.1729 23.8011 51.1729L6.53711 58.6529C7.51911 61.5639 8.80711 64.3319 10.3831 66.9109C16.5461 70.9099 27.8781 75.0439 48.1741 74.4979Z" fill="white"/>
<path d="M77.769 54.2909V54.2869L75.671 56.0979C76.304 40.9219 67.543 29.8069 67.494 29.7339L66.123 30.8129C66.128 30.8209 68.289 33.5589 70.366 38.2109C72.369 42.7109 74.245 48.9649 73.921 56.0869L71.745 54.1329L70.379 55.6579L74.7561 59.5959L79.107 55.8379L77.769 54.2909Z" fill="white"/>
<path d="M20.0977 65.515C22.8137 66.774 26.8127 68.032 32.5497 68.604C44.4167 69.792 53.1877 69.194 57.2217 67.94L57.3517 67.74C58.0807 67.221 57.9647 66.741 57.9437 66.587C58.0217 66.364 57.3997 65.696 55.7847 65.119C54.2137 64.533 51.8687 63.956 48.9237 63.354C41.6357 61.866 30.3467 61.491 29.0367 61.449L20.0977 65.515Z" fill="#231F20"/>
<path d="M41.2965 57.1812C30.5675 56.5612 27.9265 56.4282 27.9265 56.4282L14.5625 62.1292C14.5625 62.1292 15.5795 63.4592 18.3415 64.9472L28.2945 60.4202L28.4195 60.4242C28.4375 60.4282 40.7215 60.7412 48.6225 62.3552C51.5905 62.9582 53.9645 63.5392 55.6435 64.1702C57.2755 64.8092 58.4165 65.4112 58.4935 66.6312C58.4895 66.8652 58.4205 67.0782 58.3295 67.2872C65.1835 63.4122 57.5785 58.1252 41.2965 57.1812Z" fill="#231F20"/>
</svg>
