<svg width="93" height="93" viewBox="0 0 93 93" fill="none" xmlns="http://www.w3.org/2000/svg">
<path d="M92 46.497C92 71.625 71.627 91.997 46.5 91.997C21.373 91.997 1 71.626 1 46.497C1 21.371 21.373 1 46.5 1C71.626 1 92 21.371 92 46.497Z" fill="url(#paint0_linear)" stroke="#929497" stroke-width="0.5814"/>
<path d="M49.8853 51.0531C49.6293 54.7171 48.4643 57.6121 46.2293 60.2031C43.4343 63.5041 39.4163 65.1291 34.2323 65.1291C28.6933 65.1291 24.3733 63.2011 21.2743 59.3881C18.7303 56.1911 17.3613 51.9201 17.3613 47.2911C17.3613 42.4631 18.9343 38.0961 21.8853 34.7421C24.9843 31.2341 29.1493 29.5061 34.4893 29.5061C42.7713 29.5061 49.1773 34.9451 49.6323 42.3651H40.9953C40.6413 40.5351 40.2853 39.7731 39.4693 38.8581C38.2463 37.5371 36.4703 36.8261 34.3853 36.8261C29.4063 36.8261 26.3553 40.8391 26.3553 47.3441C26.3553 53.9021 29.3543 57.8671 34.2873 57.8671C36.5703 57.8671 38.5033 56.9531 39.6743 55.2741C40.3853 54.2531 40.7393 53.0391 40.9963 51.0521H49.8853V51.0531Z" fill="white"/>
<path d="M49.8853 51.0531C49.6293 54.7171 48.4643 57.6121 46.2293 60.2031C43.4343 63.5041 39.4163 65.1291 34.2323 65.1291C28.6933 65.1291 24.3733 63.2011 21.2743 59.3881C18.7303 56.1911 17.3613 51.9201 17.3613 47.2911C17.3613 42.4631 18.9343 38.0961 21.8853 34.7421C24.9843 31.2341 29.1493 29.5061 34.4893 29.5061C42.7713 29.5061 49.1773 34.9451 49.6323 42.3651H40.9953C40.6413 40.5351 40.2853 39.7731 39.4693 38.8581C38.2463 37.5371 36.4703 36.8261 34.3853 36.8261C29.4063 36.8261 26.3553 40.8391 26.3553 47.3441C26.3553 53.9021 29.3543 57.8671 34.2873 57.8671C36.5703 57.8671 38.5033 56.9531 39.6743 55.2741C40.3853 54.2531 40.7393 53.0391 40.9963 51.0521H49.8853V51.0531Z" stroke="#929497" stroke-width="0.5814"/>
<path d="M53.4967 42.063C53.7537 34.841 58.3777 30.729 66.2047 30.729C73.5727 30.729 78.4527 34.438 78.4527 40.077C78.4527 43.333 76.6237 45.871 73.7767 46.482C77.4387 47.292 79.6237 50.088 79.6237 53.954C79.6237 56.394 78.8097 58.579 77.2877 60.407C74.7437 63.354 71.1857 64.776 66.2057 64.776C61.3257 64.776 57.9727 63.558 55.5367 60.967C53.7557 59.033 52.6387 56.033 52.6387 53.191V52.325H60.3667L60.4127 52.634L60.5637 54.206C60.8197 56.546 62.9577 58.067 65.9517 58.067C69.2587 58.067 71.2917 56.442 71.2917 53.797C71.2917 51.002 69.3067 49.58 65.4437 49.58C64.8387 49.58 64.4777 49.58 63.4647 49.633V44.194C63.9187 44.246 64.1747 44.246 64.6837 44.246C68.9047 44.246 70.7867 43.181 70.7867 40.787C70.7867 38.655 68.9047 37.234 66.1577 37.234C62.9597 37.234 61.2827 38.911 61.1777 42.063H53.4967Z" fill="white"/>
<path d="M53.4967 42.063C53.7537 34.841 58.3777 30.729 66.2047 30.729C73.5727 30.729 78.4527 34.438 78.4527 40.077C78.4527 43.333 76.6237 45.871 73.7767 46.482C77.4387 47.292 79.6237 50.088 79.6237 53.954C79.6237 56.394 78.8097 58.579 77.2877 60.407C74.7437 63.354 71.1857 64.776 66.2057 64.776C61.3257 64.776 57.9727 63.558 55.5367 60.967C53.7557 59.033 52.6387 56.033 52.6387 53.191V52.325H60.3667L60.4127 52.634L60.5637 54.206C60.8197 56.546 62.9577 58.067 65.9517 58.067C69.2587 58.067 71.2917 56.442 71.2917 53.797C71.2917 51.002 69.3067 49.58 65.4437 49.58C64.8387 49.58 64.4777 49.58 63.4647 49.633V44.194C63.9187 44.246 64.1747 44.246 64.6837 44.246C68.9047 44.246 70.7867 43.181 70.7867 40.787C70.7867 38.655 68.9047 37.234 66.1577 37.234C62.9597 37.234 61.2827 38.911 61.1777 42.063H53.4967V42.063Z" stroke="#929497" stroke-width="0.5814"/>
<path d="M38.2759 14.262V15.205H35.5989V23.137H34.2999V15.205H31.5879V14.262H38.2759Z" fill="#58595B"/>
<path d="M25.7082 18.318H27.1382C27.8462 18.318 28.2922 18.226 28.5982 18.025C29.0322 17.733 29.2562 17.281 29.2562 16.695C29.2562 16.056 28.9662 15.564 28.4362 15.34C28.1802 15.233 27.6672 15.152 27.1702 15.152H25.7082V18.318ZM27.4112 14.262C28.4042 14.262 28.9662 14.354 29.4162 14.594C30.1712 14.981 30.5882 15.698 30.5882 16.579C30.5882 17.708 29.9612 18.507 28.8862 18.747C30.2492 18.998 30.4582 19.385 30.5552 21.741C30.5882 22.618 30.6992 22.87 31.1012 23.137H29.5122C29.2872 22.86 29.2412 22.541 29.1742 21.102C29.1242 20.065 29.0162 19.719 28.6282 19.453C28.3112 19.225 27.9402 19.16 27.0092 19.16H25.7082V23.138H24.4102V14.263H27.4112V14.262Z" fill="#58595B"/>
<path d="M42.1816 17.109C42.2116 16.23 42.3096 15.792 42.6126 15.366C43.1276 14.619 43.9446 14.262 45.1496 14.262C46.9786 14.262 48.0216 15.168 48.0216 16.752C48.0216 17.522 47.7496 18.199 47.2176 18.721C46.8336 19.106 46.6256 19.264 45.3566 20.158C44.2676 20.929 43.8016 21.434 43.5776 22.1C43.5446 22.194 43.5446 22.206 43.5136 22.258C43.6916 22.233 43.8686 22.219 44.2846 22.219H48.1016V23.137H42.1846C42.2476 21.434 42.8896 20.571 45.3416 18.893C46.3566 18.173 46.7046 17.614 46.7046 16.752C46.7046 15.698 46.1306 15.113 45.1006 15.113C44.0096 15.113 43.4496 15.792 43.4496 17.109H42.1816Z" fill="#58595B"/>
<path d="M56.5781 15.8051C58.3261 15.7921 59.0661 15.3671 59.1751 14.2871H60.1071V23.1371H58.8581V16.5241H56.5781V15.8051Z" fill="#58595B"/>
<path d="M50.7536 16.417C50.6076 16.871 50.5436 17.723 50.5436 18.839C50.5436 19.996 50.6066 20.753 50.7536 21.303C50.9426 22.061 51.4426 22.457 52.1806 22.457C53.5436 22.457 53.9476 21.568 53.9476 18.533C53.9476 16.004 53.5116 15.113 52.2746 15.113C51.4906 15.113 50.9936 15.539 50.7536 16.417ZM55.2596 18.533C55.2596 19.664 55.1156 20.838 54.8916 21.513C54.5046 22.697 53.5586 23.308 52.1326 23.308C50.8786 23.308 49.9806 22.739 49.5796 21.688C49.3236 21.019 49.2266 20.222 49.2266 18.904C49.2266 17.613 49.3546 16.589 49.5936 15.978C50.0596 14.832 50.9426 14.261 52.2726 14.261C54.3616 14.262 55.2596 15.553 55.2596 18.533Z" fill="#58595B"/>
<path d="M62.373 17.109C62.404 16.23 62.501 15.792 62.807 15.366C63.319 14.619 64.137 14.262 65.34 14.262C67.169 14.262 68.212 15.168 68.212 16.752C68.212 17.522 67.939 18.199 67.41 18.721C67.023 19.106 66.814 19.264 65.549 20.158C64.458 20.929 63.992 21.434 63.769 22.1C63.737 22.194 63.737 22.206 63.706 22.258C63.881 22.233 64.058 22.219 64.475 22.219H68.294V23.137H62.374C62.437 21.434 63.079 20.571 65.535 18.893C66.543 18.173 66.899 17.614 66.899 16.752C66.899 15.698 66.319 15.113 65.295 15.113C64.202 15.113 63.642 15.792 63.642 17.109H62.373Z" fill="#58595B"/>
<path d="M50.5361 84.354C50.5361 86.444 48.8381 88.141 46.7481 88.141C44.6521 88.141 42.9551 86.444 42.9551 84.354C42.9551 82.258 44.6531 80.561 46.7481 80.561C48.8371 80.561 50.5361 82.258 50.5361 84.354Z" fill="#0067AB"/>
<path d="M12.6122 46.442C12.6122 48.532 10.9142 50.2299 8.82425 50.2299C6.72925 50.2299 5.03125 48.532 5.03125 46.442C5.03125 44.347 6.73025 42.6479 8.82425 42.6479C10.9142 42.6479 12.6122 44.348 12.6122 46.442Z" fill="#E01B22"/>
<defs>
<linearGradient id="paint0_linear" x1="0.9998" y1="46.4986" x2="91.9998" y2="46.4986" gradientUnits="userSpaceOnUse">
<stop stop-color="#F2F2F2"/>
<stop offset="0.0763" stop-color="#E9E9E9"/>
<stop offset="0.2008" stop-color="#D1D1D1"/>
<stop offset="0.357" stop-color="#AAAAAA"/>
<stop offset="0.5" stop-color="#808080"/>
<stop offset="0.643" stop-color="#AAAAAA"/>
<stop offset="0.7992" stop-color="#D1D1D1"/>
<stop offset="0.9237" stop-color="#E9E9E9"/>
<stop offset="1" stop-color="#F2F2F2"/>
</linearGradient>
</defs>
</svg>
