<svg width="91" height="91" viewBox="0 0 91 91" fill="none" xmlns="http://www.w3.org/2000/svg">
<path d="M0 45.5C0 20.371 20.372 0 45.5 0C70.628 0 91 20.371 91 45.5C91 70.629 70.628 90.998 45.5 90.998C20.372 90.998 0 70.629 0 45.5Z" fill="#231F20"/>
<path d="M74.865 10.748C66.94 4.044 56.693 0 45.5 0C20.372 0 0 20.371 0 45.5C0 52.346 1.514 58.836 4.223 64.659C13.943 34.379 41.711 12.188 74.865 10.748ZM67.854 63.206C48.746 63.206 31.251 70.098 17.712 81.527C18.18 81.888 18.657 82.246 19.141 82.59C30.572 75.988 43.833 72.205 57.983 72.205C65.579 72.205 72.919 73.299 79.86 75.329C82.45 72.348 84.656 69.025 86.409 65.439C80.461 63.984 74.247 63.206 67.854 63.206Z" fill="#929497"/>
<path d="M56.4467 37.8671C56.4467 43.4941 51.8907 48.0481 46.2677 48.0481C40.6517 48.0481 36.0938 43.4941 36.0938 37.8671C36.0938 32.2561 46.2677 20.1211 46.2677 20.1211C46.2677 20.1211 56.4467 32.2561 56.4467 37.8671Z" fill="#D0D2D3"/>
<path d="M2.91211 61.5259C3.91011 64.1759 5.14011 66.7109 6.59111 69.0999C16.8071 71.9169 29.1811 73.5669 42.5151 73.5669C56.2551 73.5669 68.9741 71.8159 79.3621 68.8419C71.2561 70.3479 62.2241 71.1919 52.7001 71.1919C32.5201 71.1909 14.5391 67.4119 2.91211 61.5259ZM63.2501 64.1409C66.4801 62.9879 68.4201 61.5079 68.4201 59.8949C68.4201 57.6679 64.7161 55.6979 59.0271 54.4839C69.1651 55.3959 76.1531 57.3189 76.1531 59.5449C76.1541 61.4439 71.0531 63.1229 63.2501 64.1409ZM30.1091 58.8409C30.1091 58.5209 30.2341 58.2069 30.4671 57.9049C31.9621 59.2449 37.9981 60.2459 45.2221 60.2459C53.5691 60.2459 60.3371 58.9089 60.3371 57.2599C60.3371 55.6759 54.1011 54.3799 46.2181 54.2799C46.5291 54.2739 46.8411 54.2719 47.1561 54.2719C56.5701 54.2719 64.2031 56.3179 64.2031 58.8409C64.2031 61.3649 56.5701 63.4099 47.1561 63.4099C37.7411 63.4099 30.1091 61.3649 30.1091 58.8409ZM15.3481 59.5439C15.3481 57.3179 22.3371 55.3959 32.4741 54.4829C26.7851 55.6969 23.0801 57.6679 23.0801 59.8939C23.0801 61.5069 25.0201 62.9869 28.2501 64.1399C20.4491 63.1229 15.3481 61.4439 15.3481 59.5439ZM46.4531 55.6779C51.9851 55.6779 56.4691 56.4649 56.4691 57.4359C56.4691 58.4069 51.9841 59.1929 46.4531 59.1929C40.9201 59.1929 36.4351 58.4069 36.4351 57.4359C36.4351 56.4649 40.9201 55.6779 46.4531 55.6779ZM45.3981 51.1079C25.1141 51.1079 8.66911 54.8849 8.66911 59.5439C8.66911 64.2029 25.1141 67.9799 45.3981 67.9799C65.6841 67.9799 82.1271 64.2039 82.1271 59.5439C82.1271 54.8859 65.6841 51.1079 45.3981 51.1079Z" fill="#D0D2D3"/>
<path d="M35.5066 70.2368C33.6066 71.1068 31.7466 72.0488 29.9336 73.0628C34.0006 73.3918 38.2066 73.5658 42.5146 73.5658C42.8516 73.5658 43.1856 73.5598 43.5216 73.5578C48.2076 72.6758 53.0396 72.2038 57.9826 72.2038C59.3766 72.2038 60.7576 72.2528 62.1326 72.3258C68.3526 71.5158 74.1516 70.3328 79.3616 68.8408C71.2556 70.3468 62.2236 71.1908 52.6996 71.1908C46.7386 71.1908 40.9756 70.8538 35.5066 70.2368Z" fill="white"/>
<path d="M63.2497 64.1412C64.0287 63.8622 64.7317 63.5652 65.3517 63.2502C56.8667 63.5202 48.7257 65.1452 41.1367 67.9202C42.5347 67.9582 43.9557 67.9802 45.3967 67.9802C58.9817 67.9802 70.8357 66.2852 77.1887 63.7662C74.4137 63.4322 71.5937 63.2522 68.7367 63.2212C67.1177 63.5652 65.2787 63.8762 63.2497 64.1412Z" fill="white"/>
<path d="M4.95978 62.5062C4.26278 62.1892 3.58178 61.8652 2.92578 61.5332C2.96878 61.6482 3.00978 61.7632 3.05378 61.8792C3.20478 62.2722 3.36278 62.6612 3.52478 63.0482C3.66378 63.3792 3.80778 63.7092 3.95278 64.0372C4.04378 64.2392 4.13578 64.4392 4.22878 64.6412C4.45878 63.9232 4.70978 63.2142 4.95978 62.5062Z" fill="white"/>
</svg>
