<svg width="91" height="91" viewBox="0 0 91 91" fill="none" xmlns="http://www.w3.org/2000/svg">
<path d="M90.9993 45.484C90.9993 70.604 70.6352 90.966 45.5142 90.966C20.3942 90.966 0.03125 70.604 0.03125 45.484C0.03025 20.363 20.3942 0 45.5142 0C70.6352 0 90.9993 20.363 90.9993 45.484Z" fill="#929497"/>
<path d="M29.0729 50.5121C29.0519 49.6391 28.9099 48.8051 28.6809 48.0141L28.8329 44.8581C28.8329 39.7391 30.5079 36.8871 35.9319 36.8871H54.0669C55.6589 36.8871 56.9519 35.6171 56.9959 34.0371H9.21689V45.2781L10.2879 45.4741C9.30789 46.9761 8.72889 48.7631 8.72889 50.7281L8.72989 50.7601L8.71289 50.8281V72.2001C13.7289 79.0961 20.6309 84.5231 28.6659 87.7301V66.6561C28.6659 59.0311 35.1779 56.6251 40.3329 55.9061L40.3189 55.8571C40.3189 55.8571 48.8529 54.4801 56.2229 56.7461C59.2659 57.6161 64.3189 57.7761 67.4649 55.4841C69.9809 53.3691 70.2459 50.4491 70.2459 50.4491L29.0729 50.5121Z" fill="white"/>
<path d="M12.8067 48.328C12.8687 48.245 12.9557 48.174 13.0647 48.146L13.1457 48.125C12.9947 46.999 13.0487 45.883 13.2847 44.818L12.1817 44.911L9.22266 34.068L9.23766 34.064L14.5057 43.976L15.5607 43.643C15.5637 44.659 15.7327 45.683 16.0757 46.681L12.8067 48.328ZM17.1327 46.148L29.2917 36.318C29.1757 37.404 29.2867 38.588 29.6317 39.853L17.1327 46.148Z" fill="white"/>
<path d="M30.0175 33.8648C29.2795 31.9238 29.2235 30.0808 29.8585 28.4358L55.3165 21.4888C55.6885 23.0268 54.7745 24.5928 53.2405 25.0108L35.7445 29.7838C32.9485 30.5468 31.0105 31.9608 30.0175 33.8648Z" fill="#EAEBEB"/>
<path d="M15.8691 47.1709C15.9111 47.0779 15.9811 46.9899 16.0801 46.9379L16.1541 46.9009C16.1271 46.8289 16.1011 46.7549 16.0761 46.6819L17.1321 46.1489L15.8691 47.1709Z" fill="white"/>
<path d="M30.0856 34.0372H29.9316C29.9596 33.9792 29.9886 33.9222 30.0186 33.8652C30.0396 33.9222 30.0616 33.9802 30.0856 34.0372Z" fill="#E0E1E2"/>
<path d="M29.293 36.3181C29.379 35.5001 29.594 34.7361 29.932 34.0371H30.086C30.243 34.4311 30.428 34.8271 30.64 35.2281L29.293 36.3181Z" fill="white"/>
<path d="M9.33381 34.0369H9.25781L9.38481 33.9689L51.4258 11.6299C52.1268 13.0469 51.5788 14.7759 50.1758 15.5219L34.1618 24.0319C31.9578 25.2029 30.5278 26.7109 29.8608 28.4369L9.39081 34.0209L9.33381 34.0369Z" fill="#E0E1E2"/>
<path d="M9.23847 34.0641L9.23047 34.0511L9.25647 34.0371H9.33247L9.23847 34.0641Z" fill="white"/>
<path d="M29.93 34.037H9.33203L9.38803 34.021L29.857 28.436C29.222 30.081 29.278 31.923 30.016 33.865C29.987 33.922 29.958 33.979 29.93 34.037Z" fill="#F2F3F3"/>
<path d="M16.0763 46.6821C15.7333 45.6841 15.5643 44.6601 15.5613 43.6441L14.5063 43.9771L9.23828 34.0651L9.33328 34.0381H29.9313C29.5933 34.7371 29.3783 35.5011 29.2923 36.3191L17.1333 46.1491L16.0763 46.6821Z" fill="white"/>
<path d="M39.681 68.2919C22.643 68.2919 7.797 58.9249 0.005 45.0589C0.003 45.1879 0 45.3139 0 45.4409C0 70.5609 20.364 90.9249 45.484 90.9249C70.604 90.9249 90.968 70.5609 90.968 45.4409C90.968 37.3589 88.856 29.7689 85.159 23.1909C84.954 48.1359 64.673 68.2919 39.681 68.2919Z" fill="#231F20"/>
<path d="M8.71289 72.2028C13.7309 79.0858 20.6349 84.5008 28.6659 87.7008V66.9468C21.0839 65.0598 14.2549 61.2668 8.71289 56.1108V72.2028Z" fill="#929497"/>
<path d="M68.2015 20.3891C68.2015 18.8521 66.9835 17.6061 65.4615 17.5411C64.3725 14.7791 62.7675 12.1961 60.6575 9.95911L60.5865 10.0271L62.3055 8.31711L56.3965 7.30811L57.2285 13.3631L59.1515 11.4521C61.0355 13.4611 62.4715 15.7771 63.4565 18.2541C62.8635 18.7771 62.4815 19.5351 62.4815 20.3891C62.4815 21.7791 63.4705 22.9331 64.7815 23.1941C65.4185 27.5851 64.7265 32.1731 62.5845 36.2981L62.5935 36.3041C62.5495 36.3641 62.5095 36.4281 62.4755 36.4981C62.2035 37.0591 62.4115 37.7211 62.9405 37.9771C63.4335 38.2171 64.0245 38.0171 64.3245 37.5381L64.3255 37.5401L64.3395 37.5131L64.3895 37.4311L64.4145 37.3681C66.8235 32.7841 67.5945 27.6791 66.8685 22.8021C67.6675 22.2931 68.2015 21.4061 68.2015 20.3891Z" fill="white"/>
</svg>
