<svg width="91" height="91" viewBox="0 0 91 91" fill="none" xmlns="http://www.w3.org/2000/svg">
<path d="M45.499 0C20.369 0 0 20.37 0 45.494C0 70.625 20.369 91 45.499 91C70.63 91 91 70.625 91 45.494C91 20.37 70.63 0 45.499 0Z" fill="#231F20"/>
<path d="M45.928 4.23389C23.299 4.23389 4.95703 22.5819 4.95703 45.2089C4.95703 67.8479 23.3 86.1859 45.928 86.1859C68.56 86.1859 86.909 67.8479 86.909 45.2089C86.909 22.5819 68.56 4.23389 45.928 4.23389Z" fill="#F7F8F8"/>
<path d="M61.5125 4.53003L61.5085 57.72C61.5085 57.962 61.4135 58.19 61.2425 58.363C61.0705 58.535 60.8435 58.628 60.5995 58.628H5.27148C15.0905 83.445 32.6545 86.742 44.3855 86.742C68.3445 86.742 87.7715 67.327 87.7715 43.361C87.7715 27.876 77.5805 12.744 61.5125 4.53003Z" fill="#231F20"/>
<path d="M61.5284 58.871C61.6904 58.708 61.7784 58.494 61.7784 58.264V5.75604C61.1964 5.39104 60.9874 5.23504 60.0674 4.71704C60.0674 4.71904 60.0674 5.14904 60.0674 5.15104H60.7744V57.405H5.23242C5.81842 58.042 6.26042 58.526 6.87742 59.122H60.9224C61.1504 59.121 61.3674 59.033 61.5284 58.871Z" fill="#231F20"/>
<path d="M14.4495 15.6881L26.8385 25.5371M31.0545 5.31909L43.1365 14.7671L31.0545 5.31909ZM22.6555 9.76209L51.9845 32.8931L22.6555 9.76209ZM10.3125 23.7601L27.4195 37.1711L10.3125 23.7601Z" stroke="#231F20" stroke-width="5.1714" stroke-linecap="round"/>
<path d="M20.2486 50.7201C20.9386 50.7201 21.3576 49.8051 21.3576 47.7041C21.3576 45.6481 20.9526 44.7041 20.2326 44.7041C19.5426 44.7041 19.0926 45.6031 19.0926 47.7041C19.0766 49.8201 19.5286 50.7201 20.2326 50.7201H20.2486ZM20.2176 52.7461C17.4266 52.7461 16.3926 50.2851 16.3926 47.7201C16.3926 45.0781 17.4876 42.6621 20.2336 42.6621C23.0846 42.6621 24.0596 45.1991 24.0596 47.6891C24.0596 50.5701 22.8446 52.7461 20.2336 52.7461H20.2176Z" fill="#231F20"/>
<path d="M28.8413 50.7201C29.5323 50.7201 29.9513 49.8051 29.9513 47.7041C29.9513 45.6481 29.5473 44.7041 28.8273 44.7041C28.1373 44.7041 27.6863 45.6031 27.6863 47.7041C27.6703 49.8201 28.1213 50.7201 28.8273 50.7201H28.8413ZM28.8123 52.7461C26.0203 52.7461 24.9863 50.2851 24.9863 47.7201C24.9863 45.0781 26.0813 42.6621 28.8273 42.6621C31.6783 42.6621 32.6533 45.1991 32.6533 47.6891C32.6533 50.5701 31.4363 52.7461 28.8273 52.7461H28.8123Z" fill="#231F20"/>
<path d="M34.7782 52.746C34.2672 52.746 33.9082 52.342 33.9082 51.815C33.9082 51.26 34.2832 50.871 34.7932 50.871C35.3342 50.871 35.6792 51.261 35.6792 51.815C35.6792 52.341 35.3342 52.746 34.7932 52.746H34.7782ZM34.7782 47.449C34.2672 47.449 33.9082 47.044 33.9082 46.519C33.9082 45.962 34.2832 45.573 34.7932 45.573C35.3342 45.573 35.6792 45.963 35.6792 46.519C35.6792 47.043 35.3342 47.449 34.7932 47.449H34.7782Z" fill="#231F20"/>
<path d="M40.5396 50.7201C41.2296 50.7201 41.6496 49.8051 41.6496 47.7041C41.6496 45.6481 41.2446 44.7041 40.5246 44.7041C39.8346 44.7041 39.3846 45.6031 39.3846 47.7041C39.3686 49.8201 39.8196 50.7201 40.5246 50.7201H40.5396ZM40.5096 52.7461C37.7186 52.7461 36.6836 50.2851 36.6836 47.7201C36.6836 45.0781 37.7786 42.6621 40.5246 42.6621C43.3756 42.6621 44.3506 45.1991 44.3506 47.6891C44.3506 50.5701 43.1346 52.7461 40.5246 52.7461H40.5096Z" fill="#231F20"/>
<path d="M49.1323 50.7201C49.8223 50.7201 50.2423 49.8051 50.2423 47.7041C50.2423 45.6481 49.8373 44.7041 49.1173 44.7041C48.4273 44.7041 47.9773 45.6031 47.9773 47.7041C47.9613 49.8201 48.4113 50.7201 49.1173 50.7201H49.1323ZM49.1023 52.7461C46.3113 52.7461 45.2773 50.2851 45.2773 47.7201C45.2773 45.0781 46.3723 42.6621 49.1183 42.6621C51.9703 42.6621 52.9433 45.1991 52.9433 47.6891C52.9433 50.5701 51.7293 52.7461 49.1183 52.7461H49.1023Z" fill="#231F20"/>
</svg>
