<svg width="91" height="91" viewBox="0 0 91 91" fill="none" xmlns="http://www.w3.org/2000/svg">
<path d="M77.293 71.625H74.149L74.015 71.49V65.939H21.062V58.318H73.987L73.991 51.99H55.594V47.57H73.996L74.015 32.267H84.529C85.93 36.406 86.725 40.823 86.725 45.43C86.725 55.375 83.182 64.503 77.293 71.625ZM14.504 31.841L23.657 27.684H26.623L17.321 31.841H14.504ZM17.14 71.363L14.37 71.418L14.262 43.553L7.969 41.592V37.463H14.478V32.368H17.14V71.363ZM34.625 4.998C34.805 5.071 39.363 10.156 39.531 10.212C44.531 11.915 44.573 17.527 47.19 22.371C48.732 25.228 51.329 27.142 51.442 30.014C48.228 33.366 45.019 28.684 43.256 26.131C43.137 25.936 43.033 25.758 42.981 25.649C42.889 25.463 42.664 25.384 42.479 25.479C42.294 25.571 42.214 25.794 42.308 25.981V25.976C42.472 26.309 42.864 26.92 43.117 27.311C43.074 32.491 42.766 38.977 45.013 43.395C45.596 44.556 49.71 50.911 46.077 51.46C46.042 51.463 45.985 51.438 45.942 51.434C42.937 46.45 38.419 36.139 38.411 36.125L38.286 35.973C38.031 35.811 37.751 34.827 37.76 34.225C37.76 33.473 38.079 33.162 38.075 33.162C38.123 32.959 38.004 32.756 37.801 32.707C37.603 32.658 37.4 32.783 37.351 32.98C37.347 32.994 37.015 33.353 37.01 34.224C37.018 34.865 37.233 36.037 37.764 36.507C38.174 37.439 41.81 45.655 44.639 50.676C43.656 49.898 42.493 48.738 41.964 48.12C40.298 46.182 36.93 42.132 35.981 39.286C35.716 38.491 34.527 37.382 34.241 36.676C33.847 35.707 33.881 34.12 33.688 33.513C33.251 32.167 33.56 31.695 33.353 30.468C33.028 28.468 33.045 24.782 32.043 22.28C31.897 21.914 28.072 10.664 26.77 8.567C29.093 6.426 31.948 5.355 34.625 4.998ZM51.626 42.758H54.395V53.41H51.626V42.758ZM60.912 38.074H63.88L54.577 42.231H51.76L60.912 38.074ZM82.81 28.026C83.325 29.125 83.789 30.248 84.207 31.394H75.394L82.81 28.026ZM45.566 0C43.172 0 40.839 0.241 38.546 0.6C38.175 0.654 37.8 0.702 37.433 0.766C36.558 0.925 35.7 1.118 34.845 1.327C34.346 1.446 33.852 1.572 33.36 1.708C32.571 1.93 31.792 2.161 31.022 2.425C30.486 2.603 29.962 2.804 29.435 3.003C28.711 3.278 27.986 3.551 27.279 3.862C26.7 4.118 26.142 4.407 25.576 4.682C24.753 5.087 23.937 5.496 23.142 5.95C22.222 6.471 21.314 7.013 20.435 7.596C20.034 7.861 19.655 8.153 19.263 8.434C18.71 8.827 18.144 9.202 17.609 9.618C17.621 9.626 17.635 9.635 17.649 9.643C14.979 11.726 12.529 14.077 10.386 16.7C10.359 16.691 10.337 16.679 10.309 16.671C3.869 24.509 0 34.539 0 45.477C0 70.57 20.341 90.912 45.432 90.912C48.602 90.912 51.689 90.568 54.673 89.949C54.719 89.941 54.765 89.928 54.811 89.92C56.187 89.63 57.542 89.289 58.866 88.877C58.96 88.85 59.054 88.826 59.148 88.797C60.276 88.44 61.373 88.026 62.461 87.584C62.971 87.379 63.473 87.168 63.973 86.946C64.531 86.695 65.081 86.424 65.629 86.15C66.733 85.603 67.81 85.015 68.862 84.383C68.946 84.335 69.028 84.285 69.109 84.236C82.216 76.266 91 61.893 91 45.431C91 20.338 70.661 0 45.566 0Z" fill="#231F20"/>
</svg>
