<svg width="91" height="92" viewBox="0 0 91 92" fill="none" xmlns="http://www.w3.org/2000/svg">
<path d="M91 45.501C91 20.374 70.625 0 45.499 0C20.374 0 0 20.374 0 45.501C0 45.597 0.013 45.689 0.013 45.79H0C0 70.937 20.374 91.291 45.499 91.291C70.625 91.291 91 70.916 91 45.79H90.984C90.984 45.688 91 45.597 91 45.501Z" fill="#231F20"/>
<path d="M57.6803 80.9022C56.9073 80.9022 56.2813 80.2752 56.2813 79.5022C56.2813 78.0632 55.5813 77.0292 54.6943 75.7222C53.5023 73.9602 52.0173 71.7702 52.0173 68.0172C52.0173 64.4282 53.4493 62.0812 54.7123 60.0102C55.7353 58.3322 56.6203 56.8832 56.6203 54.9762C56.6203 54.2032 57.2473 53.5762 58.0203 53.5762C58.7933 53.5762 59.4203 54.2032 59.4203 54.9762C59.4203 57.6692 58.2413 59.6012 57.1033 61.4682C55.9283 63.3952 54.8183 65.2142 54.8183 68.0172C54.8183 70.9112 55.8843 72.4842 57.0133 74.1522C58.0303 75.6522 59.0813 77.2042 59.0813 79.5032C59.0803 80.2752 58.4533 80.9022 57.6803 80.9022ZM45.4853 80.9022C44.7123 80.9022 44.0853 80.2752 44.0853 79.5022C44.0853 78.0632 43.3853 77.0302 42.4983 75.7222C41.3053 73.9602 39.8193 71.7702 39.8193 68.0172C39.8193 64.4282 41.2513 62.0812 42.5153 60.0102C43.5393 58.3322 44.4233 56.8832 44.4233 54.9762C44.4233 54.2032 45.0503 53.5762 45.8233 53.5762C46.5963 53.5762 47.2233 54.2032 47.2233 54.9762C47.2233 57.6692 46.0443 59.6012 44.9053 61.4682C43.7303 63.3952 42.6193 65.2142 42.6193 68.0172C42.6193 70.9112 43.6863 72.4842 44.8153 74.1512C45.8333 75.6522 46.8843 77.2042 46.8843 79.5032C46.8853 80.2752 46.2583 80.9022 45.4853 80.9022ZM32.7753 80.9022C32.0023 80.9022 31.3753 80.2752 31.3753 79.5022C31.3753 78.0632 30.6753 77.0292 29.7883 75.7222C28.5963 73.9602 27.1113 71.7702 27.1113 68.0172C27.1113 64.4282 28.5433 62.0812 29.8063 60.0102C30.8293 58.3322 31.7133 56.8832 31.7133 54.9762C31.7133 54.2032 32.3403 53.5762 33.1133 53.5762C33.8863 53.5762 34.5123 54.2032 34.5123 54.9762C34.5123 57.6692 33.3343 59.6012 32.1953 61.4682C31.0203 63.3952 29.9103 65.2142 29.9103 68.0172C29.9103 70.9112 30.9763 72.4842 32.1053 74.1522C33.1223 75.6522 34.1733 77.2042 34.1733 79.5032C34.1753 80.2752 33.5483 80.9022 32.7753 80.9022Z" fill="white"/>
<path d="M41.1099 46.4482L50.8309 36.7232M37.4529 35.0072L47.1759 25.2832L37.4529 35.0072ZM35.0469 41.0212L44.7699 31.2982L35.0469 41.0212ZM43.5139 40.4352L53.2369 30.7122L43.5139 40.4352Z" stroke="white" stroke-width="2.3127"/>
<path d="M34.6885 56.3588H38.1235L33.3185 46.7378L28.5215 56.3588H31.0005H34.6885Z" fill="white"/>
<path d="M47.1153 56.3588H50.5483L45.7443 46.7378L40.9473 56.3588H43.4233H47.1153Z" fill="white"/>
<path d="M59.2554 56.3588H62.8704L58.0724 46.7378L53.2734 56.3588H55.7524H59.2554Z" fill="white"/>
<path d="M71.8115 65.043H19.6855V20.623H71.8105V65.043H71.8115ZM22.4855 62.243H69.0106V23.423H22.4855V62.243Z" fill="white"/>
</svg>
