<svg width="91" height="91" viewBox="0 0 91 91" fill="none" xmlns="http://www.w3.org/2000/svg">
<path d="M45.4595 0.675049C70.1155 0.675049 90.1035 20.665 90.1035 45.322C90.1035 69.981 70.1155 89.969 45.4595 89.969C20.8005 89.969 0.8125 69.981 0.8125 45.322C0.8135 20.665 20.8015 0.675049 45.4595 0.675049Z" fill="white"/>
<path d="M49.61 24.1C49.4 23.886 49.06 23.886 48.849 24.1C48.644 24.308 48.644 24.647 48.849 24.856L57.56 33.567C57.666 33.671 57.804 33.724 57.943 33.724C58.081 33.724 58.216 33.671 58.321 33.567C58.527 33.356 58.527 33.019 58.321 32.806L49.61 24.1ZM41.028 24.1L32.648 32.48C32.44 32.689 32.44 33.028 32.648 33.237C32.752 33.341 32.89 33.391 33.026 33.391C33.163 33.391 33.299 33.341 33.404 33.237L41.789 24.856C41.996 24.647 41.996 24.308 41.789 24.1C41.577 23.888 41.237 23.888 41.028 24.1ZM45.239 25.772C44.942 25.772 44.708 26.017 44.708 26.311L44.757 33.489C44.757 33.784 44.997 34.018 45.289 34.018H45.295C45.592 34.018 45.83 33.775 45.826 33.485L45.779 26.303C45.779 26.009 45.535 25.769 45.239 25.772ZM45.498 86.716C22.77 86.716 4.281 68.226 4.281 45.498C4.281 34.27 8.804 24.091 16.109 16.648L32.53 16.677V21.2H40.83V18.045H49.516V21.2H57.27V16.678L74.89 16.65C82.193 24.09 86.72 34.273 86.72 45.498C86.72 68.226 68.227 86.716 45.498 86.716ZM45.498 0C20.373 0 0 20.368 0 45.498C0 70.622 20.373 90.995 45.498 90.995C70.627 90.995 91 70.622 91 45.498C91 20.368 70.627 0 45.498 0Z" fill="#231F20"/>
<path d="M49.1616 57.149H47.9386V54.034H49.1616V57.149ZM49.1616 63.351V73.89H41.4456V63.335V61.281V58.223H49.1616V61.276V63.351ZM47.2956 76.713L43.3136 78.308V75.353H47.2956V76.713ZM47.2956 80.293H43.3136V79.462L47.2956 77.866V80.293ZM41.4456 54.034H42.5806V57.149H41.4456V54.034ZM43.6476 54.034H44.7206V57.149H43.6476V54.034ZM45.7946 54.034H46.8686V57.149H45.7946V54.034ZM67.1106 64.222C63.9266 62.695 57.7396 61.656 50.2316 61.329V52.966H40.3796V61.321C35.9556 61.521 31.9886 61.977 28.8536 62.626C26.7116 63.067 24.9596 63.591 23.6606 64.222C22.4166 64.857 21.3416 65.588 21.2656 67.009C21.4286 68.827 22.9726 69.547 24.8896 70.316C26.8856 71.048 29.6196 71.634 32.8946 72.064C33.4616 72.138 33.9786 71.742 34.0536 71.173C34.1286 70.609 33.7306 70.086 33.1636 70.011C29.9866 69.595 27.3596 69.017 25.6026 68.368C24.7276 68.05 24.0696 67.705 23.7086 67.417C23.3236 67.116 23.3596 67.009 23.3366 67.009C23.3366 67.009 23.3196 66.976 23.5096 66.78C24.7106 65.37 31.6476 63.791 40.3796 63.382V74.959H41.9496V80.294H40.8516V83.195H49.6356V80.294H48.6656V74.959H50.2316V63.39C54.5976 63.585 58.4946 64.035 61.5006 64.657C63.5366 65.072 65.1676 65.577 66.2036 66.087C66.7216 66.338 67.0846 66.591 67.2656 66.78C67.4576 66.976 67.4196 67.009 67.4366 67.009C67.4366 67.018 67.4406 67.135 67.0196 67.452C65.9546 68.288 62.9616 69.212 58.9406 69.829L59.8326 68.347C60.1256 67.857 59.9686 67.218 59.4776 66.926C58.9866 66.629 58.3556 66.788 58.0586 67.278L56.0536 70.605C55.8746 70.902 55.8856 71.257 56.0306 71.566C56.0666 71.846 56.2076 72.11 56.4576 72.285L59.5596 74.433C59.7396 74.558 59.9466 74.62 60.1506 74.62C60.4766 74.62 60.7986 74.465 61.0016 74.177C61.3276 73.703 61.2086 73.059 60.7406 72.737L59.4516 71.841C61.9056 71.456 64.0046 70.976 65.6356 70.405C67.6936 69.616 69.3356 68.9 69.5116 67.01C69.4346 65.588 68.3556 64.856 67.1106 64.222ZM43.4846 43.711V51.908H46.9626V43.555L50.9566 47.545L53.4266 45.076L45.2956 36.938L37.1866 45.076L39.6656 47.545L43.4846 43.711Z" fill="#231F20"/>
</svg>
