<svg width="91" height="91" viewBox="0 0 91 91" fill="none" xmlns="http://www.w3.org/2000/svg">
<path d="M0 45.499C0 20.37 20.371 0 45.499 0C70.628 0 91 20.371 91 45.499C91 70.627 70.628 90.999 45.499 90.999C20.371 90.999 0 70.627 0 45.499Z" fill="#231F20"/>
<path d="M84.9764 49.49C59.8474 49.49 39.4774 29.119 39.4774 3.99095C39.4774 2.77395 39.5254 1.56995 39.6194 0.376953C32.6514 1.27695 26.1784 3.75495 20.5664 7.43695C24.0184 40.485 46.4184 67.89 76.7104 78.605C84.6854 71.083 89.9444 60.709 90.8574 49.114C88.9304 49.361 86.9684 49.49 84.9764 49.49Z" fill="#808184"/>
<path d="M0.365 39.7041C0.125 41.6021 0 43.5361 0 45.4991C0 70.6271 20.371 90.9991 45.499 90.9991C51.551 90.9991 57.326 89.8151 62.609 87.6711C34.911 82.7841 11.848 64.4761 0.365 39.7041Z" fill="#808184"/>
<path d="M47.0092 22.96V19.827H49.9573V22.96H47.0092ZM47.0092 27.567V24.434H49.9573V27.567H47.0092ZM47.0092 32.173V29.042H49.9573V32.173H47.0092ZM47.0092 36.782V33.647H49.9573V36.782H47.0092ZM47.0092 41.388V38.255H49.9573V41.388H47.0092ZM47.0092 45.993V42.861H49.9573V45.993H47.0092ZM47.0092 47.467H49.9573V50.601H47.0092V47.467ZM44.9833 77.963C38.4803 77.963 33.1903 72.674 33.1903 66.168C33.1903 61.937 35.4812 58.008 39.1682 55.912L40.0082 55.434V15.13C40.0082 14.825 40.2553 14.575 40.5613 14.575H49.4063C49.7113 14.575 49.9583 14.825 49.9583 15.13V18.355L42.5873 18.332V57.406L42.1913 57.521C38.3013 58.669 35.5852 62.3 35.5852 66.355C35.5852 71.435 39.7183 75.568 44.7983 75.568C49.8773 75.568 54.0103 71.435 54.0103 66.355C54.0103 62.3 51.2942 58.669 47.4052 57.521L47.0092 57.406V52.074H49.9573V55.435L50.7973 55.913C54.4833 58.009 56.7743 61.937 56.7743 66.169C56.7753 72.674 51.4843 77.963 44.9833 77.963ZM51.6163 54.471V15.13C51.6163 13.907 50.6262 12.918 49.4052 12.918H40.5603C39.3383 12.918 38.3482 13.907 38.3482 15.13V54.47C34.2782 56.783 31.5312 61.154 31.5312 66.168C31.5312 73.599 37.5533 79.62 44.9823 79.62C52.4113 79.62 58.4322 73.599 58.4322 66.168C58.4322 61.153 55.6863 56.784 51.6163 54.471Z" fill="#BBBDBF"/>
<path d="M40.0086 53.134V15.13C40.0086 14.825 40.2556 14.575 40.5616 14.575H40.7286C40.5986 14.033 40.4716 13.489 40.3616 12.938C39.2356 13.04 38.3496 13.975 38.3496 15.129V51.105C38.8916 51.792 39.4456 52.466 40.0086 53.134Z" fill="white"/>
<path d="M49.9599 36.7819H47.0109V33.6469H49.9589V36.7819H49.9599ZM49.9599 41.3879H47.0109V38.2549H49.9589V41.3879H49.9599ZM49.9599 45.9929H47.0109V42.8609H49.9589V45.9929H49.9599ZM49.9599 50.6009H47.0109V47.4669H49.9589V50.6009H49.9599ZM51.6179 54.4709V34.9209C50.7999 34.0369 50.0179 33.1199 49.2709 32.1729H47.0109V29.0619C45.2499 26.3989 43.7659 23.5389 42.5879 20.5249V56.0719C46.0719 59.8479 49.8979 63.3019 54.0089 66.3979C54.0089 66.3839 54.0109 66.3699 54.0109 66.3549C54.0109 62.2999 51.2949 58.6689 47.4059 57.5209L47.0099 57.4059V52.0739H49.9579V55.4349L50.7979 55.9129C54.4839 58.0089 56.7749 61.9369 56.7749 66.1689C56.7749 66.8849 56.7009 67.5789 56.5799 68.2579C57.0699 68.6019 57.5589 68.9469 58.0579 69.2789C58.2949 68.2789 58.4329 67.2419 58.4329 66.1689C58.4339 61.1529 55.6879 56.7839 51.6179 54.4709Z" fill="white"/>
<path d="M36.3373 65.6899C36.3333 65.7889 36.3223 65.8839 36.3223 65.9849C36.3223 70.7169 40.1583 74.5529 44.8913 74.5529C46.4273 74.5529 47.8663 74.1429 49.1133 73.4359C43.6233 73.2669 38.8693 70.1889 36.3373 65.6899Z" fill="#231F20"/>
</svg>
