<svg width="91" height="91" viewBox="0 0 91 91" fill="none" xmlns="http://www.w3.org/2000/svg">
<path d="M45.5 0C20.369 0 0 20.373 0 45.5C0 70.631 20.369 91 45.5 91C70.63 91 91 70.631 91 45.5C91 20.373 70.63 0 45.5 0Z" fill="#231F20"/>
<path d="M62.3653 46.6091L63.8643 48.1011L66.1753 45.7811V52.8191H68.2783V45.6831L70.6963 48.1011L72.1953 46.6091L67.2703 41.6831L62.3653 46.6091ZM51.7063 39.7751V41.3941H82.5693V39.7751H51.7063ZM40.4603 69.7561C39.4593 68.6381 38.6153 67.2211 38.2883 65.5581C37.8683 63.4151 38.5273 58.9811 39.2433 55.2641C40.6473 59.6521 40.6813 65.7651 40.7523 66.8931C40.8093 67.6481 40.6473 68.7891 40.4603 69.7561ZM53.9193 72.5841C52.4413 72.3271 47.9613 71.4321 46.1053 66.5691C44.5983 62.6321 46.3433 39.9001 46.3433 39.9001C46.3433 39.9001 45.9773 33.0411 44.5333 30.4671C43.1403 28.7651 39.8353 29.1161 36.3243 28.2651C33.2403 27.5141 28.2473 27.3051 24.8283 27.6351C23.9093 27.6241 23.0683 27.6261 22.4443 27.6561C17.3703 27.8961 20.8363 18.5641 21.7103 11.8931C14.1023 17.2931 8.4163 25.1981 5.8373 34.4051C6.9353 37.3931 8.7303 39.1611 8.7303 39.1611C8.7303 39.1611 27.0713 39.1591 28.7023 39.1611C31.5673 39.1631 33.6363 38.6891 33.6363 38.6891C33.0933 39.9181 31.7723 46.9361 33.0473 53.8291C33.9123 58.5111 33.1053 63.1511 32.9423 64.3311C32.7843 65.5131 31.6003 66.9131 31.1613 67.7021C30.7223 68.4881 30.9353 70.1961 31.8763 70.9381C31.8763 70.9381 32.3143 71.6531 33.8743 72.1001C36.7893 72.9361 37.8673 75.0691 39.4133 75.1851C41.9093 75.3731 43.5053 75.2601 44.5423 75.0111C46.9353 75.0571 48.9823 74.9691 50.2603 75.0801C55.8073 75.5661 55.1633 74.2671 55.0473 73.6761C54.9523 73.1351 54.7703 72.7321 53.9193 72.5841ZM4.2793 45.5001C4.2793 56.7811 8.8423 67.0121 16.2113 74.4631H20.4113V66.0411H23.9003C27.2193 66.0411 29.9103 63.3501 29.9103 60.0331V42.0181H4.4563C4.3593 43.1691 4.2793 44.3251 4.2793 45.5001Z" fill="white"/>
</svg>
