<svg width="91" height="92" viewBox="0 0 91 92" fill="none" xmlns="http://www.w3.org/2000/svg">
<path d="M45.502 0H45.497C20.368 0 0 20.373 0 45.498C0 70.632 20.368 91.001 45.497 91.001H45.502C70.632 91.001 91 70.632 91 45.498C91 20.373 70.632 0 45.502 0Z" fill="#231F20"/>
<path d="M61.0208 36.818H49.7988V24.411H61.0218V36.818H61.0208ZM61.0208 51.267H49.7988V37.864H61.0218V51.267H61.0208ZM61.0208 65.278H49.7988V52.308H61.0218V65.278H61.0208ZM49.7988 23.368V19.31L45.7358 20.16C45.6198 20.183 45.5438 20.299 45.5708 20.418C45.5938 20.533 45.7058 20.604 45.8238 20.583L49.3678 19.841V69.6L45.8238 68.841C45.7058 68.814 45.5938 68.89 45.5708 69.008C45.5438 69.123 45.6188 69.234 45.7358 69.261L49.7988 70.13V66.325L62.0628 66.32V23.368H49.7988ZM38.2788 82.677C38.1828 82.827 37.9898 82.882 37.8528 82.804C37.8398 82.802 37.2798 82.486 36.8038 82.012C36.4598 81.659 36.1138 81.21 36.1768 80.624C35.9488 79.955 34.1478 74.63 33.0288 70.319C33.0628 69.72 33.1248 69.051 33.2218 68.467C34.2808 73.139 36.7788 80.431 36.7838 80.442L36.7918 80.603C36.7248 80.848 36.9298 81.237 37.2648 81.556C37.6738 81.965 38.1968 82.264 38.1968 82.264C38.3328 82.349 38.3758 82.528 38.2788 82.677ZM32.5568 61.334L34.4228 57.664L34.8298 57.87L32.9638 61.547L32.5568 61.334ZM30.2998 62.61L29.8878 62.408L34.4688 53.099L34.8808 53.301L30.2998 62.61ZM32.2888 54.648L30.4208 58.324L30.0158 58.115L31.8748 54.44L32.2888 54.648ZM30.8428 37.536L30.4338 37.324L32.2988 33.647L32.7118 33.861L30.8428 37.536ZM27.7668 38.395L32.3478 29.086L32.7568 29.288L28.1778 38.6L27.7668 38.395ZM29.7538 30.428L30.1658 30.636L28.3018 34.311L27.8898 34.102L29.7538 30.428ZM40.1218 91.101C42.6608 91.101 51.6128 90.912 51.7268 90.811C54.7008 88.2 50.6878 86.84 49.6388 82.602C49.0158 80.104 49.5558 77.478 48.0588 75.838C44.2668 75.968 44.8698 80.478 45.1868 82.948C45.2208 83.124 45.2538 83.286 45.2838 83.375C45.3288 83.533 45.2378 83.716 45.0708 83.776C44.9078 83.838 44.7368 83.767 44.6948 83.608V83.61C44.6148 83.327 44.5198 82.756 44.4608 82.385C41.6058 79.584 37.8768 76.233 36.8328 72.449C36.5768 71.549 35.7498 66.497 33.6928 67.087C36.1928 65.214 37.1518 71.164 37.4298 72.15C37.4548 72.242 37.5008 72.328 37.5308 72.42V13.752L24.8398 24.786V67.233L32.3978 71.724V71.727C32.4398 73.8 32.8288 78.433 33.5138 80.34C33.7358 80.958 33.8568 81.57 34.0698 82.128C34.3588 82.897 34.4888 83.254 34.7008 83.703C35.1738 84.705 35.4158 85.742 35.9588 86.54C36.8538 87.827 37.9348 91.313 40.0498 91.245L40.1218 91.101ZM40.4738 70.848C40.2738 70.72 40.0098 70.781 39.8838 70.986C39.7588 71.187 39.8168 71.448 40.0218 71.578L43.9048 74.021V15.719L40.2438 17.888C40.0378 18.007 39.9718 18.271 40.0938 18.48C40.2128 18.682 40.4738 18.75 40.6778 18.63V18.626L43.0478 17.224V72.468L40.4738 70.848ZM39.2278 9.81603C44.1018 9.08803 50.6268 8.95003 57.4058 11.167L54.9388 12.74L56.0458 14.464L61.0098 11.3L58.5518 6.10303L56.7038 6.97803H56.6988L57.8828 9.48203C43.4288 4.82003 30.3788 10.294 30.2948 10.318L30.9678 11.929C30.9768 11.928 34.1908 10.577 39.2278 9.81603Z" fill="white"/>
</svg>
