<svg width="91" height="91" viewBox="0 0 91 91" fill="none" xmlns="http://www.w3.org/2000/svg">
<path d="M91.0003 45.483C91.0003 70.603 70.6363 90.968 45.5163 90.968C20.3962 90.968 0.03125 70.604 0.03125 45.483C0.03125 20.362 20.3953 0 45.5153 0C70.6353 0 91.0003 20.363 91.0003 45.483Z" fill="#929497"/>
<path d="M39.679 68.2929C22.643 68.2929 7.797 58.9239 0.005 45.0589C0.003 45.1879 0 45.3139 0 45.4409C0 70.5599 20.364 90.9249 45.484 90.9249C70.604 90.9249 90.967 70.5599 90.967 45.4409C90.967 37.3589 88.856 29.7709 85.158 23.1909C84.953 48.1359 64.673 68.2929 39.679 68.2929Z" fill="#231F20"/>
<path d="M63.3731 47.9429C63.3731 48.7339 63.2301 49.4639 62.9791 50.1169C62.7581 50.7369 62.5311 51.0359 62.5311 51.0359L87.8011 28.7359C83.5261 17.9479 75.2481 9.18789 64.7941 4.28589L38.3271 27.8669C39.4971 27.1499 40.9981 26.8899 42.6321 27.2379L56.6001 30.2069C58.2161 30.5509 59.6981 31.4319 60.8621 32.6239C61.3961 33.1579 61.8101 33.7189 62.1421 34.2699C62.1741 34.3249 62.2101 34.3769 62.2411 34.4319C62.2881 34.5139 62.3301 34.5959 62.3731 34.6779C62.9181 35.6829 63.2641 36.7809 63.3481 37.8969C63.3761 38.2219 63.3731 38.4189 63.3731 38.4189V47.9429ZM61.5951 39.5359C61.5761 39.3009 61.5491 39.0759 61.5141 38.8549C61.4241 38.1219 61.2211 37.4029 60.9251 36.7109C60.8911 36.6299 60.8561 36.5479 60.8201 36.4689C60.7921 36.4089 60.7661 36.3489 60.7371 36.2889C60.0161 34.7879 58.9711 33.7319 58.0341 33.0239C58.0331 33.0239 58.0321 33.0219 58.0301 33.0219C56.8641 32.1419 55.8661 31.7959 55.8661 31.7959L55.8351 31.8249C55.4981 31.7009 55.1561 31.5939 54.8051 31.5189L40.8361 28.5489C39.0821 28.1769 37.4891 28.5109 36.2851 29.3489L36.2861 29.3449L36.2751 29.3589C35.9061 29.6149 35.5751 29.9179 35.2881 30.2659L25.2441 39.2449C26.4171 38.5199 27.9241 38.2539 29.5691 38.6029L43.5371 41.5709C45.1481 41.9149 46.6251 42.7939 47.7881 43.9779C48.3311 44.5219 48.7521 45.0889 49.0861 45.6489C49.1151 45.6959 49.1451 45.7429 49.1741 45.7919C49.2261 45.8819 49.2711 45.9679 49.3161 46.0579C49.8581 47.0579 50.2001 48.1499 50.2821 49.2599C50.3121 49.5869 50.3091 49.7839 50.3091 49.7839V59.3079C50.3091 60.0969 50.1671 60.8209 49.9191 61.4719C49.6981 62.0999 49.4661 62.4029 49.4661 62.4029L59.8311 53.4369C60.2071 53.0979 60.5001 52.7249 60.7321 52.3479C60.7611 52.3019 60.7861 52.2539 60.8121 52.2089C60.8701 52.1069 60.9251 52.0059 60.9751 51.9039C61.0091 51.8379 61.0421 51.7709 61.0741 51.7019C61.1361 51.5599 61.1911 51.4199 61.2401 51.2829C61.2591 51.2279 61.2761 51.1719 61.2951 51.1169C61.6371 50.0529 61.5941 49.1869 61.5941 49.1869V39.5359H61.5951Z" fill="white"/>
<path d="M30.7297 18.4429C30.4537 18.4429 30.2297 18.6659 30.2297 18.9409V23.6009C30.2297 23.8779 30.4537 24.1009 30.7297 24.1009C31.0047 24.1009 31.2277 23.8779 31.2277 23.6009V18.9409C31.2277 18.6659 31.0047 18.4429 30.7297 18.4429ZM32.7557 18.4429C32.4787 18.4429 32.2557 18.6659 32.2557 18.9409V23.6009C32.2557 23.8779 32.4777 24.1009 32.7557 24.1009C33.0297 24.1009 33.2537 23.8779 33.2537 23.6009V18.9409C33.2537 18.6659 33.0307 18.4429 32.7557 18.4429ZM36.8087 18.4429C36.5317 18.4429 36.3077 18.6659 36.3077 18.9409V23.6009C36.3077 23.8779 36.5317 24.1009 36.8087 24.1009C37.0837 24.1009 37.3077 23.8779 37.3077 23.6009V18.9409C37.3077 18.6659 37.0837 18.4429 36.8087 18.4429ZM34.7817 18.4429C34.5067 18.4429 34.2837 18.6659 34.2837 18.9409V23.6009C34.2837 23.8779 34.5067 24.1009 34.7817 24.1009C35.0577 24.1009 35.2817 23.8779 35.2817 23.6009V18.9409C35.2817 18.6659 35.0567 18.4429 34.7817 18.4429ZM38.8347 18.4429C38.5587 18.4429 38.3357 18.6659 38.3357 18.9409V23.6009C38.3357 23.8779 38.5587 24.1009 38.8347 24.1009C39.1107 24.1009 39.3347 23.8779 39.3347 23.6009V18.9409C39.3347 18.6659 39.1107 18.4429 38.8347 18.4429ZM22.6227 18.4429C22.3477 18.4429 22.1227 18.6659 22.1227 18.9409V23.6009C22.1227 23.8779 22.3477 24.1009 22.6227 24.1009C22.8987 24.1009 23.1227 23.8779 23.1227 23.6009V18.9409C23.1237 18.6659 22.8987 18.4429 22.6227 18.4429ZM24.6487 18.4429C24.3737 18.4429 24.1497 18.6659 24.1497 18.9409V23.6009C24.1497 23.8779 24.3737 24.1009 24.6487 24.1009C24.9257 24.1009 25.1477 23.8779 25.1477 23.6009V18.9409C25.1477 18.6659 24.9257 18.4429 24.6487 18.4429ZM28.7017 18.4429C28.4267 18.4429 28.2027 18.6659 28.2027 18.9409V23.6009C28.2027 23.8779 28.4267 24.1009 28.7017 24.1009C28.9777 24.1009 29.2017 23.8779 29.2017 23.6009V18.9409C29.2017 18.6659 28.9787 18.4429 28.7017 18.4429ZM26.6757 18.4429C26.3997 18.4429 26.1777 18.6659 26.1777 18.9409V23.6009C26.1777 23.8779 26.3997 24.1009 26.6757 24.1009C26.9517 24.1009 27.1757 23.8779 27.1757 23.6009V18.9409C27.1757 18.6659 26.9507 18.4429 26.6757 18.4429ZM38.2827 16.8429H23.1347C22.2147 16.8429 21.4697 16.0979 21.4697 15.1779C21.4697 14.2579 22.2147 13.5129 23.1347 13.5129H38.2827C39.2027 13.5129 39.9477 14.2579 39.9477 15.1779C39.9477 16.0979 39.2017 16.8429 38.2827 16.8429ZM38.2827 12.8479H23.1347C21.8487 12.8479 20.8047 13.8939 20.8047 15.1779C20.8047 16.4629 21.8487 17.5079 23.1347 17.5079H38.2827C39.5677 17.5079 40.6137 16.4629 40.6137 15.1779C40.6127 13.8939 39.5667 12.8479 38.2827 12.8479Z" fill="white"/>
<path d="M57.6258 69.4101C57.4298 69.2151 57.1138 69.215 56.9198 69.408L53.6228 72.705C53.4278 72.9001 53.4278 73.2171 53.6228 73.4121C53.8188 73.6061 54.1348 73.6061 54.3308 73.4121L57.6268 70.116C57.8208 69.92 57.8208 69.6041 57.6258 69.4101ZM59.0588 70.8431C58.8638 70.6481 58.5468 70.6481 58.3518 70.8431L55.0568 74.139C54.8618 74.333 54.8618 74.6491 55.0568 74.8441C55.2508 75.0391 55.5668 75.0391 55.7628 74.8441L59.0588 71.5491C59.2548 71.3541 59.2548 71.0381 59.0588 70.8431ZM60.4918 72.275C60.2958 72.081 59.9798 72.081 59.7848 72.275L56.4898 75.57C56.2938 75.765 56.2948 76.082 56.4898 76.277C56.6848 76.472 56.9998 76.472 57.1958 76.277L60.4918 72.9801C60.6868 72.7851 60.6868 72.471 60.4918 72.275ZM68.4708 78.264L59.1178 68.639C58.4688 67.989 58.4688 66.9381 59.1188 66.2851C59.7688 65.6361 60.8228 65.6351 61.4728 66.2851L70.8248 75.9101C71.4748 76.5601 71.4738 77.614 70.8248 78.263C70.1748 78.914 69.1208 78.914 68.4708 78.264ZM71.2948 75.4391L61.9428 65.8151C61.0348 64.9061 59.5548 64.9061 58.6478 65.8151C57.7388 66.7221 57.7388 68.202 58.6478 69.111L68.0008 78.735C68.9088 79.642 70.3888 79.642 71.2958 78.735C72.2038 77.825 72.2038 76.3481 71.2948 75.4391Z" fill="white"/>
<path d="M87.795 28.7419C87.038 26.8259 86.159 24.9709 85.158 23.1909C85.134 26.1619 84.816 29.0629 84.248 31.8719L87.795 28.7419Z" fill="#929497"/>
<path d="M22.7949 53.463C22.7949 57.203 25.8279 60.88 29.5679 61.676L43.5359 64.645C47.2759 65.44 50.3079 63.052 50.3079 59.312V49.788C50.3079 46.049 47.2759 42.372 43.5359 41.575L29.5679 38.607C25.8279 37.813 22.7949 40.2 22.7949 43.94V53.463Z" fill="#231F20"/>
<path d="M59.7697 43.446C59.0717 42.127 57.9567 38.832 54.3067 37.241L50.5938 40.314C50.5938 40.314 56.0988 43.258 56.1908 46.568L54.7797 47.798L59.1727 50.045L60.7737 42.569L59.7697 43.446Z" fill="#929497"/>
<path d="M32.0545 30.7331L27.7595 34.4841C27.7595 34.4841 24.4705 31.4881 20.1345 32.5981L18.4165 34.0861L15.8965 31.6661L25.6865 27.7991L24.5335 28.8681C24.5325 28.8691 30.8815 28.4081 32.0545 30.7331Z" fill="white"/>
</svg>
