<svg width="91" height="92" viewBox="0 0 91 92" fill="none" xmlns="http://www.w3.org/2000/svg">
<path d="M46.106 1.4458C70.762 1.4458 90.751 21.4338 90.751 46.0918C90.751 70.7538 70.762 90.7438 46.106 90.7438C21.448 90.7438 1.45898 70.7538 1.45898 46.0918C1.45898 21.4348 21.448 1.4458 46.106 1.4458Z" fill="white"/>
<path d="M2.141 45.5C2.141 21.59 21.591 2.141 45.5 2.141C69.406 2.141 88.86 21.59 88.86 45.5C88.86 45.596 88.843 47.823 88.542 50.332L75.266 49.261C75.266 49.165 75.387 45.596 75.387 45.5C75.383 28.992 62.003 15.608 45.5 15.608C28.993 15.608 15.609 28.992 15.609 45.5C15.609 45.596 15.493 46.915 15.853 49.268L2.446 50.265C2.133 48.024 2.141 45.596 2.141 45.5ZM91 45.5C91 20.373 70.627 0 45.5 0C20.374 0 0 20.373 0 45.5C0 45.596 0.013 45.688 0.013 45.788H0C0 70.934 20.374 91.288 45.5 91.288C70.627 91.288 91 70.914 91 45.788H90.983C90.983 45.688 91 45.596 91 45.5Z" fill="#231F20"/>
<path d="M27.6445 30.845L44.7615 40.905L64.7055 32.583L45.9075 22.083L27.6445 30.845Z" fill="white"/>
<path d="M43.8661 42.318L26.7051 32.228V62.049L43.8661 72.139V42.318Z" fill="white"/>
<path d="M45.5352 42.3938V72.3438L65.7802 63.8918V33.9458L45.5352 42.3938Z" fill="white"/>
<path d="M54.6474 50.7249L62.7614 42.6109C62.9714 42.4069 62.9714 42.0679 62.7614 41.8589C62.5524 41.6499 62.2164 41.6499 62.0084 41.8589L53.1514 50.7159H53.1264L52.2614 51.6069L51.3504 52.5229C51.2454 52.6269 51.1934 52.7649 51.1934 52.8989C51.1934 53.0369 51.2454 53.1699 51.3504 53.2749C51.5614 53.4879 51.8984 53.4879 52.1044 53.2749L53.7784 51.5989L54.6474 50.7249ZM62.5064 48.9059L64.3534 47.0629C64.5624 46.8489 64.5624 46.5189 64.3534 46.3049C64.1404 46.0979 63.8054 46.0979 63.5964 46.3049L61.0744 48.8259L60.0734 49.8289L57.2204 52.6799C57.1184 52.7849 57.0664 52.9219 57.0664 53.0569C57.0664 53.1939 57.1184 53.3279 57.2204 53.4329C57.4314 53.6459 57.7694 53.6459 57.9774 53.4329L61.7204 49.6959L62.5064 48.9059Z" fill="#231F20"/>
<path d="M36.155 60.798C36.051 60.903 35.998 61.041 35.998 61.175C35.998 61.313 36.051 61.446 36.155 61.551C36.369 61.765 36.703 61.765 36.912 61.551L42.024 56.443C42.232 56.234 42.232 55.896 42.024 55.687C41.816 55.478 41.481 55.478 41.272 55.687L36.155 60.798Z" fill="#231F20"/>
<path d="M34.763 58.1742L39.83 53.0402C40.043 52.8312 40.043 52.4972 39.83 52.2882C39.621 52.0752 39.287 52.0752 39.077 52.2882L33.267 58.1612H33.242L32.377 59.0562L30.529 60.9662C30.425 61.0702 30.375 61.2042 30.375 61.3432C30.375 61.4762 30.425 61.6142 30.529 61.7182C30.742 61.9272 31.077 61.9272 31.286 61.7182L33.895 59.0432L34.763 58.1742Z" fill="#231F20"/>
<path d="M54.6937 61.3842L62.9707 53.0402C63.1837 52.8312 63.1837 52.4972 62.9707 52.2882C62.7617 52.0752 62.4277 52.0752 62.2187 52.2882L53.1977 61.3722H53.1727L52.3077 62.2672L50.4597 64.1762C50.3557 64.2802 50.3047 64.4142 50.3047 64.5532C50.3047 64.6872 50.3547 64.8242 50.4597 64.9282C50.6737 65.1382 51.0077 65.1382 51.2167 64.9282L53.8247 62.2532L54.6937 61.3842Z" fill="#231F20"/>
<path d="M27.6445 30.845L44.7615 40.905L64.7055 32.583L45.9075 22.083L27.6445 30.845Z" fill="white"/>
<path d="M43.8661 42.318L26.7051 32.228V62.049L43.8661 72.139V42.318Z" fill="white"/>
<path d="M45.5352 42.3938V72.3438L65.7802 63.8918V33.9458L45.5352 42.3938Z" fill="white"/>
<path d="M54.6474 50.7249L62.7614 42.6109C62.9714 42.4069 62.9714 42.0679 62.7614 41.8589C62.5524 41.6499 62.2164 41.6499 62.0084 41.8589L53.1514 50.7159H53.1264L52.2614 51.6069L51.3504 52.5229C51.2454 52.6269 51.1934 52.7649 51.1934 52.8989C51.1934 53.0369 51.2454 53.1699 51.3504 53.2749C51.5614 53.4879 51.8984 53.4879 52.1044 53.2749L53.7784 51.5989L54.6474 50.7249ZM62.5064 48.9059L64.3534 47.0629C64.5624 46.8489 64.5624 46.5189 64.3534 46.3049C64.1404 46.0979 63.8054 46.0979 63.5964 46.3049L61.0744 48.8259L60.0734 49.8289L57.2204 52.6799C57.1184 52.7849 57.0664 52.9219 57.0664 53.0569C57.0664 53.1939 57.1184 53.3279 57.2204 53.4329C57.4314 53.6459 57.7694 53.6459 57.9774 53.4329L61.7204 49.6959L62.5064 48.9059Z" fill="#231F20"/>
<path d="M36.155 60.798C36.051 60.903 35.998 61.041 35.998 61.175C35.998 61.313 36.051 61.446 36.155 61.551C36.369 61.765 36.703 61.765 36.912 61.551L42.024 56.443C42.232 56.234 42.232 55.896 42.024 55.687C41.816 55.478 41.481 55.478 41.272 55.687L36.155 60.798Z" fill="#231F20"/>
<path d="M34.763 58.1742L39.83 53.0402C40.043 52.8312 40.043 52.4972 39.83 52.2882C39.621 52.0752 39.287 52.0752 39.077 52.2882L33.267 58.1612H33.242L32.377 59.0562L30.529 60.9662C30.425 61.0702 30.375 61.2042 30.375 61.3432C30.375 61.4762 30.425 61.6142 30.529 61.7182C30.742 61.9272 31.077 61.9272 31.286 61.7182L33.895 59.0432L34.763 58.1742Z" fill="#231F20"/>
<path d="M54.6937 61.3842L62.9707 53.0402C63.1837 52.8312 63.1837 52.4972 62.9707 52.2882C62.7617 52.0752 62.4277 52.0752 62.2187 52.2882L53.1977 61.3722H53.1727L52.3077 62.2672L50.4597 64.1762C50.3557 64.2802 50.3047 64.4142 50.3047 64.5532C50.3047 64.6872 50.3547 64.8242 50.4597 64.9282C50.6737 65.1382 51.0077 65.1382 51.2167 64.9282L53.8247 62.2532L54.6937 61.3842Z" fill="#231F20"/>
<path d="M12.9253 52.771L13.9903 57.525L8.01131 58.867L7.74031 57.659L12.7173 56.544L12.1913 54.202L7.21731 55.318L6.94531 54.112L12.9253 52.771Z" fill="white"/>
<path d="M11.8953 60.7052C11.2603 60.9802 10.8403 61.3352 10.6393 61.7722C10.4383 62.2092 10.4363 62.6552 10.6333 63.1062C10.8303 63.5592 11.1533 63.8582 11.6053 64.0082C12.0563 64.1562 12.6093 64.0902 13.2603 63.8052C13.9063 63.5282 14.3243 63.1762 14.5193 62.7562C14.7133 62.3362 14.7093 61.8932 14.5063 61.4242C14.3043 60.9562 13.9803 60.6492 13.5353 60.5032C13.0883 60.3552 12.5433 60.4232 11.8953 60.7052ZM11.3503 59.5512C11.9223 59.3022 12.4433 59.1792 12.9043 59.1812C13.2473 59.1852 13.5773 59.2472 13.9013 59.3702C14.2253 59.4932 14.4993 59.6612 14.7223 59.8772C15.0243 60.1632 15.2723 60.5342 15.4713 60.9932C15.8303 61.8192 15.8623 62.5972 15.5633 63.3142C15.2643 64.0362 14.6573 64.5932 13.7433 64.9912C12.8353 65.3862 12.0183 65.4462 11.2913 65.1752C10.5653 64.9052 10.0223 64.3572 9.66528 63.5302C9.30228 62.6942 9.26828 61.9192 9.56528 61.2042C9.85928 60.4912 10.4553 59.9392 11.3503 59.5512Z" fill="white"/>
<path d="M17.0231 64.438L17.7071 65.47L15.5301 66.906C15.7051 67.121 15.8681 67.236 16.0161 67.258C16.1641 67.278 16.5141 67.227 17.0611 67.11C17.7551 66.96 18.2421 66.947 18.5181 67.074C18.7961 67.198 19.0911 67.499 19.4061 67.975C19.4201 67.998 19.4541 68.048 19.5081 68.123L18.7431 68.627L18.6511 68.479C18.5111 68.268 18.3821 68.129 18.2651 68.067C18.1501 68.004 18.0161 67.977 17.8701 67.989C17.7241 67.999 17.4431 68.054 17.0341 68.155C16.8151 68.21 16.6221 68.238 16.4551 68.243C16.2891 68.249 16.0921 68.192 15.8631 68.074C15.9511 68.349 15.9451 68.626 15.8471 68.903C15.7461 69.185 15.5751 69.534 15.3331 69.951L14.3931 71.575L13.5901 70.36L14.5121 68.876C14.5251 68.855 14.5481 68.812 14.5811 68.746C14.5921 68.722 14.6441 68.628 14.7361 68.458C14.9011 68.159 14.9841 67.948 14.9931 67.821C14.9991 67.695 14.9451 67.544 14.8321 67.367L12.5941 68.846L11.9121 67.815L17.0231 64.438Z" fill="white"/>
<path d="M19.8722 70.153L18.5893 71.326L19.0473 71.825C19.3753 72.186 19.6202 72.403 19.7782 72.483C19.9352 72.561 20.0962 72.588 20.2612 72.565C20.4232 72.543 20.5722 72.469 20.7062 72.348C20.8722 72.197 20.9633 72.024 20.9823 71.828C21.0013 71.635 20.9552 71.45 20.8472 71.279C20.7673 71.151 20.5772 70.922 20.2762 70.593L19.8722 70.153ZM15.2812 72.674L19.8062 68.54L21.1442 70.005C21.6522 70.562 21.9592 70.943 22.0702 71.152C22.2372 71.473 22.2902 71.825 22.2222 72.21C22.1533 72.593 21.9412 72.947 21.5812 73.276C21.3032 73.53 21.0233 73.693 20.7423 73.764C20.4603 73.838 20.1953 73.846 19.9443 73.789C19.6953 73.732 19.4803 73.639 19.2983 73.512C19.0563 73.333 18.7442 73.037 18.3662 72.623L17.8232 72.027L16.1173 73.588L15.2812 72.674Z" fill="white"/>
<path d="M28.2758 76.072L29.2788 76.796L25.6968 81.769L24.6908 81.045L28.2758 76.072ZM21.5718 77.527L22.5518 78.233C22.8638 78.458 23.0918 78.599 23.2378 78.658C23.3818 78.716 23.5428 78.724 23.7168 78.686C23.8928 78.647 24.0348 78.549 24.1478 78.391C24.3068 78.17 24.3488 77.949 24.2708 77.725C24.1938 77.498 23.9508 77.241 23.5408 76.946L22.5198 76.21L21.5718 77.527ZM23.5468 72.665L24.5518 73.389L23.1198 75.376L24.4618 76.345C24.8158 76.599 25.0848 76.865 25.2688 77.145C25.4548 77.423 25.5428 77.749 25.5338 78.119C25.5258 78.49 25.4068 78.835 25.1718 79.154C24.9298 79.492 24.6328 79.718 24.2818 79.836C23.9278 79.95 23.6168 79.971 23.3438 79.895C23.0718 79.819 22.7268 79.631 22.3118 79.331L19.9668 77.64L23.5468 72.665Z" fill="white"/>
<path d="M29.082 83.3839L31.173 78.7409L29.514 77.9949L29.941 77.0479L34.38 79.0479L33.954 79.9929L32.299 79.2489L30.209 83.8919L29.082 83.3839Z" fill="white"/>
<path d="M34.9495 79.249L36.0705 79.544L35.0325 83.489L38.4705 80.175L39.6625 80.489L38.1095 86.415L36.9895 86.124L38.0025 82.253L34.5925 85.492L33.3945 85.179L34.9495 79.249Z" fill="white"/>
<path d="M40.2383 86.7628L40.7413 80.6548L45.2683 81.0298L45.1853 82.0618L41.8893 81.7908L41.7783 83.1458L44.8443 83.3968L44.7593 84.4268L41.6923 84.1728L41.5563 85.8368L44.9683 86.1168L44.8813 87.1468L40.2383 86.7628Z" fill="white"/>
<path d="M50.0523 81.718C50.3283 83.559 50.3613 84.926 50.1553 85.821L52.4583 85.476L51.8543 81.449L50.0523 81.718ZM48.7343 80.875L52.9223 80.248L53.6773 85.294L54.2103 85.212L54.5613 87.554L53.5443 87.706L53.3453 86.382L49.5313 86.953L49.7283 88.276L48.7123 88.428L48.3613 86.086L48.8753 86.01C49.0473 85.456 49.1243 84.829 49.1013 84.133C49.0783 83.436 48.9883 82.563 48.8323 81.516L48.7343 80.875Z" fill="white"/>
<path d="M54.4766 79.8389L58.5436 78.4639L60.5076 84.2669L59.3356 84.6649L57.7026 79.8409L55.9566 80.4329L56.7966 82.9119C57.0366 83.6209 57.1806 84.1239 57.2296 84.4219C57.2746 84.7199 57.2356 84.9769 57.1046 85.1959C56.9746 85.4159 56.7136 85.5919 56.3226 85.7219C56.1866 85.7709 55.9316 85.8409 55.5626 85.9379L55.2546 85.0309L55.5186 84.9459C55.7626 84.8639 55.9176 84.7739 55.9806 84.6799C56.0406 84.5859 56.0286 84.4079 55.9406 84.1479L55.5996 83.1539L54.4766 79.8389Z" fill="white"/>
<path d="M63.2117 77.193L62.3657 77.658C61.9377 77.895 61.6587 78.061 61.5337 78.156C61.4097 78.25 61.3287 78.38 61.2927 78.545C61.2567 78.712 61.2907 78.886 61.3887 79.066C61.4917 79.254 61.6207 79.377 61.7747 79.438C61.9297 79.496 62.0887 79.498 62.2467 79.447C62.4077 79.392 62.7107 79.244 63.1577 78.998L63.9607 78.557L63.2117 77.193ZM65.6677 81.65L64.4327 79.41L64.2137 79.531C63.8697 79.719 63.6597 79.905 63.5757 80.085C63.4907 80.265 63.4197 80.702 63.3627 81.399L63.2227 82.999L61.9267 83.714L62.0047 82.305C62.0357 81.749 62.0817 81.343 62.1427 81.091C62.2027 80.84 62.3137 80.585 62.4727 80.323C61.9297 80.522 61.4737 80.548 61.1017 80.401C60.7317 80.253 60.4437 79.991 60.2367 79.614C60.0547 79.289 59.9797 78.952 60.0047 78.61C60.0317 78.266 60.1547 77.976 60.3767 77.742C60.5977 77.506 60.9787 77.241 61.5157 76.944L63.7957 75.688L66.7517 81.053L65.6677 81.65Z" fill="white"/>
<path d="M68.229 73.5032C69.489 74.8732 70.284 75.9862 70.614 76.8422L72.325 75.2662L69.568 72.2712L68.229 73.5032ZM66.666 73.5442L69.781 70.6782L73.235 74.4302L73.632 74.0662L75.233 75.8082L74.476 76.5032L73.571 75.5192L70.731 78.1322L71.638 79.1142L70.879 79.8112L69.278 78.0712L69.661 77.7182C69.492 77.1622 69.203 76.6002 68.794 76.0362C68.384 75.4732 67.822 74.7992 67.105 74.0192L66.666 73.5442Z" fill="white"/>
<path d="M70.2422 70.2179L71.0912 69.1239L74.4792 69.9399L72.7122 67.0259L73.5022 66.0059L75.9182 70.4909C76.1772 70.9779 76.3402 71.3929 76.4052 71.7399C76.4722 72.0879 76.3912 72.4079 76.1632 72.6999C75.9392 72.9879 75.7472 73.1989 75.5842 73.3359L74.8562 72.7719C74.9712 72.6399 75.0742 72.5189 75.1592 72.4059C75.3352 72.1779 75.4202 71.9839 75.4142 71.8229C75.4052 71.6599 75.3012 71.4279 75.0992 71.1279L70.2422 70.2179Z" fill="white"/>
<path d="M73.8438 65.6529L74.3877 64.5419L78.9707 66.7779L79.7487 65.1849L75.1628 62.9499L75.7038 61.8409L80.2878 64.0779L81.0907 62.4319L76.5067 60.1939L77.0477 59.0869L82.5617 61.7689L79.3537 68.3409L73.8438 65.6529Z" fill="white"/>
<path d="M81.6647 55.6639L79.2567 55.9599L81.2777 57.2919L81.6647 55.6639ZM84.5487 54.0059L84.2397 55.3169L82.7607 55.5149L82.1957 57.8999L83.4327 58.7129L83.1277 59.9889L77.7188 56.2509L78.0197 54.9779L84.5487 54.0059Z" fill="white"/>
<path d="M10.4825 46.1712L10.5245 43.5732L8.39047 44.3402C7.74247 44.5712 7.20947 44.7452 6.79347 44.8572C7.28347 44.9622 7.77047 45.1072 8.25047 45.2932L10.4825 46.1712ZM13.5925 48.4312L5.98047 45.3662L5.99947 44.2742L13.7075 41.2622L13.6895 42.4162L11.3565 43.2732L11.3035 46.4742L13.6085 47.3542L13.5925 48.4312Z" fill="#231F20"/>
<path d="M13.824 40.4152L6.37695 38.6242L6.61295 37.6382L9.67095 38.3722L10.604 34.5012L7.54595 33.7672L7.78395 32.7822L15.23 34.5732L14.992 35.5602L11.483 34.7142L10.551 38.5862L14.06 39.4312L13.824 40.4152Z" fill="#231F20"/>
<path d="M16.7281 31.2832L10.6781 28.2782L9.55514 30.5372L8.74414 30.1342L11.4471 24.6982L12.2581 25.1002L11.1291 27.3692L17.1801 30.3762L16.7281 31.2832Z" fill="#231F20"/>
<path d="M12.9785 22.343L13.5595 21.632L18.2555 25.471L16.1395 18.476L16.7835 17.688L22.7135 22.536L22.1325 23.247L17.4485 19.419L19.5495 26.407L18.9075 27.19L12.9785 22.343Z" fill="#231F20"/>
<path d="M22.1736 20.0121L21.5586 19.2931L23.7536 17.4131L24.3706 18.1331L22.1736 20.0121Z" fill="#231F20"/>
<path d="M22.8281 12.5022L23.6201 12.0362L26.6981 17.2612L27.1311 9.96724L28.0091 9.44824L31.8961 16.0492L31.1041 16.5182L28.0341 11.3022L27.5891 18.5892L26.7161 19.1032L22.8281 12.5022Z" fill="#231F20"/>
<path d="M31.8911 13.7078L32.7281 13.1628C32.9161 13.4898 33.2191 13.7828 33.6411 14.0338C34.0611 14.2848 34.5211 14.3268 35.0211 14.1588C35.5291 13.9878 35.8861 13.7218 36.0911 13.3628C36.2981 13.0038 36.3401 12.6368 36.2141 12.2678C36.0811 11.8688 35.8181 11.6018 35.4291 11.4708C35.0381 11.3388 34.5761 11.3648 34.0411 11.5438L33.5811 11.6988L33.2991 10.8618C33.7421 10.7148 34.0701 10.5738 34.2881 10.4448C34.5061 10.3118 34.6691 10.1148 34.7791 9.84176C34.8881 9.57176 34.8991 9.30176 34.8061 9.03476C34.6991 8.71976 34.4841 8.48476 34.1601 8.33276C33.8341 8.18176 33.4621 8.17676 33.0441 8.31676C32.6761 8.43976 32.3941 8.63676 32.1971 8.90676C31.9991 9.17776 31.9031 9.48276 31.9051 9.81576C31.9071 10.1528 31.9341 10.3948 31.9841 10.5438L30.9941 10.6448C30.7021 9.02676 31.2951 7.96976 32.7711 7.47176C33.4791 7.23376 34.1111 7.24276 34.6581 7.49476C35.2081 7.74876 35.5691 8.14076 35.7491 8.66876C35.9771 9.34676 35.8321 9.97976 35.3181 10.5668C35.7211 10.5458 36.1011 10.6508 36.4571 10.8818C36.8121 11.1108 37.0631 11.4478 37.2121 11.8868C37.4211 12.5098 37.3561 13.1138 37.0131 13.6978C36.6731 14.2828 36.1021 14.7098 35.3041 14.9758C33.9271 15.4418 32.7901 15.0188 31.8911 13.7078Z" fill="#231F20"/>
<path d="M39.4801 12.7822L41.3721 12.5422C41.6961 12.5022 41.9241 12.4602 42.0511 12.4192C42.2771 12.3512 42.4631 12.2562 42.6051 12.1402C42.7501 12.0232 42.8581 11.8662 42.9351 11.6672C43.0121 11.4702 43.0351 11.2502 43.0041 11.0082C42.9691 10.7242 42.8641 10.4872 42.6931 10.2982C42.5211 10.1072 42.3001 9.98517 42.0331 9.93417C41.7651 9.88217 41.3881 9.88617 40.9041 9.94917L39.1491 10.1732L39.4801 12.7822ZM39.0331 9.27517L40.6761 9.06617C41.1231 9.00717 41.4381 8.93817 41.6241 8.85417C41.8691 8.74717 42.0461 8.59517 42.1531 8.40417C42.2611 8.21117 42.2981 7.98117 42.2641 7.71617C42.2331 7.46417 42.1431 7.24717 41.9991 7.07217C41.8521 6.89617 41.6621 6.78617 41.4311 6.74417C41.1971 6.70217 40.8061 6.71417 40.2601 6.78417L38.7411 6.97817L39.0331 9.27517ZM38.5871 13.8102L37.6211 6.20917L40.4721 5.84817C41.0531 5.77217 41.5281 5.79117 41.8981 5.90017C42.2681 6.00917 42.5731 6.21317 42.8131 6.50617C43.0511 6.79817 43.1941 7.12117 43.2371 7.47017C43.2791 7.79617 43.2311 8.11117 43.0911 8.42117C42.9501 8.73017 42.7141 8.99517 42.3801 9.21717C42.8561 9.29417 43.2381 9.47817 43.5271 9.77317C43.8161 10.0662 43.9891 10.4332 44.0441 10.8772C44.0901 11.2322 44.0561 11.5732 43.9461 11.8982C43.8351 12.2242 43.6781 12.4832 43.4781 12.6772C43.2791 12.8712 43.0191 13.0302 42.6941 13.1572C42.3721 13.2852 41.9691 13.3792 41.4841 13.4392L38.5871 13.8102Z" fill="#231F20"/>
<path d="M45.2246 13.0872L45.8286 5.4502L51.3516 5.8902L51.2796 6.7902L46.7696 6.4332L46.5836 8.7722L50.8076 9.1062L50.7366 10.0032L46.5126 9.6692L46.3056 12.2672L50.9936 12.6382L50.9216 13.5382L45.2246 13.0872Z" fill="#231F20"/>
<path d="M57.8018 12.7292L58.6968 13.2722C58.2498 14.0042 57.6998 14.5002 57.0438 14.7562C56.3868 15.0122 55.6788 15.0242 54.9158 14.7902C54.1258 14.5492 53.5318 14.1912 53.1378 13.7202C52.7408 13.2452 52.5058 12.6662 52.4348 11.9772C52.3638 11.2892 52.4348 10.5962 52.6478 9.89522C52.8818 9.13322 53.2308 8.51222 53.6948 8.03422C54.1598 7.55522 54.7078 7.24922 55.3358 7.12122C55.9648 6.99122 56.6028 7.02422 57.2478 7.22022C57.9798 7.44722 58.5398 7.82222 58.9238 8.34822C59.3108 8.87222 59.4968 9.50322 59.4888 10.2422L58.4638 10.1752C58.4588 9.59022 58.3308 9.12622 58.0818 8.78322C57.8338 8.44222 57.4638 8.19622 56.9748 8.04522C56.4098 7.87422 55.9008 7.86522 55.4378 8.01822C54.9788 8.17322 54.6028 8.45322 54.3088 8.86322C54.0168 9.27022 53.7968 9.71622 53.6488 10.1992C53.4588 10.8212 53.3838 11.3912 53.4208 11.9132C53.4618 12.4332 53.6368 12.8672 53.9498 13.2152C54.2638 13.5622 54.6418 13.8032 55.0888 13.9412C55.6318 14.1062 56.1378 14.0912 56.6108 13.8922C57.0828 13.6922 57.4808 13.3052 57.8018 12.7292Z" fill="#231F20"/>
<path d="M60.0078 16.7549L63.2158 10.8099L60.9938 9.61094L61.4228 8.81494L66.7668 11.6979L66.3388 12.4939L64.1088 11.2899L60.9008 17.2359L60.0078 16.7549Z" fill="#231F20"/>
<path d="M68.3265 12.8188L69.1165 13.4548L67.0115 16.0668C67.3735 16.3578 67.6825 16.4938 67.9415 16.4708C68.2005 16.4498 68.6585 16.2658 69.3145 15.9158C69.7955 15.6588 70.1525 15.4918 70.3915 15.4158C70.6275 15.3418 70.8905 15.3278 71.1775 15.3788C71.4635 15.4298 71.7255 15.5508 71.9655 15.7428C72.2685 15.9868 72.4275 16.1188 72.4375 16.1378L71.8875 16.8218C71.8605 16.7998 71.8075 16.7548 71.7315 16.6898C71.6475 16.6168 71.5955 16.5728 71.5765 16.5588C71.3235 16.3538 71.0875 16.2638 70.8685 16.2878C70.6445 16.3098 70.2935 16.4558 69.8105 16.7258C69.2045 17.0698 68.7785 17.2508 68.5335 17.2698C68.2895 17.2908 68.0405 17.2628 67.7835 17.1868C68.0845 17.6018 68.1765 18.2628 68.0635 19.1688L67.6935 22.1458L66.7135 21.3558L67.0205 18.9338C67.1065 18.2648 67.1245 17.7738 67.0745 17.4578C67.0245 17.1418 66.8535 16.8658 66.5605 16.6298L64.3115 19.4228L63.5215 18.7848L68.3265 12.8188Z" fill="#231F20"/>
<path d="M71.2513 20.543C70.5363 21.126 70.1293 21.778 70.0303 22.499C69.9323 23.22 70.1203 23.87 70.5933 24.45C71.0763 25.04 71.6793 25.358 72.4063 25.402C73.1333 25.443 73.8803 25.154 74.6433 24.532C75.1283 24.137 75.4833 23.713 75.7093 23.255C75.9363 22.798 76.0223 22.331 75.9633 21.855C75.9043 21.379 75.7173 20.944 75.3973 20.554C74.9433 19.997 74.3623 19.675 73.6543 19.585C72.9453 19.495 72.1453 19.815 71.2513 20.543ZM70.6033 19.724C71.5873 18.921 72.5763 18.556 73.5643 18.63C74.5533 18.706 75.3893 19.161 76.0713 19.997C76.5183 20.547 76.7903 21.147 76.8883 21.801C76.9843 22.456 76.8923 23.088 76.6123 23.701C76.3323 24.313 75.8953 24.86 75.2993 25.345C74.6973 25.837 74.0603 26.155 73.3863 26.299C72.7133 26.443 72.0743 26.39 71.4663 26.146C70.8573 25.9 70.3443 25.517 69.9243 25.003C69.4683 24.442 69.1963 23.835 69.1083 23.174C69.0193 22.513 69.1153 21.88 69.3983 21.273C69.6793 20.663 70.0823 20.147 70.6033 19.724Z" fill="#231F20"/>
<path d="M77.0853 27.372L77.8183 28.858C78.0173 29.262 78.1863 29.538 78.3243 29.686C78.5083 29.885 78.7093 30.001 78.9243 30.04C79.1423 30.079 79.3723 30.04 79.6123 29.921C79.8403 29.808 80.0133 29.655 80.1323 29.458C80.2513 29.264 80.2933 29.049 80.2573 28.815C80.2223 28.581 80.0813 28.216 79.8373 27.721L79.1603 26.35L77.0853 27.372ZM73.9123 28.938L74.7573 30.647C74.9013 30.942 75.0133 31.143 75.0953 31.251C75.2353 31.441 75.3833 31.585 75.5403 31.682C75.6973 31.781 75.8813 31.832 76.0943 31.84C76.3053 31.849 76.5213 31.799 76.7403 31.692C76.9953 31.565 77.1853 31.389 77.3103 31.166C77.4333 30.942 77.4773 30.694 77.4383 30.424C77.4003 30.153 77.2733 29.799 77.0583 29.362L76.2743 27.774L73.9123 28.938ZM72.6543 28.429L79.5243 25.04L80.7953 27.617C81.0533 28.143 81.1913 28.596 81.2083 28.984C81.2273 29.368 81.1353 29.723 80.9353 30.046C80.7343 30.368 80.4773 30.606 80.1623 30.763C79.8673 30.908 79.5523 30.964 79.2133 30.932C78.8773 30.902 78.5493 30.763 78.2313 30.521C78.3133 30.998 78.2623 31.417 78.0813 31.788C77.8973 32.156 77.6043 32.437 77.2063 32.635C76.8833 32.793 76.5513 32.872 76.2063 32.874C75.8633 32.874 75.5663 32.812 75.3203 32.686C75.0713 32.56 74.8333 32.366 74.6073 32.102C74.3833 31.838 74.1613 31.487 73.9473 31.051L72.6543 28.429Z" fill="#231F20"/>
<path d="M79.2114 33.9382C78.3174 34.1582 77.6694 34.5742 77.2724 35.1812C76.8754 35.7902 76.7644 36.4582 76.9444 37.1852C77.1264 37.9252 77.5354 38.4702 78.1754 38.8232C78.8134 39.1742 79.6114 39.2322 80.5684 38.9962C81.1744 38.8482 81.6784 38.6162 82.0804 38.3012C82.4814 37.9852 82.7574 37.5982 82.9094 37.1452C83.0604 36.6892 83.0764 36.2172 82.9554 35.7252C82.7844 35.0282 82.3974 34.4892 81.7954 34.1042C81.1934 33.7182 80.3324 33.6622 79.2114 33.9382ZM78.9794 32.9192C80.2124 32.6142 81.2614 32.7092 82.1224 33.2022C82.9834 33.6922 83.5444 34.4622 83.8004 35.5112C83.9704 36.1972 83.9574 36.8572 83.7654 37.4892C83.5734 38.1232 83.2184 38.6562 82.7024 39.0882C82.1854 39.5212 81.5564 39.8302 80.8134 40.0122C80.0584 40.1992 79.3454 40.2112 78.6774 40.0542C78.0064 39.8962 77.4484 39.5762 77.0054 39.0932C76.5624 38.6082 76.2614 38.0432 76.1024 37.3982C75.9304 36.6982 75.9464 36.0312 76.1504 35.3972C76.3534 34.7622 76.7104 34.2312 77.2274 33.8032C77.7424 33.3732 78.3254 33.0782 78.9794 32.9192Z" fill="#231F20"/>
<path d="M77.0938 41.7099L84.7517 41.5869L84.8418 47.1239L83.9377 47.1379L83.8637 42.6159L81.5187 42.6529L81.5867 46.8899L80.6888 46.9029L80.6198 42.6669L78.0127 42.7099L78.0887 47.4109L77.1857 47.4269L77.0938 41.7099Z" fill="#231F20"/>
</svg>
