<svg width="91" height="91" viewBox="0 0 91 91" fill="none" xmlns="http://www.w3.org/2000/svg">
<path d="M45.6841 1.02588C70.3381 1.02588 90.3261 21.0149 90.3261 45.6709C90.3261 70.3279 70.3381 90.3169 45.6841 90.3169C21.0271 90.3169 1.03906 70.3289 1.03906 45.6709C1.04006 21.0159 21.0271 1.02588 45.6841 1.02588Z" fill="white"/>
<path d="M56.642 29.296L64.804 25.588H71.391L63.099 29.266L56.642 29.296ZM62.878 78.861H56.455V39.711L53.165 37.914V34.369H56.455V29.734H62.878V78.861ZM64.642 29.675H88.116C88.052 29.5 87.991 29.322 87.925 29.15L87.663 29.266L65.859 29.35L74.242 25.588H86.368C78.975 10.451 63.479 0 45.504 0C20.376 0 0 20.367 0 45.496C0 70.623 20.376 90.99 45.504 90.99C57.02 90.99 67.506 86.677 75.521 79.623H64.642V29.675Z" fill="#231F20"/>
<path d="M40.5255 53.3419C40.7585 53.0799 40.9805 52.8269 41.1455 52.6329C40.0315 52.4939 38.9175 52.3489 37.8665 52.1919C37.7785 52.7969 37.3295 53.6639 36.0545 54.3609C36.0405 54.3759 34.7645 55.6159 33.3575 56.5729C33.2865 56.6119 33.0665 56.8209 32.7715 57.1039H32.7755C32.9285 57.1409 33.1185 57.1759 33.3235 57.2039C33.3635 57.2099 33.3955 57.2169 33.4365 57.2199C33.6785 57.2489 33.9535 57.2709 34.2765 57.2709C34.6965 57.2709 35.1805 57.2449 35.7355 57.1699C36.5555 57.1049 38.1585 55.8289 39.3955 54.5539C39.7365 54.2079 40.0445 53.8779 40.3235 53.5679C40.3965 53.4859 40.4575 53.4199 40.5255 53.3419Z" fill="white"/>
<path d="M44.688 65.1321C44.435 64.9821 44.351 64.6521 44.505 64.4011L50.089 55.1641C50.241 54.9131 50.57 54.8301 50.822 54.9851C51.072 55.1361 51.155 55.4651 51.002 55.7171L45.417 64.9511C45.319 65.1171 45.142 65.2071 44.961 65.2071C44.868 65.2071 44.773 65.1851 44.688 65.1321Z" fill="white"/>
<path d="M48.9237 46.1699L37.7457 36.3799C37.5267 36.1829 37.5007 35.8499 37.6977 35.6249C37.8897 35.4019 38.2307 35.3809 38.4487 35.5779L49.6257 45.3659C49.8487 45.5619 49.8697 45.8999 49.6747 46.1219C49.5697 46.2399 49.4217 46.3029 49.2717 46.3029C49.1477 46.3029 49.0237 46.2599 48.9237 46.1699Z" fill="white"/>
<path d="M52.2838 42.633L46.4888 29.497C46.3668 29.232 46.4888 28.913 46.7588 28.793C47.0298 28.677 47.3438 28.798 47.4668 29.069L53.2618 42.201C53.3838 42.472 53.2618 42.785 52.9908 42.904C52.9198 42.935 52.8458 42.949 52.7728 42.949C52.5678 42.949 52.3738 42.833 52.2838 42.633Z" fill="white"/>
<path d="M10.584 67.2969C10.871 67.3299 11.16 67.3549 11.458 67.3549C17.453 67.4059 24.547 60.3599 24.56 60.3279L24.661 60.2269L24.796 60.1919L25.308 60.0669C27.857 59.9349 30.108 58.1609 31.475 56.8989C32.074 56.3509 32.454 55.9299 32.777 55.7069C34.085 54.8249 35.33 53.6199 35.434 53.5419C36.612 52.8489 36.798 52.3039 36.833 52.0419C35.14 51.7909 33.588 51.5689 32.279 51.4779C32.257 51.4869 32.227 51.4989 32.192 51.5139C32.091 51.5619 31.938 51.6369 31.764 51.7329C31.41 51.9209 30.941 52.1909 30.435 52.4899C29.426 53.0919 28.255 53.8169 27.451 54.3079C26.838 54.6509 26.712 54.8089 26.305 54.9269C26.02 54.9659 25.759 54.7699 25.72 54.4859C25.686 54.2369 25.831 54.0069 26.058 53.9249C26.059 53.9229 26.06 53.9229 26.062 53.9229L26.083 53.9129C26.123 53.8899 26.185 53.8549 26.263 53.8079C26.42 53.7159 26.647 53.5799 26.914 53.4189C27.442 53.0949 28.142 52.6629 28.853 52.2309C30.366 51.3569 31.533 50.5339 32.246 50.4369C32.259 50.4389 32.272 50.4419 32.285 50.4419V50.4369C33.78 50.5389 35.524 50.7959 37.411 51.0779C38.914 51.2989 40.496 51.5329 42.108 51.7139C43.69 51.8909 45.29 52.0139 46.837 52.0139C48.013 52.0139 49.162 51.9429 50.245 51.7759C52.48 51.4049 53.03 50.3459 53.182 49.7449C49.865 49.3329 31.951 47.0739 27.869 45.1549C27.869 45.1599 26.804 44.8669 25.684 44.8669C25.675 44.8669 25.666 44.8669 25.658 44.8669C24.716 44.8669 23.841 45.1009 23.477 45.6519C23.399 45.7489 22.988 46.2759 19.723 48.6779L19.304 48.9279C19.299 48.9319 16.326 51.3789 13.355 54.4169C13.015 54.7579 12.678 55.1109 12.344 55.4709C12.208 55.6169 12.074 55.7659 11.94 55.9129C11.755 56.1139 11.574 56.3159 11.395 56.5189C11.217 56.7229 11.043 56.9279 10.871 57.1329C10.756 57.2709 10.644 57.4089 10.532 57.5449C10.331 57.7929 10.132 58.0399 9.943 58.2859C9.894 58.3519 9.849 58.4169 9.801 58.4789C8.844 59.7529 8.096 60.9749 7.75 61.9849" fill="white"/>
<path d="M45.504 86.712C31.235 86.712 18.645 79.422 11.241 68.377C11.314 68.379 11.384 68.393 11.458 68.393C17.716 68.346 24.275 62.038 25.189 61.157L25.468 61.085C28.185 60.936 30.455 59.189 31.901 57.906C32.391 58.116 33.139 58.307 34.275 58.309C34.739 58.309 35.27 58.278 35.87 58.2C38.428 57.774 41.927 53.283 42.368 52.779C43.853 52.932 45.356 53.047 46.835 53.047C48.054 53.047 49.252 52.979 50.401 52.798C54.004 52.275 54.333 49.693 54.292 49.323L54.373 48.844L53.832 48.781C53.806 48.789 32.344 46.169 28.227 44.183C28.118 44.146 26.973 43.828 25.683 43.828C24.618 43.834 23.364 44.025 22.639 45.045C22.63 45.053 22.54 45.152 22.126 45.504C21.637 45.922 20.746 46.641 19.147 47.816L18.706 48.079C18.643 48.205 9.816 55.275 7.207 60.652C5.338 55.953 4.28 50.85 4.28 45.496C4.28 22.768 22.773 4.279 45.505 4.279C68.232 4.279 86.72 22.768 86.72 45.496C86.72 68.221 68.231 86.712 45.504 86.712ZM41.145 52.633C40.978 52.83 40.767 53.071 40.525 53.342C40.457 53.42 40.397 53.487 40.323 53.567C40.041 53.879 39.737 54.208 39.395 54.553C38.159 55.828 36.556 57.104 35.735 57.169C35.18 57.243 34.695 57.27 34.276 57.27C33.954 57.27 33.681 57.249 33.436 57.219C33.395 57.216 33.362 57.209 33.323 57.203C33.113 57.176 32.93 57.142 32.775 57.103H32.771C33.066 56.82 33.286 56.611 33.357 56.572C34.765 55.615 36.041 54.375 36.054 54.36C37.328 53.663 37.778 52.797 37.866 52.191C38.917 52.349 40.031 52.494 41.145 52.633ZM7.749 61.984C8.096 60.974 8.844 59.753 9.8 58.478C9.848 58.415 9.893 58.351 9.942 58.285C10.131 58.039 10.33 57.792 10.531 57.544C10.643 57.408 10.755 57.27 10.87 57.132C11.043 56.927 11.217 56.722 11.394 56.518C11.573 56.315 11.754 56.113 11.939 55.912C12.073 55.765 12.207 55.616 12.343 55.47C12.677 55.111 13.014 54.757 13.354 54.416C16.326 51.378 19.298 48.931 19.303 48.927L19.722 48.677C22.987 46.275 23.398 45.747 23.476 45.651C23.84 45.1 24.714 44.866 25.657 44.866C25.666 44.866 25.675 44.866 25.683 44.866C26.802 44.866 27.868 45.159 27.868 45.154C31.949 47.073 49.863 49.332 53.181 49.744C53.03 50.346 52.479 51.404 50.244 51.775C49.161 51.942 48.012 52.013 46.836 52.013C45.288 52.013 43.689 51.89 42.107 51.713C40.495 51.532 38.913 51.298 37.41 51.077C35.522 50.796 33.778 50.538 32.284 50.436V50.441C32.272 50.441 32.258 50.438 32.245 50.436C31.532 50.533 30.365 51.356 28.852 52.23C28.14 52.663 27.441 53.094 26.913 53.418C26.645 53.579 26.419 53.715 26.262 53.807C26.184 53.855 26.122 53.889 26.082 53.912L26.061 53.922C26.059 53.922 26.058 53.922 26.057 53.924C25.83 54.006 25.685 54.236 25.719 54.485C25.758 54.769 26.02 54.965 26.304 54.926C26.711 54.808 26.837 54.65 27.45 54.307C28.254 53.816 29.425 53.09 30.434 52.489C30.94 52.19 31.409 51.921 31.763 51.732C31.937 51.636 32.091 51.561 32.191 51.513C32.226 51.498 32.256 51.486 32.278 51.477C33.587 51.569 35.139 51.79 36.832 52.041C36.797 52.303 36.61 52.848 35.433 53.541C35.329 53.619 34.083 54.824 32.776 55.706C32.453 55.93 32.073 56.351 31.474 56.898C30.107 58.16 27.856 59.934 25.307 60.066L24.795 60.191L24.66 60.226L24.559 60.327C24.546 60.359 17.453 67.405 11.457 67.354C11.159 67.354 10.87 67.33 10.583 67.296L7.749 61.984ZM45.504 0C20.376 0 0 20.367 0 45.496C0 70.623 20.376 90.99 45.504 90.99C70.627 90.99 91 70.623 91 45.496C91 20.367 70.627 0 45.504 0Z" fill="#231F20"/>
</svg>
