<svg width="91" height="91" viewBox="0 0 91 91" fill="none" xmlns="http://www.w3.org/2000/svg">
<path d="M45.6373 0.836914C70.2953 0.836914 90.2853 20.8269 90.2853 45.4849C90.2853 70.1449 70.2953 90.1349 45.6373 90.1349C20.9773 90.1349 0.988281 70.1449 0.988281 45.4849C0.989281 20.8269 20.9783 0.836914 45.6373 0.836914Z" fill="white"/>
<path d="M68.946 61.288C69.045 61.196 69.122 61.102 69.176 61.018C69.88 60.645 70.129 60.03 70.357 59.802C70.42 59.672 70.831 59.565 71.122 59.02C71.653 57.719 72.439 56.262 73.217 55.04L73.402 54.701L75.394 51.589L75.417 51.472C75.417 51.468 75.758 49.309 76.009 47.064C76.013 46.941 76.018 46.849 76.013 46.75C76.005 45.277 75.167 42.509 74.342 39.945C73.93 38.672 73.516 37.471 73.207 36.568C73.088 36.223 72.987 35.922 72.906 35.675H73.357L71.122 33.021C70.449 32.467 69.565 31.418 69.304 31.067C68.915 30.72 69.252 29.879 68.725 29.029C68.915 28.851 69.104 28.643 69.272 28.383C69.285 28.387 69.297 28.387 69.312 28.387C69.395 28.393 69.623 28.367 69.795 28.202C70.342 27.73 70.92 27.148 71.45 26.537C71.956 25.962 72.618 25.363 73.055 24.611C73.333 24.107 73.452 23.625 73.446 23.173C73.446 22.751 73.364 22.374 73.293 22.002C73.051 20.72 72.635 19.771 71.532 18.788C71.053 18.35 70.416 17.789 69.712 17.446C69.139 17.159 68.621 17.091 68.18 17.094C67.854 17.094 67.576 17.121 67.297 17.121C67.245 17.121 67.245 17.125 67.245 17.125H66.659L66.697 17.704C66.705 17.808 66.725 17.9 66.748 17.984C65.977 18.283 65.333 18.837 64.747 19.221C64.651 19.322 64.231 19.337 63.88 19.85C63.74 20.111 63.744 20.302 63.721 20.389L63.433 20.594L63.602 21.001C63.625 21.056 63.625 21.072 63.625 21.077C63.632 21.085 63.64 21.098 63.458 21.275C63.293 21.444 63.019 21.68 62.815 22.054C62.641 22.371 62.549 22.67 62.432 22.909C62.104 23.594 61.436 24.296 61.41 25.333C61.405 25.538 61.443 25.745 61.513 25.947C61.721 26.457 61.878 26.535 61.922 26.676L61.82 27.182C61.528 27.294 61.268 27.448 61.061 27.533V27.529C60.913 27.538 60.136 27.345 59.429 27.345C59.14 27.345 58.846 27.378 58.556 27.495C56.836 28.206 54.056 29.445 51.848 29.436C51.169 29.436 50.559 29.321 50.042 29.081C49.148 28.655 47.787 28.439 43.598 26.806L42.459 26.016C42.44 26.023 41.561 25.144 40.792 24.381C39.997 23.692 39.581 23.075 38.946 22.795C38.592 22.376 38.275 22.176 38.095 21.971C37.982 21.87 37.826 21.578 37.495 21.313C37.152 21.101 37.033 21.126 37.002 21.084C36.983 21.105 36.906 20.932 36.609 20.721C36.061 20.369 35.018 20.027 34.469 19.871C34.22 19.801 33.821 19.727 33.47 19.721C33.326 19.744 33.205 19.676 32.895 19.922C32.736 20.035 32.604 20.315 32.613 20.551C32.826 21.695 33.976 21.822 34.085 21.995C34.564 22.258 34.984 22.677 35.37 23.163C34.872 23.267 34.338 23.648 34.235 24.332L34.195 24.562L34.337 24.751C34.79 25.363 35.42 25.626 35.963 25.921C36.642 26.185 37.268 27.581 38.623 27.706C38.679 27.706 38.734 27.702 38.79 27.695C39.142 28.03 39.81 28.668 39.944 28.801L40.239 29.089L40.296 29.147L40.379 29.19C40.464 29.174 41.486 30.381 42.588 31.54C43.739 32.718 45.15 33.978 46.755 34.36C48.902 34.841 49.225 35.385 52.064 35.381C52.645 35.381 53.339 35.362 54.177 35.318C53.88 35.864 53.015 37.068 52.139 38.011C51.247 39.027 50.352 39.952 50.024 40.29C49.385 40.351 48.77 40.425 48.156 40.495L20.476 12.821C27.423 7.489 36.084 4.28 45.5 4.28C68.229 4.28 86.72 22.771 86.72 45.501C86.72 54.917 83.513 63.575 78.18 70.522L68.946 61.288ZM40.773 48.253C38.309 48.398 34.644 49.309 34.624 49.313L34.494 49.343L34.4 49.43C34.349 49.497 24.861 57.675 24.027 59.154L23.041 60.14C22.399 61.076 21.643 61.915 21.218 61.847C21.068 61.843 20.886 61.792 20.616 61.565C19.435 60.589 19.323 59.414 17.669 57.898C16.058 56.469 16.081 56.744 15.28 55.652C14.471 54.984 14.262 54.484 14.285 54.411H14.281C14.285 54.402 14.336 54.373 14.448 54.359L18.86 55.588C19.328 55.863 19.851 55.902 20.361 55.907C21.304 55.907 22.221 55.694 22.242 55.69L22.35 55.66L23.638 54.684L23.78 54.661L24.023 54.616L24.152 54.401C24.156 54.398 25.653 51.898 27.649 49.323C29.618 46.742 32.212 44.141 33.882 43.945C34.576 43.841 35.324 43.712 36.096 43.575L40.773 48.253ZM65.299 57.228C65.258 57.27 65.155 57.32 65.043 57.385L58.7 51.046C60.786 49.034 62.774 45.079 64.613 43.233C65.685 42.125 66.358 41.352 66.81 40.885C67.272 40.403 67.454 40.352 67.463 40.357C67.466 40.357 67.536 40.365 67.682 40.442C67.728 40.43 69.091 41.981 69.308 42.722C69.59 43.481 70.504 47.239 70.696 48.016C70.491 48.71 69.544 51.866 68.844 53.204L68.708 53.474C68.543 54.141 68.001 53.991 67.036 54.885C66.262 55.726 65.98 56.774 65.299 57.228ZM38.845 67.565C38.395 68.602 37.346 71.059 37.102 72.247C36.879 73.554 36.523 74.659 35.894 74.548C35.793 74.548 35.662 74.53 35.516 74.489C34.038 74.093 33.442 73.079 31.305 72.407C29.248 71.776 29.386 72.018 28.201 71.36C27.536 71.174 27.166 70.997 26.972 70.85C26.76 70.694 26.789 70.645 26.77 70.645C26.77 70.645 26.76 70.62 26.904 70.535L31.43 69.8C31.499 69.806 31.558 69.806 31.61 69.806C32.996 69.753 34.477 68.477 34.536 68.466L34.628 68.396L35.446 66.853L35.485 66.773L35.501 66.692C35.501 66.683 35.991 63.829 36.929 60.597C37.851 57.368 39.289 53.761 40.904 52.438C41.952 51.552 42.62 51.032 43.04 50.697C43.076 50.662 43.103 50.644 43.134 50.617L47.082 54.564C45.68 55.707 44.143 57.335 43.498 58.119C42.896 58.88 40.679 63.537 38.821 67.556L38.845 67.565ZM55.105 34.413C54.905 34.243 54.677 34.206 54.489 34.206H54.458C54.439 34.204 54.406 34.202 54.356 34.212C53.42 34.267 52.676 34.292 52.066 34.292C49.397 34.288 49.401 33.847 47.003 33.294C45.812 33.033 44.465 31.915 43.375 30.776C42.295 29.691 41.599 28.7 40.978 28.28L40.713 28.019C40.508 27.819 39.333 26.7 39.327 26.696L39.068 26.45L38.74 26.593C38.698 26.609 38.667 26.614 38.625 26.614C38.33 26.736 37.492 25.578 36.474 24.958C36.023 24.722 35.654 24.53 35.408 24.313C35.465 24.264 35.554 24.258 35.745 24.234C35.936 24.234 36.167 24.286 36.324 24.355L38.033 25.084L36.987 23.54C36.403 22.679 35.735 21.705 34.707 21.094C35.208 21.264 35.821 21.504 36.022 21.647C36.049 21.642 36.113 21.785 36.392 21.998C36.547 22.099 36.686 22.149 36.774 22.176C36.81 22.191 36.839 22.198 36.853 22.205C36.956 22.3 37.081 22.495 37.302 22.733C37.649 23.088 37.905 23.235 38.167 23.582L38.436 23.939L38.608 23.854C39.291 24.374 41.436 26.635 41.853 26.934L43.095 27.772C47.396 29.461 48.951 29.764 49.568 30.069C50.278 30.408 51.056 30.536 51.846 30.536C54.421 30.524 57.26 29.21 58.975 28.513C59.066 28.474 59.234 28.444 59.427 28.444C59.973 28.44 60.602 28.614 61.059 28.627C61.059 28.622 61.068 28.622 61.08 28.627C61.111 28.627 61.172 28.633 61.28 28.614L61.418 28.57C61.828 28.392 62.307 28.15 62.374 28.158L62.758 28.101L63.013 26.81L63.029 26.724L63.017 26.628C62.894 25.921 62.515 25.691 62.547 25.609C62.516 25.508 62.501 25.421 62.501 25.336C62.474 24.889 62.961 24.23 63.408 23.402C63.573 23.055 63.669 22.756 63.765 22.59C63.894 22.192 64.593 22.051 64.716 21.078C64.716 21.017 64.71 20.957 64.701 20.898C64.764 20.767 64.787 20.646 64.797 20.574C64.818 20.417 64.83 20.408 64.822 20.404C64.797 20.375 64.946 20.358 65.349 20.133C66.171 19.569 66.996 18.93 67.59 18.887L68.367 18.801L68.068 18.192C68.104 18.192 68.141 18.189 68.177 18.189C68.524 18.194 68.802 18.225 69.229 18.432C69.745 18.676 70.341 19.18 70.792 19.596C71.751 20.491 71.96 21.011 72.215 22.217C72.292 22.59 72.351 22.899 72.351 23.172C72.346 23.453 72.296 23.713 72.096 24.074C71.795 24.605 71.189 25.182 70.629 25.815C70.169 26.334 69.676 26.834 69.202 27.263C69.166 27.257 69.118 27.251 69.057 27.246C68.907 27.227 68.577 27.343 68.456 27.612C68.241 28.012 67.973 28.251 67.622 28.529L67.06 28.977L67.639 29.401C68.109 29.574 67.684 30.483 68.424 31.714C68.746 32.149 69.614 33.186 70.356 33.797L71.674 35.373C71.862 36.148 72.567 37.977 73.3 40.281C74.119 42.787 74.93 45.636 74.918 46.746C74.918 46.832 74.918 46.908 74.913 46.987C74.705 48.855 74.424 50.706 74.351 51.179L72.459 54.137L72.269 54.48C71.485 55.715 70.68 57.204 70.116 58.584L70.112 58.58C70.039 58.665 69.776 58.807 69.535 59.072C69.111 59.58 68.979 59.931 68.58 60.082L68.402 60.15L68.306 60.328C68.298 60.346 68.289 60.359 68.281 60.375C68.232 60.361 68.174 60.352 68.111 60.348C68.082 60.348 68.05 60.36 68.022 60.364L65.833 58.176C65.871 58.153 65.892 58.145 65.934 58.115C66.992 57.324 67.299 56.127 67.819 55.642C68.234 55.105 69.215 55.187 69.712 53.895L69.817 53.699C70.705 51.986 71.775 48.195 71.786 48.178L71.824 48.042L71.791 47.899C71.787 47.881 70.706 43.364 70.336 42.338C69.857 41.189 68.791 39.859 68.189 39.47C67.981 39.356 67.746 39.26 67.46 39.26C66.287 39.408 65.988 40.313 63.827 42.467C61.904 44.51 59.66 48.556 57.94 50.28L49.145 41.485C49.538 41.444 49.922 41.395 50.326 41.358L50.523 41.337L50.665 41.201C50.692 41.066 55.186 36.868 55.369 35.033C55.38 34.85 55.307 34.587 55.105 34.413ZM18.944 76.977C9.99 69.411 4.281 58.116 4.281 45.501C4.281 36.039 7.517 27.34 12.898 20.376L35.148 42.626C34.655 42.713 34.176 42.792 33.721 42.858C29.495 43.626 24.297 52.142 23.361 53.622L23.319 53.628L23.189 53.648L21.883 54.642C21.626 54.695 20.971 54.81 20.361 54.81C19.923 54.82 19.523 54.728 19.404 54.632L19.323 54.579L14.56 53.251L14.472 53.255C13.857 53.255 13.17 53.708 13.192 54.41C13.217 55.116 13.683 55.716 14.49 56.399C15.293 57.522 15.467 57.405 16.938 58.715C18.35 59.961 18.434 61.094 19.901 62.397C20.307 62.751 20.762 62.942 21.218 62.942C22.553 62.872 23.245 61.65 23.874 60.842L24.904 59.787C25.138 59.316 27.78 56.781 30.234 54.592C32.418 52.614 34.544 50.756 35.016 50.342C35.754 50.162 39.437 49.315 41.36 49.319C41.561 49.319 41.726 49.331 41.87 49.35L42.359 49.838C41.96 50.158 41.268 50.703 40.198 51.596C36.513 54.79 34.67 65.246 34.446 66.399L33.77 67.673C33.43 67.924 32.176 68.751 31.609 68.707C31.555 68.707 31.524 68.703 31.519 68.703L31.427 68.686L26.541 69.478L26.468 69.522C26.041 69.736 25.68 70.128 25.68 70.644C25.751 71.58 26.576 72.033 27.799 72.375C28.999 73.054 29.099 72.872 30.985 73.452C32.795 73.981 33.333 74.974 35.219 75.544C35.453 75.607 35.675 75.638 35.894 75.638C37.737 75.529 37.932 73.589 38.175 72.456C38.41 71.229 40.054 67.54 40.054 67.534L40.036 67.528C41.806 63.686 44.009 59.184 44.343 58.807C44.914 58.092 46.55 56.4 47.858 55.34L69.498 76.98L18.944 76.977ZM45.5 0C20.369 0 0 20.37 0 45.501C0 70.627 20.369 91.001 45.5 91.001C70.631 91.001 91 70.627 91 45.501C91 20.37 70.631 0 45.5 0Z" fill="#231F20"/>
<path d="M51.7575 69.308C46.7195 69.304 42.7825 67.224 42.7385 67.206L42.7425 67.21C42.4815 67.071 42.3785 66.748 42.5165 66.484C42.6475 66.221 42.9735 66.119 43.2375 66.258C43.2455 66.248 44.1945 66.747 45.7355 67.246C47.2665 67.744 49.3905 68.239 51.7565 68.239C53.3635 68.239 55.0815 68.007 56.8055 67.405C57.0815 67.306 57.3885 67.451 57.4875 67.731C57.5815 68.006 57.4395 68.314 57.1615 68.412C55.3225 69.057 53.4975 69.307 51.8005 69.307C51.7865 69.308 51.7715 69.308 51.7575 69.308Z" fill="#231F20"/>
<path d="M40.3516 71.616C40.0916 71.477 39.9876 71.153 40.1256 70.895C40.2636 70.631 40.5876 70.528 40.8506 70.666C40.8586 70.657 41.8076 71.156 43.3456 71.654C44.8816 72.149 47.0016 72.642 49.3676 72.642C50.9746 72.642 52.6946 72.413 54.4186 71.81C54.6946 71.712 54.9986 71.859 55.0966 72.136C55.1946 72.416 55.0456 72.72 54.7696 72.818C52.9176 73.468 51.0766 73.717 49.3676 73.717C44.3306 73.71 40.3936 71.634 40.3516 71.616Z" fill="#231F20"/>
</svg>
