<svg width="91" height="91" viewBox="0 0 91 91" fill="none" xmlns="http://www.w3.org/2000/svg">
<path d="M45.6244 1.0249C70.2974 1.0249 90.3004 21.0289 90.3004 45.7049C90.3004 70.3819 70.2984 90.3849 45.6244 90.3849C20.9464 90.3849 0.943359 70.3819 0.943359 45.7049C0.943359 21.0289 20.9464 1.0249 45.6244 1.0249Z" fill="white"/>
<path d="M64.3942 32.334H57.1892V37.533H50.4922V41.561L57.1892 43.705V71.424H64.3942V32.334Z" fill="white"/>
<path d="M57.3984 31.8401L64.6424 31.8081L73.9424 27.6841H66.5534L57.3984 31.8401Z" fill="white"/>
<path d="M46.0039 31.8401H48.8219L58.1229 27.6841H55.1569L46.0039 31.8401Z" fill="white"/>
<path d="M36.2441 31.8401H37.8141L47.1171 27.6841H45.3971L36.2441 31.8401Z" fill="white"/>
<path d="M48.6397 32.3682H45.9787V37.4632H39.4707V41.5912L45.7617 43.5532L45.8707 71.4172L48.6397 71.3632V32.3682Z" fill="white"/>
<path d="M37.4475 38.5391V32.3701H36.1435H36.1395V37.2701H29.1875V41.6121L35.9235 43.3291V44.7811L36.0285 71.4221L37.3365 71.4171L37.2225 42.3961L30.4915 40.6731V38.5391H37.4475Z" fill="white"/>
<path d="M21.816 11.876C21.996 11.949 22.189 12.037 22.357 12.093C27.358 13.796 27.4 19.409 30.016 24.253C31.556 27.109 34.154 29.024 34.269 31.895C31.054 35.246 27.845 30.565 26.082 28.012C25.962 27.817 25.859 27.639 25.807 27.531C25.715 27.344 25.49 27.264 25.305 27.36C25.119 27.452 25.04 27.674 25.133 27.862V27.857C25.297 28.19 25.69 28.802 25.943 29.192C25.9 34.372 25.592 40.858 27.839 45.276C28.422 46.438 32.535 52.794 28.904 53.342C28.869 53.345 28.811 53.321 28.769 53.314C25.765 48.331 21.246 38.022 21.237 38.006L21.113 37.854C20.858 37.691 20.707 37.147 20.717 36.547C20.717 35.793 20.906 35.043 20.903 35.043C20.951 34.84 20.832 34.637 20.629 34.589C20.432 34.539 20.227 34.664 20.179 34.86C20.175 34.875 19.972 35.673 19.968 36.547C19.977 37.187 20.061 37.918 20.593 38.389C21.002 39.321 24.639 47.537 27.468 52.559C26.486 51.782 25.322 50.62 24.793 50C23.128 48.064 19.641 43.465 18.641 41.096C18.316 40.325 18.381 39.284 18.095 38.577C17.701 37.608 16.915 36.988 16.721 36.381C16.283 35.033 16.39 33.576 16.183 32.349C15.858 30.35 15.874 26.664 14.873 24.161C14.727 23.795 15.171 21.308 13.869 19.211C16.175 16.427 18.861 13.973 21.816 11.876ZM77.293 71.625H74.149L74.016 71.49V65.939H66.191V53.098H73.988V52.244H66.191V51.474H73.988V49.761H66.191V41.933H74.016V32.267H84.529C85.93 36.406 86.725 40.823 86.725 45.431C86.726 55.373 83.183 64.503 77.293 71.625ZM57.398 31.84L66.553 27.684H73.942L64.641 31.808L57.398 31.84ZM46.004 31.84L55.156 27.684H58.122L48.822 31.84H46.004ZM37.814 31.84H36.244L45.397 27.684H47.117L37.814 31.84ZM39.471 37.463H45.98V32.368H48.64V71.363L45.871 71.417L45.762 43.553L39.471 41.591V37.463ZM50.493 41.561V37.534H57.19V32.335H64.394V71.425H57.19V43.705L50.493 41.561ZM84.207 31.395H75.394L82.809 28.026C83.324 29.124 83.789 30.247 84.207 31.395ZM29.188 41.612V37.27H36.139V32.37H36.143H37.448V38.539H30.492V40.673L37.222 42.397L37.337 71.418L36.028 71.423L35.923 44.782V43.33L29.188 41.612ZM58.867 88.877C58.961 88.85 59.055 88.826 59.149 88.797C60.276 88.44 61.377 88.026 62.462 87.584C62.97 87.379 63.474 87.168 63.974 86.945C64.534 86.695 65.082 86.424 65.63 86.149C66.734 85.603 67.811 85.015 68.863 84.384C68.946 84.335 69.026 84.285 69.11 84.235C82.216 76.266 91 61.893 91 45.432C91 20.338 70.659 0 45.565 0C43.172 0 40.838 0.24 38.546 0.599C38.173 0.653 37.801 0.702 37.433 0.766C36.56 0.925 35.7 1.117 34.845 1.326C34.347 1.445 33.852 1.57 33.361 1.707C32.572 1.929 31.792 2.161 31.022 2.422C30.487 2.602 29.961 2.803 29.435 3.002C28.711 3.277 27.986 3.55 27.28 3.861C26.7 4.116 26.142 4.404 25.576 4.681C24.754 5.086 23.937 5.495 23.143 5.948C22.223 6.47 21.314 7.011 20.435 7.594C20.035 7.86 19.655 8.153 19.263 8.434C18.709 8.827 18.144 9.201 17.608 9.618C17.62 9.626 17.635 9.635 17.648 9.642C14.979 11.726 12.528 14.077 10.385 16.7C10.358 16.69 10.336 16.679 10.308 16.67C3.869 24.508 0 34.539 0 45.477C0 70.57 20.342 90.912 45.432 90.912C48.603 90.912 51.69 90.568 54.674 89.949C54.722 89.941 54.766 89.928 54.812 89.92C56.186 89.629 57.541 89.289 58.867 88.877Z" fill="#231F20"/>
</svg>
