<svg width="91" height="91" viewBox="0 0 91 91" fill="none" xmlns="http://www.w3.org/2000/svg">
<path d="M45.519 0C20.521 0 0.104 20.222 0 45.194C0 54.646 2.894 63.422 7.834 70.686C15.986 82.802 29.821 90.768 45.519 90.768C70.579 90.768 90.902 70.443 90.902 45.381C90.902 20.322 70.578 0 45.519 0Z" fill="#231F20"/>
<path d="M73.0004 34.7269C72.6954 34.7269 72.3864 34.8639 72.0814 35.1329C71.7724 35.4039 71.6184 35.7259 71.6184 36.1129C71.6184 36.4199 71.7524 36.7269 72.0234 37.0369C72.2904 37.3439 72.6164 37.4959 73.0004 37.4959C73.3094 37.4959 73.6184 37.3569 73.9274 37.0929C74.2324 36.7829 74.3864 36.4579 74.3864 36.1139C74.3864 35.7259 74.2484 35.4049 73.9854 35.1339C73.7154 34.8629 73.3894 34.7269 73.0004 34.7269ZM76.1784 39.8239C76.4874 39.8239 76.7964 39.6849 77.1054 39.4189C77.4104 39.1109 77.5644 38.7829 77.5644 38.4409C77.5644 38.0519 77.4264 37.7289 77.1594 37.4579C76.8924 37.1889 76.5624 37.0549 76.1784 37.0549C75.8734 37.0549 75.5644 37.1899 75.2594 37.4579C74.9504 37.7289 74.7964 38.0529 74.7964 38.4409C74.7964 38.7459 74.9304 39.0549 75.2014 39.3619C75.4684 39.6719 75.7944 39.8239 76.1784 39.8239ZM69.2694 33.3669C68.9604 33.3669 68.6514 33.5019 68.3424 33.7679C68.0374 34.0379 67.8834 34.3649 67.8834 34.7489C67.8834 35.0559 68.0214 35.3639 68.2884 35.6719C68.5554 35.9799 68.8854 36.1339 69.2694 36.1339C69.5744 36.1339 69.8834 35.9979 70.1874 35.7279C70.4964 35.4209 70.6504 35.0929 70.6504 34.7489C70.6504 34.3639 70.5174 34.0369 70.2454 33.7679C69.9794 33.5019 69.6534 33.3669 69.2694 33.3669ZM61.6924 40.7439C61.3044 40.7439 60.9784 40.8989 60.7114 41.2059C60.4444 41.5129 60.3064 41.8219 60.3064 42.1289C60.3064 42.5139 60.4614 42.8409 60.7704 43.1079C61.0794 43.3769 61.3844 43.5129 61.6934 43.5129C62.0784 43.5129 62.4034 43.3759 62.6754 43.1079C62.9374 42.8399 63.0754 42.5129 63.0754 42.1289C63.0754 41.7849 62.9214 41.4569 62.6164 41.1499C62.3064 40.8809 61.9974 40.7439 61.6924 40.7439ZM61.6924 37.0549C61.3044 37.0549 60.9784 37.2089 60.7114 37.5169C60.4444 37.8249 60.3064 38.1349 60.3064 38.4419C60.3064 38.8269 60.4614 39.1549 60.7704 39.4199C61.0794 39.6909 61.3844 39.8249 61.6934 39.8249C62.0784 39.8249 62.4034 39.6909 62.6754 39.4199C62.9374 39.1549 63.0754 38.8269 63.0754 38.4419C63.0754 38.0949 62.9214 37.7679 62.6164 37.4589C62.3064 37.1929 61.9974 37.0549 61.6924 37.0549ZM61.6924 48.1229C61.3044 48.1229 60.9784 48.2759 60.7114 48.5879C60.4444 48.8949 60.3064 49.2029 60.3064 49.5079C60.3064 49.8929 60.4614 50.2209 60.7704 50.4869C61.0794 50.7569 61.3844 50.8929 61.6934 50.8929C62.0784 50.8929 62.4034 50.7559 62.6754 50.4869C62.9374 50.2209 63.0754 49.8929 63.0754 49.5079C63.0754 49.1619 62.9214 48.8359 62.6164 48.5289C62.3064 48.2599 61.9974 48.1229 61.6924 48.1229ZM61.6924 51.8129C61.3044 51.8129 60.9784 51.9649 60.7114 52.2749C60.4444 52.5829 60.3064 52.8909 60.3064 53.1959C60.3064 53.5849 60.4614 53.9079 60.7704 54.1789C61.0794 54.4489 61.3844 54.5819 61.6934 54.5819C62.0784 54.5819 62.4034 54.4479 62.6754 54.1789C62.9374 53.9079 63.0754 53.5839 63.0754 53.1959C63.0754 52.8539 62.9214 52.5259 62.6164 52.2179C62.3064 51.9509 61.9974 51.8129 61.6924 51.8129ZM61.6924 33.3669C61.3044 33.3669 60.9784 33.5189 60.7114 33.8289C60.4444 34.1369 60.3064 34.4449 60.3064 34.7499C60.3064 35.1349 60.4614 35.4629 60.7704 35.7289C61.0794 35.9999 61.3844 36.1349 61.6934 36.1349C62.0784 36.1349 62.4034 35.9999 62.6754 35.7289C62.9374 35.4629 63.0754 35.1349 63.0754 34.7499C63.0754 34.4029 62.9214 34.0799 62.6164 33.7689C62.3064 33.5019 61.9974 33.3669 61.6924 33.3669ZM61.6924 44.4369C61.3044 44.4369 60.9784 44.5889 60.7114 44.8989C60.4444 45.2059 60.3064 45.5119 60.3064 45.8189C60.3064 46.2039 60.4614 46.5319 60.7704 46.7969C61.0794 47.0679 61.3844 47.2019 61.6934 47.2019C62.0784 47.2019 62.4034 47.0669 62.6754 46.7969C62.9374 46.5319 63.0754 46.2039 63.0754 45.8189C63.0754 45.4729 62.9214 45.1489 62.6164 44.8419C62.3064 44.5699 61.9974 44.4369 61.6924 44.4369ZM69.2694 55.5019C68.8854 55.5019 68.5554 55.6559 68.2884 55.9639C68.0214 56.2719 67.8834 56.5799 67.8834 56.8869C67.8834 57.2719 68.0374 57.5989 68.3424 57.8679C68.6514 58.1359 68.9604 58.2689 69.2694 58.2689C69.6534 58.2689 69.9794 58.1349 70.2464 57.8679C70.5174 57.5979 70.6514 57.2709 70.6514 56.8869C70.6514 56.5419 70.4974 56.2149 70.1884 55.9079C69.8834 55.6389 69.5744 55.5019 69.2694 55.5019ZM77.3144 48.1229C76.9304 48.1229 76.6004 48.2759 76.3374 48.5879C76.0664 48.8949 75.9324 49.2029 75.9324 49.5079C75.9324 49.8929 76.0864 50.2209 76.3914 50.4869C76.7004 50.7569 77.0054 50.8929 77.3144 50.8929C77.6984 50.8929 78.0244 50.7559 78.2954 50.4869C78.5624 50.2209 78.7004 49.8929 78.7004 49.5079C78.7004 49.1619 78.5424 48.8359 78.2374 48.5289C77.9324 48.2599 77.6234 48.1229 77.3144 48.1229ZM65.3794 55.5019C64.9954 55.5019 64.6694 55.6559 64.3984 55.9639C64.1314 56.2719 63.9974 56.5799 63.9974 56.8869C63.9974 57.2719 64.1474 57.5989 64.4564 57.8679C64.7654 58.1359 65.0744 58.2689 65.3794 58.2689C65.7634 58.2689 66.0894 58.1349 66.3614 57.8679C66.6284 57.5979 66.7664 57.2709 66.7664 56.8869C66.7664 56.5419 66.6114 56.2149 66.3024 55.9079C65.9934 55.6389 65.6884 55.5019 65.3794 55.5019ZM77.4814 44.4369C77.0974 44.4369 76.7674 44.5889 76.5034 44.8989C76.2324 45.2059 76.0984 45.5119 76.0984 45.8189C76.0984 46.2039 76.2524 46.5319 76.5574 46.7969C76.8664 47.0679 77.1714 47.2019 77.4804 47.2019C77.8644 47.2019 78.1904 47.0669 78.4614 46.7969C78.7284 46.5319 78.8664 46.2039 78.8664 45.8189C78.8664 45.4729 78.7084 45.1489 78.4034 44.8419C78.0994 44.5699 77.7904 44.4369 77.4814 44.4369ZM76.1784 51.8129C75.7944 51.8129 75.4684 51.9649 75.2014 52.2749C74.9304 52.5829 74.7964 52.8909 74.7964 53.1959C74.7964 53.5849 74.9504 53.9079 75.2594 54.1789C75.5644 54.4489 75.8734 54.5819 76.1784 54.5819C76.5624 54.5819 76.8924 54.4479 77.1594 54.1789C77.4264 53.9079 77.5644 53.5839 77.5644 53.1959C77.5644 52.8539 77.4104 52.5259 77.1054 52.2179C76.7964 51.9509 76.4874 51.8129 76.1784 51.8129ZM65.3794 33.3669C64.9954 33.3669 64.6694 33.5189 64.3984 33.8289C64.1314 34.1369 63.9974 34.4449 63.9974 34.7499C63.9974 35.1349 64.1474 35.4629 64.4564 35.7289C64.7654 35.9999 65.0744 36.1349 65.3794 36.1349C65.7634 36.1349 66.0894 35.9999 66.3614 35.7289C66.6284 35.4629 66.7664 35.1349 66.7664 34.7499C66.7664 34.4029 66.6114 34.0799 66.3024 33.7689C65.9934 33.5019 65.6884 33.3669 65.3794 33.3669ZM61.6924 55.5019C61.3044 55.5019 60.9784 55.6559 60.7114 55.9639C60.4444 56.2719 60.3064 56.5799 60.3064 56.8869C60.3064 57.2719 60.4614 57.5989 60.7704 57.8679C61.0794 58.1359 61.3844 58.2689 61.6934 58.2689C62.0784 58.2689 62.4034 58.1349 62.6754 57.8679C62.9374 57.5979 63.0754 57.2709 63.0754 56.8869C63.0754 56.5419 62.9214 56.2149 62.6164 55.9079C62.3064 55.6389 61.9974 55.5019 61.6924 55.5019ZM73.0004 54.1419C72.6164 54.1419 72.2904 54.2929 72.0234 54.6009C71.7524 54.9109 71.6184 55.2169 71.6184 55.5239C71.6184 55.9129 71.7724 56.2339 72.0814 56.5039C72.3864 56.7749 72.6954 56.9099 73.0004 56.9099C73.3894 56.9099 73.7144 56.7739 73.9854 56.5039C74.2484 56.2329 74.3864 55.9119 74.3864 55.5239C74.3864 55.1789 74.2314 54.8539 73.9274 54.5449C73.6184 54.2789 73.3104 54.1419 73.0004 54.1419ZM76.3374 41.2059C76.0664 41.5129 75.9324 41.8219 75.9324 42.1289C75.9324 42.5139 76.0864 42.8409 76.3914 43.1079C76.7004 43.3769 77.0054 43.5129 77.3144 43.5129C77.6984 43.5129 78.0244 43.3759 78.2954 43.1079C78.5624 42.8399 78.7004 42.5129 78.7004 42.1289C78.7004 41.7849 78.5424 41.4569 78.2374 41.1499C77.9324 40.8799 77.6234 40.7439 77.3144 40.7439C76.9304 40.7439 76.6004 40.8989 76.3374 41.2059ZM52.9514 55.5019C52.5674 55.5019 52.2424 55.6559 51.9744 55.9639C51.7034 56.2719 51.5694 56.5799 51.5694 56.8869C51.5694 57.2719 51.7244 57.5989 52.0284 57.8679C52.3374 58.1359 52.6424 58.2689 52.9514 58.2689C53.3364 58.2689 53.6614 58.1349 53.9334 57.8679C54.2004 57.5979 54.3384 57.2709 54.3384 56.8869C54.3384 56.5419 54.1794 56.2149 53.8744 55.9079C53.5704 55.6389 53.2604 55.5019 52.9514 55.5019ZM49.2644 55.5019C48.8794 55.5019 48.5504 55.6559 48.2824 55.9639C48.0154 56.2719 47.8824 56.5799 47.8824 56.8869C47.8824 57.2719 48.0324 57.5989 48.3414 57.8679C48.6464 58.1359 48.9554 58.2689 49.2644 58.2689C49.6484 58.2689 49.9744 58.1349 50.2414 57.8679C50.5134 57.5979 50.6474 57.2709 50.6474 56.8869C50.6474 56.5419 50.4924 56.2149 50.1834 55.9079C49.8744 55.6389 49.5734 55.5019 49.2644 55.5019ZM49.2644 44.4369C48.8794 44.4369 48.5504 44.5889 48.2824 44.8989C48.0154 45.2059 47.8824 45.5119 47.8824 45.8189C47.8824 46.2039 48.0324 46.5319 48.3414 46.7969C48.6464 47.0679 48.9554 47.2019 49.2644 47.2019C49.6484 47.2019 49.9744 47.0669 50.2414 46.7969C50.5134 46.5319 50.6474 46.2039 50.6474 45.8189C50.6474 45.4729 50.4924 45.1489 50.1834 44.8419C49.8744 44.5699 49.5734 44.4369 49.2644 44.4369ZM49.2644 33.3669C48.8794 33.3669 48.5504 33.5189 48.2824 33.8289C48.0154 34.1369 47.8824 34.4449 47.8824 34.7499C47.8824 35.1349 48.0324 35.4629 48.3414 35.7289C48.6464 35.9999 48.9554 36.1349 49.2644 36.1349C49.6484 36.1349 49.9744 35.9999 50.2414 35.7289C50.5134 35.4629 50.6474 35.1349 50.6474 34.7499C50.6474 34.4029 50.4924 34.0799 50.1834 33.7689C49.8744 33.5019 49.5734 33.3669 49.2644 33.3669ZM38.1944 55.5019C37.8094 55.5019 37.4844 55.6559 37.2174 55.9639C36.9454 56.2719 36.8124 56.5799 36.8124 56.8869C36.8124 57.2719 36.9624 57.5989 37.2714 57.8679C37.5804 58.1359 37.8854 58.2689 38.1944 58.2689C38.5784 58.2689 38.9034 58.1349 39.1754 57.8679C39.4424 57.5979 39.5804 57.2709 39.5804 56.8869C39.5804 56.5419 39.4214 56.2149 39.1174 55.9079C38.8074 55.6389 38.5034 55.5019 38.1944 55.5019ZM38.1944 48.1229C37.8094 48.1229 37.4844 48.2759 37.2174 48.5879C36.9454 48.8949 36.8124 49.2029 36.8124 49.5079C36.8124 49.8929 36.9624 50.2209 37.2714 50.4869C37.5804 50.7569 37.8854 50.8929 38.1944 50.8929C38.5784 50.8929 38.9034 50.7559 39.1754 50.4869C39.4424 50.2209 39.5804 49.8929 39.5804 49.5079C39.5804 49.1619 39.4214 48.8359 39.1174 48.5289C38.8074 48.2599 38.5034 48.1229 38.1944 48.1229ZM38.1944 44.4369C37.8094 44.4369 37.4844 44.5889 37.2174 44.8989C36.9454 45.2059 36.8124 45.5119 36.8124 45.8189C36.8124 46.2039 36.9624 46.5319 37.2714 46.7969C37.5804 47.0679 37.8854 47.2019 38.1944 47.2019C38.5784 47.2019 38.9034 47.0669 39.1754 46.7969C39.4424 46.5319 39.5804 46.2039 39.5804 45.8189C39.5804 45.4729 39.4214 45.1489 39.1174 44.8419C38.8074 44.5699 38.5034 44.4369 38.1944 44.4369ZM52.9514 33.3669C52.5674 33.3669 52.2424 33.5189 51.9744 33.8289C51.7034 34.1369 51.5694 34.4449 51.5694 34.7499C51.5694 35.1349 51.7244 35.4629 52.0284 35.7289C52.3374 35.9999 52.6424 36.1349 52.9514 36.1349C53.3364 36.1349 53.6614 35.9999 53.9334 35.7289C54.2004 35.4629 54.3384 35.1349 54.3384 34.7499C54.3384 34.4029 54.1794 34.0799 53.8744 33.7689C53.5704 33.5019 53.2604 33.3669 52.9514 33.3669ZM38.1944 51.8129C37.8094 51.8129 37.4844 51.9649 37.2174 52.2749C36.9454 52.5829 36.8124 52.8909 36.8124 53.1959C36.8124 53.5849 36.9624 53.9079 37.2714 54.1789C37.5804 54.4489 37.8854 54.5819 38.1944 54.5819C38.5784 54.5819 38.9034 54.4479 39.1754 54.1789C39.4424 53.9079 39.5804 53.5839 39.5804 53.1959C39.5804 52.8539 39.4214 52.5259 39.1174 52.2179C38.8074 51.9509 38.5034 51.8129 38.1944 51.8129ZM38.1944 33.3669C37.8094 33.3669 37.4844 33.5189 37.2174 33.8289C36.9454 34.1369 36.8124 34.4449 36.8124 34.7499C36.8124 35.1349 36.9624 35.4629 37.2714 35.7289C37.5804 35.9999 37.8854 36.1349 38.1944 36.1349C38.5784 36.1349 38.9034 35.9999 39.1754 35.7289C39.4424 35.4629 39.5804 35.1349 39.5804 34.7499C39.5804 34.4029 39.4214 34.0799 39.1174 33.7689C38.8074 33.5019 38.5034 33.3669 38.1944 33.3669ZM45.5734 33.3669C45.1894 33.3669 44.8634 33.5189 44.5924 33.8289C44.3254 34.1369 44.1914 34.4449 44.1914 34.7499C44.1914 35.1349 44.3414 35.4629 44.6504 35.7289C44.9594 35.9999 45.2684 36.1349 45.5734 36.1349C45.9584 36.1349 46.2834 35.9999 46.5544 35.7289C46.8224 35.4629 46.9554 35.1349 46.9554 34.7499C46.9554 34.4029 46.8054 34.0799 46.4964 33.7689C46.1864 33.5019 45.8814 33.3669 45.5734 33.3669ZM41.8854 55.5019C41.4964 55.5019 41.1754 55.6559 40.9044 55.9639C40.6324 56.2719 40.4994 56.5799 40.4994 56.8869C40.4994 57.2719 40.6544 57.5989 40.9634 57.8679C41.2684 58.1359 41.5774 58.2689 41.8864 58.2689C42.2664 58.2689 42.5964 58.1349 42.8634 57.8679C43.1304 57.5979 43.2684 57.2709 43.2684 56.8869C43.2684 56.5419 43.1134 56.2149 42.8094 55.9079C42.4994 55.6389 42.1904 55.5019 41.8854 55.5019ZM38.1944 40.7439C37.8094 40.7439 37.4844 40.8989 37.2174 41.2059C36.9454 41.5129 36.8124 41.8219 36.8124 42.1289C36.8124 42.5139 36.9624 42.8409 37.2714 43.1079C37.5804 43.3769 37.8854 43.5129 38.1944 43.5129C38.5784 43.5129 38.9034 43.3759 39.1754 43.1079C39.4424 42.8399 39.5804 42.5129 39.5804 42.1289C39.5804 41.7849 39.4214 41.4569 39.1174 41.1499C38.8074 40.8809 38.5034 40.7439 38.1944 40.7439ZM38.1944 37.0549C37.8094 37.0549 37.4844 37.2089 37.2174 37.5169C36.9454 37.8249 36.8124 38.1349 36.8124 38.4419C36.8124 38.8269 36.9624 39.1549 37.2714 39.4199C37.5804 39.6909 37.8854 39.8249 38.1944 39.8249C38.5784 39.8249 38.9034 39.6909 39.1754 39.4199C39.4424 39.1549 39.5804 38.8269 39.5804 38.4419C39.5804 38.0949 39.4214 37.7679 39.1174 37.4589C38.8074 37.1929 38.5034 37.0549 38.1944 37.0549ZM45.5734 44.4369C45.1894 44.4369 44.8634 44.5889 44.5924 44.8989C44.3254 45.2059 44.1914 45.5119 44.1914 45.8189C44.1914 46.2039 44.3414 46.5319 44.6504 46.7969C44.9594 47.0679 45.2684 47.2019 45.5734 47.2019C45.9584 47.2019 46.2834 47.0669 46.5544 46.7969C46.8224 46.5319 46.9554 46.2039 46.9554 45.8189C46.9554 45.4729 46.8054 45.1489 46.4964 44.8419C46.1864 44.5699 45.8814 44.4369 45.5734 44.4369ZM41.8854 44.4369C41.4964 44.4369 41.1754 44.5889 40.9044 44.8989C40.6324 45.2059 40.4994 45.5119 40.4994 45.8189C40.4994 46.2039 40.6544 46.5319 40.9634 46.7969C41.2684 47.0679 41.5774 47.2019 41.8864 47.2019C42.2664 47.2019 42.5964 47.0669 42.8634 46.7969C43.1304 46.5319 43.2684 46.2039 43.2684 45.8189C43.2684 45.4729 43.1134 45.1489 42.8094 44.8419C42.4994 44.5699 42.1904 44.4369 41.8854 44.4369ZM45.5734 55.5019C45.1894 55.5019 44.8634 55.6559 44.5924 55.9639C44.3254 56.2719 44.1914 56.5799 44.1914 56.8869C44.1914 57.2719 44.3414 57.5989 44.6504 57.8679C44.9594 58.1359 45.2684 58.2689 45.5734 58.2689C45.9584 58.2689 46.2834 58.1349 46.5544 57.8679C46.8224 57.5979 46.9554 57.2709 46.9554 56.8869C46.9554 56.5419 46.8054 56.2149 46.4964 55.9079C46.1864 55.6389 45.8814 55.5019 45.5734 55.5019ZM41.8854 33.3669C41.4964 33.3669 41.1754 33.5189 40.9044 33.8289C40.6324 34.1369 40.4994 34.4449 40.4994 34.7499C40.4994 35.1349 40.6544 35.4629 40.9634 35.7289C41.2684 35.9999 41.5774 36.1349 41.8864 36.1349C42.2664 36.1349 42.5964 35.9999 42.8634 35.7289C43.1304 35.4629 43.2684 35.1349 43.2684 34.7499C43.2684 34.4029 43.1134 34.0799 42.8094 33.7689C42.4994 33.5019 42.1904 33.3669 41.8854 33.3669ZM14.6994 48.1229C14.3154 48.1229 13.9854 48.2759 13.7184 48.5879C13.4514 48.8949 13.3184 49.2029 13.3184 49.5079C13.3184 49.8929 13.4684 50.2209 13.7774 50.4869C14.0864 50.7569 14.3914 50.8929 14.7004 50.8929C15.0854 50.8929 15.4104 50.7559 15.6814 50.4869C15.9494 50.2209 16.0824 49.8929 16.0824 49.5079C16.0824 49.1619 15.9274 48.8359 15.6224 48.5289C15.3134 48.2599 15.0094 48.1229 14.6994 48.1229ZM14.6994 51.8129C14.3154 51.8129 13.9854 51.9649 13.7184 52.2749C13.4514 52.5829 13.3184 52.8909 13.3184 53.1959C13.3184 53.5849 13.4684 53.9079 13.7774 54.1789C14.0864 54.4489 14.3914 54.5819 14.7004 54.5819C15.0854 54.5819 15.4104 54.4479 15.6814 54.1789C15.9494 53.9079 16.0824 53.5839 16.0824 53.1959C16.0824 52.8539 15.9274 52.5259 15.6224 52.2179C15.3134 51.9509 15.0094 51.8129 14.6994 51.8129ZM14.6994 44.4369C14.3154 44.4369 13.9854 44.5889 13.7184 44.8989C13.4514 45.2059 13.3184 45.5119 13.3184 45.8189C13.3184 46.2039 13.4684 46.5319 13.7774 46.7969C14.0864 47.0679 14.3914 47.2019 14.7004 47.2019C15.0854 47.2019 15.4104 47.0669 15.6814 46.7969C15.9494 46.5319 16.0824 46.2039 16.0824 45.8189C16.0824 45.4729 15.9274 45.1489 15.6224 44.8419C15.3134 44.5699 15.0094 44.4369 14.6994 44.4369ZM14.6994 55.5019C14.3154 55.5019 13.9854 55.6559 13.7184 55.9639C13.4514 56.2719 13.3184 56.5799 13.3184 56.8869C13.3184 57.2719 13.4684 57.5989 13.7774 57.8679C14.0864 58.1359 14.3914 58.2689 14.7004 58.2689C15.0854 58.2689 15.4104 58.1349 15.6814 57.8679C15.9494 57.5979 16.0824 57.2709 16.0824 56.8869C16.0824 56.5419 15.9274 56.2149 15.6224 55.9079C15.3134 55.6389 15.0094 55.5019 14.6994 55.5019ZM18.3914 55.5019C18.0034 55.5019 17.6774 55.6559 17.4104 55.9639C17.1394 56.2719 17.0054 56.5799 17.0054 56.8869C17.0054 57.2719 17.1554 57.5989 17.4644 57.8679C17.7744 58.1359 18.0824 58.2689 18.3914 58.2689C18.7714 58.2689 19.0974 58.1349 19.3684 57.8679C19.6364 57.5979 19.7734 57.2709 19.7734 56.8869C19.7734 56.5419 19.6194 56.2149 19.3094 55.9079C19.0014 55.6389 18.6964 55.5019 18.3914 55.5019ZM14.6994 40.7439C14.3154 40.7439 13.9854 40.8989 13.7184 41.2059C13.4514 41.5129 13.3184 41.8219 13.3184 42.1289C13.3184 42.5139 13.4684 42.8409 13.7774 43.1079C14.0864 43.3769 14.3914 43.5129 14.7004 43.5129C15.0854 43.5129 15.4104 43.3759 15.6814 43.1079C15.9494 42.8399 16.0824 42.5129 16.0824 42.1289C16.0824 41.7849 15.9274 41.4569 15.6224 41.1499C15.3134 40.8809 15.0094 40.7439 14.6994 40.7439ZM22.0784 55.5019C21.6944 55.5019 21.3684 55.6559 21.0974 55.9639C20.8304 56.2719 20.6924 56.5799 20.6924 56.8869C20.6924 57.2719 20.8464 57.5989 21.1554 57.8679C21.4604 58.1359 21.7694 58.2689 22.0784 58.2689C22.4634 58.2689 22.7884 58.1349 23.0564 57.8679C23.3274 57.5979 23.4614 57.2709 23.4614 56.8869C23.4614 56.5419 23.3064 56.2149 23.0014 55.9079C22.6924 55.6389 22.3834 55.5019 22.0784 55.5019ZM29.4584 55.5019C29.0744 55.5019 28.7444 55.6559 28.4774 55.9639C28.2104 56.2719 28.0764 56.5799 28.0764 56.8869C28.0764 57.2719 28.2264 57.5989 28.5354 57.8679C28.8444 58.1359 29.1494 58.2689 29.4584 58.2689C29.8424 58.2689 30.1674 58.1349 30.4394 57.8679C30.7064 57.5979 30.8394 57.2709 30.8394 56.8869C30.8394 56.5419 30.6854 56.2149 30.3804 55.9079C30.0714 55.6389 29.7624 55.5019 29.4584 55.5019ZM25.7664 55.5019C25.3824 55.5019 25.0564 55.6559 24.7894 55.9639C24.5174 56.2719 24.3844 56.5799 24.3844 56.8869C24.3844 57.2719 24.5384 57.5989 24.8434 57.8679C25.1524 58.1359 25.4574 58.2689 25.7664 58.2689C26.1504 58.2689 26.4804 58.1349 26.7474 57.8679C27.0144 57.5979 27.1484 57.2709 27.1484 56.8869C27.1484 56.5419 26.9984 56.2149 26.6894 55.9079C26.3804 55.6389 26.0754 55.5019 25.7664 55.5019ZM14.6994 37.0549C14.3154 37.0549 13.9854 37.2089 13.7184 37.5169C13.4514 37.8249 13.3184 38.1349 13.3184 38.4419C13.3184 38.8269 13.4684 39.1549 13.7774 39.4199C14.0864 39.6909 14.3914 39.8249 14.7004 39.8249C15.0854 39.8249 15.4104 39.6909 15.6814 39.4199C15.9494 39.1549 16.0824 38.8269 16.0824 38.4419C16.0824 38.0949 15.9274 37.7679 15.6224 37.4589C15.3134 37.1929 15.0094 37.0549 14.6994 37.0549ZM14.6994 33.3669C14.3154 33.3669 13.9854 33.5189 13.7184 33.8289C13.4514 34.1369 13.3184 34.4449 13.3184 34.7499C13.3184 35.1349 13.4684 35.4629 13.7774 35.7289C14.0864 35.9999 14.3914 36.1349 14.7004 36.1349C15.0854 36.1349 15.4104 35.9999 15.6814 35.7289C15.9494 35.4629 16.0824 35.1349 16.0824 34.7499C16.0824 34.4029 15.9274 34.0799 15.6224 33.7689C15.3134 33.5019 15.0094 33.3669 14.6994 33.3669Z" fill="white"/>
</svg>
