<svg width="91" height="91" viewBox="0 0 91 91" fill="none" xmlns="http://www.w3.org/2000/svg">
<path d="M45.9853 1.17285C70.6083 1.17285 90.5693 21.1329 90.5693 45.7539C90.5693 70.3809 70.6073 90.3349 45.9853 90.3349C21.3633 90.3349 1.40234 70.3809 1.40234 45.7539C1.40134 21.1329 21.3633 1.17285 45.9853 1.17285Z" fill="white"/>
<path d="M65.9697 41.8458C64.1947 41.9198 62.6987 40.5368 62.6277 38.7678C62.6807 37.7188 61.4347 35.7408 59.7417 34.2328C58.8847 33.4388 57.9857 32.7658 57.3227 32.2988C56.6517 31.8328 56.2807 31.6188 56.2757 31.6178L56.2807 31.6188C54.7457 30.7248 54.2257 28.7628 55.1177 27.2278C56.0077 25.6908 57.9727 25.1788 59.5047 26.0678C59.6247 26.1428 61.8037 27.4038 64.1007 29.5228C66.2367 31.5638 68.7907 34.3798 69.0477 38.5048C69.0827 39.3938 68.7527 40.2138 68.1927 40.8178C67.6377 41.4218 66.8527 41.8118 65.9697 41.8458Z" fill="#231F20"/>
<path d="M65.8284 40.7752C65.8664 40.7702 65.9094 40.7702 65.9524 40.7722C66.5334 40.7452 67.0374 40.4902 67.4004 40.0972C67.7634 39.6942 67.9774 39.1842 67.9774 38.6292C67.9774 38.5852 67.9774 38.5552 67.9774 38.5672C67.7554 34.8812 65.4604 32.3012 63.3724 30.3072C61.1494 28.2622 59.0844 27.0662 58.9604 26.9872C58.6194 26.7862 58.2604 26.6982 57.8884 26.6942C57.1484 26.6982 56.4404 27.0752 56.0364 27.7702C55.8414 28.1022 55.7484 28.4612 55.7484 28.8342C55.7484 29.5742 56.1294 30.2902 56.8154 30.6892C56.8374 30.7022 56.8574 30.7142 56.8794 30.7282C57.0604 30.8332 57.3734 31.0302 57.9364 31.4192C58.6234 31.9032 59.5574 32.6022 60.4484 33.4272C62.2344 35.0932 63.6024 36.9352 63.6964 38.6982C63.6964 38.7042 63.6964 38.7142 63.6964 38.7212C63.7374 39.8612 64.6894 40.7752 65.8284 40.7752ZM65.9704 41.8432V42.9112C65.9214 42.9112 65.8764 42.9112 65.8284 42.9112C63.5374 42.9112 61.6504 41.1032 61.5574 38.7192V38.7012C61.6504 38.3292 60.5564 36.3082 59.0104 35.0142C58.2074 34.2702 57.3444 33.6192 56.7114 33.1772C56.2284 32.8402 55.9134 32.6442 55.7934 32.5742L55.7984 32.5672C55.7784 32.5592 55.7604 32.5482 55.7424 32.5392L55.7404 32.5422C54.3764 31.7442 53.6094 30.3082 53.6094 28.8352C53.6094 28.1062 53.7954 27.3552 54.1904 26.6902C54.9824 25.3212 56.4184 24.5542 57.8884 24.5582C58.6144 24.5542 59.3684 24.7402 60.0724 25.1612C60.1574 25.2142 62.4524 26.5402 64.8404 28.7452C67.0104 30.8222 69.8244 33.8722 70.1164 38.4752C70.1164 38.5382 70.1164 38.5842 70.1164 38.6282C70.1164 39.7442 69.6824 40.7692 68.9784 41.5402C68.2424 42.3452 67.1844 42.8692 66.0094 42.9092L65.9704 41.8432Z" fill="white"/>
<path d="M50.8679 79.027C49.0939 79.101 47.5969 77.718 47.5259 75.951C47.5779 74.901 46.3329 72.922 44.6399 71.415C43.7829 70.621 42.8849 69.947 42.2219 69.481C41.5509 69.015 41.1789 68.801 41.1749 68.799L41.1779 68.801C39.6439 67.907 39.1239 65.945 40.0169 64.409C40.9069 62.874 42.8719 62.361 44.4039 63.249C44.5229 63.325 46.7029 64.585 48.9999 66.705C51.1359 68.747 53.6899 71.561 53.9479 75.686C53.9829 76.576 53.6519 77.395 53.0929 77.999C52.5369 78.604 51.7509 78.994 50.8679 79.027Z" fill="#231F20"/>
<path d="M50.7298 77.9571C50.7678 77.9531 50.8108 77.9531 50.8518 77.9551C51.4318 77.9261 51.9368 77.6711 52.2998 77.2771C52.6648 76.8771 52.8778 76.3661 52.8778 75.8121C52.8778 75.7661 52.8778 75.7371 52.8778 75.7491C52.6548 72.0631 50.3598 69.4841 48.2728 67.4911C46.0478 65.4441 43.9848 64.2451 43.8608 64.1691C43.5178 63.9721 43.1598 63.8801 42.7898 63.8771C42.0488 63.8801 41.3388 64.2551 40.9398 64.9501C40.7388 65.2861 40.6508 65.6451 40.6508 66.0161C40.6508 66.7541 41.0278 67.4731 41.7158 67.8721C41.7348 67.8831 41.7528 67.8941 41.7718 67.9061C41.9488 68.0101 42.2608 68.2071 42.8348 68.6031C43.5228 69.0831 44.4598 69.7851 45.3528 70.6101C47.1378 72.2761 48.5048 74.1171 48.5988 75.8811C48.5988 75.8911 48.5988 75.9011 48.5988 75.9061C48.6388 77.0411 49.5928 77.9571 50.7298 77.9571ZM50.8718 79.0251V80.0951C50.8228 80.0951 50.7738 80.0951 50.7298 80.0951C48.4388 80.0911 46.5508 78.2841 46.4588 75.9001V75.8821C46.5518 75.5131 45.4558 73.4891 43.9108 72.1981C43.1068 71.4511 42.2448 70.8031 41.6108 70.3581C41.1258 70.0211 40.8108 69.8251 40.6958 69.7541C40.6768 69.7451 40.6578 69.7341 40.6388 69.7221V69.7251C39.2758 68.9231 38.5078 67.4911 38.5118 66.0161C38.5078 65.2891 38.6938 64.5381 39.0888 63.8711C39.8818 62.5001 41.3178 61.7351 42.7908 61.7411C43.5138 61.7351 44.2648 61.9241 44.9758 62.3441C45.0598 62.3991 47.3548 63.7211 49.7388 65.9281C51.9108 68.0061 54.7248 71.0551 55.0178 75.6581C55.0178 75.7171 55.0178 75.7711 55.0178 75.8101C55.0178 76.9281 54.5838 77.9491 53.8818 78.7221C53.1398 79.5251 52.0828 80.0481 50.9078 80.0931L50.8718 79.0251Z" fill="white"/>
<path d="M23.2071 56.1838C22.4801 54.5648 23.2121 52.6598 24.8251 51.9378C25.8201 51.5978 27.1951 49.7088 27.9691 47.5768C28.3871 46.4858 28.6791 45.4028 28.8671 44.6138C29.0511 43.8188 29.1091 43.3918 29.1091 43.3878V43.3918C29.3741 41.6368 31.0041 40.4238 32.7591 40.6828C34.5141 40.9428 35.7181 42.5768 35.4641 44.3288C35.4391 44.4698 35.0751 46.9618 33.9591 49.8798C32.8551 52.6198 31.1871 56.0358 27.4501 57.8038C26.6391 58.1708 25.7571 58.1658 24.9881 57.8688C24.2191 57.5778 23.5671 56.9918 23.2071 56.1838Z" fill="#231F20"/>
<path d="M25.3607 56.8648C25.6137 56.9568 25.8837 57.0108 26.1457 57.0108C26.4377 57.0108 26.7307 56.9518 26.9917 56.8328C30.3317 55.2588 31.8787 52.1718 32.9557 49.4938C34.0327 46.6768 34.3797 44.3038 34.4017 44.1888C34.4147 44.0608 34.4237 43.9548 34.4237 43.8558C34.4237 42.8088 33.6647 41.8908 32.5527 41.7288C32.4867 41.7178 32.3977 41.7088 32.2817 41.7088C31.2437 41.7088 30.3257 42.4768 30.1667 43.5468C30.1637 43.5648 30.1597 43.5858 30.1557 43.6078C30.1247 43.8618 30.0597 44.1488 29.9047 44.8598C29.7097 45.6738 29.4087 46.8008 28.9737 47.9358C28.0567 50.2598 26.8497 52.2498 25.2527 52.9148C24.4637 53.2578 23.9927 54.0408 23.9887 54.8668C23.9887 55.1548 24.0507 55.4518 24.1787 55.7408L23.2037 56.1788L24.1837 55.7428C24.4257 56.2878 24.8517 56.6678 25.3607 56.8648ZM26.1457 59.1468C25.6047 59.1468 25.0897 59.0438 24.6067 58.8668C23.5837 58.4818 22.7057 57.6948 22.2317 56.6178L22.2297 56.6198C21.9777 56.0558 21.8487 55.4588 21.8537 54.8688C21.8487 53.2278 22.7987 51.6618 24.4797 50.9218C24.7847 50.9398 26.3327 49.1488 26.9657 47.1918C27.3617 46.1638 27.6447 45.1238 27.8217 44.3688C27.9897 43.6598 28.0477 43.2568 28.0477 43.2508H28.0487C28.0527 43.2218 28.0577 43.1918 28.0647 43.1608C28.4137 41.0708 30.2097 39.5708 32.2827 39.5708C32.4777 39.5708 32.7047 39.5798 32.9127 39.6238C35.0457 39.9348 36.5667 41.7668 36.5667 43.8578C36.5667 44.0628 36.5487 44.2658 36.5187 44.5138C36.4957 44.6288 36.1137 47.2428 34.9487 50.2798C33.8257 53.0628 32.0387 56.8068 27.8897 58.7798C27.3307 59.0288 26.7437 59.1478 26.1777 59.1478C26.1667 59.1468 26.1567 59.1468 26.1457 59.1468Z" fill="white"/>
<path d="M62.0125 52.6089C62.3625 51.2669 63.7355 50.4659 65.0705 50.8179C65.8425 51.0929 67.6025 50.6169 69.1155 49.6979C69.9055 49.2399 70.6115 48.7239 71.1095 48.3349C71.6115 47.9419 71.8535 47.7129 71.8575 47.7079L71.8535 47.7129C72.8745 46.7719 74.4585 46.8299 75.3985 47.8479C76.3395 48.8649 76.2765 50.4459 75.2605 51.3869C75.1775 51.4569 73.7435 52.7969 71.6315 54.0269C69.6215 55.1559 66.9375 56.4189 63.8025 55.6679C63.1285 55.4929 62.5945 55.0609 62.2705 54.5009C61.9475 53.9489 61.8375 53.2739 62.0125 52.6089Z" fill="#231F20"/>
<path d="M63.0434 52.9018C63.0124 52.9998 62.9984 53.1148 62.9984 53.2448C62.9984 53.4958 63.0654 53.7398 63.1944 53.9608C63.3844 54.2848 63.6814 54.5258 64.0444 54.6228C64.6174 54.7568 65.1754 54.8118 65.7124 54.8178C67.7244 54.8178 69.5654 53.9608 71.0894 53.0988C73.1164 51.9168 74.4414 50.6748 74.5264 50.6048C74.8364 50.3068 74.9924 49.9268 74.9924 49.5408C74.9924 49.1918 74.8674 48.8498 74.6104 48.5708C74.3174 48.2558 73.9454 48.1088 73.5564 48.1048C73.2244 48.1088 72.8934 48.2238 72.6164 48.4608L72.6154 48.4638L72.6104 48.4678C72.5354 48.5388 72.2984 48.7568 71.7684 49.1768C71.2444 49.5858 70.4994 50.1248 69.6664 50.6108C68.2864 51.4248 66.8374 51.9448 65.6094 51.9628C65.3204 51.9628 65.0284 51.9368 64.7664 51.8418C64.6694 51.8178 64.5634 51.8028 64.4294 51.7988C63.8004 51.8028 63.2104 52.2298 63.0474 52.8748L62.0144 52.6088L63.0434 52.9018ZM63.5304 56.7008C62.5724 56.4528 61.8014 55.8278 61.3454 55.0358C61.0294 54.5028 60.8574 53.8868 60.8574 53.2448C60.8574 52.9458 60.8924 52.6328 60.9814 52.3118H60.9834C61.4144 50.7168 62.8524 49.6558 64.4304 49.6618C64.7184 49.6558 65.0384 49.6908 65.4284 49.8078C65.4334 49.8008 65.4784 49.8208 65.6104 49.8208C66.1644 49.8378 67.4864 49.4408 68.5764 48.7688C69.3074 48.3488 69.9774 47.8598 70.4474 47.4878C70.8334 47.1908 71.0264 47.0168 71.0824 46.9658C71.0864 46.9608 71.0904 46.9568 71.0954 46.9508L71.0994 46.9468C71.1324 46.9138 71.1684 46.8828 71.2044 46.8548C71.8754 46.2668 72.7164 45.9678 73.5564 45.9678C74.5134 45.9678 75.4804 46.3568 76.1844 47.1198C76.8144 47.8038 77.1334 48.6768 77.1334 49.5398C77.1334 50.4968 76.7434 51.4608 75.9544 52.1998C75.9094 52.2318 74.3714 53.6728 72.1554 54.9578C70.5184 55.8668 68.3374 56.9538 65.7134 56.9538C65.6944 56.9538 65.6764 56.9538 65.6574 56.9538C64.9774 56.9548 64.2734 56.8748 63.5304 56.7008Z" fill="white"/>
<path d="M44.4853 21.3379C45.5483 22.2289 45.6813 23.8119 44.7903 24.8659C44.2133 25.4469 43.8883 27.2429 44.0713 29.0029C44.1463 29.9099 44.3103 30.7719 44.4523 31.3879C44.5903 32.0109 44.6923 32.3279 44.6943 32.3299L44.6923 32.3279C45.1083 33.6509 44.3763 35.0559 43.0553 35.4729C41.7323 35.8889 40.3303 35.1529 39.9123 33.8309C39.8823 33.7269 39.2883 31.8529 39.0803 29.4229C38.9213 27.1229 38.9313 24.1579 40.9533 21.6439C41.4003 21.1129 42.0223 20.8119 42.6623 20.7589C43.2993 20.7049 43.9593 20.8959 44.4853 21.3379Z" fill="#231F20"/>
<path d="M45.6723 31.8998H45.6743H45.6723ZM42.7483 21.8228C42.3843 21.8538 42.0293 22.0208 41.7823 22.3138C40.4093 24.0148 40.0903 25.9718 40.0863 27.8468C40.0863 28.3608 40.1123 28.8608 40.1443 29.3298C40.3473 31.6538 40.9003 33.4078 40.9323 33.5068C41.1223 34.1158 41.6933 34.5118 42.3013 34.5118C42.4463 34.5118 42.5933 34.4928 42.7253 34.4488C43.3473 34.2558 43.7363 33.6818 43.7363 33.0808C43.7363 32.9338 43.7143 32.7948 43.6693 32.6428C43.6673 32.6388 43.6663 32.6308 43.6643 32.6248C43.6613 32.6138 43.6573 32.6018 43.6543 32.5898C43.6523 32.5838 43.6513 32.5768 43.6503 32.5718C43.6323 32.5248 43.6153 32.4528 43.5893 32.3718C43.5453 32.1948 43.4793 31.9428 43.4073 31.6288C43.2573 30.9698 43.0843 30.0688 43.0093 29.1168C42.9643 28.7368 42.9463 28.3608 42.9463 28.0058C42.9953 26.4298 43.1593 25.0918 43.9663 24.1838C44.2013 23.9018 44.3053 23.5768 44.3053 23.2548C44.3053 22.8368 44.1333 22.4398 43.7973 22.1548L44.4833 21.3358L43.7923 22.1518C43.5223 21.9248 43.1993 21.8178 42.8713 21.8138C42.8443 21.8138 42.8053 21.8178 42.7483 21.8228ZM42.3003 36.6498C40.7723 36.6498 39.3723 35.6678 38.8813 34.1168C38.8593 34.0428 38.2293 32.0508 38.0143 29.4938C37.9793 28.9838 37.9473 28.4298 37.9473 27.8478C37.9433 25.7428 38.3193 23.1968 40.1343 20.9518C40.7683 20.1998 41.6583 19.7638 42.5673 19.6938C42.6563 19.6848 42.7613 19.6768 42.8723 19.6768C43.6763 19.6768 44.5023 19.9478 45.1703 20.5168H45.1713C46.0123 21.2208 46.4503 22.2388 46.4463 23.2548C46.4463 24.0638 46.1663 24.8788 45.5483 25.6188C45.4853 25.6228 45.0423 26.7788 45.0873 28.0058C45.0873 28.2988 45.1003 28.5918 45.1353 28.9128C45.2073 29.7468 45.3613 30.5658 45.4953 31.1558C45.6093 31.6598 45.6943 31.9468 45.7073 31.9828H45.7063C45.7203 32.0248 45.7323 32.0658 45.7423 32.1108C45.8333 32.4308 45.8763 32.7558 45.8763 33.0808C45.8763 34.5998 44.9023 36.0008 43.3703 36.4918C43.0293 36.5978 42.6803 36.6498 42.3423 36.6498C42.3263 36.6498 42.3133 36.6498 42.3003 36.6498Z" fill="white"/>
<path d="M25.7998 37.5268C27.0948 37.0348 28.5378 37.6908 29.0248 38.9898C29.5138 40.2848 28.8578 41.7318 27.5618 42.2148C27.5618 42.2188 26.4248 42.6438 24.7608 43.3918C23.0998 44.1488 20.9468 45.2188 19.0598 46.4218C16.5898 47.9078 14.7938 49.9058 14.7898 50.5528C14.4928 51.9008 13.1528 52.7558 11.8048 52.4548C10.4548 52.1528 9.59983 50.8158 9.90283 49.4678C10.7978 46.0528 13.5858 44.0608 16.3658 42.1998C20.7478 39.4098 25.7178 37.5638 25.7998 37.5268Z" fill="#231F20"/>
<path d="M26.6025 41.7341C26.6495 41.6421 26.7075 41.5561 26.7785 41.4811C26.7255 41.5231 26.6605 41.5921 26.6025 41.7341ZM16.9585 43.0871C14.1695 44.9441 11.6965 46.7881 10.9385 49.7301C10.9195 49.7991 10.9065 49.8971 10.9065 50.0121C10.9065 50.6591 11.3665 51.2621 12.0105 51.4041C12.1355 51.4261 12.2515 51.4391 12.3485 51.4391C12.9985 51.4391 13.6015 50.9841 13.7445 50.3191H13.7525C13.9335 49.3621 14.4875 48.9021 15.2375 48.0491C16.0625 47.2151 17.1895 46.2971 18.4825 45.5181C20.4385 44.2721 22.6235 43.1851 24.3175 42.4141C25.7705 41.7621 26.8355 41.3501 27.1005 41.2421H27.1015C27.1255 41.2321 27.1505 41.2221 27.1755 41.2111C27.7565 40.9941 28.1125 40.4411 28.1125 39.8651C28.1125 39.7011 28.0855 39.5331 28.0185 39.3641C27.8025 38.7791 27.2565 38.4331 26.6805 38.4271C26.5215 38.4331 26.3525 38.4581 26.1795 38.5251L26.1785 38.5211C25.5445 38.7711 21.0165 40.5101 16.9585 43.0871ZM11.5735 53.4961C9.90648 53.1231 8.77148 51.6521 8.77148 50.0121C8.77148 49.7581 8.79248 49.4851 8.86948 49.1971C9.89748 45.3131 13.0005 43.1731 15.7885 41.2981C20.2525 38.4471 25.3405 36.5651 25.3515 36.5541L25.7985 37.5261L25.4185 36.5291C25.8305 36.3691 26.2555 36.2891 26.6815 36.2931C28.1255 36.2891 29.4875 37.1801 30.0235 38.6111C30.1835 39.0251 30.2545 39.4491 30.2545 39.8671C30.2545 41.2991 29.3885 42.6351 27.9955 43.1931C27.9885 43.1971 27.9835 43.1991 27.9795 43.1991L27.9495 43.2141C27.9325 43.2191 27.9185 43.2271 27.9005 43.2311C27.8655 43.2471 27.8125 43.2661 27.7505 43.2941C27.6165 43.3431 27.4315 43.4181 27.1875 43.5161C26.7045 43.7141 26.0165 43.9991 25.2055 44.3671C23.5695 45.1071 21.4545 46.1631 19.6115 47.3421C17.6075 48.5081 15.9945 50.2741 15.8475 50.6951L15.8445 50.6921L15.8345 50.7881C15.4615 52.4511 13.9895 53.5871 12.3505 53.5871C12.0875 53.5821 11.8345 53.5511 11.5735 53.4961Z" fill="white"/>
<path d="M54.5607 48.4379C54.0627 49.7279 52.6077 50.3699 51.3177 49.8679C50.5847 49.5069 48.7807 49.7799 47.1727 50.5219C46.3367 50.8869 45.5767 51.3189 45.0367 51.6509C44.4937 51.9809 44.2257 52.1839 44.2217 52.1839H44.2257C43.1057 53.0019 41.5417 52.7619 40.7227 51.6459C39.9027 50.5299 40.1447 48.9649 41.2597 48.1449C41.3507 48.0819 42.9297 46.9149 45.1647 45.9319C47.2897 45.0409 50.0987 44.0919 53.1317 45.1919C53.7777 45.4479 54.2627 45.9399 54.5197 46.5279C54.7767 47.1109 54.8107 47.7959 54.5607 48.4379Z" fill="#231F20"/>
<path d="M45.5951 46.9101C43.4621 47.8491 41.9731 48.9491 41.8841 49.0101C41.5031 49.2851 41.3041 49.7131 41.3041 50.1601C41.3041 50.4571 41.3911 50.7501 41.5831 51.0111C41.8621 51.3911 42.2971 51.5921 42.7401 51.5961C43.0121 51.5921 43.2861 51.5211 43.5311 51.3601C43.5621 51.3351 43.5951 51.3091 43.6291 51.2901C43.6311 51.2851 43.6381 51.2821 43.6481 51.2761C43.6501 51.2741 43.6521 51.2741 43.6541 51.2721C43.6711 51.2621 43.6881 51.2491 43.7091 51.2351C43.7131 51.2301 43.7201 51.2231 43.7331 51.2171C43.7591 51.1991 43.7891 51.1781 43.8231 51.1531C43.9731 51.0511 44.1901 50.9091 44.4741 50.7351C45.0471 50.3851 45.8441 49.9341 46.7171 49.5511C47.9891 48.9571 49.3101 48.6381 50.4141 48.6341C50.8931 48.6381 51.3371 48.6891 51.6951 48.8641C51.8731 48.9311 52.0501 48.9621 52.2231 48.9621C52.7971 48.9621 53.3381 48.6151 53.5581 48.0591L53.5571 48.0571C53.6271 47.8681 53.6591 47.6961 53.6591 47.5261C53.6591 47.3331 53.6191 47.1351 53.5391 46.9541C53.3891 46.6181 53.1151 46.3331 52.7581 46.1931C51.9121 45.8811 51.0911 45.7621 50.2891 45.7581C48.5961 45.7581 46.9781 46.3241 45.5951 46.9101ZM42.7401 53.7321C41.6361 53.7361 40.5541 53.2221 39.8591 52.2791C39.3931 51.6431 39.1621 50.8941 39.1621 50.1601C39.1621 49.0641 39.6671 47.9701 40.6471 47.2641C40.7221 47.2101 42.3941 45.9741 44.7471 44.9401C46.2281 44.3221 48.1211 43.6191 50.2891 43.6191C51.3081 43.6191 52.3951 43.7751 53.5251 44.1921C54.4381 44.5561 55.1341 45.2601 55.4981 46.0981C55.6921 46.5411 55.7991 47.0291 55.7991 47.5251C55.7991 47.9571 55.7161 48.3951 55.5601 48.8151L54.5601 48.4351L55.5561 48.8201C55.0061 50.2391 53.6541 51.1051 52.2231 51.1051C51.7841 51.1051 51.3501 51.0231 50.8401 50.8201C50.8351 50.8201 50.7951 50.8051 50.7241 50.7931C50.6531 50.7801 50.5471 50.7661 50.4131 50.7701C49.7481 50.7661 48.6141 51.0191 47.5991 51.5021C46.8271 51.8341 46.1051 52.2481 45.5911 52.5621C45.1671 52.8231 45.0071 52.9381 44.8781 53.0281C44.8711 53.0341 44.8641 53.0411 44.8551 53.0461C44.2231 53.5071 43.4881 53.7341 42.7621 53.7341C42.7541 53.7321 42.7481 53.7321 42.7401 53.7321Z" fill="white"/>
<path d="M35.2969 61.2792C34.7989 62.5682 33.3449 63.2112 32.0539 62.7092C31.3209 62.3482 29.5168 62.6212 27.9088 63.3632C27.0728 63.7282 26.3118 64.1602 25.7718 64.4922C25.2288 64.8222 24.9618 65.0252 24.9578 65.0252H24.9618C23.8408 65.8442 22.2778 65.6032 21.4588 64.4882C20.6398 63.3722 20.8798 61.8062 21.9958 60.9862C22.0858 60.9242 23.6658 59.7562 25.8998 58.7732C28.0258 57.8822 30.8348 56.9332 33.8688 58.0332C34.5138 58.2882 34.9988 58.7812 35.2558 59.3692C35.5148 59.9542 35.5469 60.6382 35.2969 61.2792Z" fill="#231F20"/>
<path d="M26.3324 59.7519C24.1994 60.6919 22.7084 61.7909 22.6234 61.8499C22.2424 62.1249 22.0424 62.5549 22.0384 63.0039C22.0424 63.2969 22.1314 63.5929 22.3224 63.8509C22.5974 64.2329 23.0324 64.4359 23.4764 64.4359C23.7544 64.4359 24.0264 64.3609 24.2734 64.1979C24.3074 64.1709 24.3424 64.1449 24.3794 64.1239C24.3824 64.1199 24.3834 64.1179 24.3874 64.1159C24.3904 64.1139 24.3934 64.1139 24.3964 64.1119C24.4094 64.1019 24.4284 64.0889 24.4484 64.0749C24.4514 64.0709 24.4594 64.0649 24.4714 64.0569C24.4984 64.0409 24.5284 64.0199 24.5634 63.9959C24.7094 63.8939 24.9254 63.7519 25.2104 63.5799C25.7834 63.2259 26.5814 62.7749 27.4544 62.3909C28.7244 61.8029 30.0454 61.4829 31.1504 61.4719C31.6284 61.4779 32.0724 61.5309 32.4284 61.7029C32.6104 61.7699 32.7864 61.8069 32.9554 61.8069C33.5364 61.8029 34.0774 61.4549 34.2954 60.8909V60.8929C34.3654 60.7069 34.3914 60.5359 34.3954 60.3689C34.3954 60.1749 34.3514 59.9769 34.2714 59.7959C34.1254 59.4599 33.8454 59.1749 33.4954 59.0379C32.6444 58.7239 31.8264 58.6019 31.0234 58.6019C31.0174 58.6019 31.0104 58.6019 31.0034 58.6019C29.3234 58.6019 27.7104 59.1679 26.3324 59.7519ZM23.4764 66.5739C22.3754 66.5779 21.2934 66.0639 20.5964 65.1189C20.1314 64.4849 19.9004 63.7399 19.9004 63.0039C19.9004 61.9059 20.4064 60.8109 21.3824 60.1069C21.4614 60.0529 23.1354 58.8149 25.4844 57.7869C26.9664 57.1609 28.8614 56.4639 31.0264 56.4639C32.0474 56.4599 33.1334 56.6209 34.2614 57.0359C35.1794 57.3969 35.8714 58.1009 36.2354 58.9409C36.4294 59.3839 36.5364 59.8719 36.5364 60.3689C36.5364 60.7999 36.4564 61.2379 36.2964 61.6559L35.2944 61.2779L36.2924 61.6649C35.7404 63.0789 34.3884 63.9449 32.9564 63.9449C32.5214 63.9449 32.0874 63.8639 31.5764 63.6649C31.5714 63.6689 31.4204 63.6119 31.1504 63.6119C30.4894 63.6059 29.3494 63.8589 28.3374 64.3439C27.5654 64.6799 26.8414 65.0879 26.3274 65.4049C25.9394 65.6419 25.7734 65.7599 25.6474 65.8469C25.6284 65.8619 25.6104 65.8749 25.5904 65.8909C24.9584 66.3479 24.2194 66.5749 23.4964 66.5749C23.4894 66.5739 23.4824 66.5739 23.4764 66.5739Z" fill="white"/>
<path d="M66.5333 71.9391C65.1563 72.0681 63.9343 71.0551 63.8063 69.6751C63.8023 68.8581 62.7523 67.3651 61.3693 66.2571C60.6713 65.6721 59.9453 65.1851 59.4083 64.8511C58.8693 64.5131 58.5683 64.3621 58.5663 64.3601L58.5683 64.3621C57.3353 63.7271 56.8523 62.2201 57.4853 60.9861C58.1173 59.7561 59.6263 59.2731 60.8593 59.9081C60.9543 59.9581 62.7053 60.8511 64.5813 62.4131C66.3273 63.9181 68.4303 66.0081 68.7993 69.2121C68.8603 69.9061 68.6343 70.5601 68.2253 71.0511C67.8153 71.5431 67.2193 71.8771 66.5333 71.9391Z" fill="#231F20"/>
<path d="M59.1837 63.4822C59.1627 63.4652 59.1507 63.4592 59.1427 63.4552C59.1567 63.4642 59.1707 63.4732 59.1837 63.4822ZM59.1267 63.4422C59.1667 63.4652 59.2337 63.5012 59.3077 63.5452C59.4687 63.6312 59.6907 63.7642 59.9747 63.9402C60.5387 64.2952 61.3017 64.8062 62.0387 65.4222C63.5607 66.7292 64.7547 68.0902 64.8737 69.5782C64.9367 70.3122 65.5717 70.8782 66.2987 70.8782C66.3567 70.8782 66.4047 70.8732 66.4497 70.8672V70.8712C66.8377 70.8272 67.1667 70.6432 67.3947 70.3712C67.6127 70.1032 67.7367 69.7762 67.7367 69.4322C67.7367 69.3772 67.7367 69.3322 67.7367 69.3322C67.4217 66.5622 65.5917 64.6952 63.8987 63.2352C62.1097 61.7482 60.4467 60.8972 60.3617 60.8572C60.1527 60.7442 59.9347 60.6952 59.7097 60.6922C59.1897 60.6952 58.6927 60.9762 58.4307 61.4862C58.3247 61.6872 58.2757 61.9042 58.2757 62.1312C58.2757 62.6252 58.5317 63.1072 58.9947 63.3762C59.0217 63.3892 59.0467 63.4002 59.0737 63.4142V63.4122L59.0777 63.4162C59.0917 63.4242 59.1047 63.4332 59.1187 63.4382C59.1217 63.4402 59.1237 63.4422 59.1267 63.4422ZM62.7357 69.6782C62.8067 69.5862 61.9497 68.0022 60.6817 67.0782C60.0417 66.5362 59.3537 66.0742 58.8387 65.7572C58.4007 65.4832 58.2097 65.3792 58.0907 65.3182C58.0877 65.3172 58.0837 65.3142 58.0807 65.3122C58.0667 65.3052 58.0537 65.2972 58.0407 65.2912C58.0357 65.2872 58.0287 65.2852 58.0237 65.2802C56.8257 64.6332 56.1327 63.4052 56.1367 62.1312C56.1367 61.5802 56.2617 61.0122 56.5367 60.4982C57.1667 59.2662 58.4147 58.5552 59.7107 58.5552C60.2607 58.5552 60.8287 58.6822 61.3657 58.9622C61.4637 59.0142 63.3047 59.9512 65.2847 61.6022C67.0637 63.1382 69.4387 65.4502 69.8677 69.1212C69.8767 69.2312 69.8807 69.3382 69.8807 69.4332C69.8807 70.2982 69.5667 71.1052 69.0467 71.7342C68.4657 72.4362 67.6087 72.9162 66.6317 73.0052L66.5357 71.9392L66.6187 73.0052C66.5047 73.0132 66.3937 73.0172 66.3007 73.0172C64.4657 73.0162 62.9137 71.6212 62.7357 69.6782Z" fill="white"/>
<path d="M52.0527 67.31C50.6767 67.437 49.4527 66.424 49.3267 65.046C49.3227 64.227 48.2747 62.736 46.8907 61.629C46.1917 61.043 45.4647 60.555 44.9297 60.22C44.3907 59.884 44.0887 59.734 44.0887 59.731V59.734C42.8557 59.098 42.3707 57.59 43.0057 56.358C43.6377 55.127 45.1467 54.644 46.3777 55.278C46.4737 55.329 48.2237 56.219 50.1017 57.784C51.8477 59.286 53.9507 61.379 54.3207 64.583C54.3817 65.274 54.1547 65.931 53.7457 66.42C53.3357 66.91 52.7387 67.247 52.0527 67.31Z" fill="#231F20"/>
<path d="M44.6433 58.8129C44.6473 58.8149 44.6523 58.8179 44.6563 58.8219C44.6523 58.8169 44.6473 58.8139 44.6433 58.8129ZM44.6123 58.7969L44.6133 58.7939L44.6123 58.7969ZM44.8233 58.9529C44.8233 58.9509 44.8233 58.9489 44.8213 58.9449C44.7903 58.9179 44.7663 58.8999 44.7493 58.8879C44.7753 58.9059 44.8003 58.9299 44.8233 58.9529ZM45.0383 59.2349C44.9903 59.1209 44.9403 59.0659 44.9003 59.0329C44.9553 59.0959 45.0003 59.1639 45.0383 59.2349ZM44.8313 58.9159C44.9863 59.0029 45.2083 59.1329 45.4973 59.3109C46.0603 59.6649 46.8233 60.1739 47.5553 60.7929C49.0783 62.0979 50.2753 63.4569 50.3903 64.9469C50.4533 65.6809 51.0913 66.2479 51.8193 66.2479C51.8763 66.2479 51.9253 66.2439 51.9653 66.2389V66.2419C52.3553 66.1999 52.6873 66.0099 52.9193 65.7379C53.1323 65.4799 53.2573 65.1479 53.2573 64.7999C53.2573 64.7439 53.2573 64.7039 53.2573 64.6999C52.9413 61.9299 51.1143 60.0609 49.4183 58.6019C47.6223 57.1119 45.9763 56.2699 45.8733 56.2149C45.6693 56.1089 45.4573 56.0609 45.2313 56.0609C44.7123 56.0609 44.2103 56.3379 43.9533 56.8549C43.8463 57.0569 43.7923 57.2759 43.7923 57.4989C43.7973 57.9929 44.0523 58.4719 44.5093 58.7409C44.5533 58.7619 44.5973 58.7829 44.6393 58.8069L44.6453 58.8109H44.6443V58.8129C44.6443 58.8129 44.6483 58.8129 44.6503 58.8159C44.6533 58.8179 44.6553 58.8199 44.6603 58.8219C44.6593 58.8199 44.6583 58.8199 44.6583 58.8199H44.6573C44.6573 58.8199 44.6603 58.8219 44.6623 58.8219C44.7013 58.8459 44.7583 58.8749 44.8313 58.9159ZM48.2553 65.0509C48.3263 64.9589 47.4663 63.3739 46.2013 62.4459C45.5573 61.9089 44.8663 61.4459 44.3603 61.1259C43.9593 60.8769 43.7573 60.7689 43.6353 60.6989C43.6213 60.6949 43.6093 60.6879 43.5963 60.6799C42.3673 60.0469 41.6523 58.7989 41.6523 57.4999C41.6523 56.9529 41.7773 56.3829 42.0513 55.8699C42.6813 54.6369 43.9323 53.9199 45.2283 53.9239C45.7703 53.9199 46.3463 54.0429 46.8833 54.3359C46.9673 54.3789 48.8223 55.3199 50.7973 56.9719C52.5793 58.5059 54.9543 60.8189 55.3843 64.4889C55.3933 64.6039 55.3973 64.7059 55.3973 64.8019C55.3973 65.6679 55.0833 66.4729 54.5633 67.1029C53.9833 67.8019 53.1273 68.2869 52.1513 68.3739L52.0523 67.3109L52.1373 68.3739C52.0213 68.3829 51.9153 68.3879 51.8173 68.3879C49.9863 68.3869 48.4333 66.9939 48.2553 65.0509Z" fill="white"/>
<path d="M23.7013 72.781C23.6873 71.398 24.7983 70.265 26.1843 70.25C26.9993 70.315 28.5713 69.391 29.7903 68.105C30.4323 67.457 30.9793 66.774 31.3553 66.266C31.7353 65.759 31.9113 65.47 31.9143 65.47H31.9113C32.6473 64.294 34.1903 63.938 35.3663 64.671C36.5403 65.403 36.8963 66.946 36.1633 68.12C36.1043 68.212 35.0683 69.884 33.3583 71.625C31.7123 73.24 29.4563 75.161 26.2333 75.264C25.5353 75.269 24.9013 74.991 24.4453 74.541C23.9913 74.09 23.7073 73.471 23.7013 72.781Z" fill="#231F20"/>
<path d="M32.8009 66.0661H32.8029H32.8009ZM32.7769 66.1021C32.7769 66.0991 32.7779 66.0991 32.7799 66.0981H32.7789C32.7789 66.0981 32.7779 66.0991 32.7769 66.1021ZM32.7139 66.1791C32.7209 66.1681 32.7279 66.1621 32.7349 66.1571C32.7419 66.1461 32.7489 66.1371 32.7539 66.1321C32.7399 66.1471 32.7279 66.1621 32.7139 66.1791ZM32.6459 66.2481C32.6539 66.2421 32.6599 66.2341 32.6659 66.2281C32.6579 66.2381 32.6509 66.2421 32.6459 66.2481ZM32.3719 66.4361C32.4799 66.3951 32.5309 66.3531 32.5619 66.3191C32.5079 66.3621 32.4519 66.3971 32.3909 66.4261C32.3859 66.4301 32.3779 66.4341 32.3719 66.4361ZM25.1939 73.7761C25.4489 74.0271 25.8079 74.1901 26.2049 74.1921C28.9879 74.1071 31.0009 72.4391 32.5929 70.8731C34.2219 69.2191 35.2129 67.6191 35.2479 67.5591C35.4039 67.3061 35.4739 67.0491 35.4739 66.7891C35.4689 66.3071 35.2379 65.8491 34.7899 65.5721C34.5549 65.4221 34.3069 65.3551 34.0399 65.3551C33.5689 65.3551 33.1209 65.5791 32.8419 66.0001C32.8299 66.0211 32.8169 66.0431 32.8019 66.0661H32.8009H32.8029L32.7869 66.0881C32.7839 66.0931 32.7789 66.0981 32.7759 66.1051C32.7499 66.1411 32.7139 66.2001 32.6609 66.2751C32.5629 66.4251 32.4119 66.6381 32.2169 66.9001C31.8189 67.4431 31.2409 68.1561 30.5659 68.8391C29.1939 70.2021 27.7609 71.2351 26.2649 71.3221C26.2379 71.3221 26.1849 71.3221 26.1939 71.3151C25.4029 71.3221 24.7689 71.9631 24.7689 72.7531H23.9749L24.7649 72.6741L23.7039 72.7801L24.7729 72.7681C24.7769 73.1681 24.9319 73.5161 25.1939 73.7761ZM26.2149 74.1951C26.2149 74.1951 26.2239 74.1951 26.2149 74.1951V74.1951ZM26.2149 76.3281C25.2339 76.3281 24.3369 75.9331 23.6899 75.2981C23.0689 74.6781 22.6609 73.8201 22.6349 72.8731C22.6319 72.8601 22.6289 72.8401 22.6289 72.7541C22.6289 70.7961 24.2069 69.1971 26.2639 69.1831H26.2679V69.1851C26.4649 69.2521 28.0289 68.4791 29.0299 67.3541C29.6179 66.7501 30.1439 66.1061 30.4979 65.6241C30.7729 65.2511 30.9029 65.0601 30.9779 64.9421C30.9859 64.9281 30.9949 64.9151 31.0039 64.9011C31.6779 63.8171 32.8449 63.2131 34.0399 63.2171C34.6779 63.2131 35.3439 63.3871 35.9309 63.7641C37.0189 64.4341 37.6129 65.6041 37.6129 66.7891C37.6129 67.4361 37.4319 68.0921 37.0629 68.6931C36.9959 68.7991 35.9139 70.5481 34.1059 72.3861C32.4249 74.0361 29.9259 76.2091 26.2329 76.3321L26.2149 76.3281Z" fill="white"/>
<path d="M78.7397 32.6799C77.9027 33.0409 76.9497 33.3759 75.8507 33.8639C72.8117 35.2119 69.0197 37.4229 67.0297 42.4739C63.3467 51.6269 53.7577 57.4649 53.6087 57.6279L53.6127 57.6249C52.4397 58.3679 50.8907 58.0209 50.1537 56.8509C49.4097 55.6859 49.7567 54.1369 50.9247 53.3959C50.9247 53.3889 51.4137 53.0839 52.2787 52.4489C53.1417 51.8179 54.3307 50.8819 55.6087 49.7139C58.1717 47.3899 61.0277 44.1079 62.3617 40.6529C64.9967 33.8799 70.3267 30.7909 73.8387 29.2689C75.1097 28.7189 76.1927 28.3309 76.7277 28.0919C77.9977 27.5369 79.4747 28.1149 80.0297 29.3789C80.5867 30.6479 80.0057 32.1249 78.7397 32.6799Z" fill="#231F20"/>
<path d="M51.4915 54.3032C51.0665 54.5652 50.8315 55.0222 50.8315 55.5042C50.8315 55.7702 50.9015 56.0332 51.0575 56.2752C51.3275 56.7012 51.7935 56.9412 52.2715 56.9412C52.5175 56.9412 52.7595 56.8792 52.9865 56.7522C53.0655 56.6882 53.0545 56.7132 53.1415 56.6442C53.2255 56.5862 53.3375 56.5122 53.4735 56.4182C53.7525 56.2322 54.1435 55.9552 54.6185 55.6112C55.5715 54.9152 56.8705 53.9082 58.2725 52.6312C61.0795 50.0722 64.2895 46.4222 66.0325 42.0822C68.1575 36.6722 72.2895 34.2562 75.4165 32.8812C76.5545 32.3772 77.5215 32.0382 78.3035 31.7012C78.8445 31.4612 79.1675 30.9302 79.1675 30.3792C79.1675 30.1842 79.1325 29.9902 79.0525 29.8082C78.8135 29.2582 78.2945 28.9472 77.7355 28.9422C77.5495 28.9472 77.3535 28.9832 77.1635 29.0672C76.5505 29.3382 75.5095 29.7112 74.2675 30.2472C70.8665 31.7272 65.8515 34.6422 63.3625 41.0352C61.9175 44.7512 58.9645 48.1042 56.3305 50.4992C55.0225 51.7012 53.8025 52.6592 52.9165 53.3112C52.1625 53.8672 51.6365 54.2062 51.5605 54.2572C51.5375 54.2732 51.5155 54.2882 51.4915 54.3032ZM52.2715 59.0782C51.0835 59.0832 49.9265 58.4892 49.2525 57.4252C48.8755 56.8362 48.6895 56.1602 48.6895 55.5042C48.6895 54.3492 49.2555 53.2052 50.2965 52.5252C50.2985 52.5232 50.3005 52.5212 50.3025 52.5192C50.3255 52.5062 50.3335 52.4982 50.3475 52.4882C50.3695 52.4752 50.3915 52.4592 50.4225 52.4392C50.4805 52.4002 50.5645 52.3472 50.6755 52.2702C50.8975 52.1202 51.2255 51.8942 51.6455 51.5782C52.4795 50.9732 53.6415 50.0582 54.8885 48.9142C57.3795 46.6712 60.1375 43.4612 61.3625 40.2642C64.1425 33.1152 69.7875 29.8482 73.4145 28.2852C74.7135 27.7232 75.8325 27.3142 76.2975 27.1112C76.7545 26.9062 77.2465 26.8032 77.7345 26.8032C79.1045 26.7992 80.4205 27.6012 81.0115 28.9502C81.2145 29.4162 81.3085 29.9032 81.3045 30.3782C81.3045 31.7572 80.5015 33.0622 79.1745 33.6542L78.7405 32.6802L79.1615 33.6592C78.2755 34.0422 77.3395 34.3702 76.2835 34.8402C73.3305 36.1612 69.8855 38.1692 68.0235 42.8702C64.2755 52.1412 54.9285 57.9742 54.2725 58.4652C54.2435 58.4882 54.2155 58.5092 54.1835 58.5282C53.5955 58.8992 52.9355 59.0772 52.2955 59.0772C52.2875 59.0782 52.2805 59.0782 52.2715 59.0782Z" fill="white"/>
<path d="M41.1317 58.6602C40.7697 59.2272 38.5127 59.0682 38.0297 58.6852C37.5447 58.2922 36.6697 54.7942 37.4177 54.5742C38.1697 54.3522 38.3167 53.6132 39.9027 54.4042C41.4887 55.2052 42.0427 57.2042 41.1317 58.6602Z" fill="#231F20"/>
<path d="M35.8395 52.7232C35.1925 52.5472 34.6675 50.3442 34.8865 49.7692C35.1165 49.1882 38.1925 47.3092 38.6275 47.9552C39.0625 48.6082 39.8155 48.5282 39.5335 50.2782C39.2425 52.0302 37.5015 53.1542 35.8395 52.7232Z" fill="#231F20"/>
<path d="M49.2466 30.8461C48.5986 30.6721 48.0766 28.4681 48.2976 27.8931C48.5276 27.3121 51.6016 25.4331 52.0376 26.0801C52.4746 26.7311 53.2216 26.6521 52.9426 28.4011C52.6536 30.1541 50.9106 31.2791 49.2466 30.8461Z" fill="#231F20"/>
<path d="M32.676 27.8099C33.666 28.6229 34.164 28.3199 35.465 29.0069C35.983 29.2789 36.535 30.1249 35.956 31.3929C35.381 32.6549 33.441 34.4029 32.781 34.6099C32.121 34.8099 31.026 34.6019 30.056 33.8129C29.09 33.0249 27.551 31.5709 27.793 30.7679C28.025 29.9709 29.522 28.3619 30.076 28.0099C30.636 27.6559 31.712 27.0209 32.676 27.8099Z" fill="#231F20"/>
<path d="M19.9394 48.4689C20.9324 49.2819 21.4274 48.9789 22.7274 49.6669C23.2484 49.9379 23.8004 50.7849 23.2193 52.0509C22.6463 53.3149 20.7074 55.0609 20.0444 55.2679C19.3844 55.4689 18.2903 55.2619 17.3203 54.4719C16.3523 53.6839 14.8164 52.2299 15.0564 51.4259C15.2884 50.6299 16.7853 49.0209 17.3413 48.6699C17.9013 48.3159 18.9764 47.6819 19.9394 48.4689Z" fill="#231F20"/>
<path d="M48.1256 22.586C48.5766 22.529 48.6196 22.329 49.1166 22.164C49.3126 22.098 49.6666 22.162 49.8476 22.621C50.0316 23.079 50.0046 24.008 49.8966 24.226C49.7856 24.446 49.4636 24.675 49.0246 24.732C48.5826 24.787 47.8326 24.824 47.6866 24.565C47.5386 24.31 47.4926 23.531 47.5386 23.3C47.5866 23.073 47.6876 22.641 48.1256 22.586Z" fill="#231F20"/>
<path d="M18.314 45.43C18.326 39.354 20.345 33.762 23.711 29.231L61.77 67.285C57.24 70.649 51.647 72.667 45.564 72.68C30.511 72.65 18.344 60.487 18.314 45.43ZM72.812 45.43C72.802 50.914 71.166 56.006 68.382 60.276L30.719 22.617C34.99 19.829 40.081 18.19 45.563 18.179C60.618 18.209 72.786 30.396 72.812 45.43ZM45.563 0C20.542 0 0.104 20.243 0 45.242C0 54.704 2.897 63.488 7.843 70.76C16.004 82.891 29.852 90.864 45.564 90.864C70.654 90.864 91 70.518 91 45.43C91 20.344 70.654 0 45.563 0Z" fill="#231F20"/>
<path d="M45.5633 2.13623C69.3753 2.13623 88.7513 21.4532 88.8553 45.2422H74.9352C74.8313 29.1172 61.7333 16.0492 45.5643 16.0492C29.3903 16.0492 16.2932 29.1172 16.1892 45.2422H2.28125C2.38325 21.4532 21.7573 2.13623 45.5633 2.13623Z" fill="white"/>
<path d="M8.11902 34.1021L11.082 36.5741L11.944 33.7031L8.11902 34.1021ZM11.845 37.2191L13.947 38.9691L13.637 40.0041L5.91602 33.4161L15.956 32.2681L15.644 33.3161L12.932 33.5941L11.845 37.2191Z" fill="#231F20"/>
<path d="M8.75195 26.119L18.595 24.287L12.846 20.533L13.386 19.708L21.144 24.771L11.31 26.607L17.03 30.341L16.489 31.168L8.75195 26.119Z" fill="#231F20"/>
<path d="M23.9865 21.6099L23.2655 22.2849L17.8355 16.4769L16.2735 17.9379L15.6465 17.2659L19.5135 13.6499L20.1405 14.3219L18.5595 15.7989L23.9865 21.6099Z" fill="#231F20"/>
<path d="M27.3942 18.9161L26.5882 19.4881L21.4492 12.2561L22.2552 11.6821L27.3942 18.9161Z" fill="#231F20"/>
<path d="M28.6816 14.2729L29.1236 15.0249L27.0406 16.2479L26.5996 15.4959L28.6816 14.2729Z" fill="#231F20"/>
<path d="M31.7978 15.3308L32.7128 14.9588C33.7388 14.5428 34.7158 13.8518 34.2058 12.5978C33.6868 11.3228 32.3908 11.6328 31.3878 12.0428L30.5918 12.3648L31.7978 15.3308ZM30.2708 11.5818L30.6198 11.4388C31.6568 11.0158 32.4918 10.5358 31.9728 9.2608C31.4678 8.0168 30.6278 8.2068 29.5048 8.6628L29.1458 8.8088L30.2708 11.5818ZM27.8828 8.3308L29.2348 7.7808C30.7278 7.1758 32.2038 7.2088 32.8878 8.8888C33.1588 9.5558 33.1378 10.2238 32.7318 10.8198C33.8108 10.6588 34.7488 11.3098 35.1468 12.2918C35.8138 13.9258 34.7608 15.1168 33.1348 15.7778L31.2258 16.5528L27.8828 8.3308Z" fill="#231F20"/>
<path d="M39.7743 6.73182L38.7963 10.4678L41.7653 10.0278L39.7743 6.73182ZM38.5353 11.4378L37.8473 14.0848L36.7773 14.2458L39.4553 4.44482L44.7713 13.0518L43.6893 13.2128L42.2823 10.8758L38.5353 11.4378Z" fill="#231F20"/>
<path d="M53.4386 7.03099C52.8216 6.22399 51.9036 5.66399 50.8866 5.54499C48.9226 5.31399 47.1316 6.834 46.9016 8.772C46.6756 10.714 48.0746 12.61 50.0506 12.842C51.0436 12.959 52.0706 12.608 52.8536 11.987L52.7096 13.204C51.8846 13.664 50.9116 13.869 49.9756 13.761C47.4876 13.466 45.6196 11.196 45.9156 8.69399C46.2126 6.17 48.5266 4.34499 51.0516 4.63899C52.0336 4.75499 52.8656 5.13999 53.5806 5.81599L53.4386 7.03099Z" fill="#231F20"/>
<path d="M56.5609 15.256L55.6289 14.93L58.2589 7.43L56.2399 6.722L56.5419 5.854L61.5359 7.607L61.2319 8.473L59.1909 7.756L56.5609 15.256Z" fill="#231F20"/>
<path d="M68.729 8.64279L66.261 9.30279L65.918 8.72479L68.101 7.75879L68.729 8.64279ZM64.092 8.81979L68.071 11.1318L67.609 11.9258L64.486 10.1078L63.16 12.3888L66.19 14.1548L65.728 14.9458L62.697 13.1808L60.943 16.1908L64.066 18.0128L63.604 18.8068L59.627 16.4898L64.092 8.81979Z" fill="#231F20"/>
<path d="M69.0008 16.9741L69.2298 17.1791C70.0658 17.9211 71.0518 18.5151 71.9668 17.4851C72.9378 16.3941 72.2308 15.5771 71.3418 14.7861L71.1228 14.5911L69.0008 16.9741ZM65.8308 20.5391L65.0918 19.8811L70.9948 13.2451L71.9528 14.0981C73.2128 15.2171 74.0858 16.5921 72.7548 18.0881C71.8458 19.1101 70.5618 19.2611 69.4628 18.4411L68.9298 23.2931L68.0238 22.4871L68.6068 17.7901L68.4218 17.6281L65.8308 20.5391Z" fill="#231F20"/>
<path d="M70.3986 25.172L69.7656 24.415L76.5656 18.728L77.1986 19.486L70.3986 25.172Z" fill="#231F20"/>
<path d="M79.1476 21.9409L81.5686 25.8549L80.7886 26.3399L78.8876 23.2659L76.6446 24.6529L78.4916 27.6379L77.7096 28.1229L75.8626 25.1389L72.9006 26.9759L74.8036 30.0459L74.0246 30.5309L71.5996 26.6149L79.1476 21.9409Z" fill="#231F20"/>
<path d="M83.85 29.4712L78.948 38.2292L85.527 36.2062L85.818 37.1502L76.94 39.8832L81.834 31.1292L75.289 33.1392L74.998 32.1952L83.85 29.4712Z" fill="#231F20"/>
<path d="M54.8852 33.973C55.8752 34.787 56.3732 34.484 57.6732 35.172C58.1922 35.443 58.7442 36.289 58.1642 37.557C57.5892 38.819 55.6492 40.566 54.9882 40.773C54.3282 40.975 53.2332 40.768 52.2632 39.977C51.2982 39.188 49.7592 37.735 50.0022 36.931C50.2342 36.135 51.7312 34.526 52.2852 34.174C52.8452 33.821 53.9212 33.186 54.8852 33.973Z" fill="#231F20"/>
</svg>
